<?xml version="1.0" encoding="UTF-8"?>
<!DOCTYPE svg PUBLIC "-//W3C//DTD SVG 1.1//EN" "http://www.w3.org/Graphics/SVG/1.1/DTD/svg11.dtd">
<!-- Creator: CorelDRAW X7 -->
<svg xmlns="http://www.w3.org/2000/svg" xml:space="preserve" width="0.333331in" height="0.333331in" version="1.1" style="shape-rendering:geometricPrecision; text-rendering:geometricPrecision; image-rendering:optimizeQuality; fill-rule:evenodd; clip-rule:evenodd"
viewBox="0 0 100 100"
 xmlns:xlink="http://www.w3.org/1999/xlink">
 <defs>
  <style type="text/css">
   <![CDATA[
    .fil1 {fill:none;fill-rule:nonzero}
    .fil3 {fill:#691C00}
    .fil4 {fill:#FFE3B2}
    .fil0 {fill:#691C00;fill-rule:nonzero}
    .fil2 {fill:#FFE3B2;fill-rule:nonzero}
   ]]>
  </style>
 </defs>
 <g id="Layer_x0020_1">
  <metadata id="CorelCorpID_0Corel-Layer"/>
  <g id="_312339752">
   <path class="fil0" d="M49 14c11,0 20,4 27,11 7,7 12,17 12,28 0,10 -5,20 -12,27 -7,6 -16,11 -27,11 -11,0 -20,-5 -27,-11 -7,-7 -11,-17 -11,-27 0,-11 4,-21 11,-28 7,-7 16,-11 27,-11zm22 17c-6,-6 -13,-9 -22,-9 -8,0 -16,3 -21,9 -6,5 -9,13 -9,22 0,8 3,15 9,21 5,6 13,9 21,9 9,0 16,-3 22,-9 5,-6 9,-13 9,-21 0,-9 -4,-17 -9,-22z"/>
   <polygon class="fil1" points="0,100 100,100 100,0 0,0 "/>
   <path class="fil2" d="M50 11c11,0 20,5 27,12 7,7 12,16 12,27 0,11 -5,20 -12,27 -7,7 -16,12 -27,12 -11,0 -20,-5 -27,-12 -7,-7 -12,-16 -12,-27 0,-11 5,-20 12,-27 7,-7 16,-12 27,-12zm21 18c-5,-6 -12,-9 -21,-9 -8,0 -16,3 -21,9 -6,5 -9,13 -9,21 0,9 3,16 9,21 5,6 13,9 21,9 9,0 16,-3 21,-9 6,-5 9,-12 9,-21 0,-8 -3,-16 -9,-21z"/>
   <path class="fil3" d="M54 54c1,-1 1,-1 1,-3 0,0 0,0 1,-1l12 -11c0,0 -1,-1 -1,-2 -1,0 -2,1 -2,1l-4 3c-1,1 -2,1 -2,2l-6 3c-3,2 -1,1 -3,1 -5,0 -1,1 -7,-3l-4 -3 -2 2c1,0 1,0 1,1 0,0 0,0 1,0 0,1 1,2 1,2l4 5c0,0 0,0 0,0 0,0 0,1 0,1 0,1 0,2 1,3 1,2 4,3 6,2 2,-1 3,-2 3,-3z"/>
   <path class="fil4" d="M55 52c0,-1 0,-2 0,-3 1,0 1,0 1,-1l13 -11c0,0 -1,-2 -1,-2 -1,0 -2,1 -3,1l-4 3c0,1 -1,1 -2,2l-5 3c-3,2 -1,1 -3,1 -5,0 -1,2 -7,-3l-4 -4 -2 3c0,0 0,0 0,0 1,1 1,1 1,1 1,1 1,2 2,2l4 5c0,0 0,0 0,0 0,0 0,1 0,1 0,1 0,2 0,3 2,2 4,3 7,2 1,-1 2,-2 3,-3z"/>
  </g>
 </g>
</svg>
