<svg xmlns="http://www.w3.org/2000/svg" xml:space="preserve" width="100px" height="100px" version="1.1" style="shape-rendering:geometricPrecision; text-rendering:geometricPrecision; image-rendering:optimizeQuality; fill-rule:evenodd; clip-rule:evenodd" viewBox="0 0 100 100">
 <defs>
  <style type="text/css">
   <![CDATA[
    .fil0 {fill:none}
    .fil5 {fill:#EF7F1A}
    .fil4 {fill:#FFA100}
    .fil3 {fill:#FFE300}
    .fil2 {fill:#FFE300;fill-rule:nonzero}
    .fil1 {fill:black;fill-opacity:0.400000}
   ]]>
  </style>
   <clipPath id="id0">
    <rect x="-10705" y="-2710" width="8000" height="4500"/>
   </clipPath>
 </defs>
 <g id="Layer_x0020_1">
  <metadata id="CorelCorpID_0Corel-Layer"/>
  <rect class="fil0" width="100" height="100"/>
  <path class="fil1" d="M27 34l-12 -12c-2,-2 -2,-5 0,-7 2,-2 5,-2 7,0l12 12c0,0 1,0 1,0l-3 -8c-2,-3 0,-6 2,-7 3,-1 6,1 7,3l3 8c0,0 1,0 1,0l0 -17c0,-3 2,-5 5,-5 3,0 5,2 5,5l0 17c0,0 0,0 1,0l3 -8c1,-3 4,-4 6,-3 3,1 4,4 3,7l-3 8c0,0 0,0 0,0l13 -12c2,-2 5,-2 7,0 2,2 2,5 0,7l-13 12c1,0 1,1 1,1l8 -3c3,-2 6,0 7,2 1,3 -1,6 -3,7l-8 3c0,0 0,1 0,1l17 0c3,0 5,2 5,5 0,3 -2,5 -5,5l-17 0c0,0 0,0 0,0l8 4c3,1 4,4 3,6 -1,3 -4,4 -7,3l-8 -3c0,0 0,0 0,0l12 13c2,2 2,5 0,7 -2,2 -5,2 -7,0l-12 -13c0,1 -1,1 -1,1l3 8c2,3 0,6 -2,7 -3,1 -6,-1 -7,-3l-3 -8c0,0 -1,0 -1,0l0 17c0,3 -2,5 -5,5 -3,0 -5,-2 -5,-5l0 -17c0,0 0,0 -1,0l-3 8c-1,3 -4,4 -7,3 -2,-1 -3,-4 -2,-7l3 -8c0,0 0,0 -1,0l-12 12c-2,2 -5,2 -7,0 -2,-2 -2,-5 0,-7l12 -12c0,0 0,-1 0,-1l-8 3c-3,2 -6,0 -7,-2 -1,-3 1,-6 3,-7l8 -3c0,0 0,-1 0,-1l-17 0c-3,0 -5,-2 -5,-5 0,-3 2,-5 5,-5l17 0c0,0 0,0 0,-1l-8 -3c-3,-1 -4,-4 -3,-7 1,-2 4,-3 7,-2l8 3c0,0 0,0 0,-1z"/>
  <path class="fil2" d="M52 25c0,1 -1,3 -2,3 -1,0 -3,-2 -3,-3l0 -19c0,-2 2,-3 3,-3 1,0 2,1 2,3l0 19zm-9 1c0,1 -1,3 -2,3 -1,1 -3,0 -3,-1l-4 -10c-1,-1 0,-3 1,-3 1,-1 3,0 3,1l5 10zm32 26c-1,0 -3,-1 -3,-2 0,-1 2,-3 3,-3l19 0c2,0 3,2 3,3 0,1 -1,2 -3,2l-19 0zm-1 -9c-1,0 -3,-1 -3,-2 -1,-1 0,-3 1,-3l10 -4c1,-1 3,0 3,1 1,1 0,3 -1,3l-10 5zm-26 32c0,-1 1,-3 2,-3 1,0 3,2 3,3l0 19c0,2 -2,3 -3,3 -1,0 -2,-1 -2,-3l0 -19zm9 -1c0,-1 1,-3 2,-3 1,-1 2,0 3,1l4 10c1,1 0,3 -1,3 -1,1 -3,0 -3,-1l-5 -10zm-32 -26c1,0 3,1 3,2 0,1 -2,3 -3,3l-19 0c-2,0 -3,-2 -3,-3 0,-1 1,-2 3,-2l19 0zm1 9c1,0 3,1 3,2 1,1 0,2 -1,3l-10 4c-1,1 -3,0 -3,-1 -1,-1 0,-3 1,-3l10 -5zm5 9c1,-1 2,-1 3,0 1,1 1,2 0,3l-14 14c-1,1 -2,1 -3,0 -1,-1 -1,-2 0,-3l14 -14zm7 6c1,-1 2,-2 3,-1 2,0 2,2 2,3l-4 10c-1,1 -2,2 -3,1 -2,0 -2,-2 -2,-3l4 -10zm31 -38c-1,1 -2,1 -3,0 -1,-1 -1,-3 0,-3l13 -14c1,-1 3,-1 4,0 1,1 1,2 0,3l-14 14zm-7 -6c-1,1 -2,2 -4,1 -1,0 -1,-2 -1,-3l4 -10c1,-1 2,-2 3,-1 2,0 2,2 2,3l-4 10zm4 41c-1,-1 -1,-2 0,-3 1,-1 2,-1 3,0l14 13c1,1 1,3 0,4 -1,1 -2,1 -3,0l-14 -14zm6 -7c-1,-1 -2,-2 -1,-4 0,-1 2,-1 3,-1l10 4c1,1 2,2 1,3 0,2 -2,2 -3,2l-10 -4zm-38 -31c1,1 1,2 0,3 -1,1 -3,1 -3,0l-14 -14c-1,-1 -1,-2 0,-3 1,-1 2,-1 3,0l14 14zm-6 7c1,1 2,2 1,3 0,2 -2,2 -3,2l-10 -4c-1,-1 -2,-2 -1,-3 0,-2 2,-2 3,-2l10 4z"/>
  <circle class="fil3" cx="50" cy="50" r="31"/>
  <circle class="fil4" cx="50" cy="50" r="24"/>
  <g id="_134607704">
   <rect class="fil0" x="-6918" y="-505" width="100" height="100"/>
   <path class="fil1" d="M-6890 -471l-13 -12c-2,-2 -2,-5 0,-7 2,-2 6,-2 8,0l12 12c0,0 0,0 0,0l-3 -8c-1,-3 0,-6 3,-7 2,-1 5,1 6,3l3 8c1,0 1,0 1,0l0 -17c0,-3 3,-5 5,-5 3,0 5,2 5,5l0 17c0,0 1,0 1,0l3 -8c1,-3 4,-4 7,-3 2,1 4,4 3,7l-4 8c0,0 1,0 1,0l12 -12c2,-2 5,-2 7,0 2,2 2,5 0,7l-12 12c0,0 0,1 0,1l9 -3c2,-2 5,0 6,2 1,3 0,6 -3,7l-8 3c0,0 0,1 0,1l18 0c2,0 5,2 5,5 0,3 -3,5 -5,5l-18 0c0,0 0,0 0,0l8 4c3,1 4,4 3,6 -1,3 -4,4 -6,3l-8 -3c-1,0 -1,0 -1,0l12 13c2,2 2,5 0,7 -2,2 -5,2 -7,0l-12 -13c0,1 0,1 -1,1l4 8c1,3 0,6 -3,7 -2,1 -5,-1 -6,-3l-4 -8c0,0 0,0 0,0l0 17c0,3 -3,5 -5,5 -3,0 -5,-2 -5,-5l0 -17c-1,0 -1,0 -1,0l-4 8c-1,3 -3,4 -6,3 -3,-1 -4,-4 -3,-7l4 -8c-1,0 -1,0 -1,0l-12 12c-2,2 -5,2 -7,0 -2,-2 -2,-5 0,-7l12 -12c0,0 -1,-1 -1,-1l-8 3c-2,2 -5,0 -6,-2 -1,-3 0,-6 2,-7l8 -3c0,0 0,-1 0,-1l-17 0c-3,0 -5,-2 -5,-5 0,-3 2,-5 5,-5l17 0c0,0 0,0 0,-1l-8 -3c-2,-1 -3,-4 -2,-7 1,-2 4,-3 6,-2l8 3c0,0 0,0 1,-1z"/>
   <path class="fil2" d="M-6865 -480c0,1 -1,3 -3,3 -1,0 -2,-2 -2,-3l0 -19c0,-2 1,-3 2,-3 2,0 3,1 3,3l0 19zm-10 1c0,1 0,3 -1,3 -2,1 -3,0 -4,-1l-4 -10c0,-1 0,-3 2,-3 1,-1 2,0 3,1l4 10zm32 26c-1,0 -2,-1 -2,-2 0,-1 1,-3 2,-3l20 0c1,0 2,2 2,3 0,1 -1,2 -2,2l-20 0zm-1 -10c-1,1 -2,0 -3,-1 0,-1 0,-3 2,-3l9 -4c2,-1 3,0 4,1 0,1 0,3 -2,3l-10 4zm-26 33c0,-1 1,-3 3,-3 1,0 2,2 2,3l0 19c0,2 -1,3 -2,3 -2,0 -3,-1 -3,-3l0 -19zm10 -1c-1,-1 0,-3 1,-3 1,-1 3,0 3,1l5 10c0,1 -1,3 -2,3 -1,1 -2,0 -3,-1l-4 -10zm-33 -26c2,0 3,1 3,2 0,1 -1,3 -3,3l-19 0c-1,0 -2,-2 -2,-3 0,-1 1,-2 2,-2l19 0zm1 9c2,0 3,1 4,2 0,1 -1,2 -2,3l-10 4c-1,1 -2,0 -3,-1 0,-1 0,-3 1,-3l10 -5zm5 9c1,-1 3,-1 4,0 1,1 1,2 0,3l-14 14c-1,1 -3,1 -4,0 0,-1 0,-2 0,-3l14 -14zm8 6c0,-1 2,-2 3,-1 1,0 2,2 1,3l-4 10c0,1 -2,2 -3,1 -1,0 -2,-2 -1,-3l4 -10zm31 -38c-1,1 -3,1 -4,0 -1,-1 -1,-3 0,-3l14 -14c1,-1 2,-1 3,0 1,1 1,2 0,3l-13 14zm-8 -6c-1,1 -2,2 -3,1 -1,0 -2,-2 -1,-3l4 -10c0,-1 2,-2 3,-1 1,0 2,2 1,3l-4 10zm4 41c-1,-1 -1,-2 0,-3 1,-1 3,-1 4,0l14 13c1,1 1,3 0,4 -1,1 -3,1 -4,0l-14 -14zm7 -7c-2,-1 -2,-2 -2,-4 1,-1 2,-1 3,-1l11 4c1,1 1,2 1,3 -1,2 -2,2 -3,2l-10 -4zm-39 -31c1,1 1,2 0,3 -1,1 -2,1 -3,0l-14 -14c-1,-1 -1,-2 0,-3 1,-1 3,-1 4,0l13 14zm-6 7c1,1 2,2 1,3 0,2 -1,2 -3,2l-10 -4c-1,-1 -2,-2 -1,-3 1,-2 2,-2 3,-2l10 4z"/>
   <circle class="fil3" cx="-6868" cy="-455" r="31"/>
   <circle class="fil5" cx="-6868" cy="-455" r="24"/>
  </g>
 </g>
</svg>
