<svg xmlns="http://www.w3.org/2000/svg" xml:space="preserve" width="8.4666mm" height="8.4666mm" version="1.1" style="shape-rendering:geometricPrecision; text-rendering:geometricPrecision; image-rendering:optimizeQuality; fill-rule:evenodd; clip-rule:evenodd"
viewBox="0 0 847 847">
 <defs>
  <style type="text/css">
   <![CDATA[
    .fil0 {fill:none}
    .fil2 {fill:#969696}
    .fil1 {fill:black;fill-opacity:0.400000}
    .fil4 {fill:url(#id0)}
    .fil3 {fill:url(#id1)}
    .fil6 {fill:url(#id2)}
    .fil7 {fill:url(#id3)}
    .fil5 {fill:url(#id4)}
   ]]>
  </style>
  <radialGradient id="id0" gradientUnits="userSpaceOnUse" gradientTransform="matrix(0.82615 -0 -0 0.999998 106 0)" cx="612.04" cy="578.04" r="385.73" fx="612.04" fy="578.04">
   <stop offset="0" style="stop-opacity:1; stop-color:#FEFEFE"/>
   <stop offset="1" style="stop-opacity:1; stop-color:#ADAFB2"/>
  </radialGradient>
  <radialGradient id="id1" gradientUnits="userSpaceOnUse" gradientTransform="matrix(0.999985 -0 -0 0.572659 0 123)" cx="432.63" cy="288.68" r="1637.99" fx="432.63" fy="288.68">
  </radialGradient>
  <radialGradient id="id2" gradientUnits="userSpaceOnUse" gradientTransform="matrix(0.826073 -0 -0 0.999966 38 0)" cx="220.5" cy="562.36" r="385.73" fx="220.5" fy="562.36">
  </radialGradient>
  <radialGradient id="id3" gradientUnits="userSpaceOnUse" gradientTransform="matrix(0.826149 -0 -0 0.999966 133 0)" cx="765.27" cy="718.2" r="385.73" fx="765.27" fy="718.2">
  </radialGradient>
  <radialGradient id="id4" gradientUnits="userSpaceOnUse" gradientTransform="matrix(0.826073 -0 -0 0.99989 67 0)"  cx="385.15" cy="702.62" r="385.73" fx="385.15" fy="702.62">
  </radialGradient>
 </defs>
 <g id="Layer_x0020_1">
  <metadata id="CorelCorpID_0Corel-Layer"/>
  <g id="_419494936">
   <rect class="fil0" width="847" height="847"/>
   <g>
    <path class="fil1" d="M224 468l12 13c27,30 59,52 61,97 2,43 -35,72 -76,72 -41,1 -80,-30 -77,-74 3,-40 35,-66 59,-94l10 -11c-66,12 -137,-12 -177,-69 -63,-89 -26,-203 71,-244 5,-22 16,-42 31,-59 31,-37 79,-56 127,-58 45,-2 90,12 125,41 22,-12 51,-14 75,-11 36,4 69,20 93,46 55,-19 114,-12 160,26 17,13 30,30 40,48 19,24 30,53 32,84 2,39 -8,76 -35,105 -28,32 -68,49 -109,54 -18,4 -36,6 -54,6 -29,31 -64,50 -102,58 -74,32 -163,18 -232,-33 -9,1 -18,1 -26,1 -3,1 -6,2 -8,2zm403 16c32,34 70,61 72,113 2,49 -39,82 -86,82 -47,1 -92,-34 -88,-84 3,-47 41,-78 70,-111l16 -18 16 18zm-226 138c27,29 59,52 61,96 1,43 -35,72 -76,73 -42,0 -80,-31 -77,-75 3,-40 34,-66 59,-94l16 -18 17 18zm380 15c27,29 59,52 61,97 1,43 -35,72 -76,72 -41,0 -80,-30 -77,-74 3,-40 34,-66 59,-94l16 -19 17 18z"/>
    <g>
     <path class="fil2" d="M126 175c17,-112 176,-153 262,-65 28,-27 116,-30 164,33 102,-45 199,24 205,121 7,113 -99,167 -197,151 -74,101 -214,101 -306,18 -72,39 -158,16 -200,-44 -58,-82 -18,-184 72,-214z"/>
     <path class="fil3" d="M188 197c16,-100 162,-136 241,-58 26,-24 107,-27 150,29 95,-40 183,22 189,108 6,101 -90,150 -181,135 -68,90 -197,90 -281,16 -66,35 -145,15 -184,-39 -53,-73 -16,-165 66,-191z"/>
     <path class="fil4" d="M611 499c26,28 65,55 66,99 2,36 -30,59 -64,59 -35,0 -69,-23 -66,-61 3,-38 41,-71 64,-97z"/>
     <path class="fil5" d="M384 637c22,23 54,46 56,82 1,31 -26,49 -54,49 -29,1 -57,-19 -55,-50 2,-32 34,-59 53,-81z"/>
     <path class="fil6" d="M220 497c22,23 53,46 55,82 1,30 -26,49 -54,49 -29,0 -57,-19 -55,-50 3,-33 35,-60 54,-81z"/>
     <path class="fil7" d="M765 652c21,23 53,46 55,83 1,30 -26,49 -54,49 -29,0 -57,-20 -55,-50 2,-33 35,-60 54,-82z"/>
    </g>
   </g>
  </g>
 </g>
</svg>
