<svg xmlns="http://www.w3.org/2000/svg" xml:space="preserve" width="8.4666mm" height="8.4666mm" version="1.1" style="shape-rendering:geometricPrecision; text-rendering:geometricPrecision; image-rendering:optimizeQuality; fill-rule:evenodd; clip-rule:evenodd"
viewBox="0 0 847 847">
 <defs>
  <style type="text/css">
   <![CDATA[
    .fil0 {fill:none;fill-rule:nonzero}
    .fil1 {fill:#B32F16}
    .fil2 {fill:#E38526}
   ]]>
  </style>
 </defs>
 <g id="Layer_x0020_1">
  <metadata id="CorelCorpID_0Corel-Layer"/>
  <g id="_500172032">
   <polygon class="fil0" points="0,847 847,847 847,0 0,0 "/>
   <path class="fil1" d="M88 88l195 0 0 195 -195 0 0 -195zm238 0l195 0 0 195 -195 0 0 -195zm238 0l195 0 0 195 -195 0 0 -195zm-435 121l27 -2c2,9 5,16 10,20 5,4 12,6 20,6 9,0 16,-2 21,-5 4,-4 6,-9 6,-14 0,-3 -1,-6 -3,-8 -1,-2 -5,-4 -10,-6 -3,-1 -10,-3 -22,-6 -15,-4 -25,-8 -31,-14 -9,-8 -13,-17 -13,-28 0,-7 2,-13 6,-20 4,-6 10,-10 17,-14 8,-3 17,-4 27,-4 18,0 31,3 40,11 8,8 13,18 13,31l-28 1c-1,-7 -3,-12 -7,-16 -4,-3 -10,-4 -18,-4 -8,0 -14,1 -19,5 -3,2 -4,5 -4,8 0,4 1,6 4,9 3,3 12,6 26,9 13,3 23,7 30,10 6,3 11,8 15,14 4,6 5,13 5,22 0,8 -2,15 -6,22 -5,7 -11,12 -19,16 -8,3 -18,5 -30,5 -18,0 -31,-4 -40,-12 -10,-8 -15,-20 -17,-36zm228 45l0 -138 42 0 24 94 25 -94 42 0 0 138 -26 0 0 -109 -27 109 -27 0 -27 -109 0 109 -26 0zm291 0l0 -115 -41 0 0 -23 109 0 0 23 -40 0 0 115 -28 0z"/>
   <path class="fil2" d="M88 564l195 0 0 195 -195 0 0 -195zm238 0l195 0 0 195 -195 0 0 -195zm238 -238l195 0 0 195 -195 0 0 -195zm-238 0l195 0 0 195 -195 0 0 -195zm-238 0l195 0 0 195 -195 0 0 -195zm476 238l195 0 0 195 -195 0 0 -195z"/>
  </g>
 </g>
</svg>
