<svg enable-background="new 0 0 1000 1000" version="1.1" viewBox="0 0 1e3 1e3" xml:space="preserve" xmlns="http://www.w3.org/2000/svg">
<g><rect x=".049744" y=".049713" width="999.9" height="999.9" ry="0" fill="none" stroke="#fff" stroke-width=".099454" style="paint-order:markers fill stroke"/><g transform="matrix(.1 0 0 -.1 0 511)"><path d="m8767.5 3105.1c-27.57-16.062-68.805-55.02-91.819-84.867-36.68-52.742-38.957-178.96-45.91-1640.3-4.555-869.53 0-1638 6.8325-1706.8 11.507-94.097 32.125-139.89 80.312-190.47l64.25-64.25h903.93l156.07 156.07v3400l-66.527 73.48-66.527 75.757-445.07 4.555c-328.08 4.3152-456.58-0.2398-495.54-23.135z" fill="#784421" stroke-width="1.1987"/><g transform="matrix(1.1987 0 0 1.1987 -2070.7 -1962.6)"><g transform="matrix(8.2739 -1.9858 -1.9858 -8.2739 934.76 5250.2)"><rect class="st0" transform="matrix(.067229 -.9977 .9977 .067229 48.308 950.54)" x="387.5" y="181.1" width="290.1" height="536.7" fill="#2c7636"/><path class="st1" d="m791 382.7c-21.9-6.9-38.4-25.4-42.8-47.9l-414.2-27.9c-7.4 21.7-26.1 37.8-48.8 41.7l-10.8 161.4c23.9 7.5 41.3 28.8 43.6 54.1l411.6 27.7c5.7-24.7 25.8-43.4 50.5-47.7z" fill="#009245"/><circle class="st0" transform="matrix(.067229 -.9977 .9977 .067229 48.265 950.53)" cx="532.5" cy="449.4" r="113.9" fill="#2c7636"/><text transform="rotate(8.8178)" x="524.26709" y="445.61591" fill="#009245" font-family="sans-serif" font-size="207.26px" stroke-width="5.1816" style="line-height:1.25" xml:space="preserve"><tspan x="524.26709" y="445.61591" fill="#009245" stroke-width="5.1816">₹</tspan></text></g><g transform="matrix(8.2739 -1.9858 -1.9858 -8.2739 1447.2 4054.1)"><rect class="st2" transform="matrix(.9922 -.1244 .1244 .9922 -39.089 56.686)" x="166" y="196.3" width="536.7" height="290.1" fill="#2c7636"/><path class="st3" d="m675.3 226.5c-22.8-2.6-42.5-17.6-51.1-38.8l-411.9 51.6c-3.1 22.7-18.4 42.1-39.9 50.3l20.1 160.4c24.9 2.8 46 20.4 53.2 44.7l409.3-51.3c0.9-25.3 17-47.6 40.5-56.5z" fill="#009245"/><circle class="st2" transform="matrix(.9922 -.1244 .1244 .9922 -39.084 56.678)" cx="434.3" cy="341.3" r="113.9" fill="#2c7636"/><text transform="rotate(-8.9277)" x="305.42432" y="487.79102" fill="#009245" font-family="sans-serif" font-size="207.26px" stroke-width="5.1816" style="line-height:1.25" xml:space="preserve"><tspan x="305.42432" y="487.79102" fill="#009245" stroke-width="5.1816">₹</tspan></text></g></g><path d="m8148 2692-50.465-52.742v-1355.8c0-745.58 6.8325-1374.2 13.785-1394.9 22.895-57.297 135.33-103.21 261.55-103.21h114.71v2959.6h-144.56c-121.55 0-153.67-9.2299-195.03-52.862z" fill="#784421" stroke-width="1.1987"/><path d="m4823.9 2320.4c-133.05-29.847-1053-440.52-1509.6-672.22-451.9-231.71-718.01-621.76-775.43-1144.7l-11.507-98.652 139.89-43.632c78.034-22.895 509.32-158.35 958.95-298.23 447.35-139.89 823.62-254.6 837.4-254.6 11.507 2.2775 84.867 107.88 165.18 238.54 78.034 130.78 190.47 293.68 250.05 357.93 103.21 114.71 495.54 435.84 534.49 435.84 9.2298 0 29.847-16.062 45.91-36.68 36.68-41.235 41.235-34.402-231.71-252.32-110.16-87.144-236.26-201.86-279.89-257-133.05-155.95-399.16-603.42-429.01-715.74-89.422-334.91 199.58-669.95 548.28-637.82 206.53 20.617 314.3 96.374 541.45 378.54 208.81 259.28 298.23 334.91 958.95 839.68l201.86 153.67h1190.7v2041.8l-1495.8-2.2775c-1160.6 0-1529.9-9.2298-1640-32.125z" fill="#e7a342" stroke="#ac6e31" stroke-width="70"/></g></g>
</svg>
