<?xml version="1.0" encoding="UTF-8" standalone="no"?>
<svg xmlns="http://www.w3.org/2000/svg" version="1.1" x="0px" y="0px" viewBox="0 0 120 120" xml:space="preserve" width="120" height="120">
<g transform="matrix(0.89179675,0,0,0.89179675,5.4310343,6.5122127)">
	<path d="m 45.70363,34.92 -0.25,0.06 c -0.36,0.12 -0.7,0.19 -1.01,0.21 -0.34,0.02 -0.66,0 -0.96,-0.06 -0.86,-0.17 -2.14,-0.97 -3.52,-1.83 -1.54,-0.96 -3.19,-1.98 -4.94,-2.57 -1.18,-0.4 -5.3,-0.67 -9.22,-0.75 -4.46,-0.1 -8.89,0.28 -9.34,1.18 -0.35,0.69 -0.57,1.58 -0.49,2.57 0.06,0.79 0.31,1.64 0.82,2.5 1.17,1.97 3.28,3.43 5.28,4.8 2.03,1.39 3.89,2.67 3.58,3.63 -0.02,0.08 -0.22,0.25 -0.52,0.49 -0.44,0.35 -1.08,0.76 -1.75,1.17 -2.69,1.64 -4.79,3.38 -6.57,5.43 -1.76,2.03 -3.22,4.35 -4.65,7.2 -0.42,0.83 -0.82,1.68 -1.2,2.56 -0.41,0.94 -0.8,1.89 -1.1700003,2.85 l -0.08,0.31 c -0.22,1.31 -0.51,2.31 -0.9,2.92 -0.19,0.3 -0.37,0.45 -0.54,0.45 l -0.05,-0.01 h -2.1 c -0.34,0 -0.61,-0.02 -0.85,-0.03 -2,-0.14 -3.12,-0.21 -4.28999999,2.79 -0.81,2.08 -1.08,4.98 -0.96,7.87 0.13,3.11 0.7,6.28 1.52999999,8.45 0.3,1.43 0.95,2.57 1.96,3.41 1.01,0.83 2.33,1.33 3.98,1.46 l 0.13,0.01 h 2.34 c 1.0200003,0 1.9100003,-0.04 2.5700003,-0.06 0.63,-0.02 0.76,-0.11 0.84,-0.07 0.12,0.06 -0.03,0.07 0.14,0.29 0.42,0.58 1.09,1.5 2.5,2.96 1.01,1.04 2.18,2.19 3.3,3.25 1.04,0.98 2.08,1.91 2.94,2.63 l 0.53,0.44 c 0.97,0.8 1.44,1.19 1.46,1.31 0.04,0.23 -0.25,0.93 -0.82,2.3 -0.24,0.58 -0.39,0.93 -0.44,1.06 -0.57,1.4 -1.14,2.76 -1.66,3.95 -0.87,2.01 -1.83,4.13 -2.14,4.83 l -0.03,0.07 c -0.71,1.8 -0.55,3.17 0.44,4.15 0.84,0.83 2.17,1.15 3.97,1.01 h 8.43 c 1.18,0.08 2.3,-0.17 3.35,-0.77 1,-0.57 1.91,-1.43 2.73,-2.58 l 0.08,-0.13 c 0.31,-0.54 0.63,-1.25 0.97,-2.01 0.83,-1.84 1.85,-4.13 2.68,-3.8 5.72,2.23 11.31,3.56 17.36,3.76 5.98,0.2 12.38,-0.7 19.77,-2.94 2.12,-0.3 2.55,0.6 3.23,2.02 0.19,0.4 0.39,0.83 0.67,1.36 v 0 c 0.17,0.35 0.23,0.49 0.3,0.62 0.98,2.09 1.92,4.11 4.85,4.7 l 0.32,0.03 10.89,-0.08 h 0.11 c 0.67,-0.05 1.26,-0.2 1.78,-0.48 0.6,-0.31 1.06,-0.76 1.39,-1.36 0.97,-1.77 0.32,-3.11 -0.34,-4.46 h 0.01 c -0.11,-0.23 -0.23,-0.47 -0.26,-0.53 l -0.01,-0.01 -3.83,-8.38 -0.07,-0.14 c -0.4,-0.69 -0.55,-1.26 -0.46,-1.7 0.09,-0.43 0.41,-0.85 0.94,-1.26 v 0 c 0.76,-0.54 1.5,-1.1 2.21,-1.67 0.74,-0.59 1.44,-1.2 2.12,-1.82 2.25,-2.06 4.33,-4.48 6.11,-7.14 1.71,-2.55 3.15,-5.33 4.19,-8.23 0.81,-2.27 1.38,-4.6 1.66,-6.94 0.06,-0.54 0.11,-1.09 0.14,-1.63 3.53,-1.7 6.02,-4.73 7.22,-8.73 1.21,-4.07 1.06,-9.13 -0.74,-14.77 l -3.06,0.98 c 1.6,4.99 1.75,9.4 0.72,12.87 -0.77,2.56 -2.2,4.61 -4.19,5.98 -0.04,-0.48 -0.1,-0.97 -0.17,-1.45 -0.76,-5.24 -2.79,-10.12 -5.69,-14.45 -14.05,-20.92 -40.45,-23.69 -63.27,-20.05 z" style="display:inline;fill:#d07616;fill-opacity:1;stroke:#bb6509;stroke-opacity:1"/>
	<path d="m 28.27363,62.3 c -1.44,0 -2.74,0.58 -3.68,1.52 -0.94,0.94 -1.52,2.24 -1.52,3.68 0,1.44 0.58,2.74 1.52,3.68 0.94,0.94 2.24,1.52 3.68,1.52 1.43,0 2.73,-0.58 3.67,-1.52 0.98,-0.97 1.52,-2.29 1.52,-3.67 0,-1.44 -0.58,-2.74 -1.52,-3.68 -0.97,-0.98 -2.28,-1.53 -3.67,-1.53 z m 53.72,-13.11 c 1.44,0.49 3,-0.27 3.49,-1.7 0.49,-1.44 -0.27,-3 -1.7,-3.49 -6.16,-2.13 -12.4,-3.12 -18.69,-3.09 -6.28,0.04 -12.6,1.09 -18.93,3.06 -1.45,0.45 -2.27,1.99 -1.82,3.44 0.45,1.45 1.99,2.27 3.44,1.82 5.85,-1.81 11.63,-2.79 17.34,-2.82 5.68,-0.04 11.32,0.86 16.87,2.78 z" style="display:inline;fill:#945109;fill-opacity:1" />
	<g transform="rotate(9.7876383,146.64561,74.905178)">
	<g transform="matrix(0.08226109,0,0,0.08226109,51.143509,-5.433355)">
		<rect x="166" y="196.3" transform="matrix(0.9922,-0.1244,0.1244,0.9922,-39.0886,56.6858)" width="536.70001" height="290.10001" style="fill:#2c7636;fill-opacity:1" />
		<path d="m 675.3,226.5 c -22.8,-2.6 -42.5,-17.6 -51.1,-38.8 l -411.9,51.6 c -3.1,22.7 -18.4,42.1 -39.9,50.3 L 192.5,450 c 24.9,2.8 46,20.4 53.2,44.7 L 655,443.4 c 0.9,-25.3 17,-47.6 40.5,-56.5 z" style="fill:#009245;fill-opacity:1" />
		<circle transform="matrix(0.9922,-0.1244,0.1244,0.9922,-39.0837,56.6785)" cx="434.29999" cy="341.29999" r="113.9" style="fill:#2c7636;fill-opacity:1" />
		<text xml:space="preserve" style="font-style:normal;font-weight:normal;font-size:207.264px;line-height:1.25;font-family:sans-serif;fill:#009245;fill-opacity:1;stroke:none;stroke-width:5.18161" x="305.42432" y="487.79102" transform="rotate(-8.9277187)">
			<tspan x="305.42432" y="487.79102" style="fill:#009245;fill-opacity:1;stroke-width:5.18161">₹</tspan></text></g>
		<g transform="matrix(0.08226109,0,0,0.08226109,43.627074,-15.521588)"><rect x="387.5" y="181.10001" transform="matrix(0.067229,-0.9977,0.9977,0.067229,48.3078,950.5419)" width="290.10001" height="536.70001" style="fill:#2c7636;fill-opacity:1" /><path d="m 791,382.7 c -21.9,-6.9 -38.4,-25.4 -42.8,-47.9 L 334,306.9 c -7.4,21.7 -26.1,37.8 -48.8,41.7 L 274.4,510 c 23.9,7.5 41.3,28.8 43.6,54.1 l 411.6,27.7 c 5.7,-24.7 25.8,-43.4 50.5,-47.7 z" style="fill:#009245;fill-opacity:1" /><circle transform="matrix(0.067229,-0.9977,0.9977,0.067229,48.2649,950.5255)" cx="532.5" cy="449.39999" r="113.9" style="fill:#2c7636;fill-opacity:1" /><text xml:space="preserve" style="font-style:normal;font-weight:normal;font-size:207.264px;line-height:1.25;font-family:sans-serif;fill:#009245;fill-opacity:1;stroke:none;stroke-width:5.18161" x="524.26709" y="445.61591" transform="rotate(8.8177573)"><tspan  x="524.26709" y="445.61591" style="fill:#009245;fill-opacity:1;stroke-width:5.18161">₹</tspan></text></g></g></g><g style="display:inline" transform="matrix(0.097371,0,0,0.097371,-155.03048,-45.232011)"><circle cx="2261.345" cy="732.40894" r="198.41531" style="fill:#f8c800;fill-opacity:1;stroke-width:2.06468" /><circle cx="2261.345" cy="732.40894" r="149.27605" id="circle46" style="fill:#ffed33;fill-opacity:1;stroke-width:2.06468" /><path d="m 2122.8054,749.33923 c 0,-82.38056 66.8955,-149.27605 149.2761,-149.27605 49.9651,0 94.1492,24.77611 121.1964,62.55967 -24.9825,-47.28107 -74.7412,-79.49001 -131.7263,-79.49001 -82.3805,0 -149.276,66.89549 -149.276,149.27605 0,32.4154 10.3234,62.3532 27.8731,86.71637 -11.1492,-20.64675 -17.3433,-44.39052 -17.3433,-69.78603 z" style="fill:#fbb03b;fill-opacity:1;stroke-width:2.06468" /><g transform="matrix(2.0646756,0,0,2.0646756,972.36819,-466.54821)" style="display:inline"><text xml:space="preserve" style="font-style:normal;font-weight:normal;font-size:130.564px;line-height:1.25;font-family:sans-serif;display:inline;fill:#fb9e40;fill-opacity:1;stroke:none;stroke-width:3.264;stroke-miterlimit:4;stroke-dasharray:none;stroke-opacity:1" x="576.646" y="647.60175" transform="rotate(-0.86058345)"><tspan x="576.646" y="647.60175" style="fill:#fb9e40;fill-opacity:1;stroke:none;stroke-width:3.264;stroke-miterlimit:4;stroke-dasharray:none;stroke-opacity:1">₹</tspan></text><text xml:space="preserve" style="font-style:normal;font-weight:normal;font-size:130.564px;line-height:1.25;font-family:sans-serif;display:inline;fill:#f8c701;fill-opacity:1;stroke:none;stroke-width:3.264;stroke-miterlimit:4;stroke-dasharray:none;stroke-opacity:1" x="572.70648" y="643.54218" transform="rotate(-0.86058345)"><tspan x="572.70648" y="643.54218" style="fill:#f8c701;fill-opacity:1;stroke:none;stroke-width:3.264;stroke-miterlimit:4;stroke-dasharray:none;stroke-opacity:1">₹</tspan></text></g></g>
</svg>