<svg enable-background="new 0 0 1000 1000" version="1.1" viewBox="0 0 1e3 1e3" xml:space="preserve" xmlns="http://www.w3.org/2000/svg">
<g><rect x=".049744" y=".049713" width="999.9" height="999.9" ry="0" fill="none" stroke="#fff" stroke-width=".099454" style="paint-order:markers fill stroke"/><g transform="matrix(.1 0 0 -.1 0 511)"><path d="m9041.7 4291.1c-23-13.4-57.4-45.9-76.6-70.8-30.6-44-32.5-149.3-38.3-1368.4-3.8-725.4 0-1366.5 5.7-1423.9 9.6-78.5 26.8-116.7 67-158.9l53.6-53.6h754.1l130.2 130.2v2836.4l-55.5 61.3-55.5 63.2-371.3 3.8c-273.7 3.6-380.9-0.2-413.4-19.3z" fill="#784421"/><g transform="translate(0,60)"><g transform="matrix(8.2739 -1.9858 -1.9858 -8.2739 934.76 5250.2)"><rect class="st0" transform="matrix(.067229 -.9977 .9977 .067229 48.308 950.54)" x="387.5" y="181.1" width="290.1" height="536.7" fill="#2c7636"/><path class="st1" d="m791 382.7c-21.9-6.9-38.4-25.4-42.8-47.9l-414.2-27.9c-7.4 21.7-26.1 37.8-48.8 41.7l-10.8 161.4c23.9 7.5 41.3 28.8 43.6 54.1l411.6 27.7c5.7-24.7 25.8-43.4 50.5-47.7z" fill="#009245"/><circle class="st0" transform="matrix(.067229 -.9977 .9977 .067229 48.265 950.53)" cx="532.5" cy="449.4" r="113.9" fill="#2c7636"/><text transform="rotate(8.8178)" x="524.26709" y="445.61591" fill="#009245" font-family="sans-serif" font-size="207.26px" stroke-width="5.1816" style="line-height:1.25" xml:space="preserve"><tspan x="524.26709" y="445.61591" fill="#009245" stroke-width="5.1816">₹</tspan></text></g><g transform="matrix(8.2739 -1.9858 -1.9858 -8.2739 1447.2 4054.1)"><rect class="st2" transform="matrix(.9922 -.1244 .1244 .9922 -39.089 56.686)" x="166" y="196.3" width="536.7" height="290.1" fill="#2c7636"/><path class="st3" d="m675.3 226.5c-22.8-2.6-42.5-17.6-51.1-38.8l-411.9 51.6c-3.1 22.7-18.4 42.1-39.9 50.3l20.1 160.4c24.9 2.8 46 20.4 53.2 44.7l409.3-51.3c0.9-25.3 17-47.6 40.5-56.5z" fill="#009245"/><circle class="st2" transform="matrix(.9922 -.1244 .1244 .9922 -39.084 56.678)" cx="434.3" cy="341.3" r="113.9" fill="#2c7636"/><text transform="rotate(-8.9277)" x="305.42432" y="487.79102" fill="#009245" font-family="sans-serif" font-size="207.26px" stroke-width="5.1816" style="line-height:1.25" xml:space="preserve"><tspan x="305.42432" y="487.79102" fill="#009245" stroke-width="5.1816">₹</tspan></text></g></g><path d="m8524.9 3946.5-42.1-44v-1131.1c0-622 5.7-1146.4 11.5-1163.7 19.1-47.8 112.9-86.1 218.2-86.1h95.7v2469h-120.6c-101.4 0-128.2-7.7-162.7-44.1z" fill="#784421"/><path d="m5751.7 3636.5c-111-24.9-878.5-367.5-1259.4-560.8-377-193.3-599-518.7-646.9-955l-9.6-82.3 116.7-36.4c65.1-19.1 424.9-132.1 800-248.8 373.2-116.7 687.1-212.4 698.6-212.4 9.6 1.9 70.8 90 137.8 199 65.1 109.1 158.9 245 208.6 298.6 86.1 95.7 413.4 363.6 445.9 363.6 7.7 0 24.9-13.4 38.3-30.6 30.6-34.4 34.4-28.7-193.3-210.5-91.9-72.7-197.1-168.4-233.5-214.4-111-130.1-333-503.4-357.9-597.1-74.6-279.4 166.5-558.9 457.4-532.1 172.3 17.2 262.2 80.4 451.7 315.8 174.2 216.3 248.8 279.4 800 700.5l168.4 128.2h993.3v1703.4l-1247.9-1.9c-968.2 0-1276.3-7.7-1368.2-26.8z" fill="#e7a342" stroke="#ac6e31" stroke-width="50"/><path d="m162.88-594.21c-34.5-21.1-70.8-61.2-80.4-88-28.7-72.7-24.9-2811.5 1.9-2865.1 53.6-103.4 74.6-109.1 482.3-109.1h380.9l55.5 55.5c53.6 53.6 55.5 63.2 57.4 235.4v1429.7l1.9 1251.7-118.6 118.6-359.8 5.7c-331.2 3.9-361.8 2-421.1-34.4z" fill="#784421"/><path d="m1192.6-2117.7v-1236.4l126.3 7.7c216.3 13.4 199-91.9 199 1234.5v1136.9l-47.8 45.9c-38.3 40.2-65.1 47.9-162.7 47.9h-114.8z" fill="#784421"/><path d="m1655.7-2154 5.7-911 210.5-72.7c116.8-40.2 409.6-168.4 650.7-283.3 754.1-363.6 1226.8-553.1 1423.9-572.2 88-9.6 135.9 0 271.8 47.8 369.4 132.1 2252.7 922.5 2356 987.6 105.3 68.9 174.2 223.9 166.5 375.1l-7.7 118.7 269.9 126.3c323.5 151.2 357.9 174.2 419.2 267.9 185.7 279.4-42.1 660.3-377 629.7-82.3-7.7-319.6-111-1251.7-547.4-656.5-308.1-1175.2-539.7-1205.8-539.7-55.5 0-1085.2 132.1-1092.8 141.6-1.9 1.9 312 40.2 696.7 86.1 386.6 45.9 731.1 91.9 765.6 101.4 157 42.1 277.5 218.2 275.6 400 0 160.8-36.4 264.1-126.3 354.1-141.6 139.7-160.8 141.6-945.5 49.8-375.1-44-721.5-80.4-769.4-80.4-49.8 0-457.4 51.7-909.1 114.8-451.7 63.2-823 114.8-824.9 114.8-3.8 0.1-3.8-409.5-1.9-909z" fill="#e7a342" stroke="#ac6e31" stroke-width="50"/></g></g>
</svg>
