<svg width="100" height="100" enable-background="new 0 0 1000 1000" version="1.1" viewBox="0 0 100 100" xml:space="preserve" xmlns="http://www.w3.org/2000/svg">
<g transform="matrix(.099385 0 0 .099385 .47103 .050875)"><rect x=".049744" y=".049713" width="999.9" height="999.9" ry="0" fill="none" stroke="#fff" stroke-width=".099454" style="paint-order:markers fill stroke"/><g transform="matrix(.1 0 0 -.1 0 555)"><path d="m776.96 711.54c-39.417-24.107-80.891-69.923-91.859-100.54-32.791-83.062-28.449-3212.2 2.1708-3273.5 61.239-118.14 85.233-124.65 551.04-124.65h435.19l63.41 63.41c61.239 61.24 63.41 72.208 65.581 268.95v1633.5l2.1708 1430.1-135.5 135.5-411.08 6.5124c-378.41 4.4559-413.37 2.2851-481.12-39.303z" fill="#784421" stroke-width="1.1425"/><path d="m1953.4-1029.1v-1412.6l144.3 8.7974c247.13 15.31 227.36-105 227.36 1410.5v1298.9l-54.613 52.442c-43.759 45.93-74.379 54.727-185.89 54.727h-131.16z" fill="#784421" stroke-width="1.1425"/><path d="m2482.5-1070.6 6.5125-1040.8 240.5-83.062c133.45-45.93 467.98-192.4 743.44-323.68 861.58-415.42 1401.7-631.93 1626.8-653.75 100.54-10.968 155.27 0 310.54 54.613 422.05 150.93 2573.8 1054 2691.8 1128.4 120.31 78.72 199.03 255.81 190.23 428.56l-8.7975 135.62 308.37 144.3c369.61 172.75 408.91 199.03 478.95 306.08 212.17 319.22-48.1 754.41-430.73 719.45-94.03-8.7974-365.15-126.82-1430.1-625.42-750.07-352.01-1342.7-616.62-1377.7-616.62-63.41 0-1239.9 150.93-1248.6 161.78-2.1708 2.1708 356.47 45.93 796 98.372 441.7 52.442 835.3 105 874.72 115.85 179.38 48.1 317.05 249.3 314.88 457.01 0 183.72-41.588 301.74-144.3 404.57-161.78 159.61-183.72 161.78-1080.3 56.898-428.56-50.271-824.33-91.859-879.06-91.859-56.898 0-522.59 59.069-1038.7 131.16-516.08 72.208-940.3 131.16-942.47 131.16-4.3417 0.11425-4.3417-467.87-2.1709-1038.6z" fill="#e7a342" fill-opacity=".8" stroke="#ac6e31" stroke-width="60"/></g></g>
<g transform="matrix(.099385 0 0 .099385 -152.67 -42.982)"><g stroke-width="2.0647"><circle class="st4" cx="2261.3" cy="732.41" r="198.42" fill="#f8c800"/><circle class="st5" cx="2261.3" cy="732.41" r="149.28" fill="#ffed33"/><path class="st6" d="m2122.8 749.34c0-82.381 66.896-149.28 149.28-149.28 49.965 0 94.149 24.776 121.2 62.56-24.982-47.281-74.741-79.49-131.73-79.49-82.38 0-149.28 66.895-149.28 149.28 0 32.415 10.323 62.353 27.873 86.716-11.149-20.647-17.343-44.391-17.343-69.786z" fill="#fbb03b"/></g><g transform="matrix(2.0647 0 0 2.0647 972.37 -466.55)" font-family="sans-serif" font-size="130.56px" stroke-width="3.264"><text transform="rotate(-.86058)" x="576.646" y="647.60175" fill="#fb9e40" style="line-height:1.25" xml:space="preserve"><tspan x="576.646" y="647.60175" fill="#fb9e40" stroke-width="3.264">₹</tspan></text><text transform="rotate(-.86058)" x="572.70648" y="643.54218" fill="#f8c701" style="line-height:1.25" xml:space="preserve"><tspan x="572.70648" y="643.54218" fill="#f8c701" stroke-width="3.264">₹</tspan></text></g></g><g transform="matrix(.099385 0 0 .099385 -161.32 -38.554)"><g stroke-width="2.0647"><circle class="st4" cx="2261.3" cy="732.41" r="198.42" fill="#f8c800"/><circle class="st5" cx="2261.3" cy="732.41" r="149.28" fill="#ffed33"/><path class="st6" d="m2122.8 749.34c0-82.381 66.896-149.28 149.28-149.28 49.965 0 94.149 24.776 121.2 62.56-24.982-47.281-74.741-79.49-131.73-79.49-82.38 0-149.28 66.895-149.28 149.28 0 32.415 10.323 62.353 27.873 86.716-11.149-20.647-17.343-44.391-17.343-69.786z" fill="#fbb03b"/></g><g transform="matrix(2.0647 0 0 2.0647 972.37 -466.55)" font-family="sans-serif" font-size="130.56px" stroke-width="3.264"><text transform="rotate(-.86058)" x="576.646" y="647.60175" fill="#fb9e40" style="line-height:1.25" xml:space="preserve"><tspan x="576.646" y="647.60175" fill="#fb9e40" stroke-width="3.264">₹</tspan></text><text transform="rotate(-.86058)" x="572.70648" y="643.54218" fill="#f8c701" style="line-height:1.25" xml:space="preserve"><tspan x="572.70648" y="643.54218" fill="#f8c701" stroke-width="3.264">₹</tspan></text></g></g>
</svg>