<?xml version="1.0" encoding="utf-8"?>
<!-- Generator: Adobe Illustrator 14.0.0, SVG Export Plug-In . SVG Version: 6.00 Build 43363)  -->
<!DOCTYPE svg PUBLIC "-//W3C//DTD SVG 1.1//EN" "http://www.w3.org/Graphics/SVG/1.1/DTD/svg11.dtd">
<svg version="1.1" id="Layer_1" xmlns="http://www.w3.org/2000/svg" xmlns:xlink="http://www.w3.org/1999/xlink" x="0px" y="0px"
	 width="37px" height="14px" viewBox="0 0 37 14" enable-background="new 0 0 37 14" xml:space="preserve">
<path opacity="0.2" fill-rule="evenodd" clip-rule="evenodd" fill="#000002" d="M1.276,2.351c9.375,0,25.855-0.122,35.23-0.122
	c0,5.183,0.108,7.397,0.083,11.543c-9.172,0.293-26.135,0.159-35.51,0.159C1.079,8.749,1.276,7.533,1.276,2.351z"/>
<linearGradient id="SVGID_1_" gradientUnits="userSpaceOnUse" x1="32.1523" y1="10.2188" x2="1.9902" y2="4.3558">
	<stop  offset="0" style="stop-color:#F1F2F2"/>
	<stop  offset="1" style="stop-color:#C7C8CA"/>
</linearGradient>
<path fill-rule="evenodd" clip-rule="evenodd" fill="url(#SVGID_1_)" d="M0.41,1.663c9.528,0,25.78-0.122,35.308-0.122
	c0,5.183,0.011,6.843,0.05,11.496c-9.651,0.196-26.112,0.329-35.641,0.329C0.127,8.183,0.41,6.845,0.41,1.663z"/>
<path fill-rule="evenodd" clip-rule="evenodd" fill="#FFFFFF" d="M26.957,4.352v6.203c-8.748,0-17.497,0-26.245,0V4.352
	C9.46,4.352,18.209,4.352,26.957,4.352z"/>
<path fill-rule="evenodd" clip-rule="evenodd" fill="#7B7E81" d="M24.284,6.862h0.221l0.684,1.569l0.663-1.569h0.246l-0.917,2.169
	c-0.044,0.104-0.1,0.204-0.181,0.283c-0.16,0.155-0.369,0.196-0.571,0.094c0.02-0.057,0.04-0.113,0.061-0.17
	c0.14,0.069,0.231,0.024,0.329-0.081c0.063-0.066,0.115-0.123,0.151-0.207l0.096-0.228L24.284,6.862L24.284,6.862z M22.623,7.331
	h0.219c0.006-0.073,0.028-0.132,0.063-0.181c0.088-0.12,0.257-0.166,0.398-0.17c0.121-0.004,0.253,0.018,0.347,0.077
	c0.132,0.083,0.2,0.218,0.2,0.378v0.206h-0.474c-0.199,0-0.428,0.04-0.599,0.146c-0.165,0.103-0.243,0.262-0.242,0.428
	c0.001,0.266,0.16,0.452,0.416,0.509c0.202,0.045,0.435,0.007,0.605-0.078c0.108-0.054,0.205-0.132,0.293-0.23
	c0,0.101,0.04,0.219,0.079,0.29h0.21c-0.039-0.067-0.078-0.198-0.078-0.302V7.418c0-0.213-0.089-0.422-0.346-0.534
	c-0.116-0.051-0.282-0.069-0.431-0.063c-0.205,0.008-0.407,0.063-0.543,0.225C22.677,7.125,22.634,7.22,22.623,7.331L22.623,7.331z
	 M22.905,7.943c0.145-0.109,0.343-0.149,0.521-0.149h0.424V8c0,0.249-0.128,0.383-0.349,0.487c-0.142,0.067-0.34,0.105-0.498,0.058
	c-0.146-0.044-0.25-0.17-0.246-0.325C22.761,8.115,22.814,8.013,22.905,7.943L22.905,7.943z M22.012,6.149h0.211v2.555h-0.211V6.149
	L22.012,6.149z M20.059,6.864h0.211v0.276c0.06-0.075,0.134-0.142,0.225-0.199c0.355-0.219,0.831-0.158,1.088,0.22
	c0.217,0.319,0.212,0.892,0.02,1.222c-0.227,0.391-0.758,0.451-1.109,0.231c-0.088-0.055-0.162-0.129-0.223-0.216v1.003h-0.211
	V6.864L20.059,6.864z M20.27,7.368v0.81c0.063,0.115,0.159,0.212,0.29,0.292c0.316,0.193,0.666,0.104,0.857-0.215
	c0.155-0.26,0.146-0.701-0.017-0.962C21.202,6.974,20.87,6.91,20.565,7.1C20.453,7.171,20.351,7.269,20.27,7.368L20.27,7.368z
	 M11.752,6.828c0.52,0,0.932,0.407,0.921,0.91c-0.011,0.503-0.441,0.91-0.96,0.91c-0.52,0-0.933-0.407-0.922-0.91
	C10.802,7.235,11.232,6.828,11.752,6.828L11.752,6.828z M11.346,8.235c0.131,0.215,0.356,0.355,0.613,0.266
	c0.201-0.07,0.291-0.216,0.325-0.387c0.037-0.184,0.008-0.46-0.081-0.695c-0.07-0.183-0.181-0.36-0.372-0.432
	c-0.201-0.076-0.435-0.013-0.567,0.177c-0.088,0.125-0.112,0.292-0.1,0.466C11.18,7.847,11.25,8.08,11.346,8.235L11.346,8.235z
	 M13.827,6.828c0.52,0,0.932,0.407,0.921,0.91c-0.011,0.503-0.441,0.91-0.96,0.91c-0.52,0-0.933-0.407-0.922-0.91
	C12.877,7.235,13.307,6.828,13.827,6.828L13.827,6.828z M13.42,8.235c0.132,0.215,0.357,0.355,0.613,0.266
	c0.201-0.07,0.291-0.216,0.325-0.387c0.037-0.184,0.008-0.46-0.081-0.695c-0.07-0.183-0.181-0.36-0.372-0.432
	c-0.201-0.076-0.435-0.013-0.568,0.177C13.25,7.29,13.226,7.456,13.239,7.63C13.255,7.847,13.326,8.08,13.42,8.235L13.42,8.235z
	 M15.423,7.841c-0.075-0.104-0.127-0.25-0.145-0.399c-0.014-0.12,0.003-0.265,0.066-0.354c0.122-0.171,0.343-0.173,0.502-0.065
	c0.117,0.078,0.2,0.223,0.247,0.37c0.037,0.117,0.051,0.231,0.031,0.34c-0.021,0.119-0.086,0.222-0.235,0.275
	C15.7,8.077,15.527,7.985,15.423,7.841L15.423,7.841z M16.183,6.991h0.215l0.15-0.156H15.77c-0.137,0-0.241,0.003-0.379,0.062
	c-0.253,0.106-0.437,0.338-0.443,0.601c-0.005,0.217,0.081,0.408,0.239,0.527c0.139,0.105,0.325,0.14,0.507,0.124
	c-0.066,0.116-0.036,0.272,0.065,0.376c0.006,0.007,0.013,0.014,0.02,0.021c-0.305,0.001-0.644,0.074-0.864,0.282
	c-0.304,0.285-0.176,0.674,0.186,0.831c0.192,0.083,0.428,0.104,0.61,0.086c0.24-0.023,0.461-0.109,0.622-0.245
	c0.252-0.213,0.325-0.594,0.091-0.854c-0.09-0.101-0.209-0.195-0.333-0.283c-0.132-0.094-0.09-0.266,0.053-0.364l0,0
	c0.181-0.12,0.289-0.303,0.293-0.501C16.442,7.293,16.343,7.112,16.183,6.991L16.183,6.991z M15.912,8.657
	c0.091,0.071,0.191,0.144,0.265,0.214c0.151,0.144,0.199,0.346,0.063,0.522c-0.127,0.166-0.369,0.19-0.563,0.181
	c-0.144-0.007-0.307-0.051-0.423-0.138c-0.171-0.128-0.223-0.379-0.092-0.553C15.304,8.693,15.656,8.638,15.912,8.657L15.912,8.657z
	 M10.62,7.602H9.755l-0.15,0.155h0.479v0.681C9.8,8.52,9.504,8.544,9.23,8.476C8.761,8.358,8.431,7.981,8.318,7.518
	c-0.097-0.401-0.048-0.874,0.24-1.187c0.409-0.442,1.158-0.392,1.529-0.007c0.002,0.073,0.004,0.146,0.006,0.218
	c0.122-0.12,0.244-0.24,0.366-0.36C9.879,5.774,8.974,5.748,8.401,6.184C7.945,6.532,7.775,7.089,7.903,7.642
	c0.147,0.637,0.665,0.978,1.299,1.03c0.409,0.035,0.856-0.048,1.268-0.156V7.757L10.62,7.602L10.62,7.602z M16.844,8.432v-2.35
	h-0.237l0.149-0.155h0.623l-0.15,0.155V8.35v0.009c0.003,0.12,0.182,0.107,0.282,0.116l-0.108,0.112h-0.708L16.844,8.432
	L16.844,8.432z M18.668,7.339L17.9,7.659c-0.023-0.124-0.029-0.255,0.006-0.375c0.061-0.206,0.246-0.343,0.468-0.323
	C18.596,6.981,18.775,7.237,18.668,7.339L18.668,7.339L18.668,7.339z M17.926,7.775l1.145-0.477
	c-0.065-0.315-0.365-0.479-0.678-0.476c-0.361,0.004-0.633,0.207-0.76,0.49c-0.121,0.27-0.108,0.615,0.048,0.886
	c0.152,0.266,0.438,0.445,0.779,0.445c0.008,0,0.015,0,0.023,0c0.251-0.009,0.538-0.125,0.668-0.343
	c-0.171,0.126-0.468,0.174-0.666,0.115c-0.242-0.071-0.44-0.265-0.53-0.541C17.946,7.844,17.936,7.811,17.926,7.775z"/>
<path fill-rule="evenodd" clip-rule="evenodd" fill="#4DB8BB" d="M1.572,9.932V4.991c0-0.165,0.04-0.275,0.133-0.331
	c0.089-0.053,0.212-0.048,0.364,0.034L6.561,7.12c0.259,0.14,0.567,0.34-0.05,0.673l-4.495,2.428
	C1.697,10.393,1.572,10.161,1.572,9.932z"/>
<linearGradient id="SVGID_2_" gradientUnits="userSpaceOnUse" x1="1.5273" y1="4.3359" x2="5.4576" y2="7.2976">
	<stop  offset="0" style="stop-color:#43C0B9"/>
	<stop  offset="1" style="stop-color:#E4ECA8"/>
</linearGradient>
<path fill-rule="evenodd" clip-rule="evenodd" fill="url(#SVGID_2_)" d="M1.823,4.626c0.07-0.003,0.152,0.018,0.246,0.068
	L5.506,6.55L4.617,7.448L1.823,4.626z"/>
<linearGradient id="SVGID_3_" gradientUnits="userSpaceOnUse" x1="3.0947" y1="2.2544" x2="3.0947" y2="12.653">
	<stop  offset="0" style="stop-color:#007290"/>
	<stop  offset="1" style="stop-color:#8BD1CC"/>
</linearGradient>
<path fill-rule="evenodd" clip-rule="evenodd" fill="url(#SVGID_3_)" d="M1.572,9.932V4.991c0-0.165,0.04-0.275,0.133-0.331
	C1.74,4.64,1.779,4.628,1.823,4.626l2.794,2.822L1.813,10.28C1.643,10.277,1.572,10.104,1.572,9.932z"/>
<linearGradient id="SVGID_4_" gradientUnits="userSpaceOnUse" x1="4.8101" y1="3.377" x2="2.6378" y2="14.5523">
	<stop  offset="0" style="stop-color:#E72E3B"/>
	<stop  offset="1" style="stop-color:#80459B"/>
</linearGradient>
<path fill-rule="evenodd" clip-rule="evenodd" fill="url(#SVGID_4_)" d="M5.5,8.339l-3.484,1.882
	c-0.08,0.043-0.147,0.061-0.203,0.06l2.804-2.833L5.5,8.339z"/>
<linearGradient id="SVGID_5_" gradientUnits="userSpaceOnUse" x1="5.1143" y1="6.0063" x2="6.2027" y2="8.4511">
	<stop  offset="0" style="stop-color:#F79871"/>
	<stop  offset="1" style="stop-color:#FECB8A"/>
</linearGradient>
<path fill-rule="evenodd" clip-rule="evenodd" fill="url(#SVGID_5_)" d="M5.506,6.55l1.055,0.57c0.259,0.14,0.567,0.34-0.05,0.673
	L5.5,8.339L4.617,7.448L5.506,6.55z"/>
<ellipse opacity="0.5" fill-rule="evenodd" clip-rule="evenodd" fill="#28180B" cx="31.382" cy="10.79" rx="2.477" ry="0.394"/>
<radialGradient id="SVGID_6_" cx="31.4814" cy="7.3369" r="2.9285" gradientUnits="userSpaceOnUse">
	<stop  offset="0" style="stop-color:#822118"/>
	<stop  offset="0.3" style="stop-color:#822118"/>
	<stop  offset="0.73" style="stop-color:#36110D"/>
	<stop  offset="1" style="stop-color:#260D0A"/>
</radialGradient>
<path fill-rule="evenodd" clip-rule="evenodd" fill="url(#SVGID_6_)" d="M31.419,9.155c1.756,0,3.188-0.326,3.188-0.727
	s-1.432-0.728-3.188-0.728S28.23,8.028,28.23,8.429S29.663,9.155,31.419,9.155z"/>
<linearGradient id="SVGID_7_" gradientUnits="userSpaceOnUse" x1="31.4189" y1="8.167" x2="31.4189" y2="8.5307">
	<stop  offset="0" style="stop-color:#A83022"/>
	<stop  offset="0.5" style="stop-color:#D96A4D"/>
	<stop  offset="1" style="stop-color:#A83022"/>
</linearGradient>
<path fill-rule="evenodd" clip-rule="evenodd" fill="url(#SVGID_7_)" d="M31.419,8.955c1.704,0,3.095-0.272,3.095-0.606
	c0-0.335-1.391-0.606-3.095-0.606c-1.705,0-3.095,0.271-3.095,0.606C28.324,8.683,29.714,8.955,31.419,8.955z"/>
<radialGradient id="SVGID_8_" cx="31.4756" cy="7.5762" r="2.3357" gradientUnits="userSpaceOnUse">
	<stop  offset="0" style="stop-color:#822118"/>
	<stop  offset="0.3" style="stop-color:#822118"/>
	<stop  offset="0.73" style="stop-color:#36110D"/>
	<stop  offset="1" style="stop-color:#260D0A"/>
</radialGradient>
<path fill-rule="evenodd" clip-rule="evenodd" fill="url(#SVGID_8_)" d="M31.419,8.813c1.558,0,2.829-0.222,2.829-0.495
	c0-0.272-1.271-0.494-2.829-0.494c-1.559,0-2.829,0.222-2.829,0.494C28.59,8.592,29.86,8.813,31.419,8.813z"/>
<radialGradient id="SVGID_9_" cx="31.6328" cy="8.4004" r="1.4382" gradientUnits="userSpaceOnUse">
	<stop  offset="0" style="stop-color:#FFC546"/>
	<stop  offset="0.22" style="stop-color:#EA6E24"/>
	<stop  offset="0.44" style="stop-color:#F99F1C"/>
	<stop  offset="0.64" style="stop-color:#D65C27"/>
	<stop  offset="1" style="stop-color:#D45626"/>
</radialGradient>
<path fill-rule="evenodd" clip-rule="evenodd" fill="url(#SVGID_9_)" d="M31.419,8.841c1.48,0,2.688-0.198,2.688-0.441
	s-1.208-0.44-2.688-0.44c-1.481,0-2.689,0.197-2.689,0.44S29.938,8.841,31.419,8.841z"/>
<path fill-rule="evenodd" clip-rule="evenodd" fill="#FFC40C" d="M31.247,4.635c0.061,0.405,0.638,1.333,0.778,1.971
	c0.138,0.623-0.04,1.363-0.606,1.564c-0.598-0.242-0.794-1.063-0.495-1.772c0.144-0.34,0.411-0.577,0.35-1.028
	C31.24,5.118,31.232,4.877,31.247,4.635z"/>
<path fill-rule="evenodd" clip-rule="evenodd" fill="#F05123" d="M31.419,8.127c-0.707-0.793,0.043-1.226,0.041-1.989
	C31.658,6.767,32.049,7.29,31.419,8.127z"/>
<linearGradient id="SVGID_10_" gradientUnits="userSpaceOnUse" x1="31.543" y1="8.5479" x2="31.3034" y2="7.5872">
	<stop  offset="0" style="stop-color:#441A19"/>
	<stop  offset="0.33" style="stop-color:#441A19"/>
	<stop  offset="0.79" style="stop-color:#E1CEB9"/>
	<stop  offset="1" style="stop-color:#F5EFE4"/>
</linearGradient>
<path fill-rule="evenodd" clip-rule="evenodd" fill="url(#SVGID_10_)" d="M31.347,7.639c0.007-0.042,0.046-0.07,0.088-0.063
	c0.041,0.007,0.069,0.046,0.063,0.088c-0.025,0.153-0.041,0.275-0.042,0.397c-0.002,0.121,0.011,0.245,0.041,0.404
	c0.007,0.041-0.021,0.081-0.062,0.089c-0.042,0.008-0.082-0.02-0.09-0.062c-0.031-0.168-0.044-0.301-0.042-0.434
	C31.305,7.927,31.321,7.799,31.347,7.639z"/>
<radialGradient id="SVGID_11_" cx="31.4355" cy="8.1738" r="2.0076" gradientUnits="userSpaceOnUse">
	<stop  offset="0" style="stop-color:#822118"/>
	<stop  offset="0.3" style="stop-color:#822118"/>
	<stop  offset="0.73" style="stop-color:#36110D"/>
	<stop  offset="1" style="stop-color:#260D0A"/>
</radialGradient>
<path fill-rule="evenodd" clip-rule="evenodd" fill="url(#SVGID_11_)" d="M30.34,9.448c-0.361-0.222-0.724-0.444-1.085-0.666
	c0.761,0.115,1.491,0.048,2.164-0.354c0.626,0.373,1.322,0.48,2.11,0.364c-0.196,0.212-0.392,0.423-0.587,0.635
	C32.075,9.435,31.207,9.441,30.34,9.448z"/>
<radialGradient id="SVGID_12_" cx="31.4814" cy="7.7969" r="4.3821" gradientUnits="userSpaceOnUse">
	<stop  offset="0" style="stop-color:#D88428"/>
	<stop  offset="0.25" style="stop-color:#EBAB21"/>
	<stop  offset="0.45" style="stop-color:#822118"/>
	<stop  offset="0.56" style="stop-color:#731F13"/>
	<stop  offset="0.77" style="stop-color:#36110D"/>
	<stop  offset="1" style="stop-color:#611C0C"/>
</radialGradient>
<path fill-rule="evenodd" clip-rule="evenodd" fill="url(#SVGID_12_)" d="M31.419,10.957c1.761,0,3.188-1.18,3.188-2.528
	c0,0.401-1.72,0.794-3.188,0.167C29.951,9.223,28.23,8.83,28.23,8.429C28.23,9.777,29.658,10.957,31.419,10.957z"/>
<radialGradient id="SVGID_13_" cx="31.4189" cy="10.1289" r="1.597" gradientUnits="userSpaceOnUse">
	<stop  offset="0" style="stop-color:#FCB336"/>
	<stop  offset="0.48" style="stop-color:#DC7926"/>
	<stop  offset="1" style="stop-color:#A64C24"/>
</radialGradient>
<path fill-rule="evenodd" clip-rule="evenodd" fill="url(#SVGID_13_)" d="M33.519,10.314c0.048-0.034,0.095-0.068,0.14-0.104
	c-0.625,0.088-1.467,0.04-2.239-0.29c-0.772,0.33-1.615,0.378-2.239,0.29c0.045,0.036,0.091,0.07,0.139,0.104
	c0.607,0.063,1.384,0.001,2.101-0.306C32.135,10.315,32.911,10.377,33.519,10.314z"/>
<radialGradient id="SVGID_14_" cx="31.4189" cy="9.1309" r="2.1929" gradientUnits="userSpaceOnUse">
	<stop  offset="0" style="stop-color:#FCB336"/>
	<stop  offset="0.48" style="stop-color:#DC7926"/>
	<stop  offset="1" style="stop-color:#A64C24"/>
</radialGradient>
<path fill-rule="evenodd" clip-rule="evenodd" fill="url(#SVGID_14_)" d="M34.451,9.191c0.015-0.034,0.027-0.069,0.04-0.104
	c-0.064-0.005-0.131-0.041-0.196-0.076c-0.083-0.045-0.164-0.088-0.25-0.081c-0.136,0.013-0.216,0.114-0.294,0.216H33.75
	c-0.064,0.085-0.13,0.168-0.22,0.175c-0.094,0.007-0.165-0.06-0.236-0.125l0,0c-0.084-0.078-0.17-0.157-0.303-0.158
	c-0.121,0-0.207,0.068-0.292,0.137c-0.072,0.059-0.144,0.117-0.229,0.109c-0.089-0.007-0.148-0.089-0.208-0.172
	c-0.069-0.097-0.14-0.194-0.265-0.221c-0.13-0.026-0.234,0.052-0.34,0.131c-0.078,0.06-0.158,0.12-0.238,0.12
	s-0.16-0.061-0.239-0.12c-0.104-0.079-0.209-0.157-0.339-0.131c-0.126,0.026-0.195,0.124-0.265,0.221
	c-0.061,0.083-0.119,0.165-0.208,0.172c-0.086,0.008-0.158-0.051-0.23-0.109c-0.085-0.068-0.17-0.137-0.291-0.137
	c-0.134,0.001-0.219,0.08-0.303,0.158h-0.001c-0.071,0.065-0.142,0.132-0.235,0.125c-0.09-0.006-0.155-0.09-0.221-0.175l0,0
	c-0.079-0.102-0.158-0.203-0.294-0.216c-0.087-0.007-0.167,0.036-0.251,0.081c-0.064,0.035-0.132,0.071-0.195,0.076
	c0.012,0.034,0.025,0.069,0.039,0.104c0.072-0.013,0.141-0.05,0.207-0.086c0.069-0.037,0.137-0.073,0.19-0.068
	c0.09,0.008,0.155,0.092,0.22,0.175l0,0c0.08,0.104,0.16,0.206,0.298,0.216c0.139,0.01,0.227-0.071,0.314-0.153l0,0
	c0.069-0.064,0.14-0.129,0.231-0.13c0.084,0,0.154,0.057,0.225,0.113c0.089,0.072,0.178,0.144,0.306,0.133
	c0.137-0.011,0.211-0.113,0.285-0.217c0.057-0.079,0.115-0.16,0.2-0.178c0.083-0.018,0.168,0.047,0.254,0.112
	c0.093,0.07,0.188,0.141,0.303,0.141s0.209-0.07,0.302-0.141c0.087-0.065,0.172-0.13,0.255-0.112c0.085,0.018,0.143,0.099,0.2,0.178
	c0.074,0.104,0.147,0.206,0.285,0.217c0.128,0.011,0.216-0.061,0.306-0.133c0.069-0.057,0.141-0.113,0.224-0.113
	c0.093,0.001,0.163,0.065,0.231,0.13l0,0c0.089,0.082,0.176,0.163,0.315,0.153c0.138-0.01,0.218-0.112,0.298-0.216h-0.001
	c0.065-0.083,0.131-0.167,0.22-0.175c0.055-0.005,0.122,0.031,0.191,0.068C34.312,9.142,34.38,9.179,34.451,9.191z"/>
<radialGradient id="SVGID_15_" cx="31.4189" cy="9.4766" r="2.1381" gradientUnits="userSpaceOnUse">
	<stop  offset="0" style="stop-color:#FCB336"/>
	<stop  offset="0.48" style="stop-color:#DC7926"/>
	<stop  offset="1" style="stop-color:#A64C24"/>
</radialGradient>
<path fill-rule="evenodd" clip-rule="evenodd" fill="url(#SVGID_15_)" d="M34.325,9.447c0.036-0.063,0.068-0.126,0.099-0.191
	C33.943,9.545,32.6,9.7,31.419,9.195c-1.181,0.505-2.524,0.35-3.005,0.061c0.029,0.065,0.062,0.129,0.098,0.191
	c0.547,0.254,1.799,0.362,2.907-0.111C32.526,9.81,33.778,9.701,34.325,9.447z"/>
<radialGradient id="SVGID_16_" cx="31.418" cy="9.7725" r="1.8114" gradientUnits="userSpaceOnUse">
	<stop  offset="0" style="stop-color:#FCB336"/>
	<stop  offset="0.48" style="stop-color:#DC7926"/>
	<stop  offset="1" style="stop-color:#A64C24"/>
</radialGradient>
<path fill-rule="evenodd" clip-rule="evenodd" fill="url(#SVGID_16_)" d="M30.361,9.806c0.041,0,0.073,0.033,0.073,0.073
	c0,0.041-0.032,0.074-0.073,0.074s-0.074-0.033-0.074-0.074C30.287,9.839,30.32,9.806,30.361,9.806L30.361,9.806z M30.648,9.759
	c0.041,0,0.074,0.033,0.074,0.074s-0.033,0.074-0.074,0.074s-0.073-0.033-0.073-0.074S30.607,9.759,30.648,9.759L30.648,9.759z
	 M30.08,9.835c0.041,0,0.073,0.033,0.073,0.074s-0.032,0.074-0.073,0.074s-0.074-0.033-0.074-0.074S30.039,9.835,30.08,9.835
	L30.08,9.835z M29.783,9.863c0.041,0,0.074,0.033,0.074,0.074s-0.033,0.074-0.074,0.074c-0.04,0-0.073-0.033-0.073-0.074
	S29.743,9.863,29.783,9.863L29.783,9.863z M29.208,9.835c0.041,0,0.074,0.033,0.074,0.074s-0.033,0.074-0.074,0.074
	s-0.074-0.033-0.074-0.074S29.167,9.835,29.208,9.835L29.208,9.835z M31.419,9.563c0.041,0,0.073,0.033,0.073,0.074
	s-0.032,0.074-0.073,0.074s-0.074-0.033-0.074-0.074S31.378,9.563,31.419,9.563L31.419,9.563z M30.92,9.69
	c0.041,0,0.074,0.033,0.074,0.074s-0.033,0.074-0.074,0.074s-0.074-0.033-0.074-0.074S30.879,9.69,30.92,9.69L30.92,9.69z
	 M29.497,9.87c0.041,0,0.074,0.033,0.074,0.074s-0.033,0.074-0.074,0.074s-0.074-0.033-0.074-0.074S29.456,9.87,29.497,9.87
	L29.497,9.87z M31.154,9.61c0.041,0,0.074,0.033,0.074,0.074s-0.033,0.074-0.074,0.074s-0.073-0.033-0.073-0.074
	S31.113,9.61,31.154,9.61L31.154,9.61z M28.955,9.792c0.041,0,0.073,0.033,0.073,0.074S28.996,9.94,28.955,9.94
	s-0.074-0.033-0.074-0.074S28.914,9.792,28.955,9.792L28.955,9.792z M32.477,9.806c-0.041,0-0.074,0.033-0.074,0.073
	c0,0.041,0.033,0.074,0.074,0.074s0.074-0.033,0.074-0.074C32.551,9.839,32.518,9.806,32.477,9.806L32.477,9.806z M32.188,9.759
	c-0.041,0-0.074,0.033-0.074,0.074s0.033,0.074,0.074,0.074s0.074-0.033,0.074-0.074S32.229,9.759,32.188,9.759L32.188,9.759z
	 M32.758,9.835c-0.041,0-0.074,0.033-0.074,0.074s0.033,0.074,0.074,0.074s0.074-0.033,0.074-0.074S32.799,9.835,32.758,9.835
	L32.758,9.835z M33.054,9.863c-0.041,0-0.073,0.033-0.073,0.074s0.032,0.074,0.073,0.074s0.074-0.033,0.074-0.074
	S33.095,9.863,33.054,9.863L33.054,9.863z M33.63,9.835c-0.041,0-0.074,0.033-0.074,0.074s0.033,0.074,0.074,0.074
	s0.074-0.033,0.074-0.074S33.671,9.835,33.63,9.835L33.63,9.835z M31.918,9.69c-0.042,0-0.074,0.033-0.074,0.074
	s0.032,0.074,0.074,0.074c0.04,0,0.073-0.033,0.073-0.074S31.958,9.69,31.918,9.69L31.918,9.69z M33.34,9.87
	c-0.041,0-0.074,0.033-0.074,0.074s0.033,0.074,0.074,0.074s0.074-0.033,0.074-0.074S33.381,9.87,33.34,9.87L33.34,9.87z
	 M31.683,9.61c-0.041,0-0.073,0.033-0.073,0.074s0.032,0.074,0.073,0.074s0.074-0.033,0.074-0.074S31.724,9.61,31.683,9.61
	L31.683,9.61z M33.883,9.792c-0.041,0-0.074,0.033-0.074,0.074s0.033,0.074,0.074,0.074c0.04,0,0.073-0.033,0.073-0.074
	S33.923,9.792,33.883,9.792z"/>
<radialGradient id="SVGID_17_" cx="31.4189" cy="9.0947" r="2.1904" gradientUnits="userSpaceOnUse">
	<stop  offset="0" style="stop-color:#FCB336"/>
	<stop  offset="0.48" style="stop-color:#DC7926"/>
	<stop  offset="1" style="stop-color:#A64C24"/>
</radialGradient>
<path fill-rule="evenodd" clip-rule="evenodd" fill="url(#SVGID_17_)" d="M34.407,8.815c0.041,0,0.074,0.033,0.074,0.074
	s-0.033,0.074-0.074,0.074s-0.074-0.033-0.074-0.074S34.366,8.815,34.407,8.815L34.407,8.815z M34.055,9.148
	c0.04,0,0.073,0.033,0.073,0.074s-0.033,0.074-0.073,0.074c-0.041,0-0.074-0.033-0.074-0.074S34.014,9.148,34.055,9.148
	L34.055,9.148z M33.515,9.056c0.041,0,0.075,0.033,0.075,0.074s-0.034,0.074-0.075,0.074c-0.04,0-0.073-0.033-0.073-0.074
	S33.475,9.056,33.515,9.056L33.515,9.056z M32.989,9.275c0.041,0,0.074,0.033,0.074,0.074s-0.033,0.074-0.074,0.074
	s-0.074-0.033-0.074-0.074S32.948,9.275,32.989,9.275L32.989,9.275z M32.477,9.009c0.041,0,0.074,0.033,0.074,0.074
	s-0.033,0.074-0.074,0.074s-0.074-0.033-0.074-0.074S32.436,9.009,32.477,9.009L32.477,9.009z M31.944,9.129
	c0.041,0,0.074,0.033,0.074,0.074s-0.033,0.074-0.074,0.074S31.87,9.244,31.87,9.203S31.903,9.129,31.944,9.129L31.944,9.129z
	 M31.419,8.837c-0.041,0-0.074,0.033-0.074,0.074s0.033,0.074,0.074,0.074s0.073-0.033,0.073-0.074S31.46,8.837,31.419,8.837
	L31.419,8.837z M30.893,9.129c-0.041,0-0.074,0.033-0.074,0.074s0.033,0.074,0.074,0.074s0.074-0.033,0.074-0.074
	S30.934,9.129,30.893,9.129L30.893,9.129z M30.36,9.009c-0.041,0-0.074,0.033-0.074,0.074s0.033,0.074,0.074,0.074
	s0.074-0.033,0.074-0.074S30.401,9.009,30.36,9.009L30.36,9.009z M29.848,9.275c-0.041,0-0.073,0.033-0.073,0.074
	s0.032,0.074,0.073,0.074s0.074-0.033,0.074-0.074S29.889,9.275,29.848,9.275L29.848,9.275z M28.431,8.815
	c-0.041,0-0.074,0.033-0.074,0.074s0.033,0.074,0.074,0.074s0.073-0.033,0.073-0.074S28.472,8.815,28.431,8.815L28.431,8.815z
	 M28.783,9.148c-0.041,0-0.074,0.033-0.074,0.074s0.033,0.074,0.074,0.074s0.074-0.033,0.074-0.074S28.824,9.148,28.783,9.148
	L28.783,9.148z M29.322,9.056c-0.041,0-0.074,0.033-0.074,0.074s0.033,0.074,0.074,0.074s0.074-0.033,0.074-0.074
	S29.363,9.056,29.322,9.056z"/>
<path fill-rule="evenodd" clip-rule="evenodd" fill="#FFC40C" d="M30.236,7.346c0.023,0.01,0.033,0.038,0.023,0.061
	C30.249,7.43,30.222,7.44,30.198,7.43l-0.595-0.269C29.58,7.15,29.57,7.123,29.58,7.1c0.011-0.023,0.038-0.034,0.062-0.023
	L30.236,7.346L30.236,7.346z M30.205,6.821c0.021,0.012,0.03,0.04,0.018,0.063c-0.012,0.022-0.04,0.03-0.063,0.018l-0.63-0.35
	c-0.021-0.013-0.03-0.041-0.018-0.063c0.013-0.022,0.04-0.03,0.063-0.018L30.205,6.821L30.205,6.821z M30.255,6.303
	c0.021,0.014,0.026,0.043,0.012,0.064c-0.014,0.021-0.043,0.026-0.063,0.012l-0.584-0.396c-0.021-0.015-0.026-0.043-0.012-0.064
	c0.014-0.021,0.043-0.027,0.063-0.013L30.255,6.303L30.255,6.303z M30.36,5.795c0.021,0.015,0.024,0.044,0.009,0.064
	c-0.016,0.02-0.044,0.024-0.064,0.009l-0.508-0.391c-0.021-0.016-0.024-0.044-0.009-0.065c0.015-0.021,0.044-0.024,0.064-0.009
	L30.36,5.795L30.36,5.795z M30.531,5.296c0.019,0.017,0.021,0.046,0.003,0.065c-0.017,0.019-0.046,0.021-0.064,0.004l-0.457-0.408
	c-0.019-0.017-0.021-0.046-0.003-0.065c0.017-0.019,0.046-0.021,0.064-0.004L30.531,5.296L30.531,5.296z M30.709,4.816l-0.328-0.448
	c-0.016-0.021-0.044-0.025-0.064-0.01c-0.021,0.016-0.025,0.044-0.011,0.065l0.329,0.448c0.015,0.021,0.043,0.025,0.063,0.01
	C30.72,4.866,30.724,4.837,30.709,4.816L30.709,4.816z M30.978,4.401c0.011,0.023,0.001,0.05-0.022,0.061
	c-0.022,0.011-0.051,0-0.061-0.022l-0.21-0.452c-0.011-0.023,0-0.051,0.022-0.062c0.023-0.011,0.051,0,0.062,0.022L30.978,4.401
	L30.978,4.401z M32.484,7.429c-0.023,0.011-0.051,0.002-0.062-0.021c-0.012-0.023-0.003-0.051,0.02-0.062l0.606-0.304
	c0.023-0.011,0.051-0.002,0.063,0.021c0.011,0.023,0.002,0.051-0.021,0.062L32.484,7.429L32.484,7.429z M32.522,6.901
	c-0.022,0.013-0.051,0.006-0.063-0.015c-0.014-0.022-0.007-0.051,0.015-0.063l0.606-0.374c0.022-0.013,0.051-0.006,0.063,0.015
	c0.014,0.022,0.007,0.05-0.015,0.064L32.522,6.901L32.522,6.901z M32.478,6.408c-0.021,0.014-0.05,0.008-0.063-0.013
	c-0.015-0.021-0.009-0.05,0.013-0.064l0.531-0.35c0.021-0.014,0.05-0.008,0.063,0.013s0.008,0.05-0.014,0.064L32.478,6.408
	L32.478,6.408z M32.352,5.903c-0.021,0.015-0.05,0.01-0.064-0.01s-0.01-0.049,0.011-0.064l0.531-0.385
	c0.021-0.015,0.05-0.01,0.064,0.011c0.015,0.02,0.01,0.049-0.011,0.064L32.352,5.903L32.352,5.903z M32.195,5.468l0.479-0.466
	c0.018-0.018,0.019-0.047,0.001-0.065c-0.018-0.019-0.047-0.019-0.065-0.001l-0.479,0.466c-0.018,0.018-0.019,0.047-0.001,0.065
	C32.147,5.485,32.177,5.486,32.195,5.468L32.195,5.468z M32.03,4.87c-0.015,0.021-0.043,0.026-0.064,0.012
	c-0.021-0.015-0.026-0.043-0.013-0.064l0.312-0.462c0.014-0.021,0.043-0.027,0.063-0.012c0.021,0.014,0.027,0.043,0.013,0.064
	L32.03,4.87L32.03,4.87z M31.8,4.527l0.169-0.51c0.008-0.024-0.005-0.05-0.029-0.058c-0.023-0.008-0.05,0.005-0.058,0.029
	l-0.17,0.511c-0.008,0.024,0.006,0.05,0.029,0.058C31.766,4.564,31.792,4.551,31.8,4.527L31.8,4.527z M31.381,4.231
	c0.001,0.026-0.02,0.047-0.045,0.047c-0.025,0.001-0.046-0.02-0.047-0.045l-0.014-0.509c0-0.025,0.02-0.047,0.045-0.047
	s0.047,0.02,0.048,0.045L31.381,4.231z"/>
<path opacity="0.3" fill-rule="evenodd" clip-rule="evenodd" fill="#373736" d="M27.791,2.155c0.037-0.077,0.13-0.109,0.207-0.072
	c0.076,0.037,0.108,0.13,0.071,0.207l-1.636,3.388c-0.121,0.251-0.106,0.457-0.021,0.582h0.001l0,0
	c0.029,0.043,0.068,0.077,0.111,0.098c0.044,0.021,0.094,0.032,0.146,0.029c0.148-0.009,0.318-0.125,0.449-0.385l2.374-4.742
	l0.015-0.03l0,0c0.085-0.19,0.084-0.406,0.015-0.599c-0.144-0.396-0.602-0.659-1.012-0.517c-0.173,0.059-0.321,0.192-0.423,0.395
	l-0.545,1.077h-0.347l0.615-1.217c0.14-0.277,0.351-0.463,0.599-0.548c0.571-0.197,1.202,0.153,1.402,0.706
	C29.908,0.79,29.91,1.09,29.79,1.356l-0.001,0l-0.001,0.003l-0.016,0.033l0,0l-0.002,0.002L27.396,6.14
	c-0.188,0.375-0.46,0.542-0.709,0.556c-0.106,0.006-0.208-0.016-0.299-0.061s-0.17-0.114-0.23-0.201l0.001,0
	c-0.143-0.208-0.179-0.527-0.003-0.891L27.791,2.155z"/>
<path fill-rule="evenodd" clip-rule="evenodd" fill="#373736" d="M27.715,2.029c0.037-0.077,0.13-0.109,0.207-0.072
	c0.077,0.038,0.109,0.13,0.072,0.208l-1.636,3.387c-0.122,0.252-0.107,0.457-0.021,0.582v0l0.001,0
	c0.029,0.043,0.067,0.077,0.111,0.098c0.043,0.021,0.093,0.032,0.145,0.029c0.148-0.009,0.319-0.125,0.45-0.385l2.343-4.68
	c0.114-0.229,0.156-0.425,0.06-0.691c-0.144-0.395-0.601-0.659-1.012-0.517c-0.172,0.059-0.321,0.193-0.422,0.395l-0.609,1.206
	h-0.346l0.679-1.346c0.14-0.277,0.35-0.463,0.598-0.549c0.571-0.197,1.202,0.153,1.403,0.706c0.124,0.343,0.08,0.627-0.07,0.927
	L27.32,6.013c-0.188,0.375-0.46,0.542-0.71,0.556c-0.105,0.006-0.208-0.015-0.299-0.061c-0.09-0.045-0.17-0.113-0.229-0.201v0
	c-0.143-0.208-0.179-0.526-0.003-0.891L27.715,2.029z"/>
<linearGradient id="SVGID_18_" gradientUnits="userSpaceOnUse" x1="29.96" y1="-3.728" x2="25.7378" y2="10.0822">
	<stop  offset="0" style="stop-color:#A4A3A4"/>
	<stop  offset="0.48" style="stop-color:#DDDDDE"/>
	<stop  offset="1" style="stop-color:#A4A3A4"/>
</linearGradient>
<path fill-rule="evenodd" clip-rule="evenodd" fill="url(#SVGID_18_)" d="M27.139,1.587h0.173l0.632-1.241
	c0.099-0.197,0.255-0.36,0.466-0.433c0.45-0.155,0.951,0.128,1.11,0.564c0.101,0.278,0.065,0.494-0.063,0.752l-2.343,4.68
	c-0.1,0.199-0.275,0.415-0.515,0.428c-0.063,0.004-0.127-0.008-0.184-0.037c-0.058-0.028-0.105-0.071-0.143-0.124
	c-0.134-0.196-0.08-0.46,0.016-0.66l1.637-3.387c0.018-0.038,0.002-0.084-0.036-0.103c-0.038-0.019-0.085-0.002-0.104,0.036
	L26.149,5.45c-0.122,0.252-0.171,0.569-0.004,0.813c0.051,0.075,0.12,0.136,0.2,0.175c0.081,0.041,0.171,0.058,0.261,0.053
	c0.299-0.017,0.519-0.262,0.645-0.514l2.347-4.688c0.146-0.292,0.18-0.554,0.066-0.866c-0.187-0.516-0.775-0.84-1.305-0.658
	c-0.251,0.086-0.436,0.275-0.554,0.51L27.139,1.587z"/>
</svg>
