<?xml version="1.0" encoding="UTF-8"?>
<!DOCTYPE svg PUBLIC "-//W3C//DTD SVG 1.1//EN" "http://www.w3.org/Graphics/SVG/1.1/DTD/svg11.dtd">
<!-- Creator: CorelDRAW X7 -->
<svg xmlns="http://www.w3.org/2000/svg" xml:space="preserve" width="140px" height="57px" version="1.1" style="shape-rendering:geometricPrecision; text-rendering:geometricPrecision; image-rendering:optimizeQuality; fill-rule:evenodd; clip-rule:evenodd"
viewBox="0 0 457 179"
 xmlns:xlink="http://www.w3.org/1999/xlink">
 <defs>
  <style type="text/css">
   <![CDATA[
    .fil8 {fill:none}
    .fil9 {fill:#194228}
    .fil12 {fill:#540C03}
    .fil3 {fill:#59B9BD}
    .fil27 {fill:#808285}
    .fil17 {fill:#999999}
    .fil14 {fill:#A36C05}
    .fil20 {fill:#CC1A1A}
    .fil21 {fill:#D75F0C}
    .fil23 {fill:#E9AB0B}
    .fil16 {fill:#F6D935}
    .fil19 {fill:#FCDD35}
    .fil18 {fill:white}
    .fil2 {fill:white}
    .fil25 {fill:#454240;fill-rule:nonzero}
    .fil11 {fill:#540C03;fill-rule:nonzero}
    .fil22 {fill:#D75F0C;fill-rule:nonzero}
    .fil0 {fill:black;fill-opacity:0.200000}
    .fil24 {fill:#454240;fill-rule:nonzero;fill-opacity:0.301961}
    .fil5 {fill:url(#id0)}
    .fil26 {fill:url(#id1)}
    .fil6 {fill:url(#id2)}
    .fil4 {fill:url(#id3)}
    .fil7 {fill:url(#id4)}
    .fil1 {fill:url(#id5)}
    .fil15 {fill:url(#id6)}
    .fil10 {fill:url(#id7)}
    .fil13 {fill:url(#id8)}
   ]]>
  </style>
  <linearGradient id="id0" gradientUnits="userSpaceOnUse" x1="37.2686" y1="62.3245" x2="37.2686" y2="133.007">
   <stop offset="0" style="stop-opacity:1; stop-color:#1C7793"/>
   <stop offset="1" style="stop-opacity:1; stop-color:#80E5D8"/>
  </linearGradient>
  <linearGradient id="id1" gradientUnits="userSpaceOnUse" x1="368.162" y1="4.92284" x2="327.482" y2="81.6793">
   <stop offset="0" style="stop-opacity:1; stop-color:#AEABA9"/>
   <stop offset="0.478431" style="stop-opacity:1; stop-color:#E5E5E5"/>
   <stop offset="1" style="stop-opacity:1; stop-color:#AEABA9"/>
  </linearGradient>
  <linearGradient id="id2" gradientUnits="userSpaceOnUse" x1="47.1639" y1="94.7765" x2="41.4426" y2="135.828">
   <stop offset="0" style="stop-opacity:1; stop-color:#E64048"/>
   <stop offset="1" style="stop-opacity:1; stop-color:#844F9C"/>
  </linearGradient>
  <linearGradient id="id3" gradientUnits="userSpaceOnUse" x1="23.83" y1="59.7804" x2="64.9867" y2="100.136">
   <stop offset="0" style="stop-opacity:1; stop-color:#4DC0BB"/>
   <stop offset="1" style="stop-opacity:1; stop-color:#E4FEAB"/>
  </linearGradient>
  <linearGradient id="id4" gradientUnits="userSpaceOnUse" x1="65.2785" y1="83.1627" x2="75.6427" y2="111.957">
   <stop offset="0" style="stop-opacity:1; stop-color:#F79B76"/>
   <stop offset="1" style="stop-opacity:1; stop-color:#FCCB8D"/>
  </linearGradient>
  <linearGradient id="id5" gradientUnits="userSpaceOnUse" x1="365.43" y1="139.812" x2="81.2269" y2="55.5131">
   <stop offset="0" style="stop-opacity:1; stop-color:#F7F7F8"/>
   <stop offset="1" style="stop-opacity:1; stop-color:#D2D3D3"/>
  </linearGradient>
  <linearGradient id="id6" gradientUnits="userSpaceOnUse" x1="402.858" y1="85.3832" x2="373.567" y2="88.6029">
   <stop offset="0" style="stop-opacity:1; stop-color:#D29016"/>
   <stop offset="0.521569" style="stop-opacity:1; stop-color:#FEC201"/>
   <stop offset="1" style="stop-opacity:1; stop-color:#FFCE2E"/>
  </linearGradient>
  <radialGradient id="id7" gradientUnits="userSpaceOnUse" gradientTransform="matrix(1.41422 -0 -0 1.41422 -162 -40)" cx="392.09" cy="97.6632" r="87.5009" fx="392.09" fy="97.6632">
   <stop offset="0" style="stop-opacity:1; stop-color:#539171"/>
   <stop offset="1" style="stop-opacity:1; stop-color:#296D5C"/>
  </radialGradient>
  <radialGradient id="id8" gradientUnits="userSpaceOnUse" gradientTransform="matrix(3.81306 -0 -0 3.81313 -1100 -245)" cx="391.165" cy="87.2612" r="33.0591" fx="391.165" fy="87.2612">
   <stop offset="0" style="stop-opacity:1; stop-color:#FFC550"/>
   <stop offset="0.219608" style="stop-opacity:1; stop-color:#EB7213"/>
   <stop offset="0.439216" style="stop-opacity:1; stop-color:#F9A01A"/>
   <stop offset="0.639216" style="stop-opacity:1; stop-color:#D8610D"/>
   <stop offset="1" style="stop-opacity:1; stop-color:#D55B0C"/>
  </radialGradient>
 </defs>
 <g id="Layer_x0020_1">
  <metadata id="CorelCorpID_0Corel-Layer"/>
  <g id="_695696376">
   <path class="fil0" d="M14 34c118,0 324,-2 442,-2 0,65 1,93 1,145 -115,3 -328,2 -445,2 0,-65 2,-80 2,-145z"/>
   <path class="fil1" d="M4 25c119,0 323,-1 442,-1 0,65 0,85 1,143 -121,3 -328,5 -447,5 0,-65 4,-82 4,-147z"/>
   <path class="fil2" d="M336 59l0 77c-109,0 -219,0 -329,0l0 -77c110,0 220,0 329,0z"/>
   <path class="fil3" d="M18 129l0 -62c0,-2 1,-4 2,-4 1,-1 3,-1 4,0l57 31c3,1 7,4 -1,8l-56 30c-4,2 -6,0 -6,-3z"/>
   <path class="fil4" d="M21 62c1,0 2,1 3,1l43 23 -11 12 -35 -36z"/>
   <path class="fil5" d="M18 129l0 -62c0,-2 1,-4 2,-4 0,0 1,-1 1,-1l35 36 -35 35c-2,0 -3,-2 -3,-4z"/>
   <path class="fil6" d="M67 109l-43 23c-1,1 -2,1 -3,1l35 -35 11 11z"/>
   <path class="fil7" d="M67 86l14 8c3,1 7,4 -1,8l-13 7 -11 -11 11 -12z"/>
   <g>
    <polygon class="fil8" points="342,48 442,48 442,148 342,148 "/>
    <g>
     <path class="fil9" d="M392 48c28,0 50,22 50,50 0,27 -22,50 -50,50 -27,0 -50,-23 -50,-50 0,-28 23,-50 50,-50z"/>
     <path class="fil10" d="M392 49c27,0 48,22 48,49 0,26 -21,48 -48,48 -27,0 -48,-22 -48,-48 0,-27 21,-49 48,-49z"/>
     <g>
      <path class="fil11" d="M392 119l7 -1c0,0 1,0 1,0 0,0 0,0 0,0 -1,1 -1,2 -2,3 0,0 -1,0 -1,0 0,0 1,0 1,1 0,0 0,0 0,0 0,0 0,0 0,0 1,0 1,1 2,2 0,0 0,0 0,1 0,0 0,0 0,1 0,0 0,1 -1,1 0,0 0,1 0,1 1,0 1,0 1,1 0,0 0,0 0,1 0,0 -1,1 -1,1 0,0 0,0 0,1 0,0 0,0 0,0 0,0 0,0 0,1l0 0 0 0c0,0 -1,1 -1,1l2 11c-2,1 -4,1 -7,1l-1 -11c-1,0 -2,0 -2,-1l0 0c0,0 0,0 0,0 0,-1 0,-1 0,-1 0,0 0,0 0,0 -1,0 -1,-1 -2,-1 0,-1 0,-1 0,-1 0,-1 0,-1 0,-1 0,0 0,-1 0,-1 -1,0 -1,0 -2,-1 0,0 0,-1 0,-1 0,0 0,-1 0,-1 0,-1 1,-1 1,-2 0,0 0,0 0,0 0,0 0,-1 0,-1l0 0 0 0c1,0 1,0 1,0 0,0 -1,0 -1,0 -1,-1 -2,-1 -2,-2 0,0 0,0 0,0 0,-1 0,-1 0,-1l0 0 7 -1z"/>
      <path class="fil12" d="M392 119c-8,2 -17,0 -23,-6 -7,-8 -7,-19 -4,-28 4,-11 10,-22 15,-32l1 -1 0 0c9,9 18,17 26,26 6,8 9,18 5,27 -4,8 -12,13 -20,14z"/>
      <path class="fil13" d="M392 119c-21,3 -34,-13 -27,-34 4,-11 10,-21 16,-32 8,8 17,16 25,26 13,17 7,36 -14,40z"/>
      <path class="fil14" d="M382 58c8,7 16,14 22,22 5,7 8,16 5,24 -3,7 -10,11 -17,12 -8,1 -16,0 -21,-6 -6,-6 -6,-16 -3,-24 3,-10 8,-19 13,-28l1 -1 0 1z"/>
      <path class="fil15" d="M382 58c-5,9 -10,19 -14,28 -2,8 -2,18 4,24 5,5 12,7 19,5 8,-1 14,-4 17,-11 4,-8 1,-17 -4,-23 -7,-9 -15,-16 -22,-23z"/>
      <path class="fil16" d="M382 58c-5,9 -10,19 -14,28 -2,8 -2,18 4,24 5,5 12,7 19,5l-9 -57z"/>
      <path class="fil17" d="M378 92c-1,0 -2,1 -2,2l0 0c1,2 2,2 3,2l18 -3c1,0 2,-1 2,-2l0 0c-1,-1 -2,-2 -3,-2l-18 3zm0 -5c-2,0 -3,1 -2,2l0 0c0,2 1,2 2,2l18 -3c1,0 2,-1 2,-2l0 0c0,-1 -2,-2 -3,-2l-17 3zm-1 -5c-2,0 -2,1 -2,3l0 0c0,1 1,1 2,1l18 -3c1,0 2,-1 2,-2l0 0c0,-1 -1,-2 -3,-2l-17 3z"/>
      <path class="fil18" d="M378 93c0,0 -1,0 -1,1 0,1 1,2 2,1l18 -3c0,0 1,0 1,-1 0,-1 -1,-2 -2,-1l-18 3zm0 -5c-1,0 -2,1 -2,1 0,1 1,2 2,2l18 -3c1,-1 1,-1 1,-2 0,-1 -1,-1 -2,-1l-17 3zm-1 -5c-1,0 -2,1 -2,1 1,1 1,2 2,2l18 -3c1,-1 1,-1 1,-2 0,-1 -1,-1 -2,-1l-17 3z"/>
      <path class="fil19" d="M386 84c2,0 4,1 4,3 0,2 -1,3 -3,4 -2,0 -3,-1 -4,-3 0,-2 1,-3 3,-4z"/>
      <path class="fil20" d="M386 85c2,0 3,1 3,2 0,2 -1,3 -2,3 -1,0 -3,-1 -3,-2 0,-1 1,-3 2,-3z"/>
      <path class="fil12" d="M385 112c0,0 1,-1 1,-1 0,-1 1,-2 2,-2 0,-1 0,-1 0,-2 1,-1 1,-1 1,-2 0,-1 1,-1 1,0 1,1 1,1 2,1 0,1 0,1 0,2 2,0 3,0 3,1 0,0 1,0 1,1 0,0 0,0 0,0 2,1 2,2 1,3 0,0 0,0 0,0 0,0 1,0 1,0 1,-1 2,-1 2,0 0,-1 1,-1 2,0 0,-1 1,-2 2,-2 2,0 3,2 2,3 -1,1 -1,1 -2,1 -1,2 -3,3 -5,4l0 0 -14 2 0 0c-2,0 -4,-1 -6,-2 0,1 -1,1 -2,0 -1,0 -1,-3 1,-3 1,-1 2,0 3,0 0,0 1,0 1,0 1,-1 1,-1 2,-1 0,0 0,0 1,0 0,0 0,0 0,0 0,0 0,0 0,0 -1,0 -1,-2 0,-3z"/>
      <path class="fil21" d="M399 118l-1 0c1,0 1,-1 2,-1 1,-1 2,-2 2,-4 1,-1 2,-1 2,-1 2,0 2,1 1,2 0,1 -1,1 -1,0 -1,2 -3,3 -5,4zm-3 1l-1 0c0,0 0,0 0,0l-6 1c0,0 0,0 0,0l-1 0c-1,0 -3,0 -4,-1 -1,0 -2,-1 -3,-2 1,-1 1,-1 1,-1 0,0 0,0 0,0 1,1 1,1 1,2 1,1 2,1 3,1 1,0 2,0 2,0 0,0 1,0 1,0 0,0 0,0 0,-1l0 0 0 0 0 0 0 0 0 0 0 0c0,0 0,0 0,0 0,0 0,0 0,0 1,-1 1,-2 1,-4 0,-2 -1,-4 -1,-5 0,-1 0,-1 0,-2 0,0 1,-1 1,-2 0,1 1,1 1,2 1,0 1,1 1,1 -1,2 0,4 0,6 1,1 1,3 2,3 0,0 0,0 1,0 0,0 0,0 0,0l0 0c0,0 0,0 0,0 0,0 0,1 0,1 1,0 2,0 3,-1 0,0 1,-1 2,-2 0,0 0,-1 0,-2l0 0c1,0 1,0 1,0 0,1 -1,3 -2,4 -1,0 -2,1 -3,2zm-4 -10c1,-1 2,0 2,0 0,1 0,2 -1,3l0 0c0,1 0,2 0,2 0,0 0,1 0,1 0,-1 0,-1 0,-1 -1,-2 -1,-4 -1,-5zm3 1c0,0 0,0 1,0 -1,1 -1,1 -1,2 -1,0 -1,1 -1,1l0 0c0,0 0,-1 0,-1l0 0 0 0c0,-1 0,-1 1,-2zm1 1c1,0 1,2 0,2 0,0 0,0 0,0 0,-1 0,-1 -1,-1l0 0c0,0 0,0 0,0l0 0c1,0 1,-1 1,-1zm-1 3c0,0 0,0 0,0 0,0 0,0 0,0 0,0 0,0 0,0 -1,1 0,2 0,2 1,0 1,0 2,0 0,0 0,0 1,0 0,-1 1,-1 1,-3 0,0 0,0 1,0 -1,1 -1,1 -1,2 0,1 -1,1 -2,2 0,0 -1,0 -2,0 0,0 0,0 0,0 0,0 0,0 0,0 -1,0 -1,-1 -1,-1 0,0 0,-1 0,-1 0,0 0,0 0,-1l0 0c0,0 0,0 0,0 0,0 0,0 0,0 0,-1 0,-1 0,-1 0,0 0,0 1,0 0,0 0,0 0,0l0 0c0,0 1,0 1,0 0,1 0,2 -1,1zm0 1c1,0 1,0 2,0 0,-1 0,-2 1,-2 0,1 0,2 -1,2 0,0 0,1 -1,1 0,0 0,0 0,-1 0,0 -1,0 -1,0zm-6 3l0 0 0 0 0 0 0 0 0 0 0 0 0 0 0 0zm-3 2l-1 0c-2,0 -4,-1 -6,-2 0,1 -1,1 -1,1 -1,-1 -1,-2 0,-3 1,0 2,0 3,1 0,1 2,2 3,3 1,0 1,0 2,0zm-3 -4c0,0 0,0 1,0 0,1 1,2 2,2 0,0 0,0 1,0 0,0 0,0 1,-1 0,0 0,-1 0,-2 0,0 0,0 0,0 -1,0 -1,0 -1,1 0,0 0,0 0,0 -1,0 -2,-1 0,-2l0 0c0,0 0,0 1,0 0,0 0,0 0,0 0,0 0,0 0,1 0,0 0,0 0,0 1,0 1,0 1,0l0 0c0,0 0,1 0,1 0,0 0,0 0,1 0,0 0,0 0,1 0,0 -1,0 -1,0 0,0 0,0 0,0 0,0 -1,1 -2,0 -1,0 -1,0 -2,-1 0,0 -1,0 -1,-1zm1 0c1,-1 2,0 2,0 1,1 1,1 2,0 -1,1 -1,1 -1,1 0,0 0,0 0,0 -1,0 -1,0 -1,0 -1,0 -1,0 -2,-1zm2 -1c-1,-1 -2,-2 0,-2 0,0 0,0 1,1l0 0c0,0 0,0 0,0l0 0c-1,0 -1,0 -1,0 0,0 0,0 0,1zm0 -3c0,0 0,0 0,-1 1,1 1,2 2,2l0 0 0 0c0,0 0,1 0,1l0 0c0,0 -1,-1 -1,-1 0,0 -1,-1 -1,-1zm1 -1c0,-1 0,-2 1,-2 1,2 1,3 2,5 0,1 0,1 0,1 -1,0 -1,0 -1,0 0,-1 0,-1 -1,-2l0 0c0,-1 -1,-2 -1,-2z"/>
      <path class="fil21" d="M392 135l2 11c2,0 3,0 5,-1l-2 -11 -5 1z"/>
      <path class="fil22" d="M388 124l5 -1 4 -1c0,0 0,0 1,0 -1,0 -1,0 -1,0 0,0 -1,0 -2,0l-2 0 -3 1c-1,0 -2,0 -2,1l0 0c0,0 0,0 0,0 0,0 0,0 0,0z"/>
      <path class="fil22" d="M399 119l-7 1 -7 1c1,0 1,1 2,1 1,0 2,0 3,0l2 0 3 -1c1,0 2,0 3,-1 0,0 1,-1 1,-1z"/>
      <path class="fil22" d="M397 123l-4 1 -5 0c-1,1 -1,1 -1,2 0,0 0,1 0,1 0,0 0,0 0,1 0,0 1,1 2,0l4 0 5 -1c1,0 2,-1 2,-1 0,-1 0,-1 0,-1 0,-1 -1,-1 -1,-1 0,-1 -1,-1 -2,-1z"/>
      <path class="fil22" d="M394 131l4 0c1,0 1,-1 1,-2 0,0 0,0 0,0 0,0 0,-1 0,-1 0,0 -1,-1 -2,0l-3 0 -4 1c-1,0 -1,0 -2,1 0,0 0,0 0,1 1,0 1,0 1,0 0,1 1,1 1,1l4 -1z"/>
      <path class="fil22" d="M397 132l-3 0 -3 1c0,0 -1,0 -1,0 0,0 0,0 0,1 0,0 0,0 1,0l0 0c0,0 0,0 1,0l3 0 3 -1c0,0 0,0 0,-1l0 0c0,0 0,0 0,0 0,0 0,0 0,0 0,0 0,-1 -1,0z"/>
      <path class="fil23" d="M393 135l2 11c1,0 2,0 3,-1l-2 -11 -3 1zm5 -16l-11 2c0,0 0,0 0,1 1,0 2,0 2,0l6 -1c1,0 2,-1 2,-1 1,0 1,0 1,-1zm-1 4l-9 2c0,0 -1,1 -1,1 0,0 0,1 0,1 0,0 0,0 0,0 1,1 1,1 2,1l9 -2c1,0 1,0 1,-1 0,0 0,0 0,0 0,0 0,-1 0,-1 0,0 -1,-1 -2,-1zm-7 9l8 -2c0,0 1,0 1,-1 0,0 0,0 0,0 0,0 0,0 0,-1 -1,0 -1,0 -2,0l-7 1c-1,0 -1,1 -1,1 0,0 0,0 0,1 0,0 0,0 0,0 0,0 1,1 1,1zm8 0l-7 1c0,0 0,0 0,0 0,0 0,0 0,0 0,0 0,1 0,1l0 0c0,0 0,0 0,0l6 -1c1,0 1,0 1,-1 0,0 0,0 0,0 0,0 0,0 0,0 0,0 0,0 0,0zm2 -15c2,-1 3,-2 3,-3l1 -1 0 1c0,0 1,0 1,0 1,-1 0,-2 -1,-2 0,0 -1,1 -2,1 0,2 -1,3 -2,4zm-18 0c0,0 0,0 0,0 0,0 0,0 1,0 -1,0 -1,0 -1,0zm5 3c0,0 1,0 1,0l1 -1c0,0 0,0 0,0l6 -1c0,0 0,0 0,0l1 0c0,0 0,0 1,0 -1,0 -1,0 -2,0 0,0 0,0 0,0 0,0 0,0 0,0l0 0c0,0 -1,0 -1,0 0,0 0,0 0,0 -1,-1 -2,-3 -2,-4 -1,-2 -1,-4 -1,-6 0,0 0,-1 0,-1 -1,0 -1,0 -1,-1 0,1 -1,1 -1,2 0,0 0,0 0,1 1,1 1,3 2,5 0,2 -1,3 -2,4 0,0 0,0 0,1 0,0 0,0 0,0l0 0c0,0 0,0 0,0 0,0 0,0 0,0 -1,0 -1,0 -2,1zm13 -6c1,0 1,0 1,0 0,0 0,0 0,0 0,0 -1,0 -1,0zm-7 -5c0,1 0,2 0,3 0,0 0,0 0,0 0,-1 0,-2 1,-3 0,0 -1,0 -1,0zm2 1c0,0 0,0 0,0 0,1 0,1 0,1 0,0 0,0 0,-1zm1 2c0,0 0,0 0,0 0,0 0,0 0,0 1,0 1,0 0,0zm3 2c0,0 0,0 0,0 0,0 0,0 0,0 0,0 0,0 0,0zm-3 3c0,-1 -1,-1 -1,-1 0,0 -1,-1 -1,-1 0,0 0,0 0,0 0,0 0,0 0,1 1,0 1,0 1,0 0,0 0,0 0,0 0,0 0,0 0,0 0,1 1,1 1,1zm-1 -4c0,0 0,0 0,0 0,0 0,1 1,1 0,0 0,0 -1,-1 0,0 0,0 0,0l0 0c0,0 0,0 0,0zm2 2c0,0 0,0 0,0 0,0 0,-1 1,-1 -1,0 -1,1 -1,1 0,0 0,0 0,0zm-17 2c0,0 -1,-1 -2,0 -1,0 -1,1 0,1 0,1 1,0 1,0l0 -1 0 1c2,1 3,1 4,2 -1,-1 -2,-2 -3,-3zm3 -1c0,0 0,0 0,0 0,0 0,0 0,0 0,0 0,0 0,0zm5 2c0,0 0,0 0,0 0,0 0,0 0,0 0,0 0,0 0,-1 0,0 1,0 1,0 0,-1 0,-1 0,-1 0,0 0,0 0,0 0,0 0,1 -1,2 0,0 0,0 0,0zm-1 -3c0,0 0,0 0,0l0 0c-1,0 0,0 0,0 0,0 0,0 0,0 0,0 0,0 0,0zm-2 1c0,0 1,1 1,1 0,0 0,0 0,0 0,0 0,0 0,0 0,0 -1,-1 -1,-1zm1 -2c0,0 0,0 0,0 0,0 0,-1 0,-1 -1,1 -1,1 0,1zm0 -2c0,0 1,0 1,0 0,0 -1,0 -1,0 0,0 0,0 0,0zm1 -1c1,0 1,1 2,2 0,0 0,0 0,0 0,-1 -1,-2 -1,-3 -1,0 -1,0 -1,1z"/>
      <path class="fil16" d="M393 135l2 11c0,0 1,0 2,0l-2 -12 -2 1zm1 -2l0 0 -3 0c0,0 0,0 0,0 0,0 0,0 0,0 0,0 0,1 0,1l0 0c0,0 0,0 0,0l3 -1zm0 -2l0 -2 -4 0c-1,0 -1,1 -1,1 0,0 0,0 0,1 0,0 0,0 0,0 0,0 1,1 1,1l4 -1zm-1 -4l0 -3 -5 1c0,0 -1,1 -1,1 0,0 0,1 0,1 0,0 0,0 0,0 1,1 1,1 2,1l4 -1zm-1 -6l0 -1 -5 1c0,0 0,0 0,1 1,0 2,0 2,0l3 -1zm0 -2l-2 -13c0,1 -1,1 -1,2 0,0 0,0 0,1 1,1 1,3 2,5 0,2 -1,3 -2,4 0,0 0,0 0,1 0,0 0,0 0,0l0 0c0,0 0,0 0,0 0,0 0,0 0,0 -1,0 -1,0 -2,1 0,0 1,0 1,0l1 -1c0,0 0,0 0,0l3 0zm-10 -2c0,0 0,0 0,0 0,0 0,0 1,0 -1,0 -1,0 -1,0zm-2 0c0,0 -1,-1 -2,0 -1,0 -1,1 0,1 0,1 1,0 1,0l0 -1 0 1c2,1 3,1 4,2 -1,-1 -2,-2 -3,-3zm3 -1c0,0 0,0 0,0 0,0 0,0 0,0 0,0 0,0 0,0zm5 2c0,0 0,0 0,0 0,0 0,0 0,0 0,0 0,0 0,-1 0,0 1,0 1,0 0,-1 0,-1 0,-1 0,0 0,0 0,0 0,0 0,1 -1,2 0,0 0,0 0,0zm-1 -3c0,0 0,0 0,0l0 0c-1,0 0,0 0,0 0,0 0,0 0,0 0,0 0,0 0,0zm-2 1c0,0 1,1 1,1 0,0 0,0 0,0 0,0 0,0 0,0 0,0 -1,-1 -1,-1zm1 -2c0,0 0,0 0,0 0,0 0,-1 0,-1 -1,1 -1,1 0,1zm0 -2c0,0 1,0 1,0 0,0 -1,0 -1,0 0,0 0,0 0,0zm1 -1c1,0 1,1 2,2 0,0 0,0 0,0 0,-1 -1,-2 -1,-3 -1,0 -1,0 -1,1z"/>
     </g>
    </g>
   </g>
   <path class="fil24" d="M347 31c0,-1 1,-1 2,0 1,0 2,1 1,2l-20 42c-2,4 -2,6 -1,8l0 0 0 0c1,0 1,1 2,1 0,0 1,0 2,0 1,0 4,-1 5,-4l30 -60 0 0 0 0c1,-3 1,-5 0,-8 -1,-5 -7,-8 -12,-6 -3,1 -4,2 -6,5l-6 13 -5 0 8 -15c2,-3 4,-6 7,-7 8,-2 15,2 18,9 1,3 1,7 0,10l0 0 0 0 -1 1 0 0 0 0 -29 59c-3,5 -6,7 -9,7 -2,0 -3,0 -4,-1 -1,0 -2,-1 -3,-2l0 0c-2,-3 -2,-7 0,-11l21 -43z"/>
   <path class="fil25" d="M346 30c0,-1 1,-2 2,-1 1,0 2,2 1,3l-20 42c-2,3 -2,6 -1,7l0 0 0 0c1,1 1,1 2,1 0,1 1,1 2,1 2,0 4,-2 5,-5l30 -59c1,-2 2,-5 0,-8 -1,-5 -7,-8 -12,-7 -2,1 -4,3 -6,5l-7 15 -5 0 9 -16c2,-4 4,-6 7,-7 8,-3 16,2 18,8 2,5 1,8 -1,12l-29 59c-3,4 -6,6 -9,7 -1,0 -3,-1 -4,-1 -1,-1 -2,-2 -3,-3l0 0c-2,-2 -2,-6 0,-11l21 -42z"/>
   <path class="fil26" d="M338 24l3 0 8 -15c1,-3 3,-5 5,-6 6,-2 12,2 14,7 2,4 1,7 -1,10l-29 58c-1,3 -3,6 -6,6 -1,0 -2,0 -3,-1 0,0 -1,-1 -1,-1 -2,-3 -1,-6 0,-9l20 -42c1,0 0,-1 0,-1 -1,0 -1,0 -1,0l-21 43c-1,3 -2,7 0,10 1,1 2,1 3,2 1,0 2,1 3,1 4,-1 6,-4 8,-7l29 -58c2,-4 3,-7 1,-11 -2,-7 -10,-11 -16,-8 -3,1 -6,3 -7,6l-9 16z"/>
   <g>
    <path class="fil27" d="M260 94c-3,0 -4,0 -5,2 -1,1 -2,3 -2,6l0 1c0,3 1,5 2,7 1,1 2,2 5,2 2,0 3,-1 4,-3 2,-1 2,-4 2,-6 0,-3 0,-5 -2,-7 -1,-1 -2,-2 -4,-2zm0 20c-1,0 -3,0 -4,0 -1,-1 -2,-2 -3,-3l0 0c0,1 0,3 0,4l0 9 -3 0 0 -33 2 0 1 3 0 0c1,-1 2,-2 3,-2 1,-1 3,-1 4,-1 3,0 6,1 7,3 2,2 3,5 3,9 0,3 -1,6 -3,8 -1,2 -4,3 -7,3z"/>
    <polygon class="fil27" points="278,114 274,114 274,82 278,82 "/>
    <path class="fil27" d="M290 112c2,0 4,-1 5,-2 1,-1 2,-3 2,-5l0 -2 -4 0c-3,0 -5,1 -6,1 -1,1 -2,2 -2,4 0,1 1,2 2,3 0,0 1,1 3,1zm8 2l-1 -3 0 0c-1,1 -3,2 -4,3 -1,0 -2,0 -4,0 -2,0 -4,0 -5,-1 -2,-1 -2,-3 -2,-5 0,-5 3,-7 11,-7l4 -1 0 -1c0,-2 -1,-3 -1,-4 -1,-1 -2,-1 -4,-1 -2,0 -4,0 -7,2l-1 -3c1,-1 3,-1 4,-2 1,0 3,0 4,0 3,0 5,1 6,2 1,1 2,3 2,6l0 15 -2 0z"/>
    <path class="fil27" d="M302 91l4 0 5 13c1,3 2,5 2,7l0 0c0,-1 1,-2 1,-4 1,-2 3,-7 6,-16l3 0 -9 26c-1,3 -2,5 -4,6 -1,1 -3,1 -4,1 -2,0 -3,0 -4,0l0 -3c1,0 2,0 3,0 2,0 4,-1 5,-4l1 -3 -9 -23z"/>
    <path class="fil27" d="M194 106c1,-2 1,-3 1,-4 0,-3 -2,-9 -6,-9 -1,0 -2,1 -3,2 -1,1 -1,2 -1,3 0,4 2,9 6,9 1,0 2,-1 3,-1zm-1 9c-1,0 -1,0 -1,0 -1,0 -3,0 -5,0 -1,1 -4,2 -4,5 0,4 3,6 8,6 5,0 7,-2 7,-5 0,-3 -1,-4 -5,-6zm3 -22c1,1 4,3 4,7 0,3 -2,5 -4,7 -1,0 -2,1 -2,2 0,1 1,2 2,2l1 1c2,2 4,4 4,7 0,4 -4,9 -12,9 -7,0 -11,-3 -11,-7 0,-2 1,-4 4,-6 3,-1 7,-2 9,-2 0,-1 -1,-2 -1,-3 0,-1 0,-1 0,-2 0,0 -1,0 -1,0 -5,0 -8,-4 -8,-7 0,-2 1,-5 3,-7 3,-2 6,-2 8,-2l10 0 -3 1 -3 0z"/>
    <path class="fil27" d="M172 110c1,-2 2,-3 2,-5 0,-5 -2,-13 -8,-13 -2,0 -3,1 -5,2 -1,2 -2,4 -2,6 0,5 3,12 8,12 2,0 4,-1 5,-2zm-6 4c-7,0 -11,-6 -11,-11 0,-7 5,-12 12,-12 7,0 11,5 11,11 0,6 -4,12 -12,12z"/>
    <path class="fil27" d="M146 110c2,-2 2,-3 2,-5 0,-5 -2,-13 -8,-13 -2,0 -3,1 -4,2 -2,2 -3,4 -3,6 0,5 3,12 9,12 1,0 3,-1 4,-2zm-6 4c-7,0 -11,-6 -11,-11 0,-7 5,-12 12,-12 7,0 12,5 12,11 0,6 -5,12 -13,12z"/>
    <path class="fil27" d="M125 113l-7 2c-2,0 -5,0 -8,0 -13,0 -18,-9 -18,-17 0,-9 7,-18 20,-18 2,0 5,1 7,1 3,1 5,2 6,3l-4 4 -1 0 1 -2c-2,-1 -5,-4 -11,-4 -7,0 -13,6 -13,14 0,9 7,18 17,18 3,0 5,-1 6,-2l0 -7 -7 0 4 -2 10 0 -1 1c-1,0 -1,1 -1,1 0,0 0,2 0,2l0 6z"/>
    <path class="fil27" d="M211 112c-1,0 -2,-1 -2,-3l0 0 0 -27c0,0 0,0 1,0 0,-2 0,-2 2,-3l-7 0 -4 2 4 0 0 0 0 0 0 28 0 1c0,1 0,2 -1,3l8 0 2 -1c-1,0 -2,0 -3,0z"/>
    <path class="fil27" d="M226 98c1,0 2,-1 2,-1 0,-2 -2,-4 -5,-4 -2,0 -5,1 -5,6 0,1 0,2 0,3l8 -4zm5 14c-1,0 -1,1 -2,1 -1,1 -3,1 -4,1 -2,0 -4,0 -7,-2 -3,-2 -4,-6 -4,-10 0,-7 6,-11 10,-11 2,0 4,0 5,1 3,2 3,4 4,5l-12 5 -3 0c1,6 5,9 10,9 2,0 4,0 5,-1l-2 2z"/>
    <polygon class="fil27" points="235,91 235,94 235,94 235,91 234,91 234,91 236,91 236,91 "/>
    <polygon class="fil27" points="240,94 240,91 240,91 239,94 238,94 237,91 237,91 237,94 237,94 237,91 238,91 239,94 239,94 239,91 240,91 240,94 "/>
   </g>
  </g>
 </g>
</svg>
