<svg width="30px" height="30px" version="1.1" viewBox="0 0 67.469 67.469" xmlns="http://www.w3.org/2000/svg">
 <g transform="matrix(.0026024 0 0 .002599 -5.2162 -5.1845)" clip-rule="evenodd" fill-rule="evenodd" image-rendering="optimizeQuality" shape-rendering="geometricPrecision">
  <g>
   <circle fill="#FADE7E" cx="15000" cy="15000" r="12767"/>
   <polygon fill="#E31E24" points="10217 15313 9422 15313 6353 10722 6353 15313 5610 15313 5610 9465 6405 9465 9474 14055 9474 9465 10217 9465"/>
   <path fill="#E31E24" d="m14318 13941 743 98c-116 432-332 768-648 1006s-719 358-1210 358c-618 0-1108-191-1470-572-362-380-543-915-543-1602 0-711 182-1263 549-1655 366-393 841-589 1425-589 565 0 1026 192 1384 577s538 927 538 1625c0 42-1 106-4 191h-3157c27 464 158 821 395 1067 236 246 531 370 883 370 263 0 487-69 673-208s334-361 442-666zm-2352-1152h2361c-31-357-122-623-271-802-227-276-524-415-888-415-329 0-606 110-830 331-223 221-347 516-372 886z"/>
   <path fill="#804B1D" d="m18329 15313v-5848h2208c388 0 685 19 890 56 287 48 528 139 723 272 195 135 351 323 470 564 118 241 177 506 177 796 0 495-158 916-475 1259-316 344-889 516-1717 516h-1500v2385zm776-3071h1511c501 0 855-93 1066-279 210-186 314-448 314-787 0-244-61-453-185-628-124-174-287-290-489-346-131-34-372-52-722-52h-1496v2091z"/>
   <polygon fill="#804B1D" points="23670 15313 23670 9465 24389 9465 24389 15313"/>
   <path fill="#0D6B3A" d="m16257 18589h776v3377c0 588-67 1055-199 1401-133 344-373 626-719 843-347 216-800 325-1364 325-546 0-994-94-1341-283-349-189-596-462-745-820-148-358-223-847-223-1466v-3377h776v3376c0 508 48 884 141 1123 94 241 255 427 485 557 229 131 509 196 840 196 566 0 971-129 1212-387 241-259 361-754 361-1489z"/>
   <path fill="#0D6B3A" d="m18227 24437v-4239h645v649c165-301 317-500 457-595 140-97 294-144 461-144 242 0 489 76 739 227l-256 663c-174-98-349-147-523-147-157 0-297 48-421 142s-212 225-265 392c-80 255-120 534-120 837v2215h-719z"/>
  </g>
  <g fill="none" stroke="#2B2A29" stroke-linejoin="bevel" stroke-width="799.961">
   <line x1="4948" x2="15727" y1="12650" y2="12650"/>
   <line x1="17775" x2="25175" y1="12650" y2="12650"/>
   <line x1="10989" x2="20414" y1="22138" y2="22138"/>
  </g>
 </g>
</svg>
