<svg xmlns="http://www.w3.org/2000/svg" xml:space="preserve" width="120px" height="120px" version="1.1" shape-rendering="geometricPrecision" text-rendering="geometricPrecision" image-rendering="optimizeQuality" fill-rule="evenodd" clip-rule="evenodd" viewBox="0 0 12000 12000">
 <g id="Layer_x0020_3">
  <metadata id="CorelCorpID_0Corel-Layer"/>
  <rect fill="none" width="12000" height="12000"/>
  <path fill="#FF9B19" d="M6000 6000l1463 -4670c-462,-145 -953,-223 -1463,-223l0 4893z"/>
  <path fill="#D9D9D9" d="M7463 1330l-1463 4670 3782 -3105c-597,-726 -1399,-1278 -2319,-1566z"/>
  <path fill="#BD0404" d="M9782 2896l-3782 3105 4692 -1391c-188,-634 -501,-1215 -910,-1713z"/>
  <path fill="#332C69" d="M6596 10856l-596 -4856 -3720 3177c897,1049 2231,1715 3720,1715 202,0 401,-12 596,-36z"/>
  <path fill="#61A375" d="M2280 9178l3720 -3177 -4857 -592c-23,194 -35,391 -35,591 0,1213 441,2323 1172,3178z"/>
  <path fill="#F08143" d="M1143 5409l4857 592 -4243 -2438c-320,556 -534,1180 -614,1846z"/>
  <path fill="#FABD2D" d="M1143 5409l4857 592 -4243 -2438c-320,556 -534,1180 -614,1846z"/>
  <path fill="#FEFEFE" d="M1757 3563l4243 2438 0 -4893c-1814,0 -3398,988 -4243,2455z"/>
  <path fill="#FFED00" d="M6000 6000l596 4856c1605,-195 2970,-1166 3708,-2527l-4303 -2329z"/>
  <path fill="#FFED00" d="M6000 6000l4303 2329c376,-693 589,-1486 589,-2329 0,-483 -70,-950 -201,-1391l-4692 1391z"/>
  <path fill="#2B2A29" d="M6000 6000l4303 2329c376,-693 589,-1486 589,-2329 0,-483 -70,-950 -201,-1391l-4692 1391z"/>
  <path fill="#EF7F1A" d="M4327 3676l0 126 -711 0c-1,-32 4,-62 16,-92 18,-48 47,-96 88,-143 40,-47 98,-101 173,-162 116,-96 195,-171 236,-227 42,-56 62,-109 62,-159 0,-52 -19,-96 -56,-132 -37,-36 -86,-54 -147,-54 -64,0 -115,19 -153,57 -38,38 -58,90 -58,158l-135 -13c9,-101 44,-178 105,-231 61,-53 142,-79 244,-79 103,0 185,28 245,86 60,57 90,128 90,213 0,43 -9,85 -26,127 -17,42 -47,86 -88,132 -41,46 -109,109 -203,189 -79,66 -130,111 -153,135 -22,24 -41,47 -56,71l527 0z"/>
  <path id="1" fill="#EF7F1A" d="M4470 3272c0,-127 13,-229 39,-307 26,-78 65,-138 116,-179 51,-42 116,-62 194,-62 58,0 108,11 152,35 44,23 79,57 107,101 28,43 50,97 66,159 16,63 24,148 24,254 0,126 -13,228 -39,305 -26,78 -65,137 -116,180 -51,42 -116,63 -195,63 -103,0 -184,-37 -243,-110 -71,-90 -106,-236 -106,-437zm135 0c0,177 21,294 62,352 41,58 92,87 153,87 61,0 112,-29 153,-88 41,-58 62,-176 62,-352 0,-177 -21,-294 -62,-352 -41,-58 -92,-87 -154,-87 -60,0 -109,26 -145,77 -45,65 -68,186 -68,362z"/>
  <path fill="#FFFBDB" d="M6842 2328l-131 11c-12,-52 -28,-90 -50,-113 -36,-38 -80,-56 -133,-56 -42,0 -80,12 -112,35 -42,30 -74,74 -98,132 -24,58 -36,141 -38,248 32,-48 71,-84 117,-107 46,-24 94,-35 144,-35 88,0 163,32 225,97 62,65 93,148 93,251 0,68 -15,130 -44,188 -29,58 -69,102 -120,133 -51,31 -108,46 -173,46 -110,0 -199,-40 -269,-121 -69,-81 -104,-214 -104,-400 0,-207 39,-358 115,-453 67,-82 157,-123 271,-123 84,0 154,24 208,71 54,47 86,112 97,196zm-540 464c0,45 10,89 29,131 19,41 46,73 80,95 34,22 71,33 110,33 56,0 104,-22 144,-67 40,-45 60,-106 60,-183 0,-74 -20,-133 -59,-176 -39,-43 -89,-64 -150,-64 -60,0 -110,21 -152,64 -41,43 -62,99 -62,168z"/>
  <path fill="#2B2A29" d="M7507 3727l-132 0 0 -840c-32,30 -74,61 -125,91 -51,30 -98,53 -139,68l0 -128c74,-34 138,-76 193,-126 55,-49 94,-97 118,-144l85 0 0 1078z"/>
  <path id="1" fill="#2B2A29" d="M7846 3197c0,-127 13,-229 39,-307 26,-78 65,-138 116,-179 51,-42 116,-62 194,-62 58,0 108,11 152,35 44,23 79,57 107,101 28,43 50,97 66,159 16,63 24,148 24,254 0,126 -13,228 -39,305 -26,78 -65,137 -116,180 -51,42 -116,63 -195,63 -103,0 -184,-37 -243,-110 -71,-90 -106,-236 -106,-437zm135 0c0,177 21,294 62,352 41,58 92,87 153,87 61,0 112,-29 153,-88 41,-58 62,-176 62,-352 0,-177 -21,-294 -62,-352 -41,-58 -92,-87 -154,-87 -60,0 -109,26 -145,77 -45,65 -68,186 -68,362z"/>
  <path fill="#FFFBDB" d="M4390 9544l-132 0 0 -840c-32,30 -74,61 -125,91 -51,30 -98,53 -139,68l0 -128c74,-34 138,-76 193,-126 55,-49 94,-97 118,-144l85 0 0 1078z"/>
  <path id="1" fill="#FFFBDB" d="M4729 9015c0,-127 13,-229 39,-307 26,-78 65,-138 116,-179 51,-42 116,-62 194,-62 58,0 108,11 152,35 44,23 79,57 107,101 28,43 50,97 66,159 16,63 24,148 24,254 0,126 -13,228 -39,305 -26,78 -65,137 -116,180 -51,42 -116,63 -195,63 -103,0 -184,-37 -243,-110 -71,-90 -106,-236 -106,-437zm135 0c0,177 21,294 62,352 41,58 92,87 153,87 61,0 112,-29 153,-88 41,-58 62,-176 62,-352 0,-177 -21,-294 -62,-352 -41,-58 -92,-87 -154,-87 -60,0 -109,26 -145,77 -45,65 -68,186 -68,362z"/>
  <path fill="#FFFBDB" d="M8772 3958l0 -126 694 0 0 102c-68,73 -136,169 -203,290 -67,121 -119,245 -156,373 -26,90 -43,189 -50,296l-135 0c2,-84 18,-187 50,-306 32,-120 77,-236 136,-347 59,-111 122,-205 189,-281l-525 0z"/>
  <path fill="#2B2A29" d="M2312 4489l0 -126 694 0 0 102c-68,73 -136,169 -203,290 -67,121 -119,245 -156,373 -26,90 -43,189 -50,296l-135 0c2,-84 18,-187 50,-306 32,-120 77,-236 136,-347 59,-111 122,-205 189,-281l-525 0z"/>
  <path fill="#FFFBDB" d="M8960 6835l-132 0 0 -840c-32,30 -74,61 -125,91 -51,30 -98,53 -139,68l0 -128c74,-34 138,-76 193,-126 55,-49 94,-97 118,-144l85 0 0 1078z"/>
  <path id="1" fill="#FFFBDB" d="M9319 6586l126 -11c11,60 31,103 62,129 30,27 69,40 116,40 41,0 76,-9 107,-28 31,-19 56,-43 75,-75 19,-31 36,-73 49,-126 13,-53 20,-106 20,-161 0,-6 0,-15 -1,-26 -26,42 -62,76 -108,102 -46,26 -95,39 -148,39 -89,0 -164,-32 -225,-97 -61,-64 -92,-149 -92,-255 0,-109 32,-197 96,-263 64,-66 144,-99 241,-99 69,0 133,19 191,56 58,38 101,91 131,161 30,70 45,170 45,302 0,137 -15,246 -44,328 -30,81 -74,143 -133,186 -59,42 -128,64 -207,64 -84,0 -152,-23 -206,-70 -53,-47 -85,-113 -96,-197zm539 -474c0,-76 -20,-136 -60,-180 -40,-44 -88,-66 -145,-66 -59,0 -110,24 -153,71 -43,48 -65,110 -65,186 0,68 21,124 61,166 41,43 92,64 153,64 61,0 111,-21 150,-64 39,-42 59,-102 59,-177z"/>
  <path fill="#2B2A29" d="M7493 9300l-132 0 0 -840c-32,30 -74,61 -125,91 -51,30 -98,53 -139,68l0 -128c74,-34 138,-76 193,-126 55,-49 94,-97 118,-144l85 0 0 1078z"/>
  <path id="1" fill="#2B2A29" d="M8518 8489l-131 11c-12,-52 -28,-90 -50,-113 -36,-38 -80,-56 -133,-56 -42,0 -80,12 -112,35 -42,30 -74,74 -98,132 -24,58 -36,141 -38,248 32,-48 71,-84 117,-107 46,-24 94,-35 144,-35 88,0 163,32 225,97 62,65 93,148 93,251 0,68 -15,130 -44,188 -29,58 -69,102 -120,133 -51,31 -108,46 -173,46 -110,0 -199,-40 -269,-121 -69,-81 -104,-214 -104,-400 0,-207 39,-358 115,-453 67,-82 157,-123 271,-123 84,0 154,24 208,71 54,47 86,112 97,196zm-540 464c0,45 10,89 29,131 19,41 46,73 80,95 34,22 71,33 110,33 56,0 104,-22 144,-67 40,-45 60,-106 60,-183 0,-74 -20,-133 -59,-176 -39,-43 -89,-64 -150,-64 -60,0 -110,21 -152,64 -41,43 -62,99 -62,168z"/>
  <path fill="#2B2A29" d="M2535 7449l-132 0 0 -840c-32,30 -74,61 -125,91 -51,30 -98,53 -139,68l0 -128c74,-34 138,-76 193,-126 55,-49 94,-97 118,-144l85 0 0 1078z"/>
  <path id="1" fill="#2B2A29" d="M2881 6515l0 -126 694 0 0 102c-68,73 -136,169 -203,290 -67,121 -119,245 -156,373 -26,90 -43,189 -50,296l-135 0c2,-84 18,-187 50,-306 32,-120 77,-236 136,-347 59,-111 122,-205 189,-281l-525 0z"/>
 </g>
</svg>
