<svg xmlns="http://www.w3.org/2000/svg" xml:space="preserve" width="100px" height="100px" version="1.1" style="shape-rendering:geometricPrecision; text-rendering:geometricPrecision; image-rendering:optimizeQuality; fill-rule:evenodd; clip-rule:evenodd"
viewBox="0 0 100 100">
 <defs>
  <style type="text/css">
   <![CDATA[
    .fil0 {fill:none}
    .fil1 {fill:#AE0000}
   ]]>
  </style>
 </defs>
 <g id="Layer_x0020_1">
  <metadata id="CorelCorpID_0Corel-Layer"/>
  <g id="_673535184">
   <rect class="fil0" width="100" height="100"/>
   <g>
    <path class="fil1" d="M13 76c4,0 7,1 8,2 0,2 -2,4 -5,4 -4,0 -7,-1 -8,-2 -1,-2 2,-4 5,-4z"/>
    <path class="fil1" d="M15 83c3,0 6,0 6,2 1,1 -1,2 -4,3 -3,0 -6,-1 -6,-2 -1,-2 1,-3 4,-3z"/>
    <path class="fil1" d="M18 88c3,0 6,0 7,1 0,2 -1,3 -4,3 -2,1 -5,0 -6,-1 -1,-1 1,-2 3,-3z"/>
    <path class="fil1" d="M24 93c2,-1 4,-1 6,0 1,1 0,2 -2,3 -2,1 -5,1 -6,0 -1,-1 -1,-2 2,-3z"/>
    <path class="fil1" d="M31 95c1,-1 3,-1 4,0 1,0 0,2 -1,2 -1,1 -3,1 -4,0 0,0 0,-1 1,-2z"/>
    <path class="fil1" d="M22 79c0,0 3,-6 14,-4 7,2 6,3 13,8 3,1 12,2 20,0 5,-3 7,-8 11,-10 8,-4 10,2 11,3 1,2 2,6 1,8 -1,3 -2,4 -9,4 -11,1 -19,1 -22,2 -6,2 -13,8 -23,5 -4,-1 -19,-8 -16,-16z"/>
   </g>
   <path class="fil1" d="M61 74l0 0 0 0c0,0 0,0 0,0 0,0 -1,0 -1,0l0 0 -1 0c0,1 -1,1 -2,1 -1,0 -2,-1 -4,-3 -1,-1 -2,-3 -4,-5l-1 -2 2 0c6,0 10,-2 14,-5 4,-4 6,-8 6,-13 0,-2 -1,-4 -2,-7 -2,-2 -4,-4 -7,-7l-1 -1 1 -1c2,-1 3,-3 4,-5 1,-1 2,-3 2,-4 0,-3 -2,-6 -6,-10 -4,-4 -8,-6 -11,-6 -5,0 -11,2 -18,6 0,0 1,1 1,1 1,2 1,3 2,4 0,1 0,1 1,1 0,1 0,1 0,1 1,0 1,0 1,-1 1,0 1,-1 2,-1l0 0 0 -1c1,-1 3,-1 5,-2 3,-1 6,-1 9,-1 2,0 4,0 6,1 1,0 3,1 3,2l0 0 0 0c0,4 -2,7 -6,9 -4,3 -8,4 -14,4 0,0 -1,0 -1,0 0,1 0,1 0,1l5 7c3,0 7,-2 12,-4l1 0 1 1c1,1 2,3 3,4 1,2 1,3 1,5 0,4 -2,7 -6,10 -4,3 -8,5 -13,5l-1 0 -1 -1c-1,-2 -2,-4 -4,-6 -1,-1 -3,-1 -4,-1 -1,0 -2,0 -3,1 -1,1 -2,1 -2,2 0,3 2,6 5,8 3,3 7,4 11,4l1 0 0 1c2,5 4,9 7,12 2,3 4,5 5,5 2,0 4,-1 6,-2l-3 -6c0,-1 0,-1 -1,-1z"/>
  </g>
 </g>
</svg>
