<svg xmlns="http://www.w3.org/2000/svg" xml:space="preserve" width="100px" height="100px" version="1.1" style="shape-rendering:geometricPrecision; text-rendering:geometricPrecision; image-rendering:optimizeQuality; fill-rule:evenodd; clip-rule:evenodd"
viewBox="0 0 100 100">
 <defs>
  <style type="text/css">
   <![CDATA[
    .fil0 {fill:none}
    .fil1 {fill:#AE0000}
   ]]>
  </style>
 </defs>
 <g id="Layer_x0020_1">
  <metadata id="CorelCorpID_0Corel-Layer"/>
  <g id="_675408096">
   <rect class="fil0" width="100" height="100"/>
   <path class="fil1" d="M22 79c0,0 3,-6 14,-4 7,2 6,3 13,8 3,1 12,2 20,0 5,-3 7,-8 11,-10 8,-4 10,2 11,3 1,2 2,6 1,8 -1,3 -2,4 -9,4 -11,1 -19,1 -22,2 -6,2 -13,8 -23,5 -4,-1 -19,-8 -16,-16zm-9 -3c4,0 7,1 8,2 0,2 -2,4 -5,4 -4,0 -7,-1 -8,-2 -1,-2 2,-4 5,-4zm2 7c3,0 6,0 6,2 1,1 -1,2 -4,3 -3,0 -6,-1 -6,-2 -1,-2 1,-3 4,-3zm3 5c3,0 6,0 7,1 0,2 -1,3 -4,3 -2,1 -5,0 -6,-1 -1,-1 1,-2 3,-3zm6 5c2,-1 4,-1 6,0 1,1 0,2 -2,3 -2,1 -5,1 -6,0 -1,-1 -1,-2 2,-3zm7 2c1,-1 3,-1 4,0 1,0 0,2 -1,2 -1,1 -3,1 -4,0 0,0 0,-1 1,-2z"/>
   <path class="fil1" d="M73 66c0,0 -1,0 -2,0 -1,0 -2,0 -3,1 -2,1 -3,2 -5,3 -1,0 -2,1 -3,1 -1,0 -1,0 -1,-1 -2,0 -4,-2 -6,-4 -2,-3 -3,-7 -5,-11l0 -2 1 0c6,-1 10,-4 14,-8 4,-3 6,-7 6,-12 1,-8 -1,-13 -5,-18 -4,-5 -9,-9 -13,-10 -2,-1 -4,-1 -6,-1 -3,0 -5,0 -8,1 -5,1 -9,3 -14,5l4 8 0 0 0 0c0,1 1,1 1,1l0 0 0 1c0,0 1,0 2,0l0 0 0 0c0,0 0,0 0,0 0,0 0,0 0,0l0 -1 1 0c0,0 0,-2 0,-3l0 -1 1 0c6,-2 11,-3 16,-3 1,0 3,1 5,1 4,1 7,3 10,6 3,2 4,9 4,10 -1,4 -2,9 -7,12 -4,4 -12,7 -18,5l-1 0 0 -1c-2,-2 -1,-5 -4,-6 -1,-1 -2,-1 -4,-2 0,0 -1,0 -1,0 -2,0 -3,1 -5,1 -1,1 -2,2 -2,4 -1,3 1,6 4,8 4,3 9,5 14,5l1 0 1 1c3,7 6,13 8,17 3,4 5,6 7,6 1,1 2,1 2,1 2,0 4,-1 6,-1 3,-2 6,-3 8,-6l-3 -7z"/>
  </g>
 </g>
</svg>
