<svg xmlns="http://www.w3.org/2000/svg" xml:space="preserve" width="100px" height="100px" version="1.1" style="shape-rendering:geometricPrecision; text-rendering:geometricPrecision; image-rendering:optimizeQuality; fill-rule:evenodd; clip-rule:evenodd"
viewBox="0 0 100 100">
 <defs>
  <style type="text/css">
   <![CDATA[
    .fil0 {fill:none}
    .fil1 {fill:#AE0000}
   ]]>
  </style>
 </defs>
 <g id="Layer_x0020_1">
  <metadata id="CorelCorpID_0Corel-Layer"/>
  <g id="_675042176">
   <rect class="fil0" width="100" height="100"/>
   <g>
    <path class="fil1" d="M13 76c4,0 7,1 8,2 0,2 -2,4 -5,4 -4,0 -7,-1 -8,-2 -1,-2 2,-4 5,-4z"/>
    <path class="fil1" d="M15 83c3,0 6,0 6,2 1,1 -1,2 -4,3 -3,0 -6,-1 -6,-2 -1,-2 1,-3 4,-3z"/>
    <path class="fil1" d="M18 88c3,0 6,0 7,1 0,2 -1,3 -4,3 -2,1 -5,0 -6,-1 -1,-1 1,-2 3,-3z"/>
    <path class="fil1" d="M24 93c2,-1 4,-1 6,0 1,1 0,2 -2,3 -2,1 -5,1 -6,0 -1,-1 -1,-2 2,-3z"/>
    <path class="fil1" d="M31 95c1,-1 3,-1 4,0 1,0 0,2 -1,2 -1,1 -3,1 -4,0 0,0 0,-1 1,-2z"/>
    <path class="fil1" d="M22 79c0,0 3,-6 14,-4 7,2 6,3 13,8 3,1 12,2 20,0 5,-3 7,-8 11,-10 8,-4 10,2 11,3 1,2 2,6 1,8 -1,3 -2,4 -9,4 -11,1 -19,1 -22,2 -6,2 -13,8 -23,5 -4,-1 -19,-8 -16,-16z"/>
   </g>
   <path class="fil1" d="M49 49c-4,3 -7,5 -10,7 -3,3 -3,4 -3,6 0,2 1,4 3,6 2,1 4,2 6,2 5,0 7,0 10,-3 3,-2 5,-5 5,-9 0,-2 -1,-3 -3,-5 -1,-2 -3,-2 -4,-3 -1,0 -2,-1 -2,-1l-1 0 -1 0zm1 27c-3,0 -8,-1 -14,-6 -2,-2 -4,-4 -5,-6 -1,-2 -2,-4 -2,-6 0,-2 1,-4 3,-7 2,-2 5,-5 9,-7l2 -1 -2 -1c-6,-3 -10,-7 -13,-11 -3,-4 -4,-9 -4,-13 0,-3 1,-6 4,-8 3,-3 7,-4 12,-5l0 0 5 7 0 0c0,0 0,0 0,0 0,1 1,1 1,1l-1 1 0 0 0 0c0,0 0,0 0,0l0 -1 0 0 -1 0 0 0 -1 0c-3,0 -6,1 -8,3 -2,3 -3,5 -3,8 0,3 0,6 3,9 3,2 6,4 9,6l2 1 1 0c8,-5 12,-8 17,-12 4,-5 7,-8 7,-12 0,-2 -1,-4 -2,-5 0,-1 -1,-2 -1,-2l0 -1 3 -3 0 0c3,6 5,12 5,16 0,5 -1,10 -5,14 -3,5 -8,8 -14,10l-3 1 3 2c3,2 6,4 9,7 2,3 3,6 3,8 0,4 -2,7 -6,9 -3,3 -8,4 -13,4l0 0z"/>
  </g>
 </g>
</svg>
