<svg xmlns="http://www.w3.org/2000/svg" xml:space="preserve" width="100px" height="100px" version="1.1" style="shape-rendering:geometricPrecision; text-rendering:geometricPrecision; image-rendering:optimizeQuality; fill-rule:evenodd; clip-rule:evenodd"
viewBox="0 0 100 100">
 <defs>
  <style type="text/css">
   <![CDATA[
    .fil0 {fill:none}
    .fil1 {fill:#AE0000}
   ]]>
  </style>
 </defs>
 <g id="Layer_x0020_1">
  <metadata id="CorelCorpID_0Corel-Layer"/>
  <g id="_666651376">
   <rect class="fil0" width="100" height="100"/>
   <path class="fil1" d="M13 76c4,0 7,1 8,2 0,2 -2,4 -5,4 -4,0 -7,-1 -8,-2 -1,-2 2,-4 5,-4zm2 7c3,0 6,0 6,2 1,1 -1,2 -4,3 -3,0 -6,-1 -6,-2 -1,-2 1,-3 4,-3zm3 5c3,0 6,0 7,1 0,2 -1,3 -4,3 -2,1 -5,0 -6,-1 -1,-1 1,-2 3,-3zm6 5c2,-1 4,-1 6,0 1,1 0,2 -2,3 -2,1 -5,1 -6,0 -1,-1 -1,-2 2,-3zm7 2c1,-1 3,-1 4,0 1,0 0,2 -1,2 -1,1 -3,1 -4,0 0,0 0,-1 1,-2zm-9 -16c0,0 3,-6 14,-4 7,2 6,3 13,8 3,1 12,2 20,0 5,-3 7,-8 11,-10 8,-4 10,2 11,3 1,2 2,6 1,8 -1,3 -2,4 -9,4 -11,1 -19,1 -22,2 -6,2 -13,8 -23,5 -4,-1 -19,-8 -16,-16z"/>
   <path class="fil1" d="M44 25c-1,-1 -1,-3 -1,-4 0,-2 1,-5 3,-6 2,-2 4,-3 7,-3 2,0 3,0 5,1 1,2 2,3 2,5l0 0 0 0c0,1 -1,3 -3,5 -2,2 -4,5 -8,7l-1 1 -1 -1c-1,-2 -2,-3 -3,-5zm19 47c0,-1 1,-3 1,-4 0,-2 -1,-3 -2,-5 -1,-3 -3,-5 -5,-7l-10 -11 -1 -1 1 -1 10 -7c3,-2 5,-4 6,-7 2,-2 2,-4 2,-5 0,-6 -1,-10 -5,-14 -3,-4 -7,-6 -12,-6 -4,0 -7,1 -10,4 -2,2 -4,5 -4,9 0,2 1,4 3,7 2,3 5,5 9,8l1 1 -1 1 -6 6c-1,1 -1,1 -1,2 0,0 0,1 1,2l11 10 0 0 0 0c1,1 2,3 3,4 1,2 2,3 2,3 0,2 -1,4 -2,6 -1,2 -3,3 -5,4l0 0 0 0c0,0 0,0 0,1 0,1 0,2 1,3l4 5 5 -4c1,-1 3,-3 4,-4z"/>
  </g>
 </g>
</svg>
