<svg xmlns="http://www.w3.org/2000/svg" xml:space="preserve" width="32" height="32" style="shape-rendering:geometricPrecision;text-rendering:geometricPrecision;image-rendering:optimizeQuality;fill-rule:evenodd;clip-rule:evenodd" viewBox="0 0 100 100"><defs><style>.fil1{fill:#2b2a29}</style></defs><g id="Layer_x0020_1"><g id="_309172624"><path d="M0 100h100V0H0z" style="fill:none;fill-rule:nonzero"/><circle cx="50" cy="50" r="50" class="fil1"/><circle cx="50" cy="50" r="46" style="fill:#434242"/><path d="M52 37c-4 0-1 0-3 3-1 1 1 2 2 4 0 1 2 0 4 1 4 4 0-2 3-3 2 0 2 1 3-1 1-1 0-1-1-2-2-2-1-2 1-2 3 1 4-2 4 2 0 3-4 1-2 3 1 3 2 4 2 6 0 3 4 1 6 3 0 0-1 1-1 3 0 3-2 0 3 4 1 1 1-2 2-1 3 2 2-1 2 3 0 1-2 1-1 1v3c0 1-2 2 3 2 2-1 1-1 2-1 0 0 1-3 0-4v-2s0-1-2-2c0-1-5 1-4-6 0-4-1-4 3-4 0 0 2 2 3 1 1-2 1 4 1 5 1 3 3 2 4 4 0 1 2-1 2 0s-1 3-2 4c0 0-1 3 0 3 0 1 1 2 2 0l1-2c0-2 2 0 1-5 1 0 1 0 1-1s1-1 0-2c-1-2 1-6 1 0v4c-1 2 1 0 1-1v-6c0-3 1-2-2-4 0 0 0-1 1-1s2-3-1-3h-1c-1 0-1 0-3-1s-3-1-4-3c-2-1-3 1-5-3-1-1-1 0 0-2 0-1-2 0-2-3-1-1-3-1-3 0 0 2 1 1 0 3-1 0-1 1-1 2 1 0-4-1-2-2 2-2-2-3-2-4 0-2 1-3-1-4-3-1 1-4-1-4 0-1-4-2-5-1 0 1-1 1-1 2s-2 0-3 0-3 0-3 1c0 2 0 4-3 5 0 0-2 1 0 2 3 1 1 0 2 3v1zM23 72c-3 11 9 9 9 7 1-2 1-4 3-4 5 0 5 1 10 1 1 0 5-3 3-5-1-1-3-6-2-8 2-4-8-6-4-8 2-1-1-3 3-3 1 0 3 3 7 2 1 0 2-3-2-3-2 0-4-1-5-2v-4c2 0-1-3-2-4-2-2 2-2 1-6-1-3-7-5 0-6 5-1 2-2 4-3 1-1 6 3 5-3 0-5 4-5-3-5-3 0-2 6-8 1-3-3-5-2-8-1s-7 3-8 6c0 1-3 3-3 2-1-7 2-5 4-7s8-4 11-3c2 0 5-4 10 0 1 2 8-4 10-2 4 4-3 9 7 9 0 0 6 1 6-1 0-3-8-5-9-7-1-4 2-3-6-6-3-2-8-1-12-1-1 0-1 1-4 2s-15 5-17 7c-5 4-7-1-12 9-6 11-5 11-5 24 0 2 4 0 3 4-1 2 2 2 1 3-6 4 1 2 2 5 0 1 5 8 6 7 3-4 3-4 6-1 1 1 1 3 0 4z" class="fil1"/></g></g></svg>