<svg xmlns="http://www.w3.org/2000/svg" xml:space="preserve" width="30px" height="30px" version="1.1"
     shape-rendering="geometricPrecision" text-rendering="geometricPrecision" image-rendering="optimizeQuality" fill-rule="evenodd" clip-rule="evenodd"
viewBox="0 0 20000 20000">
 <g id="Layer_x0020_1">
 <rect fill="none" width="20000" height="20000"/>
 <line fill="none" stroke="#763C1D" stroke-width="600.005" x1="6626" y1="2164" x2="9247" y2= "13787" />
 <g>
  <path fill="#E31E24" d="M18455 4449l-800 0 0 0 -5 -67 -17 -69 -30 -75 -45 -81 -63 -87 -82 -91 -101 -95 -120 -96 -138 -97 -156 -97 -174 -96 -191 -94 -207 -93 -222 -90 -237 -87 -251 -84 -265 -80 -278 -76 -290 -72 -302 -68 -313 -64 -324 -59 -334 -54 -343 -49 -352 -44 -361 -39 -369 -33 -376 -28 -383 -22 -390 -16 -395 -10 -401 -3 0 -800 414 3 408 10 403 16 396 23 389 29 382 34 375 40 366 46 358 51 349 57 339 62 329 67 319 72 308 77 297 82 285 86 273 91 260 96 248 100 234 105 221 110 207 115 193 120 179 126 164 132 148 139 132 148 114 157 94 167 71 178 45 186 15 192 0 0zm-8312 2917l0 -800 0 0 401 -3 395 -10 390 -16 383 -22 376 -28 369 -33 361 -39 352 -44 343 -49 334 -54 324 -59 313 -64 302 -68 290 -72 278 -77 265 -80 251 -84 237 -87 222 -90 207 -92 191 -95 174 -96 156 -97 138 -97 120 -97 101 -95 82 -91 63 -87 45 -81 30 -74 17 -69 5 -67 800 0 -15 192 -45 186 -71 178 -94 167 -114 157 -132 148 -148 139 -164 132 -179 126 -193 120 -207 115 -221 110 -234 105 -248 100 -261 96 -273 91 -285 86 -297 82 -308 77 -319 72 -329 67 -339 62 -349 57 -358 51 -366 46 -375 40 -382 34 -389 29 -396 23 -403 16 -408 10 -414 3 0 0zm-8312 -2917l800 0 0 0 5 67 17 69 30 74 45 81 63 87 82 91 101 95 120 97 138 97 156 97 174 96 191 95 207 92 222 90 237 87 251 84 265 80 277 77 290 72 302 68 313 64 324 59 334 54 343 49 352 44 361 39 369 33 376 28 383 22 390 16 395 10 401 3 0 800 -414 -3 -408 -10 -403 -16 -396 -23 -389 -29 -382 -34 -375 -40 -366 -46 -358 -51 -349 -57 -339 -62 -329 -67 -319 -72 -308 -77 -297 -82 -285 -86 -273 -91 -260 -96 -248 -100 -234 -105 -221 -110 -207 -115 -193 -120 -179 -126 -164 -132 -148 -139 -132 -148 -114 -157 -94 -167 -71 -178 -45 -186 -15 -192 0 0zm8312 -2918l0 800 0 0 -401 3 -395 10 -390 16 -383 22 -376 28 -369 33 -361 39 -352 44 -343 49 -334 54 -324 59 -313 64 -302 68 -290 72 -277 76 -265 80 -251 84 -237 87 -222 90 -207 93 -191 94 -174 96 -156 97 -138 97 -120 96 -101 95 -82 91 -63 87 -45 81 -30 75 -17 69 -5 67 -800 0 15 -192 45 -186 71 -178 94 -167 114 -157 132 -148 148 -139 164 -132 179 -126 193 -120 207 -115 221 -110 234 -105 248 -100 260 -96 273 -91 285 -86 297 -82 308 -77 319 -72 329 -67 339 -62 349 -57 358 -51 366 -46 375 -40 382 -34 389 -29 396 -23 403 -16 408 -10 414 -3 0 0z"/>
 </g>
 <line fill="none" stroke="#763C1D" stroke-width="600.005" x1="2194" y1="4528" x2="7604" y2= "14561" />
 <line fill="none" stroke="#763C1D" stroke-width="600.005" x1="18046" y1="4719" x2="11874" y2= "14017" />
 <g>
  <path fill="#763C1D" d="M11216 7140l-1334 91 -27 -399 1334 -91 27 399zm1461 -300l-2848 1457 33 -81 30 -81 28 -81 25 -81 23 -81 20 -80 18 -80 15 -80 13 -80 11 -80 8 -79 6 -79 3 -79 1 -79 -2 -79 -4 -79 -6 -78 -9 -78 -11 -78 -14 -78 -16 -78 -19 -78 -21 -77 -24 -77 -26 -77 -29 -77 -31 -77 -34 -77 -36 -77 -39 -76 -41 -76 -43 -76 0 0 3019 1057z"/>
 </g>
 <g>
  <path fill="#763C1D" d="M9685 1736l924 0 0 400 -924 0 0 -400zm-1478 200l2940 -1260 -38 79 -36 79 -33 79 -31 79 -28 79 -26 79 -23 79 -21 79 -19 79 -16 79 -14 79 -11 79 -9 79 -6 79 -4 79 -1 79 1 79 4 79 6 79 9 79 11 79 14 79 16 79 19 79 21 79 23 79 26 79 28 79 31 79 33 79 36 79 38 79 0 0 -2940 -1260z"/>
 </g>
 <g>
  <path fill="#05783E" d="M14248 15104c0,2246 -1821,4066 -4066,4066 -2246,0 -4066,-1821 -4066,-4066 0,-2246 1821,-4066 4066,-4066 2246,0 4066,1821 4066,4066z"/>
  <path fill="#6BB2D1" d="M10182 11037c-2246,0 -4066,1820 -4066,4066 0,2245 1821,4066 4066,4066 2246,0 4066,-1821 4066,-4066 0,-2246 -1821,-4066 -4066,-4066zm3553 5647c-164,41 -369,246 -533,533 -129,225 -106,325 -111,476 -347,390 -772,709 -1249,934 -56,-122 -76,-387 -76,-591 0,-287 245,-410 245,-533 0,-123 -164,-780 -205,-1108 0,0 -328,82 -451,82 -123,0 -205,-82 -328,-82 -123,0 -247,-205 -328,-451 -82,-246 328,-739 328,-739 0,0 246,-205 451,-286 205,-83 368,0 983,246 0,0 657,41 862,82 206,41 164,246 164,369 0,123 41,451 41,451l246 -287 -116 -562c0,0 -541,-267 -581,-430 -41,-165 246,49 -122,-156 0,0 246,-41 492,-82 -547,-254 -296,-181 -287,-492l-205 41 -165 369c0,0 0,181 -204,-66 0,0 0,-181 -164,-140l-247 206c0,0 -170,113 -128,-133l-323 215 0 0c0,0 -286,82 -410,82 -123,0 -350,-287 -350,-287 0,0 454,-315 719,-370 123,-287 163,-287 163,-287 0,0 0,0 -368,0 -369,0 0,-410 123,-410 123,0 287,205 533,205 0,0 328,163 574,0 246,-164 82,-410 41,-738 -41,-328 -246,-41 -288,287 -40,328 -245,123 -245,123l-288 -328c0,0 205,-287 370,-287 163,0 287,-451 287,-451 0,0 118,63 295,205 737,709 1196,1704 1196,2808 0,560 -119,1092 -332,1573 -3,1 -8,6 -11,7zm-4265 1477c-281,332 -355,557 -401,676 -262,-78 -512,-181 -748,-310 0,-23 0,-49 0,-80 0,-246 0,-410 -287,-861 -287,-451 -82,-697 82,-779 163,-82 163,-328 -451,-573 -137,-55 -287,-288 -656,-246 -369,41 -164,-492 -206,-780 -35,-244 -219,-369 -500,-477 140,-1462 1087,-2690 2392,-3229l78 97c-71,23 -561,337 57,460 41,123 -181,155 352,483 308,234 -241,450 -402,455 -41,123 156,-168 -90,-332 0,0 144,82 -143,-82 -205,123 -144,-82 -348,287 155,181 -1,127 -206,290 -205,164 0,244 370,654 113,126 81,-246 123,-370 41,-123 123,-164 492,-205 122,-14 205,205 451,287 246,82 -41,246 -451,697 -111,122 -328,123 -328,123 0,0 -205,205 -370,328 -163,123 -205,205 -246,492 -41,287 -164,164 -287,0l-328 0c0,0 -164,205 -205,533 0,0 164,164 328,164 164,0 410,164 410,164 0,0 -345,270 -139,270 205,0 1001,-64 1205,181 206,246 370,287 985,575 615,287 -82,574 -533,1107zm1312 -6317c-82,246 -123,492 -410,656 -287,164 -451,533 -451,533 -451,82 -328,-779 -369,-943 -41,-164 41,-328 -164,-411 -186,-74 -302,-83 -263,-327 336,-95 691,-147 1057,-147 206,0 408,17 605,47 16,86 64,382 -5,590z"/>
  <path fill="#05783E" stroke="#5A965A" stroke-width="90.0007" d="M8089 15562c131,-66 238,-96 112,-169 -42,-24 -132,59 -209,0 0,1 73,181 97,169z"/>
  <path fill="#05783E" stroke="#5A965A" stroke-width="90.0007" d="M10492 12730c164,-38 475,-154 317,-196 -53,-14 -165,33 -262,0 0,0 -86,203 -55,196z"/>
  <path fill="#05783E" stroke="#5A965A" stroke-width="90.0007" d="M11067 13483c288,-123 832,-503 555,-639 -92,-45 -289,109 -459,0 0,1 -150,662 -97,639z"/>
 </g>
 </g>
</svg>
