<svg xmlns="http://www.w3.org/2000/svg" xml:space="preserve" width="100px" height="100px" version="1.1" style="shape-rendering:geometricPrecision; text-rendering:geometricPrecision; image-rendering:optimizeQuality; fill-rule:evenodd; clip-rule:evenodd"
viewBox="0 0 100 100">
 <defs>
  <style type="text/css">
   <![CDATA[
    .fil0 {fill:none}
    .fil1 {fill:#AE0000;fill-rule:nonzero}
   ]]>
  </style>
 </defs>
 <g id="Layer_x0020_2">
  <metadata id="CorelCorpID_0Corel-Layer"/>
  <g id="_318071688">
   <rect class="fil0" width="100" height="100"/>
   <path class="fil1" d="M98 32c1,1 2,2 1,3 -3,6 -7,11 -12,15 5,4 8,9 10,15 1,5 -7,5 -8,3 -2,-6 -4,-10 -7,-14 -20,11 -44,11 -64,0 -3,4 -6,9 -7,14 -1,2 -9,2 -8,-3 2,-6 5,-11 10,-15 -5,-4 -9,-9 -12,-15 -2,-4 5,-6 7,-2 2,5 5,9 10,13 16,-12 48,-12 64,0 11,-9 9,-16 14,-15l2 1zm-62 14c0,-1 0,-1 1,-2 -5,1 -10,3 -14,5l13 6c-2,-3 -2,-6 0,-9zm33 0c-2,-1 -4,-1 -6,-2 3,4 3,7 1,11l13 -6 -8 -3zm-19 10c13,0 12,-12 0,-12 -12,0 -13,12 0,12z"/>
  </g>
 </g>
</svg>
