<svg width="100" height="100" clip-rule="evenodd" fill-rule="evenodd" image-rendering="optimizeQuality" shape-rendering="geometricPrecision" text-rendering="geometricPrecision" version="1.1" viewBox="0 0 2646.9 2646.9" xml:space="preserve" xmlns="http://www.w3.org/2000/svg">
 <defs>
  <style type="text/css">
   <![CDATA[
    .fil0 {fill:none}
    .fil1 {fill:#AE0000;fill-rule:nonzero}
   ]]>
  </style>
 </defs>
 <g transform="scale(3.125)">
   <rect class="fil0" width="100" height="100"/>
   <path class="fil1" d="m555 696 20-122h-88zm-131-234 209-372h-419zm-132 234 69-122h-89zm132-101-91 161h181zm206-367-153 272h110zm91-154-115 717c-2 20-11 40-33 40h-298c-23 0-32-22-34-42l-114-710c-9-56-3-63 49-63h515c36 0 34 35 30 58zm-461 426h110l-153-272z"/>
 </g>
</svg>
