<svg xmlns="http://www.w3.org/2000/svg" xml:space="preserve" width="100px" height="100px" version="1.1" style="shape-rendering:geometricPrecision; text-rendering:geometricPrecision; image-rendering:optimizeQuality; fill-rule:evenodd; clip-rule:evenodd"
viewBox="0 0 100 100">
 <defs>
  <style type="text/css">
   <![CDATA[
    .fil0 {fill:none}
    .fil1 {fill:#AE0000;fill-rule:nonzero}
   ]]>
  </style>
 </defs>
 <g id="Layer_x0020_2">
  <metadata id="CorelCorpID_0Corel-Layer"/>
  <g id="_321862096">
   <rect class="fil0" width="100" height="100"/>
   <path class="fil1" d="M31 5c40,-16 80,24 64,64 -17,39 -73,39 -90,0 -10,-25 2,-54 26,-64zm60 40c0,-1 -1,-2 -1,-4l-37 0 0 14 14 0c5,0 5,7 0,7l-14 0 0 9c3,0 8,0 8,4 -1,4 -5,2 -8,2l0 14c23,-2 41,-22 38,-46zm-44 10l0 -14 -37 0c-6,25 12,48 37,50l0 -14c-4,0 -9,2 -9,-2 -1,-4 5,-4 9,-4l0 -9 -19 0c-4,0 -4,-7 0,-7l19 0zm-32 -27c-1,2 -2,5 -3,7l35 0 0 -26c-13,1 -25,8 -32,19zm38 -19l0 26 35 0c-6,-15 -19,-25 -35,-26z"/>
  </g>
 </g>
</svg>
