<svg xmlns="http://www.w3.org/2000/svg" xml:space="preserve" width="100px" height="100px" version="1.1" style="shape-rendering:geometricPrecision; text-rendering:geometricPrecision; image-rendering:optimizeQuality; fill-rule:evenodd; clip-rule:evenodd"
viewBox="0 0 100 100">
 <defs>
  <style type="text/css">
   <![CDATA[
    .fil0 {fill:none}
    .fil1 {fill:#AE0000;fill-rule:nonzero}
   ]]>
  </style>
 </defs>
 <g id="Layer_x0020_2">
  <metadata id="CorelCorpID_0Corel-Layer"/>
  <rect class="fil0" width="100" height="100"/>
  <path class="fil1" d="M22 18c-7,-12 6,-23 16,-13 3,4 5,10 4,16 -1,9 -9,15 -9,15l0 17c0,2 10,7 10,14l0 16c0,11 14,11 14,0l0 -16c0,-7 10,-12 10,-14l0 -15c0,-3 0,-2 -2,-4 -3,-3 -7,-7 -7,-13 -2,-21 20,-26 22,-11 1,13 -16,16 -14,10 0,-2 5,0 6,-7 2,-8 -8,-4 -7,7 1,4 3,7 5,9 4,3 4,4 4,9l0 15c0,6 -9,12 -9,14l-1 16c0,21 -28,21 -28,0l-1 -16c0,-2 -9,-8 -9,-14l0 -17c0,-7 11,-9 9,-20 -1,-3 -3,-7 -6,-7 -2,0 -4,8 4,10 3,1 1,7 -6,3 -2,-1 -4,-3 -5,-4z"/>
 </g>
</svg>
