<svg xmlns="http://www.w3.org/2000/svg" xml:space="preserve" width="100px" height="100px" version="1.1" style="shape-rendering:geometricPrecision; text-rendering:geometricPrecision; image-rendering:optimizeQuality; fill-rule:evenodd; clip-rule:evenodd"
viewBox="0 0 100 100">
 <defs>
  <style type="text/css">
   <![CDATA[
    .fil0 {fill:none}
    .fil1 {fill:#AE0000;fill-rule:nonzero}
   ]]>
  </style>
 </defs>
 <g id="Layer_x0020_2">
  <metadata id="CorelCorpID_0Corel-Layer"/>
  <g id="_513407384">
   <rect class="fil0" width="100" height="100"/>
   <path class="fil1" d="M55 62c-6,-2 -2,-2 -9,0 -5,1 -12,3 -11,8 1,5 15,9 15,9 5,-2 14,-5 15,-9 2,-5 -4,-7 -10,-8zm-19 -14c4,3 9,6 15,7 5,-2 10,-4 14,-7 8,-7 12,-16 2,-21 -4,-2 -11,-3 -17,-4 -7,1 -13,2 -17,4 -9,5 -5,15 3,21zm9 39c-6,4 2,9 9,7 2,-2 4,-4 0,-7 -1,0 -2,-1 -4,-2 -2,1 -3,2 -5,2zm16 -2c5,6 0,14 -11,14 -12,0 -17,-10 -7,-17 -6,-2 -14,-5 -16,-11 -2,-9 6,-11 14,-14 -8,-3 -19,-10 -21,-19 -2,-11 7,-13 19,-17 -12,-3 -27,-17 -19,-20 3,-1 6,0 8,3 4,7 11,13 20,14l4 0c17,-3 18,-14 23,-16 6,-3 13,2 -1,13 -4,2 -8,5 -13,6 12,4 21,6 19,17 -2,9 -10,16 -19,19 8,3 14,6 12,14 -2,6 -10,9 -16,11 2,1 3,2 4,3z"/>
  </g>
 </g>
</svg>
