<svg xmlns="http://www.w3.org/2000/svg" xml:space="preserve" width="100px" height="100px" version="1.1" style="shape-rendering:geometricPrecision; text-rendering:geometricPrecision; image-rendering:optimizeQuality; fill-rule:evenodd; clip-rule:evenodd"
viewBox="0 0 100 100">
 <defs>
  <style type="text/css">
   <![CDATA[
    .fil0 {fill:none}
    .fil1 {fill:#AE0000;fill-rule:nonzero}
   ]]>
  </style>
 </defs>
 <g id="Layer_x0020_2">
  <metadata id="CorelCorpID_0Corel-Layer"/>
  <g id="_319358952">
   <rect class="fil0" width="100" height="100"/>
   <path class="fil1" d="M99 12l-45 80c-1,1 -2,2 -4,2 -2,0 -3,-1 -4,-3l-45 -79 0 0c-1,-2 0,-3 0,-4 1,-1 2,-2 3,-2l92 0c3,0 4,3 3,6zm-40 1l1 1c1,2 1,4 2,5 1,4 2,8 3,13 0,5 0,10 0,15 0,3 0,6 0,9l24 -43 -30 0zm-24 43c0,-3 0,-6 0,-9 0,-5 0,-10 0,-15 1,-5 2,-9 3,-13 1,-1 1,-3 2,-5l1 -1 -30 0 24 43zm20 -34c-1,-3 -2,-5 -3,-7 -1,-1 -2,-2 -2,-2 0,0 -1,1 -2,2 -1,2 -2,4 -3,7 -1,3 -2,7 -2,11 -1,4 -1,9 -1,14 0,5 0,9 1,13 0,5 1,8 2,12 1,3 2,5 3,6 1,1 2,2 2,2 0,0 1,-1 2,-2 1,-1 2,-3 3,-6 1,-4 2,-7 2,-12 1,-4 1,-8 1,-13 0,-5 0,-10 -1,-14 0,-4 -1,-8 -2,-11z"/>
  </g>
 </g>
</svg>
