<svg xmlns="http://www.w3.org/2000/svg" xml:space="preserve" width="100px" height="100px" version="1.1" style="shape-rendering:geometricPrecision; text-rendering:geometricPrecision; image-rendering:optimizeQuality; fill-rule:evenodd; clip-rule:evenodd"
viewBox="0 0 100 100">
 <defs>
  <style type="text/css">
   <![CDATA[
    .fil0 {fill:none}
    .fil1 {fill:#AE0000;fill-rule:nonzero}
   ]]>
  </style>
 </defs>
 <g id="Layer_x0020_2">
  <metadata id="CorelCorpID_0Corel-Layer"/>
  <g id="_323397896">
   <rect class="fil0" width="100" height="100"/>
   <path class="fil1" d="M32 21c-3,-2 1,-6 3,-4l8 8c2,-2 5,-3 8,-3l0 -16c0,-3 5,-3 5,0l0 16c3,0 6,2 9,4l7 -6c3,-2 6,3 4,5l-8 6 2 5 20 0c4,0 4,6 0,6l-20 0c0,3 -1,5 -3,7 2,2 10,9 11,11 0,0 0,1 -1,1l-16 32c-1,3 -6,1 -4,-2l15 -28c1,-3 1,-2 -5,-8l-3 -3c-2,3 -5,4 -8,4l0 21c0,3 -5,4 -5,0l0 -21c-4,0 -7,-2 -10,-4l-10 8c0,0 -1,1 0,3l18 30c1,3 -3,5 -5,2l-19 -33c0,-1 0,-2 1,-3l12 -11 -2 -6 -26 0c-4,0 -4,-6 0,-6l26 0c0,-3 1,-5 3,-8l-7 -7zm19 12l0 -6 -4 2 4 4zm5 11l0 7 5 -2 -5 -5zm0 -10l5 -5 -5 -2 0 7zm-5 11l-6 4 6 2 0 -6zm10 -9l4 0 -1 -2 -3 2zm-20 0l7 0 -5 -4 -2 4zm5 6l-5 0 1 3 4 -3zm19 0l-5 0 4 4 1 -4z"/>
  </g>
 </g>
</svg>
