<svg xmlns="http://www.w3.org/2000/svg" xml:space="preserve" width="100px" height="100px" version="1.1" style="shape-rendering:geometricPrecision; text-rendering:geometricPrecision; image-rendering:optimizeQuality; fill-rule:evenodd; clip-rule:evenodd"
viewBox="0 0 100 100">
 <defs>
  <style type="text/css">
   <![CDATA[
    .fil0 {fill:none}
    .fil1 {fill:#AE0000;fill-rule:nonzero}
   ]]>
  </style>
 </defs>
 <g id="Layer_x0020_2">
  <metadata id="CorelCorpID_0Corel-Layer"/>
  <rect class="fil0" width="100" height="100"/>
  <path class="fil1" d="M55 5c6,17 24,41 23,61 0,15 -7,25 -16,30 -18,8 -39,-4 -39,-31l0 0c0,-15 10,-32 16,-45l0 0c3,-6 6,-11 8,-15 2,-6 6,-6 8,0zm-21 44l17 32 16 -32c-4,-12 -11,-24 -16,-35 -6,12 -12,23 -17,35zm36 11l-14 27c12,-4 16,-15 14,-27zm-25 27l-14 -27c-2,12 3,24 14,27z"/>
 </g>
</svg>
