<svg xmlns="http://www.w3.org/2000/svg" xml:space="preserve" width="100px" height="100px" version="1.1" style="shape-rendering:geometricPrecision; text-rendering:geometricPrecision; image-rendering:optimizeQuality; fill-rule:evenodd; clip-rule:evenodd"
viewBox="0 0 100 100">
 <defs>
  <style type="text/css">
   <![CDATA[
    .fil0 {fill:none}
    .fil1 {fill:#AE0000;fill-rule:nonzero}
   ]]>
  </style>
 </defs>
 <g id="Layer_x0020_2">
  <metadata id="CorelCorpID_0Corel-Layer"/>
  <g id="_321348744">
   <rect class="fil0" width="100" height="100"/>
   <path class="fil1" d="M56 55l5 4 21 -27 -26 23zm-12 0l-26 -23 21 27 5 -4zm37 31l-31 -26 -31 26 62 0zm-39 -43l8 7 8 -8c-4,-1 -12,-1 -16,1zm-33 51c-4,0 -5,-4 -2,-7l26 -23 -24 -31c-2,-2 -3,-4 -4,-6l0 0c-4,-12 4,-24 9,-20 3,2 1,5 1,7 0,7 15,19 20,23 4,-3 10,-5 15,-5l0 0c6,1 11,1 15,4 5,-4 20,-15 20,-22 0,-2 -2,-5 1,-8 6,-3 16,13 5,27l-24 31c3,3 27,23 27,24 2,3 0,5 0,5 -1,1 -2,1 -3,1l-82 0z"/>
  </g>
 </g>
</svg>
