<svg xmlns="http://www.w3.org/2000/svg" xml:space="preserve" width="100px" height="100px" version="1.1" style="shape-rendering:geometricPrecision; text-rendering:geometricPrecision; image-rendering:optimizeQuality; fill-rule:evenodd; clip-rule:evenodd"
viewBox="0 0 100 100">
 <defs>
  <style type="text/css">
   <![CDATA[
    .fil0 {fill:none}
    .fil1 {fill:#AE0000}
   ]]>
  </style>
 </defs>
 <g id="Layer_x0020_2">
  <metadata id="CorelCorpID_0Corel-Layer"/>
  <g id="_579201240">
   <rect class="fil0" width="100" height="100"/>
   <path class="fil1" d="M35 58l-24 -10c-10,-3 -9,-7 1,-9l24 -4 10 -26c3,-6 7,-6 9,0l10 26 24 4c8,1 10,6 1,10l-24 11 -10 29c-3,8 -7,9 -10,0l-11 -31zm16 22c1,-4 9,-25 11,-26l18 -9c-5,-1 -19,-3 -20,-5l-9 -21 -9 20c-1,1 -1,2 -2,2l-19 3c4,2 20,8 20,10l10 26z"/>
  </g>
 </g>
</svg>
