<svg xmlns="http://www.w3.org/2000/svg" xml:space="preserve" width="100px" height="100px" version="1.1" style="shape-rendering:geometricPrecision; text-rendering:geometricPrecision; image-rendering:optimizeQuality; fill-rule:evenodd; clip-rule:evenodd"
viewBox="0 0 100 100">
 <defs>
  <style type="text/css">
   <![CDATA[
    .fil0 {fill:none}
    .fil1 {fill:#AE0000;fill-rule:nonzero}
   ]]>
  </style>
 </defs>
 <g id="Layer_x0020_2">
  <metadata id="CorelCorpID_0Corel-Layer"/>
  <g id="_343270128">
   <rect class="fil0" width="100" height="100"/>
   <path class="fil1" d="M22 98c-2,0 -4,-1 -4,-3 -2,-20 -1,-36 4,-55 5,-14 12,-26 23,-36 5,-3 6,-3 10,0 17,15 26,40 28,62 0,9 0,19 -1,29 0,2 -2,3 -4,3l-56 0zm32 -23l0 15 14 0 -14 -15zm20 9c1,-23 -2,-52 -20,-67l0 44 20 23zm-28 -9l-14 15 14 0 0 -15zm-20 9l20 -23 0 -44c-18,15 -21,44 -20,67z"/>
  </g>
 </g>
</svg>
