<svg xmlns="http://www.w3.org/2000/svg" xml:space="preserve" width="100px" height="100px" version="1.1" style="shape-rendering:geometricPrecision; text-rendering:geometricPrecision; image-rendering:optimizeQuality; fill-rule:evenodd; clip-rule:evenodd"
viewBox="0 0 100 100">
 <defs>
  <style type="text/css">
   <![CDATA[
    .fil0 {fill:none}
    .fil1 {fill:#AE0000;fill-rule:nonzero}
   ]]>
  </style>
 </defs>
 <g id="Layer_x0020_2">
  <metadata id="CorelCorpID_0Corel-Layer"/>
  <g id="_325906160">
   <rect class="fil0" width="100" height="100"/>
   <path class="fil1" d="M56 49l0 12c0,-1 0,-1 0,-1 1,-1 1,-2 2,-3 1,-2 1,-3 0,-5 -1,-1 -1,-2 -2,-3zm0 -33l0 10c0,0 0,0 0,0 1,0 1,0 2,-1 0,0 0,0 1,-1 0,0 0,0 0,-1 1,-1 1,-1 1,-2 0,-1 0,-1 -1,-2 0,-1 0,-1 -1,-2 -1,0 -1,-1 -2,-1l0 0zm-6 24l0 -24 0 0c-1,0 -3,1 -4,2 -1,0 -2,1 -3,3 -2,2 -2,5 -2,7 0,3 1,5 3,7 1,2 2,2 3,3 1,1 2,1 3,2zm0 41l0 -10c0,1 -1,1 -1,2 -1,1 -1,2 -1,3l0 0c0,2 0,3 1,4 0,1 1,1 1,1zm6 14c0,1 -1,2 -1,2l0 0c-1,1 -1,1 -2,1 -1,0 -2,0 -2,-1 0,0 -1,-1 -1,-2l0 -5c-2,-2 -4,-4 -6,-6 -1,-2 -2,-5 -2,-8l0 0c0,-2 1,-4 3,-6 1,-2 3,-4 5,-5l0 -19 0 0c-4,-2 -8,-4 -11,-6 -2,-3 -4,-7 -4,-11 0,-4 2,-8 4,-11 1,-2 3,-3 4,-4 2,-1 3,-2 5,-3 1,0 1,0 2,0l0 0 0 -6c0,-1 1,-2 1,-2 0,-1 1,-1 2,-1 1,0 1,0 2,1l0 0c0,0 1,1 1,2l0 6 0 0c1,0 1,0 2,0 1,1 2,2 4,3 1,1 1,2 2,3 1,2 1,3 1,4 0,1 -1,3 -1,4 0,1 -1,1 -1,2 -1,1 -1,1 -2,2 -1,1 -2,1 -3,2 -1,0 -2,0 -2,0l0 11c3,2 5,5 7,8 1,3 2,6 0,9 0,2 -2,3 -3,5 -1,1 -3,2 -4,3l0 28z"/>
  </g>
 </g>
</svg>
