<svg xmlns="http://www.w3.org/2000/svg" xml:space="preserve" width="100px" height="100px" version="1.1" style="shape-rendering:geometricPrecision; text-rendering:geometricPrecision; image-rendering:optimizeQuality; fill-rule:evenodd; clip-rule:evenodd"
viewBox="0 0 100 100">
 <defs>
  <style type="text/css">
   <![CDATA[
    .fil0 {fill:none}
    .fil1 {fill:#AE0000}
   ]]>
  </style>
 </defs>
 <g id="Layer_x0020_2">
  <metadata id="CorelCorpID_0Corel-Layer"/>
  <g id="_513420128">
   <rect class="fil0" width="100" height="100"/>
   <path class="fil1" d="M32 35l15 -11c2,-1 4,-1 6,0l15 11 20 -14 0 0c4,-2 7,1 7,4l1 43c0,8 -1,10 -9,11 -6,1 -14,1 -19,1 -6,0 -12,0 -18,0 -6,0 -12,0 -18,0 -5,0 -13,0 -19,-1 -9,-1 -9,-4 -9,-12l1 -42c0,-1 0,-2 1,-2 2,-4 5,-3 8,-1l18 13zm18 -3l-15 13c-1,1 -3,1 -4,0l-18 -14 -1 36c0,0 0,2 0,3 1,0 3,0 3,0 4,0 8,0 12,0 8,0 15,0 23,0 8,0 15,0 23,0 4,0 8,0 12,0 0,0 2,0 3,0 0,-1 0,-3 0,-3l-1 -36 -18 14c-1,1 -3,1 -4,0l-15 -13z"/>
  </g>
 </g>
</svg>
