<svg xmlns="http://www.w3.org/2000/svg" xml:space="preserve" width="100px" height="100px" version="1.1" style="shape-rendering:geometricPrecision; text-rendering:geometricPrecision; image-rendering:optimizeQuality; fill-rule:evenodd; clip-rule:evenodd"
viewBox="0 0 100 100">
 <defs>
  <style type="text/css">
   <![CDATA[
    .fil0 {fill:none}
    .fil1 {fill:#AE0000;fill-rule:nonzero}
   ]]>
  </style>
 </defs>
 <g id="Layer_x0020_2">
  <metadata id="CorelCorpID_0Corel-Layer"/>
  <g id="_315719408">
   <rect class="fil0" width="100" height="100"/>
   <path class="fil1" d="M52 46c-5,0 -5,8 0,8 5,0 5,-8 0,-8zm-1 -6c9,0 14,11 7,17 -6,6 -17,2 -17,-7 0,-6 5,-10 10,-10zm44 15c-1,4 -7,3 -6,-1 2,-8 -1,-24 -12,-23 -13,3 -1,24 -14,35 -8,7 -20,7 -26,0 -10,-11 0,-26 -10,-31 -3,-2 -8,0 -11,2 -6,5 -7,17 -6,24 1,4 -5,5 -6,1 -3,-15 4,-35 21,-34 10,1 15,10 15,20 -2,20 14,19 19,13 8,-8 -3,-24 12,-34 7,-4 16,-2 20,5 4,6 6,17 4,23z"/>
  </g>
 </g>
</svg>
