<svg xmlns="http://www.w3.org/2000/svg" xml:space="preserve" width="100px" height="100px" version="1.1" style="shape-rendering:geometricPrecision; text-rendering:geometricPrecision; image-rendering:optimizeQuality; fill-rule:evenodd; clip-rule:evenodd"
viewBox="0 0 100 100">
 <defs>
  <style type="text/css">
   <![CDATA[
    .fil0 {fill:none}
    .fil1 {fill:#AE0000;fill-rule:nonzero}
   ]]>
  </style>
 </defs>
 <g id="Layer_x0020_2">
  <metadata id="CorelCorpID_0Corel-Layer"/>
  <rect class="fil0" width="100" height="100"/>
  <path class="fil1" d="M14 58c-7,20 9,23 13,11 4,-9 4,-22 14,-27 7,-4 17,-3 23,1 8,7 3,22 9,29 7,8 18,2 15,-10 -1,-4 7,-5 7,-2 5,23 -19,30 -28,18 -9,-10 2,-28 -16,-30 -14,-3 -15,16 -18,24 -8,20 -35,10 -28,-15 2,-7 11,-4 9,1zm37 -42c10,0 15,12 8,19 -7,7 -19,2 -19,-8 0,-6 5,-11 11,-11zm1 6c-7,0 -7,11 0,11 7,0 7,-11 0,-11z"/>
 </g>
</svg>
