<svg xmlns="http://www.w3.org/2000/svg" xml:space="preserve" width="100px" height="100px" version="1.1" style="shape-rendering:geometricPrecision; text-rendering:geometricPrecision; image-rendering:optimizeQuality; fill-rule:evenodd; clip-rule:evenodd"
viewBox="0 0 100 100">
 <defs>
  <style type="text/css">
   <![CDATA[
    .fil0 {fill:none}
    .fil2 {fill:#AE0000;fill-rule:nonzero}
    .fil1 {fill:#FF6600;fill-rule:nonzero}
   ]]>
  </style>
 </defs>
 <g id="Layer_x0020_2">
  <metadata id="CorelCorpID_0Corel-Layer"/>
  <g id="_315690032">
   <rect class="fil0" width="100" height="100"/>
   <path class="fil1" d="M16 88c0,0 0,0 0,0 0,0 0,0 0,0z"/>
   <path class="fil2" d="M17 95c-4,0 -5,-3 -5,-5l0 0c0,-10 7,-4 18,-4l11 0 0 -38c-16,-6 -29,-22 -32,-39 -1,-8 3,-5 4,-4 3,4 6,16 17,24 13,9 29,8 41,-2 6,-6 10,-14 13,-22 1,-4 4,-3 4,-1 3,7 -1,19 -6,26 -5,8 -13,14 -20,17l0 39c8,0 12,0 19,-1 5,-1 9,-3 9,5 0,2 -1,5 -4,5l-69 0zm36 -46l-4 0 0 37 4 0 0 -37z"/>
  </g>
 </g>
</svg>
