<svg xmlns="http://www.w3.org/2000/svg" xml:space="preserve" width="100px" height="100px" version="1.1" style="shape-rendering:geometricPrecision; text-rendering:geometricPrecision; image-rendering:optimizeQuality; fill-rule:evenodd; clip-rule:evenodd"
viewBox="0 0 100 100">
 <defs>
  <style type="text/css">
   <![CDATA[
    .fil0 {fill:none}
    .fil1 {fill:#AE0000;fill-rule:nonzero}
   ]]>
  </style>
 </defs>
 <g id="Layer_x0020_2">
  <metadata id="CorelCorpID_0Corel-Layer"/>
  <g id="_315704168">
   <rect class="fil0" width="100" height="100"/>
   <path class="fil1" d="M76 66c0,-1 0,-2 1,-3 0,-4 1,-8 0,-11 3,-2 5,-3 7,-4 2,0 4,-1 6,-1 -2,3 -4,7 -7,11 -2,3 -4,5 -7,8zm0 -22c-1,-1 -1,-2 -1,-3 -1,-1 -1,-2 -2,-3 1,0 1,0 1,0 1,0 2,-1 2,-1 1,2 2,4 1,6 0,0 -1,1 -1,1l0 0zm-63 11c0,-1 0,-1 -1,-2 0,-1 0,-2 0,-3 1,0 2,1 3,1 1,0 2,0 3,1l-1 3c0,0 -1,0 -2,0 -1,0 -1,0 -2,0zm5 8c1,2 2,5 3,7l0 0c-2,-1 -3,-2 -5,-3 -2,-1 -4,-3 -5,-5 1,0 2,0 2,0 2,0 4,0 5,1zm51 -30c-4,-5 -9,-8 -15,-9 -4,-2 -8,-2 -13,-1 -4,1 -8,3 -11,6 -5,4 -9,9 -11,16 -1,-1 -2,-1 -2,-1l-1 0c-1,0 -3,-1 -4,-1l-1 0c-4,0 -5,0 -5,5 0,1 -1,3 -1,5 0,1 1,1 1,2 -2,0 -3,0 -4,1 -2,1 -2,2 0,6 4,8 11,15 20,20 8,5 18,7 28,6 12,-2 22,-7 31,-15 9,-8 15,-18 17,-29 1,-2 0,-3 -1,-4 -1,-1 -2,-1 -4,-1 -2,0 -4,0 -6,1 -1,0 -2,0 -3,0 0,-1 0,-2 0,-3l0 0c-1,-1 -1,-3 -2,-5l0 0c-1,-1 -2,-1 -2,-2 -1,0 -2,0 -3,0 -2,0 -3,0 -5,1 -1,1 -2,1 -3,2zm-7 5c4,5 6,11 6,17 0,6 -2,12 -6,17 -4,4 -9,6 -14,6 -3,0 -5,0 -8,-1 -2,-1 -4,-2 -6,-4 -5,-4 -8,-10 -8,-18 0,-8 3,-14 8,-18 2,-2 4,-3 6,-4 3,-1 5,-1 8,-1 5,0 10,2 14,6z"/>
  </g>
 </g>
</svg>
