<svg xmlns="http://www.w3.org/2000/svg" xml:space="preserve" width="100px" height="100px" version="1.1" style="shape-rendering:geometricPrecision; text-rendering:geometricPrecision; image-rendering:optimizeQuality; fill-rule:evenodd; clip-rule:evenodd"
viewBox="0 0 100 100">
 <defs>
  <style type="text/css">
   <![CDATA[
    .fil0 {fill:none}
    .fil1 {fill:#AE0000;fill-rule:nonzero}
   ]]>
  </style>
 </defs>
 <g id="Layer_x0020_2">
  <metadata id="CorelCorpID_0Corel-Layer"/>
  <g id="_578196360">
   <rect class="fil0" width="100" height="100"/>
   <path class="fil1" d="M71 53c0,-1 1,-3 1,-4 0,-3 0,-6 1,-8 0,-3 1,-5 1,-6 1,-2 3,-3 6,-3 2,1 3,4 2,6 0,0 0,2 -1,4 0,2 0,5 -1,8 0,4 -1,10 -1,15 -1,5 -2,9 -3,13 -2,11 -12,22 -24,22 -3,0 -6,-1 -9,-3 -11,-5 -15,-13 -18,-24 -2,-8 -4,-17 -5,-25 0,-4 0,-8 -2,-10 0,0 0,0 0,0 -1,-1 0,-3 0,-4 1,-1 2,-2 3,-2 2,-1 3,0 5,1 1,1 2,2 2,3 2,3 3,8 4,12 0,3 1,6 1,9 1,-2 0,-12 -1,-15 0,-1 0,-3 0,-4 -1,-6 -1,-12 -2,-19 0,-2 0,-4 0,-7 0,-1 0,-2 1,-3 1,-2 4,-3 6,-1 1,1 2,2 2,3 0,5 0,9 1,14 0,4 0,8 1,12 0,3 1,11 4,13 1,0 1,0 2,0 2,-3 2,-8 2,-12 0,-5 0,-10 0,-16 0,-6 0,-11 0,-17 0,-1 0,-2 1,-3 1,-2 4,-2 6,-1 1,2 1,3 1,4 0,5 0,9 1,14 0,7 0,13 0,20 0,1 0,1 0,2 0,2 0,5 1,5 1,0 2,-7 2,-9 2,-7 3,-15 4,-23 0,-2 2,-4 4,-4 3,0 4,2 4,5 -1,10 -2,18 -3,28 0,3 0,5 0,7 0,2 0,2 1,3zm-5 15c-2,-6 -7,-10 -14,-10 -5,1 -11,5 -13,10 -3,6 -1,14 5,18 7,4 17,2 22,-5 2,-4 2,-9 0,-13z"/>
  </g>
 </g>
</svg>
