<svg xmlns="http://www.w3.org/2000/svg" xml:space="preserve" width="100px" height="100px" version="1.1" style="shape-rendering:geometricPrecision; text-rendering:geometricPrecision; image-rendering:optimizeQuality; fill-rule:evenodd; clip-rule:evenodd"
viewBox="0 0 100 100">
 <defs>
  <style type="text/css">
   <![CDATA[
    .fil0 {fill:none}
    .fil1 {fill:#AE0000;fill-rule:nonzero}
   ]]>
  </style>
 </defs>
 <g id="Layer_x0020_2">
  <metadata id="CorelCorpID_0Corel-Layer"/>
  <g id="_577699416">
   <rect class="fil0" width="100" height="100"/>
   <path class="fil1" d="M57 34l-1 3c6,-2 8,-9 7,-9 -2,0 -5,3 -6,6zm-2 -7c3,-4 6,-5 10,-4 4,0 4,3 3,7 -1,6 -7,12 -14,13 -1,17 -2,33 -2,51 0,4 -7,4 -7,0l0 -15c-11,1 -10,-11 -12,-12 -3,-2 -1,-6 1,-6 5,1 9,2 12,5 0,-20 1,-39 1,-60 0,-4 8,-4 8,0l0 21zm-11 47c-1,-3 -2,-5 -4,-6 0,3 1,5 4,6z"/>
  </g>
 </g>
</svg>
