<svg xmlns="http://www.w3.org/2000/svg" xml:space="preserve" width="100px" height="100px" version="1.1" style="shape-rendering:geometricPrecision; text-rendering:geometricPrecision; image-rendering:optimizeQuality; fill-rule:evenodd; clip-rule:evenodd"
viewBox="0 0 100 100">
 <defs>
  <style type="text/css">
   <![CDATA[
    .fil0 {fill:none}
    .fil1 {fill:#AE0000;fill-rule:nonzero}
   ]]>
  </style>
 </defs>
 <g id="Layer_x0020_2">
  <metadata id="CorelCorpID_0Corel-Layer"/>
  <g id="_315715424">
   <rect class="fil0" width="100" height="100"/>
   <path class="fil1" d="M38 51c1,0 2,-1 2,-1 -29,-16 -31,5 -19,6 6,0 12,-2 17,-5zm22 -2c0,1 -1,1 -2,2 7,4 16,8 24,5 7,-3 3,-11 -4,-12 -6,0 -12,2 -18,5zm-16 26c-2,18 21,16 6,-15 -2,4 -5,10 -6,15zm-8 0c1,-5 2,-10 4,-14 -30,14 -42,-14 -27,-23 8,-5 20,-1 28,3 -13,-30 7,-39 17,-34 10,6 9,21 5,30 31,-12 44,28 13,28 -6,0 -12,-2 -17,-5 17,42 -26,44 -23,15zm14 -32c5,-7 8,-14 7,-22 -1,-11 -12,-8 -12,1 -1,7 2,14 5,21z"/>
  </g>
 </g>
</svg>
