<svg xmlns="http://www.w3.org/2000/svg" xml:space="preserve" width="100px" height="100px" version="1.1" style="shape-rendering:geometricPrecision; text-rendering:geometricPrecision; image-rendering:optimizeQuality; fill-rule:evenodd; clip-rule:evenodd"
viewBox="0 0 100 100">
 <defs>
  <style type="text/css">
   <![CDATA[
    .fil0 {fill:none}
    .fil1 {fill:#AE0000;fill-rule:nonzero}
   ]]>
  </style>
 </defs>
 <g id="Layer_x0020_2">
  <metadata id="CorelCorpID_0Corel-Layer"/>
  <g id="_325531960">
   <rect class="fil0" width="100" height="100"/>
   <path class="fil1" d="M29 41l2 5 3 -3c-13,-16 -1,-40 19,-40 20,0 32,24 18,40l1 2c7,-10 6,-16 7,-17 4,-3 8,14 -2,28l2 3c10,0 10,15 0,15 -6,0 -10,-7 -6,-12l0 -1c-5,5 -11,8 -18,9l0 7c11,3 9,20 -3,20 -12,0 -14,-17 -3,-21l0 -6c-7,-1 -15,-4 -20,-10l-2 2c5,8 -5,16 -12,10 -5,-5 0,-14 7,-13l3 -4c-9,-16 -3,-37 0,-25l4 11zm7 16c-2,-1 -4,-3 -6,-4 10,15 33,16 43,0 -10,9 -25,10 -37,4zm29 -42c-13,-13 -35,2 -28,19 7,17 33,12 33,-6 0,-5 -2,-9 -5,-13zm15 50c-2,-2 -4,3 -1,3 2,0 2,-2 1,-3zm-58 0c-2,-2 -4,3 -1,3 1,0 2,-2 1,-3zm33 18c-4,-4 -10,2 -6,6 4,5 10,-2 6,-6zm1 -28c4,-1 8,-2 12,-5l-1 -3c-3,3 -7,4 -11,5l0 3zm-20 -5c4,3 9,5 14,5l0 -3c-4,-1 -9,-3 -12,-5l-2 3z"/>
  </g>
 </g>
</svg>
