<svg id="icons" version="1.1" viewBox="0 0 128 128" xmlns="http://www.w3.org/2000/svg">
 <defs>
  <style>.cls-1{fill:#777777;}.cls-2{fill:#303442;opacity:0.08;}.cls-3{fill:none;stroke:#454545;stroke-linecap:round;stroke-linejoin:round;stroke-width:8px;}</style>
 </defs>
 <title>cloud</title>
 <rect width="128" height="128" fill-opacity="0" stroke-miterlimit="0" stroke-width="0" style="paint-order:markers fill stroke"/>
 <g stroke-width="1.1997">
  <path class="cls-1" d="m103.03 55.346a26.184 26.184 0 0 1-5.1229 51.841h-67.809a26.166 26.166 0 0 1-4.3071-51.961 27.365 27.365 0 0 1 51.385-18.308 18.258 18.258 0 0 1 25.854 18.428z" fill="#666666"/>
  <path class="cls-2" d="m25.788 43.229c-0.08662-0.33391-0.15655-0.67398-0.23197-1.0123q-0.1239 0.55096-0.2254 1.1097c0.15394-0.02857 0.30253-0.07161 0.45737-0.0974z"/>
  <path class="cls-2" d="m97.905 95.19h-67.809a26.105 26.105 0 0 1-25.376-20.136 26.103 26.103 0 0 0 25.376 32.133h67.809a26.113 26.113 0 0 0 25.378-32.139 26.104 26.104 0 0 1-25.378 20.142z"/>
 </g>
 <path class="cls-3" d="m103.03 55.346a18.233 18.233 0 0 0-25.854-18.428 27.37 27.37 0 0 0-51.385 18.308 26.166 26.166 0 0 0 4.3071 51.961h67.809a26.184 26.184 0 0 0 5.1229-51.841z" stroke="#454545"/>
</svg>
