<svg xmlns="http://www.w3.org/2000/svg" xml:space="preserve" width="8.4666mm" height="8.4666mm" version="1.1" style="shape-rendering:geometricPrecision; text-rendering:geometricPrecision; image-rendering:optimizeQuality; fill-rule:evenodd; clip-rule:evenodd"
viewBox="0 0 847 847">
 <defs>
  <style type="text/css">
   <![CDATA[
    .fil0 {fill:none}
    .fil3 {fill:#481900}
    .fil8 {fill:#5A3403}
    .fil2 {fill:#823D00}
    .fil7 {fill:#BE6A10}
    .fil1 {fill:#C7812C}
    .fil6 {fill:#000107;fill-rule:nonzero}
    .fil9 {fill:#481900;fill-rule:nonzero}
    .fil4 {fill:url(#id0)}
    .fil5 {fill:url(#id1)}
   ]]>
  </style>
  <radialGradient id="id0" gradientTransform="matrix(1.00001 -6.27945E-008 -5.35299E-008 0.85247 0 54)" cx="405.25" cy="368.36" r="403.79" fx="405.25" fy="368.36">
   <stop offset="0" style="stop-opacity:1; stop-color:#DB8F33"/>
   <stop offset="0.74902" style="stop-opacity:1; stop-color:#CC852E"/>
   <stop offset="1" style="stop-opacity:1; stop-color:#C2771B"/>
  </radialGradient>
  <radialGradient id="id1" gradientTransform="matrix(1.0096 -6.3397E-008 -5.17612E-008 0.824302 -4 67)" cx="413.34" cy="383.79" r="395.71" fx="413.34" fy="383.79">
   <stop offset="0" style="stop-opacity:1; stop-color:#DB8F33"/>
   <stop offset="1" style="stop-opacity:1; stop-color:#BD690F"/>
  </radialGradient>
 </defs>
 <g id="Layer_x0020_1">
  <metadata id="CorelCorpID_0Corel-Layer"/>
  <g id="_496053992">
   <rect class="fil0" width="847" height="847"/>
   <g>
    <path class="fil1" d="M708 75c13,0 26,6 37,22 14,22 26,45 40,66 16,24 33,48 51,71 14,17 12,30 -7,39 -20,10 -41,18 -61,27 -16,7 -33,15 -47,25 -27,19 -48,41 -73,62 -41,37 -84,71 -125,103 -44,34 -94,61 -140,91 -41,27 -74,49 -106,82 -19,18 -44,52 -67,61 -11,4 -27,5 -43,-12 10,-28 20,-56 30,-84 133,-125 265,-250 397,-376 38,-59 76,-118 114,-177z"/>
    <path class="fil2" d="M821 241c9,21 -4,29 -20,37 -18,8 -38,14 -56,23 -33,15 -59,42 -89,66 -38,30 -77,59 -113,88 -53,41 -110,75 -166,111 -51,32 -94,68 -127,109 -33,41 -66,57 -98,26 7,-12 14,-24 21,-35 40,-62 80,-124 120,-186 145,-81 291,-162 436,-243 31,2 61,3 92,4z"/>
    <path class="fil3" d="M723 100c12,19 32,54 50,81 15,21 33,37 47,58 6,11 -1,22 -13,28 -27,11 -51,15 -75,30 -38,22 -70,53 -105,79 -48,36 -95,74 -145,109 -45,32 -95,59 -140,93 -42,31 -83,64 -121,100 -33,33 -53,33 -73,21 -18,-52 -36,-104 -54,-157 119,-80 239,-161 358,-242 90,-67 180,-134 271,-200z"/>
    <path class="fil4" d="M639 28c15,-15 55,21 75,57 12,22 22,43 32,66 15,32 30,50 48,63 23,17 19,31 -9,46 -45,23 -93,40 -134,68 -28,18 -55,47 -81,68 -43,34 -84,60 -128,92 -47,33 -99,59 -146,93 -21,15 -57,52 -88,81 -46,41 -87,73 -113,30 -14,-22 -30,-38 -37,-55 -6,-15 -8,-29 -16,-42 -8,-13 -18,-22 -25,-36 -10,-22 -29,-83 -2,-96 41,-21 81,-36 120,-59 55,-33 99,-60 151,-98 53,-40 101,-81 156,-119 35,-24 70,-50 104,-76 29,-22 67,-57 93,-83z"/>
    <path class="fil5" d="M704 70c3,4 7,9 10,15 3,5 6,11 9,16 -23,21 -43,44 -68,61 -42,28 -90,45 -132,74 -57,38 -111,82 -163,126 -158,131 -121,112 -298,192 -13,6 -24,13 -35,21 -4,-5 -7,-10 -10,-16 -2,-5 -4,-10 -5,-14 15,-3 29,-6 43,-12 132,-48 184,-99 294,-183 73,-54 147,-106 221,-160 35,-25 73,-48 105,-78 13,-12 20,-27 29,-42zm28 51c5,10 9,20 14,30 2,3 3,6 5,10 -32,22 -63,45 -96,64 -44,25 -96,37 -138,65 -40,26 -70,65 -106,96 -52,46 -101,96 -157,136 -48,34 -108,48 -155,84 -14,11 -26,25 -37,39 -1,-2 -3,-5 -4,-8 -6,-13 -7,-27 -14,-39 13,-11 26,-22 41,-31 44,-26 96,-37 140,-63 51,-31 95,-70 141,-107 48,-39 90,-85 140,-120 38,-26 84,-37 122,-62 31,-21 57,-49 85,-75 7,-6 13,-12 19,-19zm28 56c9,14 18,24 28,32 -77,53 -169,71 -254,144 -52,44 -104,95 -159,135 -57,43 -115,74 -175,111 -59,36 -77,52 -102,98 -1,-2 -2,-3 -3,-5 -6,-9 -12,-17 -17,-24 33,-26 65,-54 101,-77 62,-39 122,-70 181,-116 51,-40 97,-92 145,-136 79,-72 173,-103 255,-162zm43 45c8,9 8,18 -1,26 -12,2 -25,4 -36,10 -59,27 -114,62 -168,98 -37,24 -69,57 -104,83 -45,34 -91,65 -137,97 -48,33 -105,55 -146,97 -18,18 -33,41 -46,64 -20,14 -38,20 -53,12 28,-32 55,-66 89,-93 45,-36 99,-57 147,-89 47,-32 93,-66 138,-101 33,-25 61,-58 97,-81 58,-37 121,-65 181,-99 14,-8 26,-16 39,-24zm-143 -194c11,5 24,17 36,30 -91,57 -159,114 -243,178 -65,49 -129,100 -196,146 -82,55 -162,102 -249,150 -5,-18 -9,-39 -5,-54 103,-30 147,-56 237,-112 70,-44 136,-96 202,-146 80,-61 179,-129 218,-192z"/>
    <path class="fil6" d="M303 788c2,1 2,3 1,5 -1,2 -3,2 -5,1 -7,-4 -13,-9 -14,-15 -1,-6 2,-14 12,-22l0 -1c4,-3 7,-6 10,-9 2,-4 4,-7 4,-11 1,-3 0,-6 -2,-9 -1,-1 -2,-2 -4,-3l-7 -5c-19,-13 -38,-26 -27,-48 8,-18 17,-26 32,-38l4 -3c6,-4 11,-8 13,-12 5,-5 3,-11 -10,-21 -3,-2 -6,-5 -9,-7l-1 0c-4,-3 -9,-6 -14,-10l0 0c-7,-9 -14,-17 -21,-25 -9,-10 -17,-20 -25,-30 -11,-14 -46,-77 -54,-91 -12,-19 -22,-37 -28,-49 -1,-2 0,-4 2,-5 1,-1 4,0 5,2 5,11 15,29 27,48 9,14 43,76 54,90 8,11 16,20 24,30 7,8 14,16 21,25 5,4 9,6 13,9l0 0c4,2 7,4 11,7 17,13 18,22 11,32 -3,4 -8,8 -14,13l-4 3c-14,11 -23,18 -31,35 -7,16 9,27 25,39 2,2 5,4 8,5 1,2 3,3 4,5 4,4 5,9 5,14 -1,5 -3,10 -6,14 -3,4 -7,8 -11,11l0 0c-8,7 -11,12 -10,15 1,4 5,8 11,11z"/>
    <path class="fil6" d="M354 740c0,2 -2,3 -4,3 -2,-1 -3,-3 -3,-5 2,-4 3,-8 4,-12 1,-7 0,-12 -1,-16 -2,-3 -5,-6 -9,-7 -1,-1 -2,-1 -4,-1 -2,-1 -5,-1 -8,-1 -13,-1 -29,-1 -32,-15l0 -1c-1,-4 -1,-8 2,-12l0 0c2,-3 6,-6 11,-7l2 0c10,-2 18,-1 26,1 6,2 12,3 18,3 4,0 8,-1 11,-4l0 0c2,-2 4,-6 5,-10 -2,-8 -5,-14 -9,-17 -4,-4 -9,-5 -16,-4 -4,0 -9,2 -14,3 -10,4 -20,7 -29,1 -7,-4 -6,-12 -4,-20 1,-5 2,-11 0,-14l0 0c-6,-11 -16,-20 -26,-28 -4,-4 -8,-8 -12,-12 -10,-9 -20,-19 -29,-30 -8,-11 -41,-70 -50,-83 -3,-5 -9,-12 -15,-19 -14,-16 -28,-32 -24,-41 1,-2 3,-3 5,-2 2,1 3,3 2,5 -2,5 11,19 22,33 7,7 13,14 17,20 8,12 40,71 49,82 9,11 18,21 28,30 3,4 8,7 12,11 10,9 20,18 27,30l0 0c4,6 2,13 1,19 -1,6 -2,11 1,13 6,4 14,1 23,-2 5,-1 10,-3 16,-4 8,0 16,1 21,6 6,5 10,12 12,22l0 1c-1,7 -4,12 -8,15l0 1c-5,4 -10,6 -16,6 -7,0 -14,-2 -20,-3 -7,-2 -14,-4 -23,-2l-1 0c-3,1 -6,3 -7,4l0 1c-1,1 -2,4 -1,6l0 0c2,8 15,9 25,10 4,0 7,0 10,0 1,1 3,1 4,2 7,2 11,6 14,11 2,6 2,12 1,20 -1,4 -2,9 -4,13z"/>
    <circle class="fil7" cx="300" cy="790" r="13"/>
    <circle class="fil8" cx="310" cy="799" r="7"/>
    <circle class="fil7" cx="320" cy="806" r="13"/>
    <circle class="fil8" cx="330" cy="815" r="7"/>
    <circle class="fil7" transform="matrix(-0.665463 0.711985 0.711985 0.665463 350.158 737.387)" r="14"/>
    <circle class="fil8" transform="matrix(-0.372973 0.399048 0.399048 0.372973 350.15 750.612)" r="14"/>
    <circle class="fil7" transform="matrix(-0.665463 0.711985 0.711985 0.665463 348.498 762.755)" r="14"/>
    <circle class="fil8" transform="matrix(-0.372973 0.399048 0.399048 0.372973 348.49 775.98)" r="14"/>
    <path class="fil6" d="M151 393c-1,-2 0,-4 2,-5 2,0 4,1 5,3l4 12c12,34 47,112 73,140 6,7 15,12 25,18 13,8 26,16 33,29 4,7 2,16 1,24 -2,7 -3,15 -1,20 0,2 4,1 7,1 3,-1 6,-1 8,0 3,0 4,2 4,4 -1,2 -2,3 -4,3 -2,0 -4,0 -7,0 -6,1 -13,2 -15,-5 -3,-8 -1,-16 0,-24 2,-7 3,-15 1,-20 -6,-11 -19,-18 -31,-26 -10,-6 -20,-11 -27,-19 -27,-29 -62,-108 -74,-143l-4 -12z"/>
    <path class="fil6" d="M312 635c1,1 2,2 2,3 0,2 -1,4 -4,4 -1,0 -6,-2 -10,-7 -2,-2 -4,-5 -6,-8 -1,-4 -2,-7 -1,-11l0 0c1,-4 3,-7 7,-10l3 -2c4,-3 9,-6 13,-8 6,-1 11,-1 13,5 3,10 -3,18 -10,25 -3,3 -5,6 -7,9zm-6 -5l0 1c2,-3 5,-6 7,-9 5,-6 11,-13 9,-18 -1,-1 -2,-1 -3,-1 -4,2 -8,5 -12,7l-3 2c-2,2 -4,4 -4,5 0,2 0,5 1,7 1,2 3,5 5,6z"/>
    <path class="fil6" d="M697 494c2,1 3,3 2,5 -1,2 -4,2 -5,1 -8,-4 -13,-9 -15,-15 -1,-6 2,-14 13,-22l0 -1c4,-3 7,-6 9,-9 3,-4 4,-7 5,-11 0,-3 -1,-6 -3,-9 -1,-1 -2,-2 -3,-3l-7 -5c-20,-13 -38,-26 -28,-48 8,-18 18,-26 32,-38l5 -3c5,-4 10,-8 13,-12 4,-5 3,-11 -10,-21 -3,-2 -7,-4 -10,-7l0 0c-5,-3 -9,-6 -14,-10l-1 0c-7,-9 -14,-17 -21,-25 -8,-10 -16,-20 -25,-30 -11,-14 -21,-29 -29,-43 -12,-20 -41,-73 -47,-84 -1,-2 0,-4 1,-5 2,-1 4,-1 5,1 6,12 35,65 47,84 9,14 18,28 29,42 8,11 17,20 25,30 7,8 14,16 21,25 4,4 8,6 13,9l0 0c4,2 7,4 10,7 18,13 19,22 12,32 -3,4 -9,8 -15,13l-4 3c-14,11 -23,18 -30,35 -8,16 8,27 25,39 2,2 5,4 7,5 2,2 4,3 5,5 3,4 5,9 4,14 0,5 -3,10 -6,14 -3,4 -6,8 -10,11l0 0c-8,7 -11,12 -10,16 0,3 5,7 10,10z"/>
    <path class="fil6" d="M749 447c-1,1 -3,2 -5,2 -2,-1 -3,-3 -2,-5 1,-4 2,-8 3,-12 1,-7 1,-12 -1,-16 -1,-3 -4,-6 -8,-7 -1,-1 -3,-1 -4,-1 -2,-1 -5,-1 -9,-1 -12,-1 -28,-1 -32,-15l0 -1c-1,-4 0,-8 2,-12l1 0c2,-3 6,-6 11,-7l1 0c10,-2 18,-1 26,1 6,2 12,3 19,3 4,0 7,-1 10,-4l0 0c3,-2 5,-6 6,-10 -2,-8 -5,-14 -9,-17 -4,-4 -10,-5 -16,-4 -4,0 -9,2 -14,3 -10,4 -21,7 -30,1 -7,-4 -5,-12 -4,-20 1,-5 2,-11 0,-14l0 0c-6,-11 -16,-20 -26,-28 -4,-4 -8,-8 -12,-12 -10,-9 -19,-19 -28,-30 -9,-11 -17,-23 -26,-35 -3,-5 -9,-12 -15,-20 -14,-15 -47,-67 -43,-75 1,-2 3,-3 5,-2 2,1 3,3 2,5 -2,4 30,54 41,67 7,8 13,15 17,21 8,12 16,23 25,34 8,11 18,21 27,30 4,4 8,7 12,11 11,9 21,18 28,30l0 0c3,6 2,13 0,19 -1,6 -2,11 1,13 6,4 15,1 23,-2 6,-1 11,-3 16,-4 9,0 16,2 22,6 5,5 9,12 11,22l0 1c-1,7 -4,12 -7,15l-1 1c-4,4 -10,6 -15,6 -8,0 -14,-2 -20,-3 -8,-2 -15,-4 -23,-2l-1 0c-4,1 -6,3 -7,4l-1 1c-1,1 -1,4 -1,6l0 0c3,9 15,9 26,10 3,0 6,0 9,0 2,1 4,1 5,2 6,2 11,6 13,11 2,6 3,12 1,20 0,4 -1,9 -3,14z"/>
    <circle class="fil7" cx="695" cy="496" r="13"/>
    <circle class="fil8" cx="705" cy="505" r="7"/>
    <circle class="fil7" cx="715" cy="512" r="13"/>
    <circle class="fil8" cx="724" cy="521" r="7"/>
    <circle class="fil7" transform="matrix(-0.665463 0.711985 0.711985 0.665463 744.679 443.431)" r="14"/>
    <circle class="fil8" transform="matrix(-0.372973 0.399048 0.399048 0.372973 744.67 456.656)" r="14"/>
    <circle class="fil7" transform="matrix(-0.665463 0.711985 0.711985 0.665463 743.019 468.799)" r="14"/>
    <circle class="fil8" transform="matrix(-0.372973 0.399048 0.399048 0.372973 743.01 482.024)" r="14"/>
    <path class="fil6" d="M551 112c-1,-2 0,-4 2,-5 2,-1 4,0 5,2l4 12c12,34 41,100 67,128 7,7 16,12 25,18 13,8 27,16 34,29 4,7 2,16 0,24 -1,7 -2,15 -1,21 1,1 4,0 8,0 3,0 6,-1 8,0 2,0 3,2 3,4 0,2 -2,3 -4,3 -2,0 -4,0 -6,0 -7,1 -14,2 -16,-5 -2,-8 -1,-16 1,-24 1,-7 3,-15 0,-19 -6,-12 -18,-19 -31,-27 -9,-6 -19,-11 -26,-19 -27,-29 -57,-96 -69,-130l-4 -12z"/>
    <path class="fil6" d="M707 341c1,1 1,2 1,3 1,2 -1,4 -3,4 -2,0 -7,-2 -10,-6 -3,-3 -5,-6 -6,-9 -2,-3 -3,-7 -2,-11l0 0c1,-4 3,-7 7,-10l3 -2c4,-3 9,-6 14,-7 5,-2 10,-2 12,4 4,10 -3,18 -10,26 -2,2 -5,5 -6,8zm-7 -4l1 0c2,-3 4,-6 7,-9 5,-6 10,-13 8,-18 0,-1 -1,-1 -3,0 -3,1 -8,4 -12,6l-2 2c-3,2 -4,4 -5,5 0,2 1,5 2,7 1,2 2,5 4,7z"/>
    <path class="fil9" d="M437 326l-5 4 -18 13 61 83 -19 14 -14 -19c-2,4 -4,8 -7,11 -3,4 -6,7 -9,9 -5,4 -10,6 -14,8 -5,1 -10,2 -15,2 -4,0 -8,-1 -12,-3 -4,-2 -8,-5 -10,-9 -4,-5 -6,-10 -6,-17l-17 13 -14 -18 54 -40 13 18 -14 10c-2,9 -1,15 1,19 5,7 12,7 21,0 2,-1 3,-2 4,-4 2,-2 3,-4 4,-6 2,-2 3,-4 4,-6 1,-2 1,-5 2,-7l-32 -43 -72 53 -14 -18 58 -42 -49 -4 3 -21 67 9 0 0 -49 -28 11 -18 56 33 13 -10 5 -4 49 -36 16 -12 24 -18 13 18 -19 15 61 82 -20 14 -20 -27 -23 42 -19 -12 23 -39c-10,-1 -18,0 -24,5 -4,3 -7,10 -7,19l-21 -13c2,-11 7,-19 15,-25 6,-5 16,-7 28,-7 2,0 4,0 6,0l-19 -25 -1 1 -49 36z"/>
   </g>
  </g>
 </g>
</svg>
