<svg width="125" height="125" version="1.1" viewBox="0 0 125 125" xml:space="preserve" xmlns="http://www.w3.org/2000/svg"><rect width="125" height="125" fill="none" stroke-miterlimit="0" stroke-width="0" style="paint-order:markers fill stroke"/><g transform="translate(1.0593 22.941)" fill="#4d4d4d"><path d="m86.35 29.93c-0.75 0.37-1.51 0.78-2.26 1.21-2.25 1.32-4.47 2.93-6.74 4.78l-4.84-5.54c1.67-1.55 3.48-2.96 5.4-4.21 1.53-1 3.13-1.89 4.78-2.65 0.66-0.33 1.32-0.64 2-0.93-3.19-5.65-7.78-9.7-12.98-12.2-5.2-2.49-11.02-3.45-16.69-2.9-5.63 0.54-11.1 2.59-15.62 6.1-5.23 4.05-9.2 10.11-10.73 18.14l-0.48 2.51-2.5 0.44c-2.45 0.43-4.64 1.02-6.56 1.77-1.86 0.72-3.52 1.61-4.97 2.66-1.16 0.84-2.16 1.78-3.01 2.8-2.63 3.15-3.85 7.1-3.82 11.1 0.03 4.06 1.35 8.16 3.79 11.53 0.91 1.25 1.96 2.4 3.16 3.4 1.22 1.01 2.59 1.85 4.13 2.48 1.53 0.63 3.22 1.08 5.09 1.34h72.55c3.53-0.85 6.65-2 9.3-3.48 2.63-1.47 4.78-3.26 6.39-5.41 2.5-3.33 3.73-8.04 3.78-12.87 0.06-5.07-1.18-10.16-3.59-13.86-0.69-1.07-1.45-2.03-2.25-2.89-3.61-3.89-8.19-5.59-12.95-5.62-3.43-0.03-7 0.8-10.38 2.3zm5.64-9.28c1.6-0.25 3.2-0.38 4.79-0.36 6.72 0.05 13.2 2.45 18.3 7.95 1.07 1.15 2.08 2.45 3.03 3.9 3.2 4.92 4.84 11.49 4.77 17.92-0.07 6.31-1.77 12.59-5.25 17.21-2.27 3.01-5.18 5.47-8.67 7.42-3.36 1.88-7.28 3.31-11.68 4.33l-0.82 0.1h-73.08l-0.46-0.04c-2.67-0.34-5.09-0.97-7.29-1.88-2.27-0.94-4.28-2.15-6.05-3.63-1.68-1.4-3.15-2.99-4.4-4.72-3.34-4.6-5.14-10.22-5.18-15.82-0.04-5.66 1.72-11.29 5.52-15.85 1.23-1.48 2.68-2.84 4.34-4.04 1.93-1.4 4.14-2.58 6.64-3.55 1.72-0.67 3.56-1.23 5.5-1.68 2.2-8.74 6.89-15.47 12.92-20.14 5.64-4.37 12.43-6.92 19.42-7.59 6.96-0.67 14.12 0.51 20.55 3.6 7.01 3.37 13.13 8.98 17.1 16.87z" fill="#4d4d4d"/></g><path d="m23.282 94.363c-3.5729-0.71222-6.5037-2.2248-8.884-4.585-6.348-6.2943-7.7431-16.085-3.3006-23.163 1.5434-2.459 4.922-5.2864 7.8755-6.5907 1.9587-0.86501 4.5267-1.6242 7.4264-2.1954 3.2877-0.6477 2.813-0.11963 3.6794-4.0929 1.3074-5.9955 3.954-10.881 8.1347-15.016 3.9207-3.8779 8.8538-6.4415 14.913-7.7498 3.0506-0.65873 9.1304-0.65696 12.191 0.0035 4.318 0.93198 8.068 2.529 11.591 4.9363 2.7921 1.9079 6.4339 5.8165 8.1617 8.7595l0.4556 0.77606-2.4759 1.2436c-1.3617 0.68397-3.324 1.8021-4.3606 2.4847-2.2848 1.5046-5.026 3.7699-5.026 4.1535 0 0.31414 4.4648 5.5393 4.7332 5.5393 0.09463 0 1.2298-0.79497 2.5226-1.7666 4.5336-3.4074 8.6068-5.3067 13.033-6.077 8.7157-1.5169 16.352 2.4298 20.128 10.403 2.8413 5.9992 3.1488 14.22 0.76197 20.371-2.1962 5.6604-7.3086 9.683-15.438 12.147l-2.4147 0.73192-36.165-0.01968c-28.923-0.01569-36.44-0.0746-37.542-0.29412z" fill="#fff" stroke-miterlimit="0" stroke-width="0" style="paint-order:markers fill stroke"/><path d="m22.879 94.269c-4.4531-0.94633-8.1368-3.3609-10.617-6.9594-5.4405-7.8932-4.9361-17.623 1.2208-23.549 3.1249-3.008 6.7163-4.6789 12.62-5.8717 1.5094-0.30495 2.8695-0.66805 3.0224-0.80689 0.15295-0.13884 0.50342-1.3164 0.77882-2.6167 1.3705-6.4711 3.9389-11.409 8.0704-15.517 4.0914-4.0679 8.986-6.655 15.06-7.9606 3.148-0.67664 9.1797-0.68349 12.282-0.01395 2.5357 0.5473 5.9004 1.6905 7.819 2.6567 4.6676 2.3506 9.4042 6.7303 11.928 11.029l0.44969 0.76605-2.8888 1.4952c-4.2916 2.2212-9.2899 5.9298-8.9092 6.6102 0.27662 0.4943 4.5231 5.3358 4.68 5.3358 0.08212 0 1.1453-0.74983 2.3626-1.6663 4.274-3.2177 7.5298-4.8465 11.857-5.9317 2.3414-0.58723 7.3927-0.64945 9.319-0.11478 4.3287 1.2015 7.4662 3.3078 10.059 6.7533 4.5864 6.0936 5.8008 16.28 2.8479 23.891-2.2025 5.6766-7.2854 9.6759-15.438 12.147l-2.4147 0.73192-36.165-0.01473c-34.043-0.013876-36.269-0.036933-37.945-0.39301z" fill="#fff" stroke-miterlimit="0" stroke-width="0" style="paint-order:markers fill stroke"/></svg>
