<svg enable-background="new 0 0 512 512" version="1.1" viewBox="0 0 512 512" xml:space="preserve" xmlns="http://www.w3.org/2000/svg">
<rect width="512" height="512" fill="none" stroke-miterlimit="0" stroke-width="0" style="paint-order:markers fill stroke"/>
<g transform="matrix(1.0385 0 0 1.0385 8.9412 -3.4633)" fill="#ae0000">
	<g fill="#ae0000">
		<path d="m115.46 460.83-6.602-75.259c-0.282-3.218-2.834-5.769-6.052-6.052l-75.262-6.606c-1.962-0.172-3.898 0.533-5.291 1.924l-20.295 20.298c-3.999 3.999-1.508 10.847 4.126 11.341l64.135 5.629c3.218 0.282 5.769 2.834 6.052 6.052l5.628 64.135c0.494 5.633 7.343 8.125 11.341 4.126l20.296-20.296c1.393-1.393 2.097-3.33 1.924-5.292z" fill="#ae0000"/>
	</g>
</g>
<g fill="#ae0000">
	<g transform="matrix(1.0385 0 0 1.0385 8.9412 -3.4633)" fill="#ae0000">
		<path d="m410.66 132.31c10.865 10.866 25.778 22.7 29.749 7.8749l26.714-106.08c3.979-14.847-6.553-21.712-21.403-17.735l-107.01 30.989c-14.848 3.975 6.5069 19.51 17.358 30.362l13.174 13.174-113.24 113.24c-5.9946 6.1723 13.861 2.215 0 0l-125.49 125.49-54.861-4.814c-1.962-0.172-3.898 0.533-5.291 1.924l-20.296 20.296c-3.999 3.999-1.508 10.847 4.126 11.341l64.135 5.629c3.218 0.282 5.769 2.834 6.052 6.052l5.628 64.135c0.494 5.633 7.343 8.125 11.341 4.126l20.296-20.296c1.392-1.392 2.098-3.329 1.924-5.291l-4.813-54.844 97.244-97.244 141.5-141.49z" fill="#ae0000"/>
	</g>
</g>
</svg>
