<svg width="100" height="100" version="1.1" viewBox="0 0 100 100" xmlns="http://www.w3.org/2000/svg">
 <defs>
  <linearGradient id="grad35" x1="778.42" x2="898.51" y1="660.35" y2="660.35" gradientTransform="matrix(1.0006 0 0 .99943 -594.57 298.76)" gradientUnits="userSpaceOnUse">
   <stop stop-color="#00736f" offset="0"/>
   <stop stop-color="#19c2bc" offset="1"/>
  </linearGradient>
 </defs>
 <g transform="matrix(.83227 0 0 .83321 -153.38 -798.83)">
  <path d="m244.37 958.74c33.179 0 60.077 26.867 60.077 60.009 0 33.142-26.897 60.009-60.077 60.009-33.179 0-60.077-26.867-60.077-60.009 0-33.142 26.897-60.009 60.077-60.009zm0 3.289c31.361 0 56.784 25.394 56.784 56.72 0 31.326-25.423 56.72-56.784 56.72-31.361 0-56.784-25.394-56.784-56.72 0-31.326 25.423-56.72 56.784-56.72z" fill="url(#grad35)"/>
  <g transform="translate(-594.57 298.76)" opacity=".45">
   <path d="m813.88 729.14c0 0.3128-0.039 0.7423-0.1167 1.2866-3.4368-0.9352-6.0102-3.0791-7.7269-6.4324h0.2341c2.3426 2.3401 4.8769 4.0548 7.6095 5.1458zm1.2882-10.759c-5.0753-1.2462-7.96-3.8605-8.6641-7.8363 1.4049 3.0405 4.2929 5.1072 8.6641 6.1978 0.0781 0.2352 0.1167 0.509 0.1167 0.8204 0 0.3109-0.0386 0.5833-0.1167 0.8181zm-0.7008 6.3143c-3.0472-0.6224-5.6625-2.3777-7.8465-5.2625 1.9498 1.0925 4.5656 2.3387 7.8465 3.7425zm1.5222-13.565c-0.86-0.2352-2.6192-1.637-5.2702-4.2104-0.7824-1.0134-1.4055-2.1442-1.8726-3.3924 1.4797 1.561 3.8619 3.509 7.1428 5.8476-0.0815 0.3129-0.0815 0.8977 0 1.7552zm4.332-36.256c0.7008 2.2627 1.0512 4.5604 1.0512 6.9009 0 3.5077-0.7431 6.3938-2.2225 8.6529-1.2495 1.7167-3.1607 2.3019-5.7374 1.7557-2.8885-1.0133-4.2543-3.9776-4.099-8.8881 0.0782-3.5091 0.74-6.5882 1.9894-9.2401 0.0778-0.2333 0.2535-0.4473 0.5289-0.6435 0.2728-0.1925 0.5256-0.2508 0.7598-0.1746 0.2335 0.0777 0.3113 0.3123 0.2335 0.7015 0.3895 2.5723 1.3659 4.8348 2.9271 6.7829l0.3537-0.4668c0.7008-1.4037 1.7555-3.509 3.1608-6.3161 0.3114-0.0762 0.5449 0 0.7008 0.2333 0.1559 0.2352 0.2728 0.4685 0.3537 0.702zm-1.0545 24.677c0.1555 0.2334-0.0423 0.5462-0.5878 0.9353-1.249 0.1572-2.0281 0.1962-2.3393 0.1167-1.8726-1.8705-3.0439-4.0144-3.5145-6.4311-0.0781-0.3903 0.0778-0.6628 0.4706-0.8198 0.1554 0.0789 0.8953 0.157 2.223 0.2346 0.86 0 1.3658 0.3905 1.5217 1.1687 0.3895 1.0942 1.1326 2.6905 2.2263 4.7956zm2.3393 28.77c0.1559 0.4685 0.0782 1.1699-0.2336 2.1051-1.249 1.2482-2.8102 1.6372-4.6824 1.17-0.2337 0-0.7008-0.2718-1.4055-0.818 0-0.389 0.0392-0.9372 0.1173-1.6386 2.3427 0.2348 4.4098-0.0372 6.2042-0.8185zm0.5878-3.5073c-2.4212 1.2481-4.4102 1.3648-5.971 0.3501v-1.4038c2.5729 0 4.4879-0.1553 5.737-0.4681 0 0.3128 0.0748 0.8199 0.234 1.5218zm0.8177-7.6028c0.1559 1.0147 0.0776 1.5995-0.2337 1.7552-2.1062 0.8571-4.0989 0.7796-5.9711-0.2352l-0.1167-1.52c3.904 0.0795 6.0097 0.0795 6.3215 0zm0.9376-4.3277c-2.0313 0.2352-4.2151-0.1928-6.555-1.2866v-1.402c2.0281 0.7 4.1733 1.1295 6.4383 1.2852zm0.4673-8.3029c-0.3114 0.4667-0.8177 0.6629-1.5218 0.5852-0.5453-0.1557-1.0935-0.3114-1.639-0.4685-0.7818-0.311-1.7553-0.9738-2.9271-1.9886-0.2336-0.7781 0.0782-1.3242 0.9382-1.6372 0.3114-0.0762 0.584-0.1165 0.8177-0.1165 0.1559 0 0.3894 0.0403 0.7041 0.1165 0.7789 0.6258 1.9893 1.4038 3.6279 2.3392 0.234 0.2346 0.234 0.6256 0 1.1699zm5.0365 20.115c0.1559 0.9371-0.2335 1.6386-1.1712 2.1058-1.4055 0.7808-2.1486 1.2475-2.2263 1.4033-0.7008 0.3128-1.7559 0.7019-3.1608 1.17l0.2336-1.7553c1.2496-0.8557 3.1998-2.0647 5.8543-3.6253zm0.2337-4.9105c0.0777 0.5462-0.0778 1.3257-0.4672 2.3385-1.0969 0.4668-2.6936 1.4034-4.803 2.8073-0.7786 0.0775-1.1681-0.1558-1.1681-0.702-0.1592-0.1557-0.2368-0.3519-0.2368-0.5852 0-0.389 0.2368-0.7598 0.7041-1.1116 0.4672-0.35 0.8957-0.6808 1.2886-0.9937 0.8567-0.6223 2.2224-1.3628 4.0983-2.2218 0.3896 0.0775 0.5841 0.2332 0.5841 0.4685zm1.0545-5.2643c0 1.3275-1.3658 2.6143-4.0984 3.8605-0.9377 0.4666-1.7558 0.4295-2.4599-0.1167v-1.2866l5.7374-3.0405c0.4672-0.1558 0.74 0.0385 0.8209 0.5833zm1.1685-5.1458c0.1559 1.3272-0.1949 2.1457-1.0516 2.4567-1.9537 0.8591-3.8259 1.2481-5.6202 1.1686-0.0783-0.3095-0.1169-0.7776-0.1169-1.4033 2.4953-0.8558 4.5267-1.7924 6.0875-2.8053 0.3894 0.0777 0.623 0.2738 0.7012 0.5833zm17.916 42.572c-0.86 1.2481-1.9149 1.7148-3.1608 1.4033-1.6422-1.2462-3.3981-2.8457-5.2702-4.7953 1.5609-0.2333 2.8104-0.7018 3.7447-1.4038 1.3273 0.6258 2.6545 1.6776 3.9818 3.1573 0.2335 0.2351 0.471 0.4685 0.7045 0.7018 0.2336 0.3129 0.2336 0.6257 0 0.9367zm-3.6312-37.308c0.0777 1.7943-0.0392 2.8853-0.351 3.2744-1.249 0.8591-3.2025 1.4437-5.8542 1.7534-3.3584 0.3128-6.0487-0.6225-8.0801-2.8053-0.2335-1.5591-0.0782-2.5333 0.4706-2.9238 0.3894 0 0.915 0.175 1.5801 0.525 0.6622 0.3513 1.0709 0.5268 1.2301 0.5268 1.2462 0.5462 2.6121 0.8182 4.0952 0.8182 2.3432 0 4.3326-0.5848 5.9744-1.7535 0.3894-0.1557 0.7008 0.0405 0.9349 0.5848zm4.7993-8.0696c0 0.5463-0.1951 0.8187-0.5841 0.8187-1.1718 0.1571-2.9271 0.391-5.2703 0.7018l0.4706 3.742c-2.0314 1.6371-4.3321 2.4558-6.9088 2.4558-0.9377 0-1.8726-0.1557-2.8104-0.4687-1.7167-0.6223-2.888-1.441-3.511-2.4551 0.0743-0.8577 0.3504-2.1053 0.8175-3.7425-2.9662-0.389-5.1497-0.8181-6.555-1.2866-0.5482-0.1557-0.6651-0.5852-0.3504-1.2872l0.7008-0.5833c2.499 0.7018 4.7606 0.9756 6.792 0.8185 0.5453-0.7795 1.5612-1.909 3.0439-3.3923-1.2491-1.2462-1.8364-2.3387-1.7554-3.2739 0.0745-1.0904 0.6617-1.9886 1.7554-2.6904 0.3118 0.078 0.4677 0.1575 0.4677 0.2337-0.3118 0.3919-0.4677 1.0533-0.4677 1.9886-0.0778 0.5462 0.2726 1.0925 1.055 1.6367 1.8721 0.3923 3.1183 0.2738 3.7448-0.35 0.623-0.3891 0.8209-1.0905 0.5839-2.1052-0.4671-0.7782-0.6622-1.2868-0.5839-1.5205 0.9376 0.1575 1.5998 1.1685 1.9894 3.0405 0.0777 1.3275-0.3896 2.3-1.4055 2.9238-0.1559 0-0.3504 0.1167-0.5839 0.35l2.9271 3.861c0.7041 0 1.6583-0.0589 2.8687-0.1756 1.2104-0.1181 2.0864-0.1764 2.6351-0.1764 0.4672 0.1571 0.7786 0.4686 0.9345 0.9366zm2.343 51.692c-0.1559 0.3923-0.6263 0.6255-1.4054 0.7018-1.0154-0.0763-1.7167-0.3095-2.1057-0.7018-0.3927-1.713-0.8214-2.924-1.2886-3.6258v-0.35c1.0126-0.311 1.8726-0.7777 2.5767-1.4033 0.308 0.0775 0.8176 0.5846 1.5217 1.5199 0.6232 1.3277 0.8567 2.6129 0.7013 3.8592zm-17.329 6.1995c0.1559 0.7014-0.0386 1.2476-0.5841 1.6366-0.9377 0-2.7712-0.661-5.5038-1.9885-0.1559-0.0763-0.3114-0.3891-0.4673-0.9353 0.0745-0.7019 0.3506-1.1295 0.8177-1.2867 0.779 0.392 1.9927 0.8977 3.6312 1.52 0.6231 0.0795 1.3277 0.4295 2.1063 1.0539zm16.745-3.6258-1.5218 2.1053c-1.4864 1.4038-3.1249 2.3386-4.9194 2.8071-0.0781-0.9366-0.3508-1.7148-0.8181-2.3405 1.9504-1.0905 3.3167-2.2981 4.0991-3.6252 0.9343 0.5476 1.9888 0.8976 3.1602 1.0533zm-6.3243-34.735c-0.2336 1.7163-1.0159 3.081-2.3399 4.0938-1.6389 0.8591-3.5143 1.2868-5.6207 1.2868-1.9535 0-3.6312-0.3905-5.0365-1.1701-2.184-1.2462-3.1608-2.572-2.9271-3.9757 0-0.4681 0.1559-1.013 0.4704-1.6386 0.6231 0.3128 1.5222 0.7813 2.6935 1.4038 1.3244 0.859 2.9631 1.2867 4.9166 1.2867 2.5767 0 4.8775-0.6224 6.9087-1.8719 0.4673-0.0763 0.7791 0.1185 0.935 0.5852zm-1.7558 40.114c-3.1998 0.7018-5.7765 0.741-7.7265 0.1166l0.2337-2.2218c2.2616 0.2352 4.4489 0.157 6.5579-0.2333 0.0749 0 0.3894 0.7018 0.9349 2.1051zm-13.348-15.671c-1.249 0.7796-2.0312 1.2867-2.3426 1.52-0.9345 0.702-1.5222 1.4443-1.7559 2.222-0.3112 0.7795 0.1169 1.598 1.2887 2.4557 0.2335 0.0795 0.5872 0.3128 1.0545 0.7018-0.0777 0.3905-0.2759 0.5848-0.5873 0.5848-0.779-0.2333-1.4831-0.1166-2.1063 0.35-0.0776 0.4687 0.1169 1.0148 0.5841 1.6386 0.0781 0.1576 0.3542 0.35 0.8214 0.5852 0.4671 0.2334 0.7008 0.4667 0.7008 0.7 0 0.2353-0.1752 0.527-0.5256 0.8785-0.3508 0.3504-0.6424 0.4878-0.8799 0.4083-1.872-1.9476-2.8069-3.8586-2.8069-5.7306 0-0.5447 0.1168-1.128 0.3508-1.7538 0.9345-2.1053 3.0016-3.6257 6.2042-4.5605zm12.997-18.128c0.3895 0.4685 0.2726 1.4813-0.3504 3.0404-1.6391 2.1834-4.3326 3.0034-8.0807 2.4557-2.1061-0.5447-3.511-1.5205-4.2151-2.9238-0.7014-1.7133-0.8181-2.9238-0.351-3.6257 3.1998 1.6387 5.7765 2.379 7.727 2.2239 1.9502-0.2352 3.706-0.6244 5.2702-1.1705zm2.1062-9.7068c-2.0285 2.1057-4.7997 3.1981-8.311 3.2743-2.4208 0-4.6471-1.0518-6.6751-3.1571-0.4677-2.339-0.3509-3.7425 0.3504-4.211 2.1839 1.7943 4.8025 2.6905 7.8465 2.6905 1.7167 0 3.2775-0.3519 4.683-1.0533l1.9893-0.5852c0.5449 0.548 0.5874 1.5609 0.1169 3.0418zm-2.1062 23.039c-1.0159 1.0923-2.5376 1.5604-4.5662 1.4033l-1.6386-0.9352c-2.1094-2.4163-3.4367-4.5606-3.9816-6.4324 4.0562 1.0143 7.0642 0.7423 9.0146-0.8185 0 0.0775 0.0781 1.248 0.234 3.5084 0.0778 1.4039 0.389 2.4962 0.9378 3.2744zm8.7813-32.045c-0.9382 0.0795-1.7557-0.0179-2.4598-0.2917-0.7008-0.2724-1.4639-0.564-2.2815-0.8769-0.821-0.3109-1.3889-0.7796-1.697-1.4034l-0.12-1.5204c1.0155 0.6244 3.1216 1.4814 6.3243 2.5724zm0.584 5.6144-0.1167 0.1165c-1.0159-0.3108-2.0671-0.6608-3.1608-1.0518-1.0936-0.3892-1.9893-0.8962-2.6936-1.52-0.2335-0.8577-0.1557-1.5205 0.2337-1.9886 0.7822 0.4681 1.9145 1.1309 3.3977 1.9886 0.1559 0.2333 0.6622 0.4667 1.5217 0.7019 0.623 0.1571 0.9348 0.4666 0.9348 0.9347 0 0.2334-0.039 0.5077-0.1168 0.8187zm-0.4671 9.9414c0 0.3114-0.0392 0.8185-0.1169 1.5205-1.2494-0.5448-2.1872-0.9743-2.8102-1.2872-1.0159-0.6238-1.8336-1.3256-2.46-2.1052-0.2336-0.311-0.2726-0.9352-0.1169-1.8719 0.2337-0.3095 0.5063-0.4263 0.821-0.35 1.0126 1.0147 2.5767 2.379 4.683 4.0938zm0.5839-4.6791c-1.7167 0.2352-3.4724-0.5057-5.2669-2.2218-0.3928-0.3115-0.6263-0.8187-0.7041-1.5205 0-0.311 0.1559-0.5445 0.4705-0.7015 0.2336-0.0762 0.4673-0.039 0.7008 0.1167 1.0126 0.7809 2.5767 1.8328 4.6829 3.1586zm5.0367-20.583c-1.3272 1.0143-2.9271 1.7535-4.7997 2.222-0.7042 0-1.2138-0.3115-1.5222-0.9353-0.0811-0.3114 0.0358-0.5269 0.3504-0.6435 0.3117-0.1167 0.5063-0.2141 0.5844-0.2931 0.7041-0.3891 1.8726-0.8948 3.5145-1.5204l0.584 0.5852zm1.4049 8.0696c-1.72 1.4033-3.748 2.029-6.0879 1.872l-0.1167-1.4039c2.1838-0.1558 4.2119-0.5853 6.0878-1.2866 0.1559 0.3128 0.1912 0.5847 0.1168 0.8185zm1.6385 17.426c-0.0777 0.6257-0.9767 1.3257-2.693 2.1052-2.0318 0.2335-3.4726 0.0782-4.3326-0.468-0.0776-0.3115-0.0776-0.7782 0-1.4038 2.184 0.6256 4.4881 0.4685 6.9089-0.4667zm0-5.3791c0 0.3905-0.1945 0.6629-0.584 0.8187-0.3927 0.157-0.7817 0.3108-1.1713 0.4665-1.8759 0.5463-3.4753 0.6258-4.8026 0.2353-0.4677-0.78-0.6231-1.2467-0.4677-1.4038l0.1169-0.2348c3.0439 0.1572 5.3093 0.1181 6.792-0.1171zm-0.7041-6.199c0 0.1571-0.4671 0.4488-1.4049 0.8764-0.9344 0.4295-2.4566 0.723-4.5662 0.877 0-0.3097-0.0776-0.8187-0.2335-1.5201 2.1094 0 4.1375-0.1929 6.0879-0.5833zm4.3326-21.754c-1.3273 3.3529-3.1222 5.4972-5.3838 6.4324-0.3928 0-0.9377-0.2333-1.6385-0.7018 0.3079-0.5444 0.7785-1.4034 1.4049-2.572 0.3895-0.8571 0.9736-2.222 1.7553-4.0938 1.0903 0.7795 2.3789 1.0923 3.8621 0.9352zm6.3247-13.682c-0.3151 7.951-2.6159 11.929-6.9088 11.929-1.4054 0-2.6548-0.6615-3.7485-1.9886-1.4049-2.1057-2.1057-4.6372-2.1057-7.6015 0-3.431 0.8953-6.3548 2.6931-8.771l0.5844-0.8186c0.1554 0.2334 1.0154 2.1442 2.5767 5.729 0.3891 0.6258 0.8954 0.7811 1.5217 0.4687 0.3118-0.7019 0.8567-1.7134 1.6391-3.0405 0.389-0.6242 1.0545-1.5205 1.9921-2.6905 0.7791 0.7019 1.363 2.9643 1.7559 6.7843zm-5.2702 22.103c-0.86 2.4962-2.6153 4.8348-5.267 7.0163-0.1587-0.4668-0.1978-0.8186-0.1201-1.052 2.6549-2.2608 4.4526-4.2476 5.3871-5.9643zm2.9271 5.731c-1.1714 2.8071-3.3194 5.1071-6.4383 6.8996-0.1592-0.389-0.2336-0.6615-0.2336-0.8185 2.5734-1.5592 4.7993-3.5853 6.6719-6.0811zm1.1713 6.5496c-2.1872 3.7419-4.6824 6.1976-7.4928 7.3676v-1.0533c2.5767-1.7134 5.072-3.8187 7.4928-6.3143zm0.7013 6.3143c-2.4175 3.12-4.9166 5.1861-7.4933 6.1991l-0.1168-1.0533c2.6545-1.4797 5.1926-3.1963 7.6101-5.1458z" fill="#18beb8" fill-rule="evenodd"/>
  </g>
 </g>
 <text transform="scale(.99943 1.0006)" x="35.257717" y="67.401001" fill="#fff2bd" font-family="sans-serif" font-size="25.208px" stroke-width=".63021" style="line-height:1.25" xml:space="preserve"><tspan x="35.257717" y="67.401001" fill="#fff2bd" font-family="'MS UI Gothic'" font-size="50.417px" stroke-width=".63021">Y</tspan></text>
</svg>
