<svg width="100" height="100" version="1.1" viewBox="0 0 100 100" xmlns="http://www.w3.org/2000/svg">
 <defs>
  <linearGradient id="grad30" x1="899.3" x2="1019.4" y1="420.25" y2="420.25" gradientTransform="matrix(1.0006 0 0 1.0006 -597.29 298.29)" gradientUnits="userSpaceOnUse">
   <stop stop-color="#476100" offset="0"/>
   <stop stop-color="#61800c" offset="1"/>
  </linearGradient>
 </defs>
 <g transform="matrix(.83227 0 0 .83227 -251.78 -597.76)">
  <path d="m362.59 718.78c-33.179 0-60.077 26.897-60.077 60.077s26.897 60.077 60.077 60.077 60.077-26.897 60.077-60.077-26.897-60.077-60.077-60.077zm0 3.2927c-31.361 0-56.784 25.423-56.784 56.784 0 31.361 25.423 56.784 56.784 56.784 31.361 0 56.784-25.423 56.784-56.784 0-31.361-25.423-56.784-56.784-56.784z" fill="url(#grad30)" stroke-width="1.0006"/>
  <g transform="translate(-594.57 298.76)">
   <path transform="matrix(1.2015 0 0 1.2015 897.09 419.47)" d="m63.107 17.422c-2.3727 1.2388-5.7146 1.8574-10.025 1.8574-1.8326 0-4.4451-0.22884-7.8418-0.6875-3.3941-0.45658-5.9267-0.68555-7.5957-0.68555-2.2631 0-4.3141 0.29651-6.1445 0.88867-1.4565 0.4307-2.7353 1.2917-3.8398 2.584-1.1047 1.2915-1.7126 2.6636-1.8203 4.1172-2.2629-0.10761-4.3625 0.16159-6.3027 0.80859l0.1582 0.80664c1.1202 1.3459 2.8795 1.8565 5.2793 1.5332 0.31793 1.2385 0.50483 2.2088 0.55859 2.9082 0.05168 0.26957 0.08203 1.1581 0.08203 2.6641-0.05585 1.0778 0.20996 1.8576 0.79688 2.3418 0.37436 0.75429 0.56055 1.8035 0.56055 3.1484v2.8262c0 2.4763 0.75398 4.1471 2.2617 5.0078 0.64742 0.32225 1.1867 0.29632 1.6191-0.08203 0.8624-1.8833 1.6688-3.3914 2.4238-4.5215 0.48613-0.75412 1.456-1.4258 2.9102-2.0176 1.4564-0.59216 2.4264-1.3199 2.9102-2.1816 1.4005-1.7757 2.1016-3.7934 2.1016-6.0547 0-1.183-0.21442-2.2615-0.64453-3.2305-1.779-0.16229-3.129-0.13473-4.043 0.08008l-0.08008-0.08008c0.32259-0.43062 0.91461-0.77926 1.7773-1.0488 0.86273-0.26849 1.4548-0.61975 1.7773-1.0508 0.64742-0.7542 0.83718-1.4794 0.56836-2.1797-1.4025 0.4843-2.8307 0.61832-4.2871 0.40234v-0.16016c0.48613-1.3999 1.8604-2.1804 4.123-2.3418 8.0838 0.37702 12.854 0.56445 14.311 0.56445 3.9857 0 7.5161-0.24202 10.588-0.72656 4.6353-0.69936 7.9214-2.0719 9.8613-4.1172 0.16129-0.48455 0.10883-0.78023-0.16016-0.88867-0.0536-0.05252-0.3248 9.82e-4 -0.80859 0.16211-3.0718 2.3701-8.4061 3.6324-16.006 3.7949l-10.105-0.72656c-3.8802-0.26857-6.1433-0.4043-6.791-0.4043-3.773 0-6.6261 0.78112-8.5664 2.3418-0.0536 0.05485-0.27217 0.35152-0.64844 0.88867-0.26891 0.32317-0.53744 0.48438-0.80859 0.48438-0.16129 0-0.32308-0.0545-0.48438-0.16211 0.86007-2.637 3.099-4.0632 6.7109-4.2793 5.0632 0.48455 9.0529 0.72656 11.961 0.72656 5.4442 0 9.9707-0.69873 13.582-2.0996 0.59183-0.3761 0.86003-0.67199 0.80859-0.88672-0.21714-0.21506-0.45799-0.32422-0.72656-0.32422zm-20.695 8.0742c-0.1077 0.21589-0.13563 0.35045-0.08203 0.4043 0.05376 0.10861 0.08203 0.21607 0.08203 0.32226 0 0.3235-0.18827 0.63448-0.56445 0.92969-0.37885 0.29654-0.73015 0.55252-1.0527 0.76758 0.75279 3.499 1.1328 5.5446 1.1328 6.1367 0 3.284-1.2932 5.706-3.8809 7.2656 0.32259 1.7233 0.53654 3.0165 0.64648 3.877 0.16129 1.5074-0.24093 3.4437-1.2109 5.8125-0.97026 2.3687-1.4026 4.1991-1.2949 5.4902 0.43236-1.5062 1.1052-2.933 2.0215-4.2793 4.0418-3.9834 6.0625-8.9074 6.0625-14.775 0-0.9691-0.05441-1.9658-0.16211-2.9883 0-0.10745-0.08089-0.43052-0.24219-0.96875-0.10994-0.37618-3.23e-4 -0.67303 0.32226-0.88867 0.21489 0.10844 0.35032 0.16211 0.40625 0.16211 0.64518 2.2077 0.9707 4.4145 0.9707 6.6211 0 3.6075-0.83878 6.434-2.5078 8.4785-4.2567 3.9846-6.3848 7.8045-6.3848 11.465 0 1.0224 0.16154 2.0469 0.48438 3.0684 0.21489 0.48463 0.47154 1.009 0.76758 1.5742 0.29546 0.56511 0.71447 0.84961 1.252 0.84961 0.32508-0.37618 0.48633-0.67261 0.48633-0.88867-0.54006-1.3449-0.54006-3.472 0-6.3789 0.32259-1.7222 1.1592-3.3638 2.5059-4.9258 1.3464-1.5609 2.8825-2.5577 4.6074-2.9883 0.59149-0.21506 1.131-0.2947 1.6152-0.24219-1.5641 0.75554-2.7744 1.5088-3.6348 2.2617-2.9642 2.4763-4.4473 5.9208-4.4473 10.334 0 0.75537 0.05217 1.5633 0.16211 2.4238-0.21747 0.75412-0.45799 1.2107-0.72656 1.373-2.3191-0.4307-3.9614-2.828-4.9316-7.1875-3.0715-0.21506-5.3914-0.32226-6.9531-0.32226-0.59382 0.10844-1.3737-7.16e-4 -2.3438-0.32422-0.96984-0.32217-1.643-0.48438-2.0195-0.48438-0.59374 0-1.133 0.18877-1.6191 0.56445-0.4322 0.75553-0.62046 1.2941-0.56445 1.6172 0.8063 1.8306 1.2129 4.1184 1.2129 6.8633 0 1.4533-0.10924 3.0154-0.32422 4.6836-0.16154 1.3463 0.24246 2.7174 1.2129 4.1172 0.8063 1.184 1.6153 2.3692 2.4238 3.5527 0.1077 0.10886 0.29712 0.36189 0.56836 0.76562 0.26891 0.40407 0.56384 0.60547 0.88867 0.60547 0.05152 0 0.24186-0.18727 0.56445-0.56445l0.16211-5.0859-0.48438-0.80664c-0.48613-0.48463-1.1065-0.67394-1.8594-0.56641-0.43236-0.16246-0.67492-0.59041-0.72852-1.291 0.16129-0.53706 0.48682-0.88982 0.9707-1.0508-0.26899-1.777-0.4043-3.1219-0.4043-4.0371 0.05152-0.80813 0.08203-1.5877 0.08203-2.3418 0.10761-0.96893 0.32194-1.6951 0.64453-2.1797 0.54014-0.16104 1.1036-0.24219 1.6973-0.24219 0.59382 0 1.1856 0.08114 1.7793 0.24219 4.4181 2.7449 7.4899 4.3075 9.2148 4.6836v0.16211c-1.2924 1.5074-2.5861 3.0141-3.8789 4.5215-1.5638 1.7757-2.9926 3.1755-4.2852 4.1973-0.86265 1.1303-1.293 2.0182-1.293 2.6641 0 0.37702 0.13323 0.72853 0.4043 1.0508 0.26891 0.3235 0.72754 0.45798 1.373 0.4043 0.48613-0.08606 0.99722-0.17238 1.5371-0.25977 1.6177-0.09613 3.6626-0.11714 6.1426-0.06445h6.1445c2.749-0.8068 4.7413-1.8035 5.9824-2.9883-0.97001-1.0218-2.5626-1.6395-4.7715-1.8555-0.80672 1.0777-1.4533 1.8036-1.9395 2.1797-0.80672 0.05451-1.4816-0.242-2.0215-0.88867-0.21522-0.16096-0.78123-3.39e-4 -1.6953 0.48438-2.6952 0.27082-4.7705 0.32365-6.2246 0.16211 1.1316-1.2374 2.0466-2.1265 2.748-2.666 6.2507-3.6602 10.428-6.9959 12.529-10.012 0.32259-0.59041 0.61947-0.91312 0.89062-0.9668 0.16129 0.16113 0.26867 0.2949 0.32227 0.40234-1.0799 2.0467-2.1549 3.5801-3.2324 4.6016 2.747 0.80822 6.653 0.91738 11.719 0.32422 0.59374-0.10745 0.86261-0.34938 0.80859-0.72656 0.59149-1.938 1.7916-3.5798 3.5996-4.9258 1.8033-1.345 3.7294-2.0993 5.7773-2.2617 2.8565-0.26866 5.0932 0.13652 6.7109 1.2129 1.9403 1.2914 2.9102 3.3363 2.9102 6.1348 0 1.0229-0.13547 2.074-0.4043 3.1504-0.43253 1.7767-1.8871 3.042-4.3652 3.7949-0.64509 0.21597-1.32 0.32227-2.0215 0.32227-1.994 0-3.5844-0.75236-4.7695-2.2598-0.64518-0.91525-0.7809-1.8296-0.4043-2.7461 0.37627-0.48338 0.67573-0.699 0.89062-0.64648 0.05376 1.1301 0.52241 2.087 1.4121 2.8672 0.88945 0.78117 1.8999 1.1699 3.0312 1.1699 1.1316 0 2.1847-0.29551 3.1523-0.88867 1.5104-0.96793 2.2656-2.2605 2.2656-3.875-0.21756-2.9074-0.78094-4.789-1.6973-5.6504-1.2412-1.2387-2.9647-1.8574-5.1738-1.8574-1.6174 0-3.1528 0.32311-4.6094 0.9707-1.8326 0.8113-3.3138 2.0957-4.4453 3.8516-1.1312 1.7569-1.6973 3.6353-1.6973 5.6348 0 3.7823 1.7257 6.8888 5.1738 9.3203 2.6413 1.0786 5.5774 1.3494 8.8105 0.8125 1.779-0.32342 3.448-1.1592 5.0117-2.5078 1.5618-1.3473 2.6122-2.8848 3.1523-4.6113 0.43012-1.4009 0.64844-2.8039 0.64844-4.207 0-3.6656-1.2408-7.089-3.7188-10.271-3.2329-2.8578-6.9792-5.4459-11.236-7.7656-4.1494-3.3962-7.3847-8.196-9.7012-14.398-0.48421 0.05493-0.72656-0.10619-0.72656-0.48438 0-0.10745 0.02648-0.28237 0.08008-0.52539 0.05168-0.24161 0.08203-0.41695 0.08203-0.52539 0-0.26957-0.1092-0.48536-0.32227-0.64648l-0.72852 0.08008c-0.21756-1.5072-0.32422-2.287-0.32422-2.3418 0.0536 0-0.26973 0.18843-0.96875 0.56445-0.16354-0.91425-0.24414-1.5876-0.24414-2.0195l-0.32226-0.32227c-0.48613 0.32217-0.80941 0.62002-0.9707 0.88867-0.10728-1.1829-0.1905-1.816-0.24219-1.8965-0.05376-0.08165-0.16068-0.12305-0.32422-0.12305-0.1077 0-0.26948 0.09536-0.48438 0.2832-0.21489 0.18934-0.40286 0.30935-0.56641 0.36328l0.08008-1.291c0.0536-0.59208-0.0273-1.022-0.24219-1.293-0.3766-0.16113-0.63292-6e-6 -0.76758 0.48438-0.13416 0.48455-0.33664 0.75591-0.60547 0.80859-0.1613-1.0764-0.35152-1.7761-0.56641-2.0996-0.21522-0.16113-0.37668-0.24219-0.48438-0.24219-0.16129 0-0.25848 0.24202-0.2832 0.72656-0.02905 0.48438-0.17649 0.75429-0.44531 0.80664 0.0536-0.80664-0.29566-1.6413-1.0508-2.5039-0.2709 0.05493-0.41864 0.09608-0.44336 0.12305-0.02905 0.02796-0.04102 0.12021-0.04102 0.28125 0 0.16204 0.02602 0.27154 0.08203 0.32422-0.21731 0.48455-0.37863 0.83385-0.48633 1.0488-0.0536-0.10753-0.16097-0.61696-0.32227-1.5332-0.10986-0.64576-0.40674-0.99727-0.89062-1.0508 0.0536 0.8068-0.05361 1.3731-0.32227 1.6953l-0.40625-1.1289c-0.16129-0.48463-0.40202-0.83489-0.72461-1.0508-0.27124 0-0.43273 0.05491-0.48633 0.16211 0.26891 0.7542 0.26891 1.3732 0 1.8574-0.21522-0.37577-0.41908-0.80834-0.60742-1.293-0.18801-0.48455-0.52364-0.72656-1.0098-0.72656zm-10.508 7.5898c-0.64742 1.8309-1.7002 2.9082-3.1543 3.2305-0.21489-0.05252-0.37676-0.21339-0.48438-0.48438 0.05401-0.48455 0.29598-0.96941 0.72852-1.4531 0.26891-0.21464 0.69952-0.53797 1.291-0.96875 0.70135-0.21489 1.2429-0.32422 1.6191-0.32422zm37.266 8.4785c-0.16129 0.21597-0.24219 0.43143-0.24219 0.64648 0.32259 0.32309 0.59096 0.51219 0.80859 0.56445 2.9079 2.0992 4.3633 4.9805 4.3633 8.6406 0 0.96884-0.13314 1.9649-0.4043 2.9863 2.0476 1.3464 4.0138 2.8815 5.9004 4.6035h0.16211c1.1336-1.5595 2.4933-2.8937 4.084-3.998 1.5887-1.1021 3.2438-1.6543 4.9688-1.6543 0.97009 0 1.8612 0.21678 2.6699 0.64648 0.16129 0.05451 0.38963 0.20175 0.6875 0.44336 0.29579 0.24302 0.55002 0.36328 0.76758 0.36328 0.16129-0.21481 0.21371-0.40341 0.16211-0.56445-0.7552-1.3449-1.5912-2.4241-2.5078-3.2305-1.4539-1.2924-3.3678-1.9375-5.7383-1.9375-1.7276 0-3.4224 0.34947-5.0938 1.0488-0.10761-0.21473-0.21474-0.57858-0.32226-1.0898-0.10736-0.51151-0.243-0.89935-0.4043-1.1699-1.2948-3.6602-4.5803-5.7607-9.8613-6.2988zm-34.924 2.0996c-1.5079 1.346-2.3691 2.6123-2.584 3.7949 0.48388 0.86256 0.56469 2.3142 0.24219 4.3594-0.27124 0.16154-0.3779 0.4051-0.32422 0.72852 0.21489 0.16113 0.40316 0.21367 0.56445 0.16016 1.1316-1.0764 1.887-1.9383 2.2656-2.584 0.53781-0.91525 0.80664-1.9907 0.80664-3.2305 0-1.2375-0.26883-2.3123-0.80664-3.2285z" fill="#476100" fill-rule="evenodd" opacity=".45" stroke-width=".83227"/>
  </g>
 </g>
 <text x="31.280064" y="67.439095" fill="#fff2bd" font-family="sans-serif" font-size="25.223px" stroke-width=".63057" style="line-height:1.25" xml:space="preserve"><tspan x="31.280064" y="67.439095" fill="#fff2bd" font-family="'MS UI Gothic'" font-size="50.445px" stroke-width=".63057">M</tspan></text>
</svg>
