<svg width="100" height="100" version="1.1" viewBox="0 0 100 100" xmlns="http://www.w3.org/2000/svg">
 <defs>
  <linearGradient id="grad32" x1="778.42" x2="898.51" y1="540.34" y2="540.34" gradientTransform="matrix(1.0006 0 0 .99943 -594.57 298.76)" gradientUnits="userSpaceOnUse">
   <stop stop-color="#e94d11" offset="0"/>
   <stop stop-color="#f80" offset="1"/>
  </linearGradient>
 </defs>
 <g transform="matrix(.83227 0 0 .83321 -153.38 -698.89)">
  <path d="m244.37 838.79c33.179 0 60.077 26.867 60.077 60.009s-26.897 60.009-60.077 60.009c-33.179 0-60.077-26.867-60.077-60.009s26.897-60.009 60.077-60.009zm0 3.289c31.361 0 56.784 25.394 56.784 56.72s-25.423 56.72-56.784 56.72c-31.361 0-56.784-25.394-56.784-56.72s25.423-56.72 56.784-56.72z" fill="url(#grad32)"/>
  <path transform="matrix(1.2015 0 0 1.2002 184.29 838.79)" d="m56.092 12.844c-0.70443 0-1.497 0.1193-2.375 0.35352-2.111 0.52751-3.2536 1.6413-3.4316 3.3418 0 0.23422 0.11715 0.46891 0.35352 0.70313 0.23387 0.2353 0.37908 0.41019 0.4375 0.52734l-0.17383 3.4316c0.05842 0.29362 0.29124 0.40989 0.70312 0.35156 0.40973-0.05882 0.61523 0.05894 0.61523 0.35156 0.99706-0.29262 2.5489-0.46956 4.6602-0.5293h0.88086c-0.70194-1.4418-1.2311-2.4961-1.582-3.1641-0.35346 0.05882-0.61761 0.05882-0.79297 0-1.1142-0.40936-1.7014-0.99688-1.7598-1.7598 0.2342-0.05732 0.45284 0.07291 0.66016 0.39453 0.20457 0.32304 0.42541 0.55798 0.66211 0.70312 0.23137 0.14756 0.55491 0.20823 0.9668 0.17773 0.40973-0.02924 0.674 0.07384 0.79102 0.30664 0.82162 1.9941 1.4358 3.4892 1.8477 4.4863-0.05834 0.11707-0.14666 0.17578-0.26367 0.17578-0.06092 0-0.16432-0.11626-0.31055-0.35156-0.14606-0.23238-0.30698-0.35156-0.48242-0.35156-1.7017-0.11673-4.0756 0.14636-7.125 0.79102-2.1696 0.52801-3.8391 0.76287-5.0117 0.70312-0.70476 0.29504-1.5854 0.35321-2.6387 0.17773-1.643-0.23422-2.553-0.35156-2.7285-0.35156-0.76278 0-1.8767 0.17506-3.3418 0.52734-1.4676 0.35212-2.5491 0.52734-3.2539 0.52734-0.87988 0-1.6435-0.17523-2.2871-0.52734-1.4065-0.23413-2.5227 0.14689-3.3418 1.1426-0.23378 0.64607-0.26325 1.1743-0.08789 1.584 0.29271 0.35212 0.67201 0.61562 1.1426 0.79102 0.29229 0.05991 0.76016 0.14661 1.4062 0.26367l0.96875-0.08789c1.1728-0.64499 2.3155-0.84912 3.4297-0.61523 4.3978 0.87887 7.828 1.202 10.293 0.9668-0.2367-0.9372-0.38265-1.6712-0.44141-2.1992 0.17552-0.29254 0.32173-0.4081 0.44141-0.34961 0.17552 0.35086 0.23163 0.61554 0.17578 0.79102 0.23387 1.1739 1.0546 1.8184 2.4609 1.9355 1.1728 0 2.3451-0.0301 3.5176-0.08984-0.58725 1.8783-0.46997 3.783 0.35156 5.7188 0.47056 0.29354 0.70508 0.78974 0.70508 1.4941-0.05867 0.93861-0.05867 1.5259 0 1.7598 0.05834 0.23522 0.20525 0.99747 0.43945 2.2871 0.17786 0.93861 0.08979 1.6698-0.26367 2.1973-1.1725 0.99852-2.1122 2.3188-2.8145 3.959-0.06084 0.82155-0.52825 1.8177-1.4082 2.9902-1.1142 1.4067-1.7582 2.3449-1.9336 2.8145-0.35346 0.64607-0.85009 2.1408-1.4961 4.4863-0.52649 1.877-1.2898 3.2854-2.2871 4.2227-0.29229 0.29404-0.45313 0.86505-0.48242 1.7148-0.03196 0.85062-0.13261 1.4223-0.31055 1.7148-1.6992 1.9343-2.7547 3.6952-3.1641 5.2773-1.6431 6.5087-4.4577 10.379-8.4434 11.611-0.11968 0.05841-0.6473 0.11837-1.5859 0.17578-0.64351 0-0.90866 0.32214-0.78906 0.9668 0.29263 0.29396 0.58599 0.46894 0.88086 0.52734 2.9888-0.11723 5.3919-0.08867 7.2109 0.08789 0.9383 0.05832 1.5235-0.1458 1.7598-0.61524-0.1196-0.88004 0.02827-1.8469 0.4375-2.9023 0.29271-0.87887 0.58582-1.7899 0.88086-2.7285 0.05842-0.17547 0.05842-0.55525 0-1.1426-0.05876-0.4681 2.56e-4 -0.81947 0.17578-1.0547 0.35097 0.52784 0.4978 1.0264 0.43945 1.4941 2.9911-2.0514 4.8382-4.133 5.543-6.2441 0.35105-2.6387 1.1121-4.5428 2.2871-5.7168 1.3484-0.99594 2.7245-2.3455 4.1309-4.0469 1.1725-1.5236 2.378-3.0181 3.6094-4.4844 0.46807-0.99694 0.70117-1.907 0.70117-2.7285-0.1171-0.23388-0.17578-0.43976-0.17578-0.61524 0-0.23422 0.23451-0.45223 0.70508-0.6582 0.46807-0.2048 0.76118-0.39571 0.88086-0.57226 1.0554-1.2886 1.2864-2.9317 0.70117-4.9258 0.05834-0.11682-0.02989-0.35263-0.26367-0.70508-0.1196-0.35095-0.1196-0.61546 0-0.79102 0.35097 0.11857 0.61744 0.41081 0.79297 0.87891 0.17536 0.47051 0.33619 0.92546 0.48242 1.3652 0.1464 0.44019 0.21875 0.89323 0.21875 1.3613 0 2.1112-0.87655 3.7548-2.6367 4.9258 0.17536 1.4078 0.41004 2.4645 0.70508 3.168 1.2309 1.7014 2.1984 2.9316 2.9004 3.6934 0.70443 1.5249 1.3773 3.0504 2.0234 4.5742 0.82145 1.8185 1.9646 3.0487 3.4297 3.6934-0.05834 1.8769 0.23477 3.6368 0.88086 5.2773 1.4063 1.7602 2.5497 2.9624 3.4297 3.6074 0.93872 1.4662 1.4643 3.1974 1.584 5.1895l0.08789 1.2324c0.52649 0.4691 1.2 0.70117 2.0215 0.70117 0.29512 0 0.8348-0.05535 1.627-0.17383 0.79249-0.11682 1.3929-0.17773 1.8047-0.17773h2.8125c0.17578-0.35103 0.14631-0.61546-0.08789-0.79102-1.4652-0.11715-2.8592-0.77561-4.1777-1.9785-1.3191-1.2005-2.1549-2.565-2.5059-4.0898-0.41222-1.7588-0.79161-3.488-1.1426-5.1895-0.52891-1.9919-1.2019-3.6351-2.0234-4.9258-1.526-1.0543-2.5512-2.6388-3.0801-4.75-0.1171-0.58625-0.35012-2.5194-0.70117-5.8047-0.29504-1.1131-0.96812-2.6094-2.0234-4.4863-0.47065 0.2353-0.88145 0.55744-1.2324 0.9668 1.8748 3.7533 2.7263 6.9207 2.5508 9.5-0.47056 1.1152-0.87942 1.6719-1.2305 1.6719-0.11951-0.11698-0.17578-0.2345-0.17578-0.35156 0-0.11715 0.09924-0.29313 0.30664-0.52734 0.20482-0.2338 0.30664-0.4109 0.30664-0.5293 0.05834-0.46918 0.08789-0.96614 0.08789-1.4941 0-2.3449-0.84992-5.0734-2.5488-8.1816l-0.88086 0.35351c-0.64609 0.11807-1.1137 0.08705-1.4062-0.08984-0.05834-0.05699 2.55e-4 -0.14511 0.17578-0.26367 1.2309-0.23388 2.1117-0.71736 2.6406-1.4512 0.52641-0.73239 0.78906-1.5672 0.78906-2.5059 0-1.6406-0.64682-3.371-1.9336-5.1895 0.29229-0.52784 0.58628-0.90957 0.87891-1.1445 1.2896-1.9346 2.1682-3.4285 2.6387-4.4844 0.29271 0.99852 0.43945 1.7576 0.43945 2.2852-0.64609 1.7592-0.79284 4.0763-0.43945 6.9492 0.05634 0.35245 0.11744 1.5266 0.17578 3.5195 0.05851 1.4079 0.20559 2.5213 0.43945 3.3418 0.35338 0.35195 0.57235 1.0274 0.66016 2.0234 0.08772 0.99802 0.30732 1.6711 0.6582 2.0234 0.29512 0.05841 0.58865-0.11852 0.88086-0.5293 0.52941-0.7618 0.64572-1.7003 0.35352-2.8145-0.76311-0.58633-0.87993-1.8751-0.35352-3.8691 0.82162-2.9911 1.1715-6.362 1.0547-10.115l-0.17578-0.43945c-0.47073-0.05724-0.82049-0.05724-1.0547 0-0.05851-0.11598-0.11711-0.20501-0.17578-0.26367 0-0.17556 0.18988-0.27818 0.57031-0.30859 0.38284-0.028 0.60132-0.10247 0.66016-0.2207 0.35088-1.113 0.5293-2.3147 0.5293-3.6055 0-0.93753-0.0901-1.8758-0.26562-2.8145 0.23387-0.64507 0.32155-1.6117 0.26562-2.9023-0.06117-1.8172-0.93914-3.166-2.6406-4.0449-0.52658-0.23422-0.93793-0.41106-1.2305-0.5293-0.82153-1.0554-1.5556-1.7885-2.1992-2.1992-0.64609-0.40936-1.3507-0.84972-2.1113-1.3203-0.76286-0.46801-1.025-1.112-0.79102-1.9336 0.47056-1.8759 0.26472-3.4885-0.61524-4.8379-0.70443-1.1128-1.8475-1.6719-3.4297-1.6719zm-24.893 15.061-0.96875 0.08789c-0.05843 3.0495-0.08594 4.2337-0.08594 4.291l-1.584-0.44141c-0.23636-0.05741-0.46892-0.08594-0.70312-0.08594-0.76277 0-1.7457 0.4384-2.9473 1.3184-1.2019 0.87887-2.2428 1.2322-3.123 1.0566-0.29238-0.06366-0.61388-0.29909-0.96484-0.70703-0.35346-0.40827-0.67654-0.61328-0.96875-0.61328-0.1196 0.17647-0.17578 0.3228-0.17578 0.43945 0.76069 1.2313 1.3165 1.9653 1.6699 2.1992l-4.2227 12.139-0.4375 0.08789c0.2342 0.64574 0.43776 1.1157 0.61328 1.4082 1.4091 1.8187 3.2247 2.6374 5.4531 2.4609 2.1696-0.17556 3.7253-1.4348 4.6641-3.7812-0.23628-0.11607-0.41253-0.17578-0.5293-0.17578l-2.7246-7.6523-1.2324-3.8711c0.64359 0.05974 1.509-0.14472 2.5938-0.61523 1.0848-0.4681 1.8935-0.70312 2.4199-0.70312 0.52907 0 1.0551 0.16276 1.584 0.48438 0.52649 0.32304 0.93543 0.95343 1.2305 1.8906 0.2317-0.99569 0.67422-1.6713 1.3203-2.0234 0.46807-0.2328 0.9361-0.35156 1.4062-0.35156 0.58525 0 1.3624 0.22039 2.3301 0.66016 0.96801 0.44018 1.7158 0.6582 2.2422 0.6582l0.08789-0.08789 0.08789 0.08789c0.05868-0.05724 0.11656-0.08789 0.17773-0.08789 0.05593 0.05974 0.08789 0.14786 0.08789 0.26367l-2.6387 7.6523-0.96875 2.9043-0.26367 0.70312c-0.11718 0.2353-0.32107 0.32308-0.61328 0.26367 0.23137 0.7628 0.8331 1.5829 1.8008 2.4629 0.96801 0.88029 2.1847 1.3184 3.6523 1.3184 0.58508 0 1.1701-0.08624 1.7578-0.26172 1.877-0.52551 3.0498-1.7233 3.5176-3.5918l-0.48828-0.08594-4.1738-12.156c0.99714-0.7618 1.5524-1.6122 1.6719-2.5508-0.06084-0.05741-0.17612-0.08789-0.35156-0.08789-0.17553 0-0.4398 0.19216-0.79102 0.57226-0.35355 0.38278-0.64658 0.60088-0.88086 0.6582-0.23636 0.05991-0.46926 0.08984-0.70312 0.08984-0.70194 0-1.7749-0.52856-3.2109-1.584-1.4357-1.0558-2.9446-1.1425-4.5293-0.26367-0.05842-2.1113-0.08789-3.3235-0.08789-4.3789zm22.34 0.94922c0.17786 0.29396 0.23408 0.55822 0.17774 0.79102 0 1.526 0.58523 2.668 1.7578 3.4297 0.82145 0.58633 1.7901 0.70368 2.9043 0.35156 0.58525-0.23313 1.1998-0.64306 1.8457-1.2305 0.23395-0.29254 0.73282-0.90888 1.4961-1.8477-0.82902 2.4626-1.7365 5.7767-2.7285 9.9395 0.05343-1.3216 0.32637-2.7571 0.81641-4.3086 0.16096-0.57425 0.62254-1.9526 1.3828-4.1367l-0.08789-0.08594c-1.6407 1.7018-3.3419 2.3757-5.0996 2.0234-1.1749-0.23388-1.9943-0.99638-2.4648-2.2871-0.17552-1.4652-0.17552-2.3447 0-2.6387zm12.756 2.9023c-0.11718 1.9575-0.64785 3.1582-1.584 3.6055l-0.61524-0.16797c1.2897-0.72531 2.0237-1.8702 2.1992-3.4375zm-44.33 4.3965 4.0449 11.523h-7.916zm17.434 0.14453 3.9395 11.268c-1.7139 0.17547-4.3768 0.20612-7.9824 0.08789zm10.184 12.611c0.64393 0.41077 1.0569 0.82111 1.2324 1.2305 0.70435 0.64607 1.3773 1.0254 2.0234 1.1426-0.76311 0.41077-1.4677 0.4694-2.1113 0.17578l-0.96875-0.52734c-0.35138 0.99852-1.0851 2.3602-2.1992 4.0898-1.1138 1.7295-1.8463 3.0342-2.1973 3.9141-0.29504 1.2309-0.26299 2.2296 0.08789 2.9902-0.05868 0.17656-0.14699 0.29424-0.26367 0.35156-0.17553-0.64466-0.26367-1.2895-0.26367-1.9355 0-1.6402 1.0821-3.9864 3.252-7.0352 0.47073-1.0554 0.93806-2.5195 1.4082-4.3965zm17.062 16.975c0.76311 0.05983 1.4358 0.70423 2.0234 1.9355-0.64609-0.88029-1.4638-1.3203-2.4609-1.3203 0-0.2338 0.14488-0.43826 0.4375-0.61524z" fill="#e94f10" fill-rule="evenodd" opacity=".54633" stroke-width=".83274"/>
 </g>
 <text transform="scale(.99943 1.0006)" x="31.535177" y="67.004852" fill="#000000" font-family="sans-serif" font-size="24.917px" stroke-width=".62293" style="line-height:1.25" xml:space="preserve"><tspan x="31.535177" y="67.004852" fill="#fff2bd" font-family="'MS UI Gothic'" font-size="49.834px" stroke-width=".62293">W</tspan></text>
</svg>
