<svg width="100" height="100" version="1.1" viewBox="0 0 100 100" xmlns="http://www.w3.org/2000/svg">
 <defs>
  <linearGradient id="linearGradient7420" x1="234.25" x2="425.56" y1="914.8" y2="895.28" gradientUnits="userSpaceOnUse">
   <stop stop-color="#a15d12" offset="0"/>
   <stop stop-color="#a15d12" stop-opacity="0" offset="1"/>
  </linearGradient>
 </defs>
 <g transform="matrix(.83227 0 0 .83321 -153.38 -698.89)">
  <path d="m244.37 838.79c33.179 0 60.077 26.867 60.077 60.009s-26.897 60.009-60.077 60.009c-33.179 0-60.077-26.867-60.077-60.009s26.897-60.009 60.077-60.009zm0 3.289c31.361 0 56.784 25.394 56.784 56.72s-25.423 56.72-56.784 56.72c-31.361 0-56.784-25.394-56.784-56.72s25.423-56.72 56.784-56.72z" fill="url(#linearGradient7420)"/>
  <g transform="matrix(.90227 0 0 .90124 -620.97 359.7)">
   <path transform="matrix(1.3317 0 0 1.3317 892.49 531.59)" d="m56.162 12.92c-0.2636-0.0072-0.53568-3e-5 -0.81641 0.02148-2.2459 0.17219-3.8315 1.3242-4.752 3.4512-0.11639 0.28956-0.20247 0.60349-0.25977 0.94922-0.11504 0.40302-0.02904 0.69004 0.25977 0.86328l2.334-0.3457c0.34475-0.11489 0.6035-0.02829 0.77734 0.25977l0.60352 0.68945c0.17271 0.28813 0.51867 0.38826 1.0371 0.30078 0.51844-0.08606 0.86477 0.04294 1.0371 0.38867 0.0564 0.17219-0.0015 0.28998-0.17383 0.34766l-0.3457-0.25976c-1.2103 0.05857-1.9859-0.31708-2.332-1.123-0.22971-0.17211-0.57626-0.20045-1.0371-0.08594-0.40242 0.0576-0.77687 0.14397-1.123 0.25781v0.25976c0.23008 0.63386 0.02854 1.784-0.60352 3.4512 0.34468 0.28941 0.66079 0.40322 0.94922 0.3457 0.51844 0.80597 0.74878 1.4982 0.69141 2.0723 0.63453 0.34445 1.1503 0.48894 1.5547 0.43164 0.80447-0.97816 1.4984-1.6407 2.0742-1.9863 0.46077-0.11489 0.63224-0.34508 0.51758-0.68945 0-0.05722-0.08698-0.31567-0.25977-0.77734-0.11707-0.28708-0.11707-0.54463 0-0.77539 0.45979 0.51784 0.71885 0.94867 0.77734 1.293v1.2949c-0.63453 0-1.325 0.40444-2.0723 1.209 0 0.6901-0.34723 1.0648-1.0371 1.1211-1.3826 0.11594-2.1032 0.20157-2.1582 0.25781-1.9589 0.51784-2.9962 1.5268-3.1113 3.0215-0.7495-0.05617-1.7568 0.08591-3.0234 0.43164-0.92191 0.11594-2.0165 0.86101-3.2832 2.2422-1.2676 1.381-2.4184 2.0436-3.4551 1.9863 0.05639 1.4384 0.31612 2.3713 0.77734 2.8027 0.46077 0.43178 0.97752 0.64844 1.5547 0.64844 0.69085 0 1.5841-0.2598 2.6797-0.77734 0.40212 0.11594 0.83415 0.17383 1.2949 0.17383 2.0735 0 4.2326-0.97796 6.4785-2.9355l0.60547 1.4668c0.57438 1.0358 1.3527 1.4671 2.332 1.2949 2.593-0.63281 4.52-2.5311 5.7891-5.6953 0.17234-0.51754 0.28638-0.89033 0.34375-1.1211 0.05775-0.05617 0.17337-3.13e-4 0.3457 0.17188-0.05722 0.11594-0.25884 0.83567-0.60352 2.1582-0.23219 0.86319-0.3457 1.6109-0.3457 2.2422 0 0.69115 0.14178 1.3244 0.43164 1.8984 0.86462 0.28806 1.5243 0.403 1.9863 0.3457 1.4391-0.17361 2.735-1.5818 3.8867-4.2285 0.0573 0 0.14337 0.05894 0.25977 0.17383-0.34595 0.97913-0.63455 1.6971-0.86328 2.1562-0.28978 0.63356-0.54741 1.1211-0.77734 1.4668 0.22993 0.63378 0.86374 1.0369 1.9004 1.209 0 0.86364 0.37355 1.5669 1.123 2.1133 0.7468 0.54765 1.5821 0.59043 2.5039 0.12891 1.2667-1.1504 1.758-2.4157 1.4707-3.7969-0.23121-0.91951-0.80803-1.4368-1.7285-1.5527-0.05775-1.9552-0.6914-3.4509-1.9004-4.4863 0-1.6095-0.2895-2.8476-0.86523-3.7109-0.86296-1.4373-2.676-2.1266-5.4414-2.0703-0.80687-0.80492-1.2964-1.6676-1.4688-2.5898-0.05737-0.3443 0.0281-0.64605 0.25781-0.9043 0.23008-0.25937 0.43366-0.53083 0.60742-0.82031 0.17241-0.28716 0.25781-0.60575 0.25781-0.95117 0-0.97703-0.46142-2.1274-1.3809-3.4512-1.0098-1.4597-2.436-2.2131-4.2812-2.2637zm-17.9 4.3691c-0.41735-0.02156-0.91251 0.08238-1.4883 0.3125-2.2459 1.4388-3.3143 3.999-3.1973 7.6797-3.515 2.8772-5.2695 7.0468-5.2695 12.512 0 2.3593 0.34483 4.7465 1.0371 7.1621 0.22956 0.92049 0.34375 1.8403 0.34375 2.7598 0 1.9565-0.68958 4.3458-2.0723 7.1641-1.3817 2.8188-2.0742 5.0033-2.0742 6.5566 0 2.705 1.5559 6.4722 4.666 11.305 0.34475-0.46039 0.57441-0.86243 0.68945-1.207-2.8217-3.6807-4.2324-7.3364-4.2324-10.961 0-1.8977 0.46082-3.6508 1.3828-5.2617 1.841-2.1857 2.7637-4.8043 2.7637-7.8535 0-0.7474-0.05691-1.4681-0.17188-2.1582-0.74965-2.5305-1.123-4.8871-1.123-7.0742 0-1.2652 0.14321-2.445 0.43164-3.5391l0.08594 0.08594c0 1.3249 0.28747 3.2527 0.86328 5.7832 0.57574 2.5325 0.83502 4.5444 0.77734 6.0391-0.17234 2.7051-1.1222 5.9836-2.8496 9.8379-0.3461 1.2652-0.51758 2.5604-0.51758 3.8828 0 3.5673 1.18 6.7022 3.541 9.4043 0.22956-0.51754 0.40216-0.89018 0.51953-1.1211-1.901-2.0711-2.8516-4.8025-2.8516-8.1973 0-3.5085 0.89308-6.9311 2.6777-10.268 0.34618-1.1503 0.51758-2.4171 0.51758-3.7969 0-1.3225-0.23064-3.2785-0.69141-5.8672-0.46114-2.5891-0.68945-4.5169-0.68945-5.7832 0-2.4159 0.63238-4.5158 1.9004-6.2988v0.08594c-0.69078 2.1288-0.66214 4.6886 0.08594 7.6797 0.80552 1.7255 1.2109 3.7118 1.2109 5.9551 0 2.7051-0.51984 5.1765-1.5566 7.4199-0.63453 1.3238-0.95117 2.8785-0.95117 4.6602 0 1.727 0.2895 3.4519 0.86524 5.1777 0.86462 2.4166 1.6116 4.0558 2.2461 4.918 0.40242-0.63251 0.60547-0.97688 0.60547-1.0352-1.6712-3.3937-2.5059-6.6449-2.5059-9.752 0-1.5533 0.22929-3.0188 0.69141-4.4004 0.92049-1.4946 1.3809-3.479 1.3809-5.9531 0-1.5534-0.20109-3.2212-0.60352-5.0039-0.63453-1.7269-0.95117-3.5672-0.95117-5.5234 0-2.2996 0.46128-4.2563 1.3828-5.8672l0.43164 0.08594c-0.74935 1.8979-0.89241 3.9696-0.43164 6.2129 1.037 5.3504 1.5547 8.4003 1.5547 9.1465 0 1.1518-0.18921 2.8474-0.5625 5.0918-0.37494 2.2434-0.56055 3.9682-0.56055 5.1758 0 1.5534 0.1726 2.9633 0.51758 4.2285 0.3458 0.92079 0.6341 1.6116 0.86523 2.0723 0.51844-0.11489 0.77734-0.34696 0.77734-0.69141 0-0.11482-0.11795-0.40011-0.34766-0.86133-0.22978-0.45927-0.31518-0.80627-0.25781-1.0371-0.28843-1.1503-0.43164-2.3588-0.43164-3.625 0-1.1493 0.1729-2.8894 0.51758-5.2188 0.34618-2.3305 0.51953-4.0991 0.51953-5.3066 0-1.3228-0.27439-3.2212-0.82031-5.6953-0.5484-2.4731-0.82227-4.3428-0.82227-5.6094 0-0.86327 0.08743-1.696 0.25977-2.502 0.86424-1.2641 2.1297-1.7549 3.8008-1.4668 0.74717 0.11489 1.3251 0.5476 1.7285 1.2949 0.40205 0.74837 0.74868 1.4949 1.0371 2.2422 1.0928-0.86364 2.7922-1.4678 5.0957-1.8125 0.57476-1.3812 1.4965-2.3297 2.7656-2.8477 0.51701-0.17211 0.89056-0.28645 1.123-0.34375-0.17376-0.80484-0.25977-1.4388-0.25977-1.9004-0.92184-0.17219-1.4115-0.31532-1.4688-0.43164 0.40197-1.3797 0.71951-2.4139 0.94922-3.1035 0-0.05767-0.05683-0.31763-0.17188-0.7793-0.05737-0.287-0.23012-0.40104-0.51758-0.34375-0.4034-0.46024-0.63516-0.86318-0.69141-1.209-0.3461-0.05617-0.66379-0.08594-0.95117-0.08594-2.3633 0-4.4642 1.3243-6.3066 3.9707-0.86417 0.11587-1.6413-0.11522-2.332-0.69141-0.0573-1.4377-0.34484-2.4288-0.86328-2.9766-0.25926-0.27334-0.59828-0.41985-1.0156-0.44141zm8.9629 2.123 0.77734 0.77734-2.1602 2.1562-0.86328-1.1211c0-0.17211 0.14374-0.34434 0.43359-0.51758 0.74672-0.7462 1.3513-1.179 1.8125-1.2949zm-9.9297 0.37891c0.39931 0.02134 0.68709 0.26987 0.85938 0.74414 0.28738 1.5537-0.02926 3.0491-0.95117 4.4863-0.40347-0.45912-0.97841-0.57323-1.7266-0.34375-0.4034 0.17219-0.66238 0.25781-0.77734 0.25781 0.28746-2.4727 1.0072-4.1694 2.1602-5.0898 0.15803-0.0434 0.30244-0.0618 0.43555-0.05469zm2.4141 7.3867c-0.74965 0.8074-1.123 1.9299-1.123 3.3672 0 0.86229 0.14186 1.8118 0.43164 2.8477 1.2089-0.17219 2.2174-0.7787 3.0254-1.8145 0.2873-0.22851 0.4015-0.54417 0.34375-0.94727l-0.25781-1.0352c-0.69198-1.6095-1.4995-2.418-2.4199-2.418zm19.092 7.7676c-1.6128 1.7832-3.196 2.6758-4.75 2.6758-0.51957 0-1.0371-0.11494-1.5566-0.3457-0.80695-0.4016-1.2372-1.0654-1.2949-1.9863-2.2459 1.3816-4.5779 2.045-6.9961 1.9863 0 0.51791 0.2583 1.0351 0.77539 1.5527 0.80687 0.69003 1.9291 0.74844 3.3691 0.17188 0.3461 0.40295 0.51758 0.89452 0.51758 1.4688 0 0.40295-0.28852 1.3224-0.86328 2.7598-0.05767 0.23091-0.28898 0.61874-0.69141 1.1641-0.40355 0.54773-0.63313 1.0242-0.68945 1.4258 0 0.17219 0.09848 0.30119 0.30078 0.38867 0.2011 0.08613 0.32987 0.18582 0.38867 0.30078 0.11497 0.17316 0.02769 0.40237-0.25977 0.68945-3.1088 1.2089-5.5849 4.3443-7.4277 9.4062-0.23068 0.69003-0.37434 1.1787-0.43164 1.4668-2.2459 1.1518-3.2555 3.1069-3.0254 5.8691-1.9585 3.3365-3.3968 5.8387-4.3184 7.5059 0 0.11594-0.40211 1.035-1.209 2.7617-0.4622 1.0931-1.0095 1.9282-1.6426 2.502-1.9584 1.9564-4.0306 3.2231-6.2188 3.7969-0.74958 0.51792-1.123 0.89259-1.123 1.1211 0.05639 0.11594 0.22915 0.23074 0.51758 0.3457 5.5286-0.05632 8.2634-0.08594 8.207-0.08594l0.51758-0.25977c0.05775-0.28715 0.23012-0.94659 0.51953-1.9824 0.17234-0.86326 0.43169-1.4974 0.77734-1.9004 0.40242-0.91951 0.69087-1.6087 0.86328-2.0703l0.17383 0.69141c2.7644-2.0712 4.4057-3.3669 4.9238-3.8848 1.7288-1.7817 2.476-3.6224 2.2461-5.5215-0.22971-0.4019-0.60461-0.6614-1.123-0.77734-0.05775 0-0.54924-0.02864-1.4688-0.08594l-1.0352 0.17188c0.86312-0.74725 1.6684-1.0915 2.418-1.0352 0.45972 0.11579 0.83462 0.40304 1.123 0.86328 0.28738 0.46024 0.45893 0.77696 0.51758 0.94922 1.2657-1.8976 2.1296-3.3649 2.5918-4.4004 3.3397-2.645 5.759-5.3501 7.2578-8.1113-2.2474 0.11594-3.8606-0.89208-4.8398-3.0215-0.80695 0.74837-1.3514 1.3523-1.6387 1.8125-2.4193 3.2228-3.6309 6.0701-3.6309 8.543 0.0573 0.51784 0.08594 0.7487 0.08594 0.69141-0.40242-0.17219-0.66178-0.37471-0.77539-0.60547-0.11707-1.0916 0.14183-2.3867 0.77539-3.8828 1.7862-3.8542 3.686-6.5274 5.7031-8.0234 0.11369 0.51791 0.17188 0.92003 0.17188 1.207 0.51716 1.6693 1.988 2.6193 4.4062 2.8477 1.956-0.05617 3.2249-0.74695 3.8008-2.0723 0.46107-0.80454 0.69141-1.7516 0.69141-2.8457 0-1.6686-0.49044-3.1342-1.4688-4.4004 0.80447-1.3228 1.6413-2.6756 2.5059-4.0566 1.0365-1.6095 1.784-3.0209 2.2461-4.2285 0.22971-0.86364 0.25828-1.3805 0.08594-1.5527zm5.3555 1.5527-1.3809 0.69141c-0.3458 0.0576-0.721 0.08594-1.123 0.08594-0.80687 0-1.4998-0.20064-2.0742-0.60352l-3.3691 5.9531c-0.28941 0.40302-0.4905 1.0645-0.60547 1.9844 0.63341 2.5314 0.95117 3.8845 0.95117 4.0566 0.05722 2.0149-0.72039 3.5665-2.332 4.6582 0.2873 0.23076 0.63228 0.40464 1.0371 0.51953 0.40242 0.11594 0.80551 0.17188 1.209 0.17188 1.4963 0 2.7638-0.48924 3.8008-1.4688 0.46077-0.91951 0.68945-1.9537 0.68945-3.1055 0-1.496-0.34325-2.8468-1.0352-4.0547 0-0.17219-0.13013-0.43304-0.38867-0.77734-0.25997-0.34573-0.38867-0.63252-0.38867-0.86328 0-0.11482 0.02729-0.2584 0.08594-0.43164 2.361-1.6671 3.9451-3.5649 4.752-5.6934 0.0573-0.51784 0.1145-0.89356 0.17188-1.123zm-2.6758 14.41c-0.3476 1.2664-0.98283 2.2741-1.9023 3.0215-0.69183 0.57514-1.6141 0.86328-2.7656 0.86328-1.037 0-2.0151-0.2011-2.9355-0.60547 0.51814 1.3249 0.95077 2.3314 1.2969 3.0215 1.2652 1.9562 2.0423 3.0763 2.332 3.3633 1.0929 1.209 2.3031 1.7852 3.627 1.7266 1.037-0.22836 1.628-0.64798 1.7715-1.252 0.14388-0.6039 0.21484-1.22 0.21484-1.8535 0-1.8989-0.51623-3.8552-1.5527-5.8691l0.17188-0.17188c0.40205 0.63273 0.83303 1.6395 1.2949 3.0195 0.57468 1.5532 0.86524 2.7617 0.86524 3.625 0 0.80597-0.1735 1.4951-0.51953 2.0703-0.51844 0.92079-1.6115 1.3532-3.2812 1.2949 0.92056 1.6692 1.8989 2.7342 2.9355 3.1934 0.11497-0.74725 0.45987-1.2953 1.0371-1.6406 0.97921-0.11497 2.0428 0.25783 3.1953 1.1211 1.7274 1.2666 2.5938 3.2514 2.5938 5.9551 0 0.97943-0.11765 2.0431-0.34766 3.1934 1.0943 1.6107 2.1321 3.2781 3.1113 5.0039 0.22963 0.23076 1.1804 0.31729 2.8516 0.25977-0.05872 0 0.51727 0.02962 1.7266 0.08594 0.6919 0 1.0939-0.31536 1.209-0.94922-0.22978-0.45927-0.37427-0.72005-0.43164-0.77734-2.3033-0.7474-3.917-1.8117-4.8379-3.1914-1.1526-3.3363-1.9001-5.3805-2.2461-6.1289-1.0367-2.2432-2.3613-3.9966-3.9727-5.2617-0.6919-0.51792-1.1386-1.253-1.3398-2.2012-0.20222-0.9494-0.35964-1.8546-0.47461-2.7168-0.80687-3.7394-2.0156-6.4723-3.627-8.1992zm-30.496 3.7969c-0.34603 1.4971-0.51758 2.965-0.51758 4.4023 0 3.3951 0.91985 6.0695 2.7637 8.0234 0-0.11346 0.07082-0.25758 0.2168-0.42969 0.14245-0.17346 0.21484-0.34734 0.21484-0.51953-2.0736-2.7036-2.938-6.4417-2.5918-11.217zm33.762 10.605c-0.19116-0.0081-0.38843-0.0066-0.58984 0.0078-0.40347 0.63386-0.60352 1.3819-0.60352 2.2441 0 1.094 0.25838 2.1575 0.77539 3.1934 1.5564 2.2433 3.1687 3.394 4.8398 3.4512 0.22858-0.51784 0.34375-0.9195 0.34375-1.209-0.05737-2.5876-0.56044-4.5423-1.5098-5.8672-0.8319-1.1572-1.9178-1.7636-3.2559-1.8203zm-23.309 3.8047c-0.28843 0.7483-0.54959 1.2963-0.7793 1.6406 0.40205 1.1517 0.60547 2.4171 0.60547 3.7969 0 1.8416-0.37588 4.1125-1.123 6.8164 0.57484 0.23076 0.97792 0.3457 1.209 0.3457 0.74717-2.7623 1.123-5.2347 1.123-7.4219 0-2.0136-0.34318-3.7393-1.0352-5.1777zm-2.332 3.5391-1.0371 0.77539c0.23001 0.86319 0.34375 1.7267 0.34375 2.5898 0 1.898-0.43068 3.5379-1.2949 4.918l1.0371 0.60352c1.037-1.6682 1.4682-3.9392 1.2949-6.8164-0.17234-0.91981-0.28751-1.6101-0.34375-2.0703zm-2.5059 1.9844c-0.46077 0.23076-0.80853 0.46162-1.0371 0.69141 0.11399 0.46024 0.17383 0.91979 0.17383 1.3789 0 0.80597-0.11712 1.5258-0.3457 2.1582 0 0.23083-0.16065 0.57589-0.47656 1.0352-0.31719 0.46129-0.47461 0.77711-0.47461 0.94922 0 0.28813 0.26026 0.51734 0.77734 0.68945 1.0943-1.4374 1.6426-3.0765 1.6426-4.918 0-0.6901-0.086-1.3507-0.25977-1.9844zm-2.7656 2.2441c-0.46212 0-0.67667 0.31589-0.64648 0.94727 0.02748 0.63356-4.08e-4 1.0354-0.08789 1.209-0.08613 0.17211-0.27317 0.43162-0.56055 0.77734-0.28978 0.34543-0.43164 0.57494-0.43164 0.68945 0 0.23076 0.17148 0.40261 0.51758 0.51758 0.97928-1.0917 1.3813-2.4727 1.209-4.1406z" fill="#975712" fill-rule="evenodd" opacity=".45687" stroke-width=".75093"/>
  </g>
 </g>
 <text x="26.390764" y="73.196114" fill="#fff2bd" font-family="sans-serif" font-size="50.877px" stroke-width="1.2719" style="line-height:1.25" xml:space="preserve"><tspan x="26.390764" y="73.196114" fill="#fff2bd" stroke-width="1.2719">अ</tspan></text>
 <text x="53.651093" y="41.571278" fill="#fff2bd" font-family="sans-serif" font-size="22.522px" stroke-width=".56305" style="line-height:1.25" xml:space="preserve"><tspan x="53.651093" y="41.571278" fill="#fff2bd" stroke-width=".56305">A</tspan></text>
</svg>
