<svg width="100" height="100" version="1.1" viewBox="0 0 100 100" xmlns="http://www.w3.org/2000/svg">
 <defs>
  <linearGradient id="grad25" x1="659.57" x2="779.66" y1="300.16" y2="300.16" gradientTransform="matrix(1.0006 0 0 .99943 -594.57 298.76)" gradientUnits="userSpaceOnUse">
   <stop stop-color="#8f1300" offset="0"/>
   <stop stop-color="#f02000" offset="1"/>
  </linearGradient>
 </defs>
 <g transform="matrix(.83227 0 0 .83321 -54.408 -498.89)">
  <path d="m125.45 598.76c33.179 0 60.077 26.867 60.077 60.009 0 33.142-26.897 60.009-60.077 60.009-33.179 0-60.077-26.867-60.077-60.009 0-33.142 26.897-60.009 60.077-60.009zm0 3.2889c31.361 0 56.784 25.394 56.784 56.72s-25.423 56.72-56.784 56.72c-31.361 0-56.784-25.394-56.784-56.72s25.423-56.72 56.784-56.72z" fill="url(#grad25)"/>
  <path transform="translate(-253.14 470.52)" d="m377.97 145.7-1.4805 0.22657c-2.5819 0.5312-4.8599 1.5937-6.834 3.1875-2.2758 1.8194-3.6432 3.9424-4.0996 6.3691-0.6092 3.2618 0.0373 5.5738 1.9375 6.9375 1.3671 1.0644 3.1125 1.2531 5.2383 0.57031 3.4171-1.0606 5.125-3.6781 5.125-7.8496 0-2.8046-0.91137-5.0429-2.7344-6.7109 0.6831-0.4554 1.2545-0.73991 1.709-0.85351 0.4577-0.1149 0.94997-0.20786 1.4805-0.28516 0.5301-0.0741 0.75779-0.37876 0.68359-0.91016-0.1548-0.5299-0.49519-0.75564-1.0254-0.68164zm-8.4453 0.34375c-1.3642 0.0353-2.8759 0.33839-4.5371 0.90821-0.9877 0.8355-1.2527 2.1234-0.79687 3.8672 0.4563 0.6083 0.90903 0.90821 1.3652 0.90821 0.9108-2.2746 2.9987-4.0562 6.2656-5.3457v-0.11328c-0.71265-0.17092-1.4784-0.2458-2.2969-0.22461zm-16.436 0.375c-1.3033 0.0715-2.2528 0.59057-2.8496 1.5566-0.7986 1.2909-1.1953 2.8061-1.1953 4.5508 0 1.9723 0.45304 3.6782 1.3652 5.1191 0.6816 0.90971 1.1759 1.4031 1.4805 1.4785 0.0743-2.8815 1.0249-5.8401 2.8477-8.875 0.0743-0.1514 0.3974-0.49018 0.9668-1.0215 0.57-0.5294 0.77865-1.0245 0.62695-1.4785-0.6831-0.6827-1.2903-1.099-1.8203-1.252-0.51298-0.0756-0.98745-0.10197-1.4219-0.0781zm-6.2109 0.64649c-1.4426 1.9722-2.1621 4.0964-2.1621 6.3711 0 2.5795 0.8329 4.5486 2.5039 5.9141 1.2137 0.9866 2.1265 1.4785 2.7344 1.4785 0.2272-0.3785 0.3418-0.6813 0.3418-0.9082-2.0515-3.26-3.0762-6.445-3.0762-9.5566 0-0.98391 0.11515-1.9328 0.34375-2.8438-0.2286-0.30119-0.45644-0.45507-0.68554-0.45507zm15.141 0.17578c-2.3592 0.0254-4.3674 1.0677-6.0273 3.123-1.2153 1.2908-2.1469 3.6792-2.791 7.168-0.6468 3.4889-1.7297 5.8765-3.2461 7.166 0.3785 1.5924 0.34246 2.8442-0.11524 3.7539-0.3028 0.5313-0.68247 0.91027-1.1387 1.1387-0.4559 0.2274-1.0632 0.4148-1.8223 0.5664 0.3032 1.4424 0.68562 2.3522 1.1406 2.7305 0.6056 0.2271 1.0623 0.19092 1.3652-0.11328 0.9848-1.1382 2.3509-1.8951 4.0996-2.2754 0.37889-0.0756 1.9741-0.26406 4.7832-0.56836 1.6699-0.1515 3.2463-0.89125 4.7266-2.2188 1.482-1.3257 2.4486-2.8243 2.9062-4.4922-1.2167-1.1386-1.8242-2.8067-1.8242-5.0059 0-1.441 0.26563-3.1078 0.79883-5.0059-0.6093-0.3011-1.1021-0.68151-1.4805-1.1367-0.8365-1.2895-0.9506-2.8829-0.3418-4.7793-0.35131-0.0379-0.69617-0.0544-1.0332-0.0508zm10.713 3.0078c-1.0651 2.8074-1.0651 5.0449 0 6.7129 0.2272 0.6072 0.0358 0.94924-0.57031 1.0234-0.5319 0.0774-0.94875-0.0733-1.252-0.45313-0.6093-3.2603-6.4e-4 -5.6894 1.8223-7.2832zm-12.756 8.4199c0.6075 0 1.1378 0.18986 1.5938 0.56836l0.34375 0.79688c-0.4564 0.0772-1.065 0.39744-1.8242 0.96484-0.759 0.5693-1.4053 0.85547-1.9355 0.85547-0.3028 0-0.64659-0.0758-1.0254-0.22852l-0.79688-0.33984c1.0624-1.744 2.2779-2.6172 3.6445-2.6172zm11.959 5.3457c-0.8364 0.3803-1.7858 0.56835-2.8477 0.56835-0.6093 0-1.2149-0.0737-1.8223-0.22656-1.2154 2.0479-2.0514 4.1358-2.5058 6.2578-0.1545 0.8355-0.2677 1.4782-0.3418 1.9336-0.4564-1.0608-0.569-2.5029-0.3418-4.3223-2.276 2.6551-5.1244 3.7526-8.543 3.2969-3.1124 5.0826-4.668 9.67-4.668 13.766 0 2.5795 0.68369 4.8539 2.0508 6.8242 0.98629 1.1386 1.7832 1.709 2.3906 1.709 0.6849-0.0756 1.1772-0.3038 1.4805-0.6836 3.1894-8.6455 8.2014-15.927 15.035-21.842 0.7576-0.9097 1.1367-2.0485 1.1367-3.4141 0-1.365-0.34123-2.6532-1.0234-3.8672zm-23.119 1.3672c-1.673 0-2.7332 0.30101-3.1895 0.90821-0.2286 1.5179 0.15088 2.5424 1.1387 3.0723 0.75761-0.227 1.3288-0.56964 1.709-1.0234 0.3788-0.4559 0.57031-1.0242 0.57031-1.707 0-0.454-0.0787-0.8701-0.22851-1.25zm24.939 5.8008c-0.3028 0-1.0638 0.531-2.2773 1.5918-6.7582 6.9793-11.236 13.69-13.438 20.135-0.3028 0.7602-0.45508 1.5565-0.45508 2.3906 0 2.0478 0.8327 4.2848 2.5039 6.7109l-0.11328 0.11328c-1.0656-0.6055-1.8978-1.553-2.5039-2.8438-0.3821-0.757-0.83669-1.9713-1.3672-3.6406-1.9759-0.8337-3.457-2.0845-4.4414-3.7539 0.2272 4.3984 1.9346 7.9633 5.123 10.693 2.8091 1.7452 4.8217 2.5788 6.0371 2.502 0.3015-0.1502 0.49421-0.339 0.57031-0.5664-1.1398-5.0053-1.2538-9.1765-0.3418-12.516 1.746-5.839 5.6166-12.398 11.615-19.68l0.11523-0.56836c-0.3042-0.3798-0.64854-0.56836-1.0273-0.56836zm1.4805 1.3652c-1.1379 1.3654-1.9342 2.388-2.3906 3.0703-1.9743 3.6402-3.9851 7.2816-6.0371 10.922-2.0486 4.3224-3.0742 8.3032-3.0742 11.943 0 1.2914 0.11459 2.5796 0.34179 3.8691 2.4302 4.8543 3.7968 8.1532 4.0996 9.8984l0.11328 11.602-0.22656 3.6406c-0.1512 1.214-0.72263 2.4284-1.707 3.6406-0.9881 1.2142-1.9369 2.3887-2.8477 3.5254-0.382 0.6823-0.34162 1.2512 0.11328 1.707 0.3789 0.227 0.81485 0.0763 1.3106-0.45508 0.4924-0.5299 0.81455-0.83466 0.96875-0.91016l0.22656 1.707c1.2891-0.3785 2.2773-0.60619 2.9609-0.68359 1.0619-2.5777 1.6707-4.5864 1.8223-6.0273h0.91211c0.3787-0.1516 0.64332-0.56966 0.79492-1.252-0.3789-4.853-0.22787-8.5694 0.45703-11.148 0.6817-0.6055 0.94857-1.4792 0.79687-2.6172-0.1515-1.4397-0.1515-2.388 0-2.8438l1.1387-13.652c0.3028-3.9427-0.53136-6.8611-2.5059-8.7578-0.0759 0-0.2841-0.0738-0.625-0.22656-0.3427-0.1515-0.51368-0.34281-0.51368-0.57031 0.0743-0.2283 0.26572-0.41546 0.57032-0.56836 1.0624 0.1529 1.9719 0.60823 2.7324 1.3652 1.1379 1.8194 1.709 4.2836 1.709 7.3926 0 0.5313-0.22739 3.2994-0.68359 8.3047 0.1515 0.2269 0.34311 0.3418 0.57031 0.3418 1.6699-0.3011 3.3756-1.0974 5.123-2.3887 0.759-0.5299 2.2774-1.8574 4.5566-3.9824 0.3014-0.2271 1.7462-1.705 4.3281-4.4356 1.6681-1.8189 3.1881-3.1455 4.5547-3.9805 0.2272 0.2269 0.30266 0.37912 0.22656 0.45312l-8.3125 8.7598c-4.0249 4.2471-7.743 6.4462-11.16 6.5976l-0.11524 1.5938c0.9877 0.3803 1.7097 0.56836 2.166 0.56836 2.7331-0.3025 5.5802-1.0619 8.541-2.2754 1.8215-0.7583 4.4408-2.0465 7.8574-3.8672-0.1529-5.9151 1.1752-10.238 3.9844-12.969h0.68555c-1.2928 1.5924-2.1647 3.2624-2.6191 5.0059-0.9882 3.3392-0.87556 6.8623 0.33984 10.578 0.0756 1.2913 0.79886 2.9786 2.1641 5.0625 1.3666 2.0877 2.0508 3.8501 2.0508 5.291 0 2.3508-1.0254 5.0811-3.0742 8.1895-1.6712 2.5035-3.6459 4.7028-5.9219 6.5976-1.2927 0.6086-1.8997 1.2532-1.8223 1.9356 0.8347 0.6827 2.0483 0.60699 3.6426-0.22852 0.2272 0.45381 0.37948 0.79634 0.45508 1.0234 1.3665 0.3043 2.3541-0.26458 2.9629-1.7051 0.8352-1.8949 1.4794-2.9965 1.9356-3.3008l0.11523 0.11524c0.6817 0 1.0972-0.15268 1.252-0.45508l2.8476-7.9648c0.1518-0.6054 0.64387-1.5145 1.4805-2.7285 0.8333-1.2126 1.2539-2.1988 1.2539-2.959 0-0.3011-0.0429-0.64314-0.11719-1.0234-0.9107-0.9852-1.3652-2.2342-1.3652-3.752 0-1.668 0.56968-3.6414 1.709-5.918 3.7181-5.6106 5.5033-10.198 5.3516-13.764-0.1529-4.1696-2.0111-7.2053-5.5781-9.1016-1.5956-0.8343-3.7611-1.252-6.4941-1.252-4.9372 0.0773-7.2129 0.11523-6.834 0.11523-2.0482-0.0759-4.8383-1.2885-8.3691-3.6406-3.5307-2.3494-6.4752-3.4876-8.8281-3.4121zm38.154 0.11328c-0.3028 0.1529-0.38161 0.41837-0.22851 0.79687l0.3418 1.0215c0.2278 0.5327 0.34179 1.1395 0.34179 1.8223 0 1.5183-0.60876 2.7496-1.8223 3.6973-1.2154 0.949-2.1269 1.574-2.7344 1.877 0.9864 1.0626 1.8979 2.5406 2.7344 4.4356 1.5938-0.1509 2.998-1.2511 4.2129-3.2988 0.6061-0.9839 0.91406-2.1226 0.91406-3.4121 0-2.1237-0.64845-3.9431-1.9394-5.4609-0.759-0.9099-1.3655-1.4025-1.8203-1.4785zm-19.02 31.512c-2.3547 0.9866-4.0986 1.7815-5.2383 2.3887 0.9849 2.0465 1.4805 4.3225 1.4805 6.8242 0 2.6565-0.57098 4.8921-1.709 6.7129-0.3047 2.1232-2.0124 4.7766-5.125 7.9629-1.821 1.7454-3.1895 3.0329-4.1016 3.8672-0.3028 0.6823-0.15031 1.2531 0.45899 1.709 0.8333-0.53 1.4383-0.98699 1.8203-1.3672l0.68359 1.0234c1.5168-0.3785 2.6365-0.71923 3.3594-1.0234 0.7198-0.3025 1.1558-1.0407 1.3106-2.2168 0.1499-1.176 0.41462-1.9523 0.79492-2.334 0.9863-0.0742 1.518-0.11328 1.5938-0.11328 0.5304-0.151 0.87374-0.49223 1.0273-1.0234 0.0754-1.668 0.53079-3.4514 1.3672-5.3476 0.9123-1.6665 1.8203-3.2968 2.7324-4.8906-0.4545-5.3838-0.60988-9.4415-0.45508-12.172zm-34.965 1.25c1.5183 4.7027 2.6212 8.2298 3.3047 10.58 0.53 4.1715 0.37807 7.8502-0.45703 11.035-0.153 1.2135-0.83713 2.4285-2.0488 3.6406-1.2172 1.214-2.3544 2.3886-3.418 3.5254l-0.3418 0.91016c0.2276 0.53129 0.3418 0.83595 0.3418 0.91015 0.53 0.3043 0.95111 0.11444 1.2539-0.56836 0.1516-0.0742 0.30167-0.11328 0.45507-0.11328 0.1499 0 0.35906 0.19006 0.62696 0.56836 0.2653 0.3798 0.51123 0.57031 0.74023 0.57031 0.7574-0.076 1.2519-0.30379 1.4805-0.68359 1.7459-1.9723 2.7695-4.0552 3.0742-6.2559 0.6074-0.6072 1.1753-0.87288 1.709-0.79688 0.2272-1.668 0.30422-2.9576 0.22852-3.8691-0.0761-0.9097-6.4e-4 -2.5405 0.22656-4.8926 0.2272-2.0459 0.30216-3.6766 0.22656-4.8906-1.1379-3.5643-1.8967-6.2932-2.2754-8.1894-2.2792-0.5298-3.987-1.0248-5.127-1.4805z" fill="#ed2000" fill-rule="evenodd" opacity=".45"/>
 </g>
 <text transform="scale(.99943 1.0006)" x="32.967918" y="70.174644" fill="#fff2bd" font-family="sans-serif" font-size="29.22px" stroke-width=".73051" style="line-height:1.25" xml:space="preserve"><tspan x="32.967918" y="70.174644" fill="#fff2bd" font-family="'MS UI Gothic'" font-size="58.44px" stroke-width=".73051">D</tspan></text>
</svg>
