<svg enable-background="new 0 0 489.001 489.001" version="1.1" viewBox="0 0 489 489" xml:space="preserve" xmlns="http://www.w3.org/2000/svg">
<g transform="matrix(.85101 0 0 .85101 36.428 36.428)">
	<g fill="#581e00">
		<path d="m288.5 41.25-2.1 151.3c-0.1 7.7 6.2 14 13.9 13.9l151.3-2.2c12.1-0.2 18.1-14.8 9.5-23.4l-42.1-42.1 70-70-65-65-70 70-42.1-42.1c-8.5-8.5-23.2-2.5-23.4 9.6z"/>
		<path d="m135.1 72.85 42.1-42.1c8.6-8.6 23.2-2.6 23.4 9.5l2.2 151.3c0.1 7.7-6.2 14-13.9 13.9l-151.3-2.2c-12.1-0.2-18.1-14.8-9.5-23.4l42-41.9-70-70 65-65z"/>
		<path d="m460.9 309.05c8.6-8.6 2.6-23.2-9.5-23.4l-151.3-2.2c-7.7-0.1-14 6.2-13.9 13.9l2.2 151.3c0.2 12.1 14.8 18.1 23.4 9.5l42.1-42.1 70 70 65-65-70-70z"/>
		<path d="m188.7 282.45-151.3 2.2c-12.1 0.2-18.1 14.8-9.5 23.4l42.1 42-70 70 65 65 70-70 42.1 42.1c8.6 8.6 23.2 2.6 23.4-9.5l2.2-151.3c0-7.7-6.3-14-14-13.9z"/>
	</g>
</g>
</svg>
