<svg xmlns="http://www.w3.org/2000/svg" xml:space="preserve" width="8.4666mm" height="8.4666mm" version="1.1" style="shape-rendering:geometricPrecision; text-rendering:geometricPrecision; image-rendering:optimizeQuality; fill-rule:evenodd; clip-rule:evenodd" viewBox="0 0 847 847">
 <defs>
  <style type="text/css">
   <![CDATA[
    .fil0 {fill:none}
    .fil5 {fill:#26B7BD}
    .fil4 {fill:#2A56CC}
    .fil6 {fill:#60BD02}
    .fil3 {fill:#A326BA}
    .fil2 {fill:#F93307}
    .fil7 {fill:#FBDE0C}
    .fil8 {fill:#FD9814}
    .fil1 {fill:#421700;fill-opacity:0.600000}
   ]]>
  </style>
 </defs>
 <g id="Layer_x0020_1">
  <metadata id="CorelCorpID_0Corel-Layer"/>
  <g id="_497798720">
   <rect class="fil0" width="847" height="847"/>
   <g>
    <path class="fil1" d="M260 168l55 -23 11 -58c5,-25 20,-45 48,-46l87 -1c39,-1 55,17 60,55l6 44 52 29 52 -28c23,-12 47,-13 65,9l56 67c25,30 21,54 -6,81l-30 33 10 58 53 23c24,11 40,30 34,57l-18 85c-8,39 -28,50 -67,47l-44 -4 -39 44 15 57c7,25 2,49 -23,62l-78 39c-35,17 -57,8 -78,-24l-25 -37 -59 -3 -34 47c-16,21 -38,33 -63,21l-79 -37c-36,-16 -43,-39 -31,-75l14 -42 -35 -49 -58 3c-26,1 -49,-10 -55,-37l-21 -84c-10,-39 4,-58 40,-71l41 -16 17 -57 -39 -44c-17,-20 -23,-44 -6,-66l54 -69c24,-31 47,-33 80,-13l38 23zm162 165c-54,0 -97,43 -97,96 0,54 43,97 97,97 53,0 96,-43 96,-97 0,-53 -43,-96 -96,-96z"/>
    <g>
     <path class="fil2" d="M471 320l-261 -155c-24,-14 -34,-13 -50,7l-53 69c-9,12 -5,24 5,36l47 54 -31 107 182 -52c17,-45 61,-77 112,-77 17,0 34,4 49,11z"/>
     <path class="fil3" d="M358 327l-275 105c-26,10 -31,18 -25,43l20 85c4,15 16,19 32,18l71 -3 65 91 73 -175c-11,-18 -17,-39 -17,-62 0,-43 22,-80 56,-102z"/>
     <path class="fil4" d="M302 418l-89 279c-9,27 -6,36 18,47l79 37c14,6 24,-1 34,-14l42 -57 111 6 -92 -168c-59,-8 -103,-58 -103,-119 0,-3 0,-7 0,-11z"/>
     <path class="fil5" d="M336 513l165 248c15,24 25,27 48,16l77 -39c14,-7 16,-20 11,-35l-18 -69 74 -83 -191 -33c-21,20 -49,31 -80,31 -34,0 -64,-13 -86,-36z"/>
     <path class="fil6" d="M422 549l309 27c27,3 36,-3 41,-28l18 -85c4,-15 -5,-24 -20,-30l-65 -28 -19 -110 -144 128c0,2 0,4 0,6 0,67 -54,120 -120,120z"/>
     <path class="fil7" d="M502 520l227 -239c19,-20 21,-30 4,-50l-55 -67c-10,-12 -22,-11 -36,-3l-63 33 -98 -53 11 191c30,22 50,57 50,97 0,36 -16,68 -40,90l0 1z"/>
     <path class="fil8" d="M543 425l-45 -327c-4,-28 -11,-35 -37,-34l-87 1c-16,0 -22,11 -25,27l-13 70 -77 32 212 126c8,4 16,8 23,14l0 0c28,20 46,53 48,90l1 1z"/>
    </g>
   </g>
  </g>
 </g>
</svg>
