<?xml version="1.0" encoding="UTF-8"?>
<!DOCTYPE svg PUBLIC "-//W3C//DTD SVG 1.1//EN" "http://www.w3.org/Graphics/SVG/1.1/DTD/svg11.dtd">
<!-- Creator: CorelDRAW X7 -->
<svg xmlns="http://www.w3.org/2000/svg" xml:space="preserve" width="100px" height="100px" version="1.1" style="shape-rendering:geometricPrecision; text-rendering:geometricPrecision; image-rendering:optimizeQuality; fill-rule:evenodd; clip-rule:evenodd"
viewBox="0 0 100 100"
 xmlns:xlink="http://www.w3.org/1999/xlink">
 <defs>
  <style type="text/css">
   <![CDATA[
    .fil0 {fill:none}
    .fil2 {fill:#E31E24}
    .fil1 {fill:#682B1C;fill-opacity:0.501961}
   ]]>
  </style>
 </defs>
 <g id="Layer_x0020_1">
  <metadata id="CorelCorpID_0Corel-Layer"/>
  <g id="_723591840">
   <rect class="fil0" width="100" height="100"/>
   <path class="fil1" d="M81 22l-36 35c-2,2 -3,4 -5,6 0,1 -1,3 -1,4 0,3 2,4 3,6 3,2 6,3 9,3 0,0 0,0 1,-1 1,0 2,-1 3,-2 2,-3 5,-6 9,-7 3,-1 6,0 9,1 9,5 7,15 2,21 -6,7 -16,9 -24,9 -9,0 -17,-2 -24,-8 -7,-6 -11,-14 -11,-23 0,-9 5,-17 11,-23 12,-12 25,-25 37,-37 10,-10 27,5 17,16z"/>
   <path class="fil2" d="M79 20l-36 36c-2,2 -3,4 -4,6 -1,2 -2,4 -2,5 0,3 2,5 4,7 3,2 6,4 10,4 0,0 1,0 1,-1 2,0 3,-1 4,-2 3,-3 5,-6 9,-7 2,-1 5,0 7,1 8,4 6,12 1,18 -5,6 -14,8 -22,8 -9,0 -16,-2 -23,-7 -6,-6 -10,-13 -10,-22 0,-8 4,-16 10,-22 13,-12 25,-25 38,-37 7,-8 22,4 13,13z"/>
  </g>
 </g>
</svg>
