<?xml version="1.0" encoding="UTF-8"?>
<!DOCTYPE svg PUBLIC "-//W3C//DTD SVG 1.1//EN" "http://www.w3.org/Graphics/SVG/1.1/DTD/svg11.dtd">
<!-- Creator: CorelDRAW X7 -->
<svg xmlns="http://www.w3.org/2000/svg" xml:space="preserve" width="100px" height="100px" version="1.1" style="shape-rendering:geometricPrecision; text-rendering:geometricPrecision; image-rendering:optimizeQuality; fill-rule:evenodd; clip-rule:evenodd"
viewBox="0 0 100 100"
 xmlns:xlink="http://www.w3.org/1999/xlink">
 <defs>
  <style type="text/css">
   <![CDATA[
    .fil0 {fill:none}
    .fil2 {fill:#19612E}
    .fil1 {fill:#682B1C;fill-opacity:0.501961}
   ]]>
  </style>
 </defs>
 <g id="Layer_x0020_1">
  <metadata id="CorelCorpID_0Corel-Layer"/>
  <g id="_569796872">
   <rect class="fil0" width="100" height="100"/>
   <path class="fil1" d="M59 52c3,2 6,4 8,6 10,6 18,15 13,27 -2,7 -8,13 -16,12 -3,-1 -6,-3 -8,-6 -3,-4 -2,-9 1,-13 -3,-2 -7,-5 -9,-6 -6,-4 -11,-8 -16,-13 -1,0 -1,-1 -2,-2 -7,-7 -12,-16 -12,-26 0,-24 29,-37 46,-20 13,12 9,33 -5,41zm-5 -22c0,-4 -4,-8 -8,-8 -5,0 -9,4 -9,8 0,5 4,9 9,9 4,0 8,-4 8,-9z"/>
   <path id="navami" class="fil2" d="M55 52c11,7 30,16 24,33 -5,12 -16,13 -21,5 -3,-4 -2,-8 1,-11l1 -1c-5,-5 -19,-12 -29,-22 -6,-7 -11,-15 -11,-25 0,-23 28,-34 43,-19 13,13 7,34 -8,40zm1 -22c0,6 -5,11 -10,11 -6,0 -11,-5 -11,-11 0,-5 5,-10 11,-10 5,0 10,5 10,10z"/>
  </g>
 </g>
</svg>
