<svg xmlns="http://www.w3.org/2000/svg" xml:space="preserve" width="30px" height="30px" version="1.1" shape-rendering="geometricPrecision" text-rendering="geometricPrecision" image-rendering="optimizeQuality" fill-rule="evenodd" clip-rule="evenodd"
viewBox="0 0 30000 30000">
 <g id="Layer_x0020_3">
  <metadata id="CorelCorpID_0Corel-Layer"/>
  <rect fill="none" x="1" y="1" width="29998" height="29998"/>
  <path fill="#FBE698" stroke="#EECA69" stroke-width="90" d="M6572 17084c9,20 57,214 54,237 46,43 45,88 64,151 14,46 30,119 49,167 70,176 82,281 166,461l321 737 299 544c53,97 109,168 164,264 114,196 172,273 298,440l130 178c15,23 25,37 47,62l26 28c21,23 4,4 24,28 36,44 59,81 91,123 32,42 71,72 102,111l38 45c2,2 5,5 6,7l558 608c63,54 174,169 220,196 59,12 58,25 108,66 37,30 57,49 86,75l551 428c291,206 685,460 1015,622l670 312c75,28 167,59 235,88l363 132c47,19 69,28 123,42l437 133c17,6 41,11 65,16 89,20 196,31 264,58 70,27 192,41 266,56 819,164 1964,194 2769,67 242,-38 581,-96 819,-156l207 -71c5,-3 4,-32 4,-1 170,-6 338,-98 454,-128l733 -246c47,7 110,-52 198,-88 3,-1 7,-3 10,-4 3,-1 6,-3 9,-4l45 -23c4,-2 14,-8 17,-10 100,-57 235,-99 340,-170 45,-31 106,-43 156,-73 25,-15 41,-34 70,-49 78,-39 103,-28 241,-124l287 -182c46,-46 73,-69 136,-103l287 -185c44,-34 79,-78 120,-107 49,-36 103,-56 148,-95l1075 -1056 519 -659c19,-37 13,-42 37,-72 124,-153 232,-311 326,-490l169 -300c86,-144 213,-452 226,-471l21 -35c5,-12 13,-35 19,-50l310 -761c46,-178 110,-292 167,-528 9,-38 12,-77 19,-104 13,-48 21,-45 32,-84 32,-120 68,-287 87,-399 12,-75 -5,-52 21,-139 7,-22 9,-28 14,-54 10,-54 23,-159 26,-221 4,-56 3,-42 15,-85l53 -306c63,-482 60,-1332 -4,-1809 -10,-75 -14,-133 -22,-208 -7,-72 -26,-142 -34,-203 -18,-137 -62,-308 -61,-440 5,-204 -263,-901 -252,-987 -43,-30 -80,-135 -102,-181 -16,-35 -18,-75 -29,-107 -63,-188 -165,-376 -236,-552l-173 -348c-68,-163 -155,-275 -224,-439 -35,-85 -150,-236 -206,-328 -103,-165 -413,-598 -551,-749l-627 -700c-159,-172 -509,-487 -693,-619l-295 -227c-55,-39 -109,-65 -165,-105 -51,-36 -96,-78 -145,-109l-329 -197c-35,-22 -27,-29 -76,-55 -33,-18 -58,-28 -92,-45 -39,-20 -46,-29 -81,-51l-611 -314c-68,-21 -135,-47 -182,-75 -59,-35 -113,-56 -186,-81 -59,-20 -138,-36 -188,-66 -60,-36 -123,-50 -187,-81 -74,-36 -294,-87 -404,-132 -53,-22 -137,-41 -201,-55l-324 -79c-230,-73 -800,-151 -1010,-171 -78,-7 -154,-27 -231,-34 -82,-8 -165,-1 -245,-11 -242,-31 -789,-11 -1027,7l-725 80c-78,10 -153,26 -218,36 -144,24 -305,44 -437,87l-520 138c-34,10 -1,1 -29,11l-19 7c-21,7 -35,11 -51,16l-951 364c-16,6 -28,8 -49,19 -55,27 -57,52 -119,76 -153,59 -297,141 -448,214l-740 440c-93,71 -192,164 -293,228l-725 602c-39,33 -34,33 -65,70l-762 819c-168,226 -334,437 -490,677 -45,69 -63,83 -98,176l-387 667c-29,56 -52,116 -85,168 -113,177 -185,463 -253,621l-13 27c-1,3 -3,6 -4,9 -15,36 -21,88 -30,104 -2,3 -20,23 -28,36 -60,98 -83,218 -124,330 -47,126 -81,277 -118,403 -37,122 -75,297 -97,429 -140,845 -179,1051 -171,1938 2,236 27,789 65,999 28,157 38,301 69,456 21,105 81,353 82,457z"/>
  <g id="_768098512">
   <path fill="#FBE698" d="M20509 3890c63,21 36,10 95,0 22,-4 66,-12 92,-15 109,-13 258,-12 367,13 17,4 30,10 54,9 73,-4 69,-58 116,-94 65,-101 191,-300 288,-295 56,70 -18,220 -67,319 -14,102 -112,156 -44,233l53 61c6,8 24,30 31,40 157,208 174,387 219,439 31,-83 82,-518 96,-633 5,-38 3,-65 7,-98 16,-158 67,-818 25,-914 -110,69 -221,124 -333,199 -156,105 -338,211 -499,334 -60,46 -108,81 -169,126 -71,53 -286,207 -331,276zm724 -87l-176 297c67,42 79,64 155,106 94,-101 174,-226 243,-379 49,-99 123,-249 67,-319 -97,-5 -223,194 -288,295zm0 0c-47,36 -43,90 -116,94 -24,1 -37,-5 -54,-9 -108,-25 -257,-26 -367,-13 -26,3 -70,11 -92,15 -59,10 -32,20 -95,0l-463 397c-357,339 -819,834 -1128,1229 -77,98 -153,182 -220,297 177,54 379,167 567,242 54,22 94,53 146,76 49,21 81,33 144,70 486,284 828,453 1285,785 43,31 93,71 127,91 65,-112 204,-495 255,-638 77,-212 140,-413 206,-624 23,-75 308,-1132 285,-1216 -45,-52 -61,-230 -219,-439 -8,-10 -25,-32 -31,-40l-53 -61c-68,-77 30,-131 44,-233 -69,153 -149,278 -243,379 -76,-43 -88,-64 -155,-106l176 -297z"/>
   <path fill="#FBE698" d="M25352 8148c44,49 26,27 83,48 21,8 63,23 87,33 101,43 230,119 311,195 13,12 21,23 42,34 65,33 89,-15 148,-23 107,-55 316,-164 397,-111 14,89 -126,182 -217,243 -63,81 -175,78 -154,179l16 80c1,10 6,38 7,50 32,259 -43,422 -30,489 69,-56 330,-407 399,-500 23,-31 35,-54 55,-82 93,-129 467,-675 478,-779 -130,5 -253,-4 -388,5 -188,13 -398,14 -600,40 -75,10 -134,16 -209,25 -88,10 -351,36 -425,73zm670 287l-301 169c37,70 37,95 81,169 132,-40 264,-108 400,-206 92,-61 231,-154 217,-243 -82,-53 -290,57 -397,111zm0 0c-59,8 -82,56 -148,23 -21,-11 -29,-22 -42,-34 -81,-76 -210,-151 -311,-195 -24,-10 -66,-25 -87,-33 -56,-21 -38,1 -83,-48l-600 112c-479,115 -1127,312 -1591,500 -116,47 -224,81 -339,147 126,135 245,334 370,493 36,46 55,93 88,138 32,43 54,70 90,133 279,489 491,806 720,1323 22,49 45,108 65,143 112,-65 424,-326 540,-425 173,-146 328,-288 490,-438 58,-53 833,-826 855,-911 -13,-67 62,-230 30,-489 -2,-12 -6,-40 -7,-50l-16 -80c-21,-101 91,-98 154,-179 -136,98 -268,166 -400,206 -44,-75 -44,-99 -81,-169l301 -169z"/>
   <path fill="#FBE698" d="M27370 14327c13,65 9,36 47,83 14,17 43,51 58,73 65,89 138,219 170,325 5,16 6,31 19,51 40,61 84,32 139,55 120,7 355,18 399,105 -33,84 -200,94 -310,100 -96,38 -191,-21 -224,77l-27 77c-4,9 -14,35 -19,47 -104,240 -250,342 -273,407 87,-13 490,-185 598,-230 35,-15 58,-29 89,-43 146,-64 744,-346 807,-430 -114,-62 -217,-131 -337,-191 -168,-84 -350,-189 -538,-268 -70,-30 -124,-54 -193,-84 -81,-35 -321,-146 -404,-151zm433 586l-345 -7c-4,79 -16,100 -16,187 134,32 283,40 449,24 110,-6 277,-16 310,-100 -44,-87 -279,-98 -399,-105zm0 0c-55,-23 -99,7 -139,-55 -13,-20 -14,-34 -19,-51 -32,-106 -105,-237 -170,-325 -16,-21 -44,-55 -58,-73 -38,-47 -34,-18 -47,-83l-574 -206c-471,-143 -1130,-300 -1626,-373 -123,-18 -234,-43 -367,-44 41,180 42,412 70,613 8,58 0,108 6,164 6,53 11,87 10,160 -6,563 16,943 -47,1506 -6,53 -15,116 -16,156 129,1 530,-68 681,-94 223,-39 429,-83 644,-130 77,-17 1136,-292 1198,-354 23,-65 170,-167 273,-407 5,-12 15,-38 19,-47l27 -77c33,-98 128,-39 224,-77 -167,16 -315,8 -449,-24 0,-87 12,-108 16,-187l345 7z"/>
   <path fill="#FBE698" d="M26062 20660c-21,63 -10,36 -1,95 4,22 11,66 14,92 12,109 10,258 -16,367 -4,17 -10,30 -9,54 4,73 57,70 93,117 101,66 299,194 293,291 -70,56 -220,-19 -318,-69 -102,-15 -155,-114 -232,-46l-62 53c-8,6 -30,24 -40,31 -210,155 -388,171 -440,215 82,32 517,86 632,101 38,5 65,4 98,8 158,18 817,74 914,32 -68,-111 -122,-222 -196,-334 -104,-157 -208,-339 -331,-502 -46,-61 -80,-109 -125,-170 -52,-71 -205,-287 -273,-333zm81 725l-295 -179c-43,67 -64,79 -107,154 100,95 224,176 377,246 98,50 248,125 318,69 6,-97 -192,-224 -293,-291zm0 0c-36,-47 -89,-44 -93,-117 -1,-24 5,-37 9,-54 26,-108 28,-257 16,-367 -3,-26 -10,-70 -14,-92 -9,-59 -20,-33 1,-95l-394 -466c-336,-360 -827,-826 -1220,-1138 -97,-77 -181,-155 -295,-222 -55,176 -170,378 -247,565 -22,54 -54,93 -77,145 -22,49 -34,81 -71,144 -288,484 -459,824 -795,1279 -32,43 -71,92 -92,127 111,65 493,207 636,260 212,78 412,143 623,210 75,24 1129,317 1214,294 52,-44 231,-60 440,-215 10,-7 32,-25 40,-31l62 -53c78,-68 131,31 232,46 -152,-70 -277,-151 -377,-246 43,-75 64,-87 107,-154l295 179z"/>
   <path fill="#FBE698" d="M21683 25450c-50,44 -27,26 -49,82 -8,21 -24,63 -34,87 -45,101 -121,228 -198,309 -12,12 -24,20 -35,42 -33,65 14,89 22,148 54,108 161,317 107,398 -89,13 -181,-127 -241,-220 -80,-64 -77,-176 -178,-156l-80 15c-10,1 -38,5 -50,7 -259,29 -421,-47 -489,-35 55,69 404,334 496,404 31,23 54,36 81,56 128,95 670,474 774,486 -3,-130 6,-253 -2,-388 -11,-188 -10,-398 -34,-600 -9,-75 -15,-134 -23,-210 -10,-88 -33,-351 -69,-426zm-294 667l-166 -303c-71,36 -95,36 -170,79 39,132 106,265 202,402 60,92 152,233 241,220 54,-81 -54,-291 -107,-398zm0 0c-7,-59 -55,-83 -22,-148 11,-21 23,-29 35,-42 77,-81 153,-209 198,-309 11,-24 26,-66 34,-87 22,-56 -1,-38 49,-82l-106 -601c-110,-480 -301,-1130 -485,-1596 -45,-116 -79,-224 -144,-340 -136,125 -337,241 -497,365 -46,36 -93,54 -139,87 -43,31 -70,53 -134,89 -492,274 -811,483 -1330,707 -49,21 -108,44 -143,63 63,113 322,427 419,544 144,174 285,331 433,495 53,58 818,841 902,864 68,-12 229,64 489,35 13,-1 41,-5 50,-7l80 -15c101,-20 97,92 178,156 -97,-137 -164,-270 -202,-402 75,-43 100,-43 170,-79l166 303z"/>
   <path fill="#FBE698" d="M15558 27365c-65,13 -36,9 -83,47 -17,14 -51,43 -73,58 -89,65 -219,138 -325,170 -17,5 -31,6 -51,19 -61,40 -32,84 -55,139 -7,120 -18,355 -105,399 -84,-33 -94,-200 -100,-310 -38,-96 21,-191 -77,-224l-77 -27c-9,-4 -36,-14 -47,-19 -240,-103 -342,-250 -407,-273 14,87 185,490 230,597 15,35 29,58 43,89 64,146 346,744 430,807 62,-114 131,-217 191,-337 84,-169 189,-350 268,-538 30,-70 54,-124 84,-193 35,-81 146,-321 151,-404zm-586 433l6 -345c-79,-4 -100,-16 -187,-15 -32,134 -40,283 -24,449 6,110 16,277 100,310 87,-44 98,-279 105,-399zm0 0c23,-55 -7,-99 55,-139 20,-13 34,-14 51,-19 106,-32 237,-105 325,-170 21,-16 55,-44 73,-58 47,-38 18,-34 83,-47l206 -574c143,-472 300,-1130 372,-1626 18,-123 43,-234 44,-367 -180,41 -412,42 -613,70 -58,8 -108,1 -164,6 -53,6 -87,11 -160,10 -563,-6 -943,16 -1506,-47 -53,-6 -116,-15 -156,-16 -1,129 68,530 94,681 39,223 83,429 130,644 17,77 292,1136 354,1198 65,23 167,170 407,273 11,5 38,15 47,19l77 27c98,33 39,128 77,224 -16,-167 -8,-315 24,-449 87,0 108,12 187,15l-6 345z"/>
   <path fill="#FBE698" d="M4547 21700c-44,-50 -26,-27 -82,-49 -21,-8 -63,-23 -87,-34 -101,-44 -229,-121 -309,-197 -13,-12 -20,-24 -42,-34 -65,-33 -89,15 -148,22 -108,54 -317,162 -398,108 -13,-89 127,-181 219,-241 64,-81 176,-77 156,-178l-15 -80c-1,-10 -5,-38 -7,-50 -30,-259 46,-421 34,-489 -69,55 -333,405 -403,497 -23,31 -36,54 -56,81 -94,128 -473,671 -485,775 130,-4 253,6 388,-2 188,-11 398,-11 600,-35 75,-9 134,-15 210,-23 88,-10 351,-34 425,-70zm-668 -292l302 -166c-36,-70 -36,-95 -80,-170 -132,39 -265,106 -401,203 -92,60 -233,152 -219,241 81,54 291,-54 398,-108zm0 0c59,-7 83,-55 148,-22 21,11 29,23 42,34 81,76 209,153 309,197 24,11 66,26 87,34 56,21 38,-1 82,49l601 -107c480,-111 1129,-303 1595,-487 116,-46 224,-79 340,-145 -125,-136 -242,-336 -366,-496 -36,-46 -54,-93 -87,-139 -31,-43 -53,-70 -89,-134 -275,-491 -484,-810 -710,-1329 -21,-49 -45,-108 -64,-143 -112,64 -426,323 -543,420 -174,144 -330,285 -494,434 -58,53 -839,819 -862,904 12,68 -64,230 -34,489 1,13 5,41 7,50l15 80c20,101 -92,98 -156,178 137,-97 269,-164 401,-203 44,75 43,100 80,170l-302 166z"/>
   <path fill="#FBE698" d="M9249 25986c-62,-22 -36,-11 -95,-2 -22,3 -66,10 -92,12 -109,10 -259,6 -366,-22 -17,-4 -29,-11 -53,-10 -73,2 -71,56 -118,91 -68,99 -198,295 -295,288 -55,-71 23,-220 74,-317 17,-102 116,-153 50,-231l-52 -62c-6,-8 -23,-30 -30,-41 -152,-212 -164,-391 -208,-444 -33,82 -94,515 -111,630 -5,38 -5,65 -9,98 -20,158 -87,816 -47,913 112,-66 224,-118 338,-191 159,-101 342,-203 507,-322 62,-45 110,-78 172,-122 72,-51 290,-200 338,-268zm-726 69l183 -292c-66,-44 -78,-65 -152,-110 -96,98 -180,222 -252,373 -51,97 -129,246 -74,317 97,7 227,-189 295,-288zm0 0c48,-35 45,-89 118,-91 24,-1 37,6 53,10 108,27 257,32 366,22 26,-2 70,-9 92,-12 59,-8 33,-20 95,2l473 -386c365,-331 839,-814 1157,-1202 79,-96 158,-178 227,-292 -176,-58 -375,-176 -561,-256 -54,-23 -93,-55 -144,-79 -49,-23 -81,-35 -143,-74 -479,-295 -817,-472 -1266,-816 -42,-32 -91,-73 -125,-94 -67,110 -215,489 -270,632 -82,211 -150,410 -220,619 -25,75 -335,1124 -314,1209 44,53 56,232 208,444 7,10 24,33 30,41l52 62c66,79 -33,130 -50,231 72,-151 156,-274 252,-373 75,44 86,66 152,110l-183 292z"/>
   <path fill="#FBE698" d="M2618 15643c-12,-65 -9,-37 -46,-84 -14,-18 -42,-52 -57,-74 -64,-90 -134,-221 -164,-328 -5,-17 -5,-31 -18,-51 -39,-62 -84,-33 -138,-57 -120,-9 -355,-24 -397,-111 34,-83 202,-90 312,-94 96,-36 190,24 225,-73l28 -76c4,-9 15,-35 20,-47 108,-238 256,-338 280,-402 -88,12 -493,176 -601,220 -36,14 -58,28 -90,41 -147,62 -750,334 -814,417 113,63 214,135 334,197 167,87 347,195 533,277 69,31 123,56 192,88 80,37 319,151 401,158zm-423 -594l345 13c5,-79 18,-100 19,-187 -133,-34 -282,-45 -449,-31 -110,4 -278,11 -312,94 42,88 277,103 397,111zm0 0c54,24 99,-5 138,57 13,20 13,35 18,51 30,107 101,238 164,328 15,21 43,56 57,74 37,47 33,19 46,84l571 216c469,151 1125,319 1620,400 123,20 233,47 366,50 -38,-181 -35,-413 -59,-614 -7,-58 1,-108 -4,-164 -5,-53 -10,-87 -8,-160 16,-563 0,-944 72,-1505 7,-53 17,-115 19,-156 -129,-3 -531,59 -682,82 -223,35 -430,76 -647,119 -77,16 -1141,273 -1203,334 -24,64 -172,164 -280,402 -5,11 -16,38 -20,47l-28 76c-35,97 -129,36 -225,73 167,-13 315,-3 449,31 -1,87 -14,108 -19,187l-345 -13z"/>
   <path fill="#FBE698" d="M3911 9449c21,-63 10,-36 1,-95 -4,-22 -11,-66 -14,-92 -12,-109 -10,-258 16,-367 4,-17 10,-30 9,-53 -4,-73 -57,-70 -93,-117 -101,-66 -299,-193 -293,-290 70,-56 220,19 319,69 102,15 155,114 232,46l62 -53c8,-6 30,-24 40,-31 210,-156 388,-171 440,-215 -82,-32 -517,-86 -632,-100 -38,-5 -65,-4 -98,-8 -158,-17 -817,-73 -914,-31 68,110 122,222 196,334 104,157 209,339 331,501 46,61 80,109 125,170 52,71 205,287 274,333zm-82 -724l295 178c43,-67 64,-79 107,-154 -100,-95 -225,-176 -377,-246 -98,-50 -248,-125 -319,-69 -6,97 193,224 293,290zm0 0c36,47 89,44 93,117 1,24 -5,37 -9,53 -26,108 -28,257 -16,367 3,26 11,70 14,92 9,59 20,33 -1,95l394 466c337,360 828,825 1221,1136 98,77 181,154 295,222 55,-176 170,-378 246,-565 22,-54 54,-94 77,-145 22,-49 34,-81 71,-144 287,-484 458,-825 794,-1280 31,-43 71,-93 92,-127 -111,-65 -493,-207 -636,-259 -212,-78 -412,-143 -623,-210 -75,-24 -1130,-316 -1214,-293 -52,44 -231,60 -440,215 -10,8 -32,25 -40,31l-62 53c-78,68 -131,-31 -232,-46 152,69 277,151 377,246 -43,75 -64,87 -107,154l-295 -178z"/>
   <path fill="#FBE698" d="M8117 4712c49,-44 27,-26 48,-83 8,-21 23,-63 33,-87 43,-101 118,-230 194,-311 12,-13 23,-21 34,-42 33,-65 -15,-89 -24,-148 -55,-107 -165,-315 -112,-397 89,-14 182,125 243,217 81,63 79,175 180,154l80 -16c10,-2 38,-6 50,-7 259,-32 422,42 489,29 -56,-68 -408,-329 -501,-398 -31,-23 -54,-35 -82,-55 -129,-93 -676,-466 -780,-477 5,130 -3,253 6,388 13,188 15,398 41,599 10,75 16,134 26,209 11,88 37,351 74,425zm285 -671l169 301c70,-37 95,-37 169,-81 -41,-132 -109,-264 -207,-399 -61,-92 -154,-231 -243,-217 -53,82 57,290 112,397zm0 0c8,59 56,82 24,148 -11,21 -22,30 -34,42 -76,81 -151,210 -194,311 -10,24 -25,66 -33,87 -21,56 2,38 -48,83l114 600c116,479 315,1126 504,1590 47,115 81,223 148,338 135,-127 334,-245 493,-371 46,-36 93,-55 138,-89 43,-32 70,-54 133,-90 488,-280 805,-493 1321,-723 48,-22 107,-46 143,-65 -65,-112 -327,-423 -426,-539 -146,-172 -289,-327 -439,-489 -54,-58 -828,-831 -913,-853 -67,13 -230,-61 -489,-29 -13,2 -40,6 -50,7l-80 16c-101,21 -99,-91 -180,-154 98,135 167,268 207,399 -75,44 -99,44 -169,81l-169 -301z"/>
   <path fill="#FBE698" d="M14179 2639c65,-14 36,-9 83,-47 17,-14 51,-43 72,-59 88,-66 218,-139 324,-172 16,-5 31,-6 51,-19 61,-40 31,-85 54,-139 6,-120 16,-356 102,-400 84,32 95,200 102,310 39,95 -20,191 78,224l77 26c9,4 36,14 47,19 240,102 344,248 408,271 -14,-87 -188,-489 -234,-596 -15,-35 -29,-58 -43,-89 -65,-146 -351,-742 -435,-804 -61,115 -130,218 -189,338 -83,169 -187,351 -265,539 -29,70 -53,124 -83,194 -35,81 -144,322 -149,405zm584 -437l-5 345c79,3 101,15 187,14 31,-134 38,-283 21,-449 -7,-110 -18,-277 -102,-310 -87,44 -96,280 -102,400zm0 0c-23,55 7,99 -54,139 -20,13 -34,14 -51,19 -106,33 -236,106 -324,172 -21,16 -55,44 -72,59 -46,38 -18,34 -83,47l-203 576c-140,472 -293,1132 -363,1628 -17,123 -42,234 -42,367 180,-42 412,-45 612,-74 58,-8 108,-1 164,-7 53,-6 87,-12 160,-11 563,3 943,-22 1506,38 53,6 116,15 156,15 0,-129 -71,-530 -98,-680 -40,-222 -85,-428 -134,-644 -17,-77 -299,-1134 -361,-1195 -65,-23 -168,-169 -408,-271 -12,-5 -38,-15 -47,-19l-77 -26c-98,-33 -39,-128 -78,-224 17,167 10,315 -21,449 -87,1 -108,-11 -187,-14l5 -345z"/>
  </g>
 </g>
</svg>
