<svg xmlns="http://www.w3.org/2000/svg" xml:space="preserve" width="76px" height="76px" version="1.1" shape-rendering="geometricPrecision" text-rendering="geometricPrecision" image-rendering="optimizeQuality" fill-rule="evenodd" clip-rule="evenodd"
viewBox="0 0 7600 7600">
 <g id="Layer_x0020_4">
  <metadata id="CorelCorpID_0Corel-Layer"/>
  <rect fill="none" width="7600" height="7600"/>
  <g id="_820377376">
   <path fill="none" stroke="#781E00" stroke-width="208.349" stroke-linecap="round" stroke-linejoin="round" d="M3368 3933l-211 787m643 -730l0 1288"/>
   <path fill="none" stroke="#781E00" stroke-width="208.349" stroke-linecap="round" stroke-linejoin="round" d="M2620 3502l-576 576m922 -311l-644 1115"/>
   <path fill="none" stroke="#781E00" stroke-width="208.349" stroke-linecap="round" stroke-linejoin="round" d="M2188 2754l-787 211m954 191l-1115 644"/>
   <line fill="none" stroke="#781E00" stroke-width="208.349" stroke-linecap="round" stroke-linejoin="round" x1="2132" y1="2322" x2="844" y2= "2322" />
   <path fill="none" stroke="#781E00" stroke-width="208.349" stroke-linecap="round" stroke-linejoin="round" d="M5412 2754l787 211m-730 -643l1288 0"/>
   <path fill="none" stroke="#781E00" stroke-width="208.349" stroke-linecap="round" stroke-linejoin="round" d="M4980 3502l576 576m-311 -922l1115 644"/>
   <path fill="none" stroke="#781E00" stroke-width="208.349" stroke-linecap="round" stroke-linejoin="round" d="M4232 3933l211 787m191 -954l644 1115"/>
   <path fill="#FA920A" stroke="#781E00" stroke-width="199.963" d="M3800 3990c922,0 1668,-747 1668,-1668l0 0 -3337 0 0 0c0,921 747,1668 1668,1668z"/>
   <path fill="#DB3E00" d="M3800 3474c580,0 1050,-470 1050,-1050l0 0 -2101 0 0 0c0,580 470,1050 1050,1050z"/>
  </g>
 </g>
</svg>
