<svg width="30" height="30" version="1.1" viewBox="0 0 7.9375 7.9375" xmlns="http://www.w3.org/2000/svg">
 <g transform="matrix(.12402 0 0 .12402 .0082096 .0081439)">
  <circle class="st0" cx="32" cy="32" r="32"/>
  <g class="st1">
   <path class="st2" d="m49.9 46.2-14.1-14.1c-1-1-2.5-1.4-3.8-1l-8.1-8-3-5.9-5.9-3-2.9 2.8 3 5.9 5.9 3 8.1 8c-0.4 1.3 0 2.8 1 3.8l14.1 14.1c1.6 1.6 4.1 1.6 5.7 0 1.6-1.5 1.6-4 0-5.6z"/>
  </g>
  <polygon class="st3" points="34.5 37.3 18.4 21.4 21.3 18.6 37.4 34.5"/>
  <path class="st4" d="m49.9 49.9c-1.6 1.6-4.1 1.6-5.7 0l-14.1-14.1c-1.6-1.6-1.6-4.1 0-5.7s4.1-1.6 5.7 0l14.1 14.1c1.6 1.6 1.6 4.1 0 5.7z"/>
  <g class="st1">
   <path class="st2" d="m53.3 18.4-6.5 6.5c-1.6 1.6-4.1 1.6-5.7 0s-1.6-4.1 0-5.7l6.5-6.5c-1.1-0.4-2.3-0.7-3.6-0.7-5.5 0-10 4.5-10 10 0 1.3 0.3 2.5 0.7 3.6l-11 11c-1.2-0.3-2.4-0.6-3.7-0.6-5.5 0-10 4.5-10 10 0 1.3 0.3 2.5 0.7 3.6l6.5-6.5c1.6-1.6 4.1-1.6 5.7 0s1.6 4.1 0 5.7l-6.5 6.5c1.1 0.4 2.4 0.7 3.6 0.7 5.5 0 10-4.5 10-10 0-1.3-0.3-2.5-0.7-3.6l11-11c1.1 0.4 2.4 0.7 3.6 0.7 5.5 0 10-4.5 10-10 0.1-1.4-0.2-2.6-0.6-3.7z"/>
  </g>
  <rect class="st5" transform="matrix(.7071 -.7071 .7071 .7071 -13.255 32)" x="23.4" y="28" width="17.1" height="8"/>
  <polygon class="st3" points="20.8 15.2 23.9 21.1 21 23.9 15.1 20.9 12.1 15 14.9 12.1"/>
  <path class="st5" d="m46.8 22.8c-1.6 1.6-4.1 1.6-5.7 0s-1.6-4.1 0-5.7l6.5-6.5c-1.1-0.3-2.3-0.6-3.6-0.6-5.5 0-10 4.5-10 10s4.5 10 10 10 10-4.5 10-10c0-1.3-0.3-2.5-0.7-3.6z"/>
  <path class="st5" d="m17.2 41.2c1.6-1.6 4.1-1.6 5.7 0s1.6 4.1 0 5.7l-6.5 6.5c1.1 0.4 2.4 0.7 3.6 0.7 5.5 0 10-4.5 10-10s-4.5-10-10-10-10 4.5-10 10c0 1.3 0.3 2.5 0.7 3.6z"/>
 </g>
 <style type="text/css">.st0{fill:#6C9AC2;}
	.st1{opacity:0.2;}
	.st2{fill:#231F20;}
	.st3{fill:#4F5D73;}
	.st4{fill:#F5CF87;}
	.st5{fill:#FFFFFF;}</style>
</svg>
