<svg xmlns="http://www.w3.org/2000/svg" xml:space="preserve" viewBox="0 0 256 256"><path fill="#cc1914" stroke="#edad1f" stroke-width="6" d="M169.14 30.182c-14.333-9.079-30.62-14.617-46.17-15.687-7.415-.512-20.49.942-27.691 3.112-6.379 1.919-15.258 5.953-20.049 9.087-1.832 1.242-3.622 2.265-3.823 2.363-.42.056-3.167-3.43-13.293-17.349l-1.579-2.215-1.768 4.943c-4.293 11.699-24.04 68.11-24.087 68.83-.084.439 17.741 4.131 46.528 9.79 26.511 5.177 46.458 8.73 46.182 8.267s-4.007-5.459-8.271-11.24c-4.325-5.702-7.996-10.778-8.253-11.1-.63-.986 5.557-3.806 11.029-5.034 5.332-1.208 11.91-1.084 18.378.338 13.67 3.032 27.696 13.008 37.485 26.544 8.762 12.245 13.962 28.816 13.733 44.255-.191 11.44-3.765 25.325-9.923 37.486-4.508 9.017-15.568 23.471-22.504 29.244-27.427 23.336-64.32 28.6-96.416 13.608-2.51-1.164-5.256-2.51-5.971-3.058-.715-.547-1.612-.855-2.014-.66-1.023.35 12.267 9.64 18.953 13.245 22.962 12.283 50.17 15.726 75.653 9.412 12.912-3.216 27.46-10.215 38.018-18.253 8.081-6.283 19.192-17.675 19.837-20.33.187-.738 2.385-4.597 5.064-8.59 11.552-17.73 17.665-35.592 18.998-55.6 2.225-33.68-11.043-68.01-36.356-93.676-5.783-5.936-15.308-13.729-21.69-17.73z"/></svg>