<svg xmlns="http://www.w3.org/2000/svg" xml:space="preserve" width="100px" height="100px" version="1.1" shape-rendering="geometricPrecision" text-rendering="geometricPrecision" image-rendering="optimizeQuality" fill-rule="evenodd" clip-rule="evenodd"
viewBox="0 0 51200 51200">
 <defs>
    <radialGradient id="id0" gradientUnits="userSpaceOnUse" cx="25599.9" cy="25599.9" r="3320.33" fx="25599.9" fy="25599.9">
     <stop offset="0" stop-color="#FFA742"/>
     <stop offset="0.541176" stop-color="#FFA742"/>
     <stop offset="0.760784" stop-color="#DE5103"/>
     <stop offset="1" stop-color="#DE5003"/>
    </radialGradient>
     <radialGradient id="id1" gradientUnits="userSpaceOnUse" cx="22086.3" cy="21260" r="12892.8" fx="22086.3" fy="21260">
      <stop offset="0" stop-color="#FF6A45"/>
      <stop offset="1" stop-color="#D43811"/>
     </radialGradient>
     <radialGradient id="id2" gradientUnits="userSpaceOnUse" cx="19114.7" cy="14855.2" r="16510.2" fx="19114.7" fy="14855.2">
      <stop offset="0" stop-color="#FFE2AB"/>
      <stop offset="0.780392" stop-color="#F5C367"/>
      <stop offset="1" stop-color="#DEA53C"/>
     </radialGradient>
      <radialGradient id="id3" gradientUnits="userSpaceOnUse" cx="28611.2" cy="30705.6" r="6756.4" fx="28611.2" fy="30705.6">
       <stop offset="0" stop-color="#DAC440"/>
       <stop offset="1" stop-color="#9C8500"/>
      </radialGradient>
      <radialGradient id="id4" gradientUnits="userSpaceOnUse" cx="27492.1" cy="23553.9" r="7036.68" fx="27492.1" fy="23553.9">
       <stop offset="0" stop-color="#FFE2AB"/>
       <stop offset="0.780392" stop-color="#F5C367"/>
       <stop offset="1" stop-color="#DEA53C"/>
      </radialGradient>
 </defs>
 <g id="Layer_x0020_1">
  <metadata id="CorelCorpID_0Corel-Layer"/>
  <g id="_669896768">
   <rect fill="none" width="51200" height="51200"/>
   <path fill="black" fill-opacity="0.501961" d="M25600 50c14111,0 25550,11439 25550,25550 0,14111 -11439,25550 -25550,25550 -14111,0 -25550,-11439 -25550,-25550 0,-14111 11439,-25550 25550,-25550z"/>
   <circle fill="url(#id0)" cx="25600" cy="25600" r="24829"/>
   <g>
    <path fill="#804303" d="M5215 14150c9078,-2661 18155,-5322 27233,-7984 105,-31 215,30 246,134 2132,7275 4265,14549 6398,21823 31,105 -30,215 -134,246 -4538,1330 -9077,2661 -13615,3991l-9 3 -13609 3989c-105,31 -215,-30 -246,-134 -2132,-7274 -4265,-14549 -6398,-21823 -31,-105 30,-215 134,-246z"/>
    <path fill="url(#id1)" d="M17721 27846c-25,572 308,985 830,1297 577,345 1386,574 2220,757l0 1 370 80c1484,320 3049,659 3995,1679 245,-1369 1380,-2499 2456,-3570l258 -257 10 -10c603,-605 1160,-1234 1459,-1836 271,-545 328,-1073 -2,-1541l-7160 -2946 -4436 6346zm-3024 -9416c-747,46 -1325,391 -1792,893 -488,525 -861,1224 -1182,1938l-3 7 -143 321c-550,1241 -1130,2547 -2383,3450 1542,83 2736,871 3868,1618l293 193 0 0c658,429 1352,819 2048,997 665,170 1337,149 1990,-216l4393 -6284 -7090 -2917zm11756 -3757c24,-571 -308,-984 -830,-1297 -577,-345 -1386,-574 -2219,-757l0 0 -369 -80c-1484,-321 -3050,-659 -3996,-1679 -245,1369 -1380,2499 -2455,3569l-259 259 -10 10c-603,604 -1160,1234 -1459,1836 -271,545 -328,1073 2,1540l7160 2946 4436 -6346zm2317 -1c-665,-170 -1338,-149 -1991,217l-4392 6283 7089 2917c747,-46 1325,-391 1792,-893 488,-525 862,-1224 1183,-1938l3 -7 142 -320c550,-1241 1130,-2549 2383,-3451 -1541,-84 -2736,-871 -3869,-1619l-292 -192 0 0c-658,-429 -1352,-819 -2049,-997z"/>
    <path fill="url(#id2)" d="M35583 17562c-1429,837 -2043,2223 -2623,3531l-142 320 -4 9c-336,748 -730,1483 -1255,2047 -388,417 -846,739 -1399,903l8438 3472 -3014 -10281zm-5711 7113c151,477 54,979 -199,1488 -325,652 -906,1312 -1532,1940l-10 9 -259 259c-1078,1073 -2217,2208 -2370,3531l12809 -3755 -8437 -3472zm-4913 7386c-844,-1031 -2416,-1371 -3902,-1692l-371 -81 -1 0 0 1c-866,-191 -1712,-432 -2337,-806 -488,-292 -842,-662 -971,-1145l-5227 7477 12809 -3755zm-7988 -3824c-555,161 -1113,137 -1665,-5 -748,-192 -1479,-600 -2168,-1050l-1 -1 0 0 -293 -193c-1194,-788 -2459,-1622 -4114,-1555l3014 10281 5227 -7478zm-8381 -3278c1429,-837 2043,-2222 2623,-3530l143 -321 4 -9c336,-748 730,-1483 1254,-2047 388,-417 845,-739 1399,-903l-8437 -3472 3014 10281zm5711 -7114c-152,-476 -54,-979 200,-1488 324,-652 906,-1312 1532,-1940l10 -9 261 -260c1077,-1072 2217,-2207 2370,-3530l-12808 3755 8437 3472zm4914 -7386c843,1031 2417,1371 3903,1692l370 80 1 0 0 0c866,190 1712,432 2337,805 488,292 842,662 971,1144l5227 -7477 -12808 3755zm7987 3824c555,-161 1114,-136 1666,5 748,192 1479,600 2168,1050l1 1 0 0 292 192c1195,788 2460,1623 4114,1556l-3014 -10282 -5227 7478z"/>
    <g>
     <path fill="#804303" d="M14421 19138c9460,-1 18919,-2 28379,-3 109,0 198,89 198,198 1,7581 2,15161 3,22742 0,109 -89,198 -198,198 -4729,0 -9459,2 -14188,2l-10 0 -14181 1c-109,0 -198,-89 -198,-198 -1,-7580 -2,-15161 -2,-22741 0,-109 89,-198 198,-198z"/>
     <path fill="url(#id3)" d="M22570 35798c-185,542 18,1032 432,1479 456,493 1168,940 1917,1351l0 0 332 181c1334,725 2741,1489 3362,2735 620,-1245 2028,-2010 3361,-2736l320 -174 12 -7c749,-411 1460,-858 1917,-1351 414,-447 616,-937 431,-1479l-6043 -4841 -6041 4843zm-254 -9886c-729,-166 -1381,3 -1971,353 -616,366 -1171,933 -1680,1527l-5 6 -227 268c-877,1036 -1801,2127 -3257,2641 1456,514 2381,1605 3257,2641l227 267 0 0c510,597 1067,1166 1685,1533 590,350 1242,519 1971,352l5982 -4795 -5983 -4793zm12338 -300c184,-541 -19,-1031 -432,-1478 -457,-493 -1168,-940 -1917,-1351l0 0 -332 -181c-1334,-725 -2742,-1490 -3363,-2735 -620,1245 -2027,2010 -3360,2735l-321 175 -12 7c-749,411 -1460,858 -1916,1351 -414,447 -616,938 -431,1479l6042 4841 6042 -4843zm2224 651c-590,-351 -1242,-519 -1972,-352l-5982 4794 5983 4793c730,166 1381,-2 1971,-353 616,-366 1171,-932 1680,-1527l5 -6 226 -267c877,-1036 1801,-2128 3257,-2642 -1456,-514 -2380,-1605 -3258,-2641l-226 -267 0 0c-510,-597 -1067,-1166 -1685,-1533z"/>
     <path fill="url(#id4)" d="M42603 30951c-1607,402 -2586,1558 -3511,2651l-226 267 -6 7c-533,623 -1118,1218 -1780,1611 -490,291 -1019,471 -1597,473l7121 5705 -1 -10714zm-7481 5220c11,500 -223,955 -610,1372 -495,535 -1238,1004 -2016,1431l-12 6 -322 175c-1336,726 -2749,1495 -3268,2722l13348 -1 -7121 -5705zm-6792 5706c-520,-1227 -1933,-1995 -3269,-2721l-333 -182 -1 0 0 0c-778,-426 -1521,-896 -2016,-1430 -386,-417 -621,-872 -610,-1372l-7119 5706 13348 -1zm-6590 -5916c-577,-2 -1107,-182 -1597,-473 -664,-394 -1251,-992 -1785,-1617l-1 -1 0 0 -227 -267c-924,-1092 -1904,-2248 -3510,-2649l1 10714 7119 -5706zm-7121 -5503c1607,-402 2585,-1558 3510,-2650l227 -268 6 -7c533,-623 1117,-1218 1779,-1612 489,-291 1019,-472 1596,-474l-7121 -5705 1 10714zm7481 -5221c-12,-500 224,-955 610,-1372 494,-534 1238,-1004 2016,-1431l12 -6 323 -176c1335,-726 2748,-1494 3267,-2721l-13347 2 7120 5704zm6792 -5706c519,1227 1933,1995 3269,2721l332 181 1 0 0 0c777,426 1521,896 2016,1430 386,418 621,872 610,1371l7118 -5706 -13347 2zm6590 5916c578,2 1107,182 1597,473 664,394 1251,992 1785,1617l1 1 0 0 226 267c925,1092 1904,2249 3511,2650l-1 -10714 -7119 5706z"/>
    </g>
   </g>
  </g>
 </g>
</svg>
