<svg xmlns="http://www.w3.org/2000/svg" xml:space="preserve" width="100px" height="100px" version="1.1" shape-rendering="geometricPrecision" text-rendering="geometricPrecision" image-rendering="optimizeQuality" fill-rule="evenodd" clip-rule="evenodd"
viewBox="0 0 10000 10000">
 <defs>
    <radialGradient id="id0" gradientUnits="userSpaceOnUse" cx="5000" cy="5000" r="3196.44" fx="5000" fy="5000">
     <stop offset="0" stop-color="#FF6A45"/>
     <stop offset="1" stop-color="#E64F29"/>
    </radialGradient>
 </defs>
 <g id="girl">
  <metadata id="CorelCorpID_0Corel-Layer"/>
  <g id="_881988208">
   <rect fill="none" width="10000" height="10000"/>
   <path fill="white" d="M5000 122c2694,0 4878,2184 4878,4878 0,2694 -2184,4878 -4878,4878 -2694,0 -4878,-2184 -4878,-4878 0,-2694 2184,-4878 4878,-4878z"/>
   <path fill="black" fill-opacity="0.200000" d="M1965 7378l-4 836c-10,150 41,229 165,229l4550 0c125,0 175,-79 165,-229l-4 -836c-3,-591 -412,-1001 -889,-1281 -369,-217 -366,403 -504,287 16,677 -1374,289 -1659,-517l-19 0 0 -58c-16,-56 -26,-114 -30,-174 -155,96 -584,256 -977,514 -434,285 -791,677 -794,1228zm2436 -5327c-744,0 -1345,619 -1615,1351 -244,661 -169,1125 -161,1704 2,100 -61,228 -138,300 -82,78 -97,164 8,220 162,87 394,110 613,87 248,-126 498,-249 626,-490 10,11 20,21 30,31l0 -246c-129,-168 -225,-365 -283,-531 -11,-31 -21,-61 -32,-88 135,-265 326,-532 528,-737l0 0c231,-123 951,-925 1082,-1178 324,161 810,983 926,1348 6,19 15,35 25,47 65,172 -114,670 -87,819 -63,171 -305,246 -546,307l0 189c41,-30 80,-62 115,-97 128,241 85,293 333,418 220,23 315,208 477,121 105,-56 90,-142 8,-220 -77,-72 -139,-201 -138,-300 9,-580 83,-1043 -161,-1704 -270,-733 -871,-1351 -1615,-1351z"/>
   <path fill="url(#id0)" d="M5000 1804c-744,0 -1345,619 -1615,1351 -244,661 -169,1125 -161,1704 2,100 -61,228 -138,300 -82,78 -97,164 8,220 162,87 394,110 613,87 248,-126 498,-249 626,-490 376,421 895,421 1330,0 128,241 378,364 626,490 220,23 451,-1 613,-87 105,-56 90,-142 8,-220 -77,-72 -139,-201 -138,-300 9,-580 83,-1043 -161,-1704 -270,-733 -871,-1351 -1615,-1351zm780 1812c6,19 15,35 25,47 65,172 108,331 134,480 -118,321 -279,603 -471,785 -231,220 -517,283 -796,118 -286,-170 -493,-536 -589,-815 -11,-31 -21,-61 -32,-88 135,-265 326,-532 528,-737l0 0c231,-123 436,-326 568,-579 324,161 516,424 633,789zm-3216 3515l-4 836c-10,150 41,229 165,229l4550 0c125,0 175,-79 165,-229l-4 -836c-3,-591 -412,-1001 -889,-1281 -369,-217 -744,-346 -882,-462 17,739 -1264,957 -1330,0 -155,96 -584,256 -977,514 -434,285 -791,677 -794,1228z"/>
  </g>
 </g>
</svg>
