<svg xmlns="http://www.w3.org/2000/svg" xml:space="preserve" width="100px" height="100px" version="1.1" shape-rendering="geometricPrecision" text-rendering="geometricPrecision" image-rendering="optimizeQuality" fill-rule="evenodd" clip-rule="evenodd"
viewBox="0 0 10000 10000">
 <defs>
    <radialGradient id="id0" gradientUnits="userSpaceOnUse" cx="4999.88" cy="5022.44" r="3426.88" fx="4999.88" fy="5022.44">
     <stop offset="0" stop-color="#DAC440"/>
     <stop offset="1" stop-color="#B29C17"/>
    </radialGradient>
 </defs>
 <g id="boy">
  <metadata id="CorelCorpID_0Corel-Layer"/>
  <g id="_881993840">
   <rect fill="none" width="10000" height="10000"/>
   <path fill="white" d="M5000 122c2694,0 4878,2184 4878,4878 0,2694 -2184,4878 -4878,4878 -2694,0 -4878,-2184 -4878,-4878 0,-2694 2184,-4878 4878,-4878z"/>
   <path fill="black" fill-opacity="0.200000" d="M5227 5351c-489,441 -996,449 -1529,7 -255,173 -580,336 -902,443 -310,103 -525,171 -722,383 -388,419 -407,1043 -305,1740 21,147 46,174 198,225 1209,403 3791,403 4999,0 152,-51 176,-78 198,-225 102,-697 84,-1322 -305,-1740 -197,-213 -412,-280 -722,-383 -322,-107 -648,-270 -910,-451zm-1870 -1233c-60,-30 -121,-195 -153,-308 -54,-189 -41,-356 95,-402 -146,-595 -72,-932 135,-1171 173,-200 466,-423 732,-471 362,-65 993,246 1259,480 350,308 256,777 193,1136 102,49 145,178 102,357 -21,88 -87,418 -183,428 -64,254 -188,556 -407,793 -173,187 -418,342 -654,339 -604,-9 -988,-645 -1118,-1180z"/>
   <path fill="url(#id0)" d="M5761 5247c-489,441 -996,449 -1529,7 -255,173 -580,336 -902,443 -310,103 -525,171 -722,383 -388,419 -407,1043 -305,1740 21,147 46,174 198,225 1209,403 3791,403 4999,0 152,-51 176,-78 198,-225 102,-697 84,-1322 -305,-1740 -197,-213 -412,-280 -722,-383 -322,-107 -648,-270 -910,-451zm-1870 -1233c-60,-30 -121,-195 -153,-308 -54,-189 -41,-356 95,-402 -146,-595 -72,-932 135,-1171 173,-200 466,-423 732,-471 362,-65 993,246 1259,480 350,308 256,777 193,1136 102,49 145,178 102,357 -21,88 -87,418 -183,428 -64,254 -188,556 -407,793 -173,187 -418,342 -654,339 -604,-9 -988,-645 -1118,-1180z"/>
  </g>
 </g>
</svg>
