<svg xmlns="http://www.w3.org/2000/svg" id="Layer_1" viewBox="0 0 30 40"><defs><style>.cls-1{fill:#fff}.cls-3{fill:#009000;fill-rule:evenodd}</style></defs><path d="m7.44 36.77.12-18.8c2.47-2.57 4.43-4.33 5.18-4.68 1.77-.83 3.9-1.98 7.97 2.35 2.35 2.5 4.31 4.46 4.94 6.85.59 2.27-.05 4.32-1.43 5.97-.58.65-.86.97-.86.97q1.32.345 1.29 1.29c-.07.5-.23.82-.47.97 3.21 0 4.81.01 4.81.01.42.1.65.38.69.85v4.26c-14.82.19-22.23-.05-22.23-.05Z" class="cls-3"/><path d="M18.9 37c-7.56 0-11.41-.12-11.47-.12h-.1l.12-18.95.03-.03c2.43-2.53 4.42-4.33 5.21-4.7l.12-.06c1.76-.83 3.94-1.86 7.97 2.44l.5.53c2.16 2.3 3.87 4.11 4.46 6.36.56 2.16.06 4.26-1.45 6.07l-.75.85c.82.25 1.23.71 1.21 1.35-.06.39-.16.67-.31.86h4.54c.49.12.75.44.79.95v4.37h-.1c-4.17.05-7.76.07-10.76.07Zm-11.36-.33c.94.03 8.36.22 22.02.05v-4.16c-.03-.41-.23-.66-.61-.74h-4.79l-.05-.2c.21-.13.35-.43.42-.89.02-.57-.38-.96-1.21-1.18l-.17-.04.98-1.1c1.46-1.76 1.95-3.79 1.4-5.88-.57-2.19-2.26-3.99-4.41-6.27l-.5-.54c-3.92-4.18-6.03-3.19-7.72-2.39l-.12.06c-.75.35-2.75 2.16-5.12 4.63l-.12 18.66Z" class="cls-1"/><path d="M13.74 12.84c1.11-.38 2.12-.44 3.05-.19.62-.57.55-1.42-.16-1.69 0 0-1-.56-2.84 0-.72.22-.73 1.17-.05 1.87Z" class="cls-3"/><path d="m13.71 12.96-.05-.05c-.42-.43-.61-.98-.5-1.43.08-.3.29-.52.59-.62 1.86-.57 2.88-.02 2.92 0 .33.13.56.39.62.72.07.39-.09.82-.44 1.14l-.04.04-.06-.02c-.9-.25-1.91-.19-2.99.19l-.06.02Zm1.65-2.14c-.41 0-.92.06-1.53.25-.24.07-.39.23-.45.47-.09.36.07.81.4 1.18 1.07-.36 2.08-.42 2.99-.18.27-.27.39-.6.34-.91a.76.76 0 0 0-.5-.57c-.02 0-.44-.24-1.24-.24Z" class="cls-1"/><path d="M14.7 10.77c.52-.12.88-.13 1.07-.03 0 0-.09-2.63-.28-7.89 0-.31-.09-.46-.26-.46s-.26.15-.26.44c0 0-.09 2.65-.28 7.94Z" class="cls-3"/><path d="M15.97 10.83h-.25c-.12-.06-.38-.1-1 .04l-.13.03.29-8.07c0-.44.19-.54.36-.54s.36.1.37.57l.37 7.98Zm-.74-8.34s-.15 0-.15.34l-.28 7.8c.37-.08.65-.09.85-.05l-.27-7.73q0-.36-.15-.36" class="cls-1"/><path d="M7.53 36.82c1.26-.02 1.92 0 1.92 0 .04-1.5 0-2.43-.14-2.67-.33-.91-.99-1.09-1.83-.62 0 2.21.03 3.32.05 3.29m8.91.07c-.88.01-1.69-.02-2.46-.01 0-1.16.02-1.93.02-1.93.04-1 .45-1.58 1.24-1.74.8.19 1.21.77 1.24 1.74 0 1.03-.03 1.94-.03 1.94Zm7.06-.01c-1.66.04-2.47.01-2.47.01 0-1.1-.03-1.95-.03-1.95.05-.87.37-1.44.95-1.69.89-.06 1.4.44 1.52 1.5.01 1.16.03 2.13.03 2.13" style="fill:#fff;fill-rule:evenodd"/><path d="m7.49 29.63-.02-.21c.73-.07 7.72-.13 15.9-.06v.21c-8.17-.07-15.15-.01-15.88.06m-.019 2.195 16.698-.227.003.21-16.698.227z" class="cls-1"/><path d="M7.49 36.77H1.54c0-15.2.01-22.8.01-22.8-.55 0-.61-.75-.28-.99C-.35 11.24.5 9.12 3.92 6.83c-.25-.29-.21-.51.11-.63h.3c.55-.04.84.06.84.06q.24.27 0 .6c1.18.77 2.1 1.6 2.75 2.48.59.74.8 1.49.62 2.25-.07.47-.3.9-.71 1.3.27.24.19.95-.36.91.01 15.32.02 22.98.02 22.98Z" class="cls-3"/><path d="M7.59 36.88H1.48v-.11h-.05v-22.7a.57.57 0 0 1-.44-.4.75.75 0 0 1 .12-.7c-.57-.65-.82-1.35-.73-2.1.15-1.28 1.29-2.65 3.38-4.08-.1-.15-.13-.28-.1-.4.03-.13.14-.24.32-.31h.34c.56-.04.87.06.88.06h.03l.02.03c.12.14.22.35.06.64C6.46 7.57 7.37 8.39 8 9.26c.61.76.82 1.55.64 2.33-.06.45-.29.89-.67 1.28.12.18.15.45.05.67-.08.2-.25.32-.45.33l.02 22.98Zm-5.95-.21h5.74l-.02-22.99h.11c.21.03.31-.1.36-.2.08-.18.04-.41-.07-.52l-.08-.08.08-.08c.39-.38.61-.79.68-1.24.17-.73-.03-1.45-.6-2.17-.64-.87-1.56-1.7-2.73-2.46l-.09-.06.06-.09c.12-.18.13-.32.03-.45-.08-.02-.35-.08-.78-.05h-.29c-.1.05-.16.1-.18.16-.02.07.03.18.13.3l.07.09-.1.06C1.86 8.3.72 9.64.58 10.88q-.12 1.065.75 2.01l.08.09-.09.07c-.14.1-.2.34-.13.54.03.1.12.26.35.26h.1l-.01 22.8Z" class="cls-1"/><path d="M4.31 6.2q.285-.075.42 0s-.04-1.02-.11-3.07c-.05-.16-.12-.16-.19 0 0 0-.05 1.08-.11 3.07Z" class="cls-3"/><path d="m4.84 6.4-.17-.11s-.12-.05-.33.01l-.14.04V6.2c.07-1.99.12-3.07.12-3.07v-.04c.03-.05.1-.18.22-.18s.16.14.18.19v.03l.13 3.27Zm-.32-3.06c-.02.39-.05 1.32-.1 2.73.07-.01.14-.02.2-.01z" class="cls-1"/><path d="M3.32 16.85v5.16h2.31l-.09-5.49c-.2-1.2-.08-1.86-.97-1.98-1.03.1-1.11.87-1.24 2.32Z" style="fill-rule:evenodd;fill:#e6e6e6"/><path d="M3.78 13.3c-.95 0-1.78-.07-2.53-.2l.04-.21c1.65.29 3.67.26 6.54-.1l.03.21c-1.59.2-2.92.3-4.07.3Zm.38.91c-.8 0-1.68-.04-2.62-.12l.02-.21c2.45.2 4.43.14 5.89-.18l.05.21c-.92.2-2.04.3-3.34.3" class="cls-1"/></svg>