<svg xmlns="http://www.w3.org/2000/svg" viewBox="0 0 30 40"><path d="M24.34 33.46c1.7.05 3.74.51 4.45 2.19.52 1.23.04 2.72-1.09 3.42-.8.5-1.73.48-2.55.04-1.7-.89-2.2-2.25-2.4-3.97-2.3.23-3.69.96-5.48 1.28-1.26.23-2.73.32-4.87-.4-.78.64-2.05.23-2.3-.76-.7-.21-2.44-.23-3.08-.04a.665.665 0 0 1-.79-.36c-.12-.28-.03-.51.15-.68a.9.9 0 0 1-.29-.21.82.82 0 0 1-.17-.48c0-.16.04-.32.13-.45.18-.26.5-.37.87-.4a.79.79 0 0 1-.23-.68c.1-.62.84-.94 1.33-.5.9.79 1.88 1.53 2.93 2.12.75-.31 1.65.09 1.92.87 3.52 1.2 6.35-.61 9.84-.94.16-1.97 0-3.54-.58-5.44-.42.2-.9.26-1.14-.1v-.02l-1.09-1.97c-.3.2-.6.38-.92.53l1.18 1.94.02.05c.15.41-.18.74-.47.96-.14.11-.34.23-.51.29-.45.16-1.36.21-1.56-.33l-.02-.05-.34-2.24c-.35.08-.7.15-1.05.18l.45 2.23v.05c0 .58-.87.85-1.35.85s-1.35-.27-1.35-.85v-.05l.45-2.23q-.525-.06-1.05-.18l-.34 2.24-.02.05c-.2.54-1.11.5-1.56.33-.17-.06-.36-.19-.51-.29-.3-.22-.62-.56-.47-.96l.02-.05 1.18-1.94c-.32-.16-.63-.34-.92-.53l-1.09 1.99-.03.04c-.37.44-1.21.09-1.58-.22-.36-.31-.86-1.07-.49-1.51l.03-.04 1.82-1.45-.69-.82-1.74 1.54-.04.02c-.5.29-1.17-.33-1.41-.75-.24-.41-.44-1.3.06-1.59l.04-.02 2.15-.72c-.14-.33-.26-.66-.36-1l-2.11.83h-.05c-.57.11-.98-.7-1.07-1.17-.08-.47.03-1.38.6-1.48h.05l2.32.05v-1.07l-2.32.06H4.8c-.57-.11-.68-1.02-.6-1.48.08-.47.5-1.28 1.07-1.18h.05l2.11.84c.1-.34.22-.67.36-1l-2.15-.72-.04-.02c-.5-.29-.3-1.18-.06-1.59s.91-1.03 1.41-.75l.04.02 1.74 1.54.69-.82-1.8-1.43-.02-.02c-.36-.36-.12-.88.15-1.2.12-.15.26-.28.42-.4-.84-.97-1.6-2.07-2.16-3.22-.52.31-1.01.7-1.43 1.15.19.75-.29 1.54-1.02 1.74-.05.48-.03 1 .18 1.42.17.33.51.6.51.99 0 .22-.11.4-.27.55-.15.14-.34.22-.55.22-.27 0-.52-.16-.73-.39-.14.17-.33.28-.62.27a.81.81 0 0 1-.63-.35c-.02.02-.05.03-.08.05-.1.06-.22.08-.33.08-.15 0-.29-.06-.4-.16-.43-.38-.15-1.1.04-1.54.12-.29.28-.62.45-.9.22-.36.48-.71.75-1.04-.44-.97.39-2.17 1.48-2.02a8.2 8.2 0 0 1 2.05-1.6c-.31-1.08-.37-2.26.09-3.3C5.91 1.5 6.68.83 7.65.61c1.28-.29 2.52.27 3.29 1.29 1.69 2.23-.94 4.19-2.97 4.56-.16.03-.33.07-.49.12.78 1.55 2.36 3.68 3.87 4.69l-.87-1.42-.02-.05c-.15-.41.18-.74.47-.96.14-.11.34-.23.51-.29.45-.16 1.36-.21 1.56.33l.02.05.34 2.24c.35-.08.7-.15 1.05-.18l-.45-2.23v-.05c0-.58.87-.85 1.35-.85s1.35.27 1.35.85v.05l-.45 2.23q.525.06 1.05.18l.34-2.24.02-.05c.2-.54 1.11-.49 1.56-.33.17.06.36.19.51.29.3.22.62.56.47.96l-.02.05-1.18 1.94c.32.16.63.34.92.53l1.09-1.99.03-.04c.37-.44 1.21-.09 1.58.22.36.31.86 1.07.49 1.52l-.03.04-1.82 1.45.69.82 1.74-1.54.04-.02c.5-.29 1.17.33 1.41.75.24.41.44 1.3-.06 1.59l-.04.02-2.15.72c.14.33.26.66.36 1l2.11-.83h.05c.57-.11.98.7 1.07 1.17.08.47-.03 1.38-.6 1.48h-.05l-2.32-.05v1.07l2.32-.06h.05c.57.11.68 1.02.6 1.48-.08.47-.5 1.28-1.07 1.18h-.05l-2.11-.84c-.1.34-.22.67-.36 1l2.15.72.04.02c.5.29.3 1.18.06 1.59s-.91 1.03-1.41.75l-.04-.02-1.19-1.05c1.46 2.79 2.21 5.91 1.88 9Zm-5.8-17.84c-.06.35-.27.64-.55.8l.07.07c.18-.31.48-.5.8-.55-.05-.06-.1-.11-.16-.16zm-1.75-1.02q-.225-.075-.45-.12c.11.32.09.68-.07.98.03 0 .06.02.09.02 0-.36.17-.68.43-.88m-2.47-.09c-.14.03-.28.07-.42.11.26.22.4.55.4.87.03 0 .06-.02.09-.02a1.28 1.28 0 0 1-.08-.96Zm-2.19 1.12c-.11.1-.22.2-.32.31.35.06.64.27.8.55l.07-.07c-.31-.18-.5-.48-.55-.8Zm-1.34 2.06c-.05.15-.09.29-.12.45.32-.11.68-.09.98.07 0-.03.02-.06.02-.09-.36 0-.68-.17-.88-.43m-.12 2.47q.045.225.12.45c.22-.27.55-.42.88-.42 0-.03-.02-.06-.02-.09-.29.16-.66.18-.98.07Zm1.14 2.19c.1.11.21.21.32.31.06-.34.27-.63.55-.79l-.07-.07c-.18.31-.48.5-.8.55m2.09 1.32c.14.04.28.08.42.11-.1-.31-.08-.67.08-.96-.03 0-.06-.02-.09-.02 0 .35-.16.66-.41.87m2.44.14q.225-.045.45-.12c-.27-.22-.42-.55-.42-.88-.03 0-.06.02-.09.02.16.29.18.66.07.98Zm2.2-1.14c.06-.05.11-.1.16-.16.05-.05.1-.11.15-.16a1.14 1.14 0 0 1-.8-.55l-.07.07c.31.18.5.48.55.8Zm1.33-2.08c.04-.14.08-.28.11-.43-.31.1-.67.08-.96-.08 0 .03-.02.06-.02.09.35 0 .67.17.87.41Zm.11-2.46c-.03-.14-.07-.28-.11-.43-.22.26-.55.41-.87.41 0 .03.02.06.02.09.29-.15.65-.18.96-.08Zm-3.88.08c.22.19.36.47.39.76l.46-.25c.51-.28.06-1.06-.43-.76l-.41.25Zm-.33-.19v-.48c0-.25-.18-.45-.43-.45s-.44.2-.44.45v.48c.13-.05.28-.07.44-.07s.31.03.43.07m-1.2.19-.41-.24c-.51-.3-.95.47-.44.75l.46.25c.04-.29.17-.57.4-.76Zm-.39 1.11-.46.25c-.5.28-.06 1.05.44.75l.41-.25a1.13 1.13 0 0 1-.39-.76Zm.73.95v.48c-.02.58.87.58.87 0v-.48c-.13.05-.28.07-.44.07s-.3-.02-.43-.07m1.19-.19.41.25c.49.3.94-.48.43-.76l-.46-.25c-.04.29-.17.56-.39.75ZM6.93 5.07c1.03-.3 2.36-.51 2.86-1.41.57-1.04-2.08-2.46-2.85-.47-.23.58-.16 1.27 0 1.89Zm17.44 30c.14 1.09.44 2.04 1.53 2.61 1.52.8 2.95-2.49-1.53-2.61" style="fill:#fff;fill-rule:evenodd"/><path d="M6.48 3.01c-.3.76-.21 1.7.13 2.69 1.19-.47 2.9-.51 3.61-1.8.92-1.66-2.72-3.5-3.74-.89m12.57 12.42c-3.28-3.28-8.97-.97-8.97 3.71s5.69 7 8.97 3.71c2.03-2.03 2.03-5.4 0-7.43Zm-3.41-4q1.065.045 2.04.36l.41-2.74c.07-.18.75-.11.93-.04s.75.44.69.63l-1.45 2.37c.65.27 1.25.62 1.79 1.04l1.33-2.44c.13-.15.74.15.89.28s.56.67.43.83l-2.17 1.73 1.33 1.59 2.08-1.84c.17-.1.64.4.74.57s.29.82.12.92l-2.63.88c.32.61.56 1.26.71 1.95l2.58-1.01c.19-.03.47.59.5.79.03.19 0 .87-.2.91l-2.78-.07v2.07l2.78-.07c.19.03.23.72.2.91s-.31.82-.5.78l-2.58-1.01c-.15.69-.39 1.34-.71 1.95l2.63.88c.17.1-.02.75-.12.92s-.57.66-.74.57l-2.08-1.84c-.11.17-.23.34-.35.5 1.49 2.43 2.89 6.33 2.26 10.17 7.28-.18 4.78 6.41 1.6 4.74-1.71-.9-2.05-2.33-2.19-4.07-3.85.29-6.85 2.34-10.92.85-.52.73-1.71.35-1.72-.54l-.22-.1c-.81-.29-2.75-.28-3.45-.06-.29.09-.69-.65 2.02-.46.13 0 .25.02.38.03-1.92-.79-2.86-.27-2.87-.84-.02-.7 1.93-.15 2.23-.06-.44-.33-.9-.7-1.37-1.11-.31-.27.11-.75.42-.48 1.15 1.01 2.23 1.76 3.25 2.31.58-.42 1.43-.04 1.5.68 3.94 1.45 6.97-.58 10.7-.85.29-2.36 0-4.45-.76-6.68-.15.18-.86.61-1 .4l-1.33-2.44c-.54.42-1.15.77-1.79 1.04l1.45 2.37c.07.18-.5.56-.69.63-.18.07-.86.14-.93-.04l-.41-2.74q-.975.315-2.04.36l.55 2.72c0 .2-.66.36-.86.36s-.86-.16-.86-.36l.55-2.72q-1.065-.045-2.04-.36l-.41 2.74c-.07.18-.75.11-.93.04s-.75-.44-.69-.63l1.45-2.37c-.65-.27-1.25-.62-1.79-1.04l-1.33 2.44c-.13.15-.74-.15-.89-.28s-.56-.67-.43-.82l2.17-1.73-1.33-1.59-2.08 1.84c-.17.1-.64-.4-.74-.57s-.29-.82-.12-.92l2.63-.88c-.32-.61-.56-1.26-.71-1.95l-2.58 1.01c-.19.03-.47-.59-.5-.78s0-.87.2-.91l2.78.07v-2.07l-2.78.07c-.19-.03-.23-.72-.2-.91s.31-.82.5-.79l2.58 1.01c.15-.69.39-1.34.71-1.95l-2.63-.88c-.17-.1.02-.75.12-.92s.57-.67.74-.57l2.08 1.84 1.33-1.59-2.17-1.73c-.17-.17.33-.91 1.01-1.11-1.07-1.14-2.09-2.57-2.72-4.04-.77.39-1.56.96-2.22 1.73.36.63-.15 1.46-.89 1.4-.44 2.5 1.04 2.57.52 3.05-.5.46-1.06-.93-1.13-1.16-.05.31.04 1.15-.41 1.13-.18 0-.31-.16-.31-.33.03-.75.16-1.44.36-2.07-1.08 1.47-.79 2.19-1.09 2.18-.5-.03.31-1.57.48-1.85.28-.45.62-.88.94-1.26-.64-.7.12-1.87 1.04-1.51.73-.85 1.61-1.48 2.47-1.9C4.46 1.44 8.63-.37 10.58 2.2c1.44 1.89-1.02 3.48-2.67 3.78-.33.06-.7.16-1.08.31.91 2.13 3.26 5.12 5.14 5.85.02 0 .04.02.06.03.12-.06.25-.11.37-.16l-1.45-2.37c-.07-.18.5-.56.69-.63.18-.07.86-.14.93.04l.41 2.74q.975-.315 2.04-.36l-.55-2.72c0-.2.66-.36.86-.36s.86.16.86.36zm5.45 12.88c.27.47.54 1.02.79 1.62l-1.34-1.07.55-.56ZM9.65 11.27l1.68 1.27c-.25.15-.49.32-.73.5l-.96-1.76Zm5.68 5.33c.52 0 .93.42.93.94 1.06-.64 2.01 1 .93 1.6 1.09.6.13 2.25-.93 1.6 0 1.24-1.87 1.23-1.85 0-1.06.63-2.01-1.01-.93-1.6-1.08-.6-.14-2.23.93-1.6 0-.52.41-.94.93-.94Zm0-.77c1.83 0 3.31 1.48 3.31 3.31s-1.48 3.31-3.31 3.31-3.31-1.48-3.31-3.31 1.48-3.31 3.31-3.31m-2.43 7.53c-.69-.4-.07-1.46.61-1.06.69.4.07 1.46-.61 1.06m-1.78-6.65c.4-.69 1.46-.07 1.06.61-.4.69-1.46.07-1.06-.61m4.21 1.73c.91 0 .91 1.42 0 1.42s-.91-1.42 0-1.42m0 5.57c-.79 0-.79-1.23 0-1.23s.79 1.23 0 1.23m4.22-7.3c.4.69-.67 1.3-1.06.61-.4-.69.67-1.3 1.06-.61m-8.43 4.87c-.4-.69.67-1.3 1.06-.61.4.69-.67 1.3-1.06.61m6.65-6.65c.69.4.07 1.46-.61 1.06-.69-.4-.07-1.46.61-1.06m-4.87 0c.69-.4 1.3.67.61 1.06-.69.4-1.3-.67-.61-1.06m-2.43 4.22c0-.79 1.23-.79 1.23 0s-1.23.79-1.23 0m4.86-4.87c.79 0 .79 1.23 0 1.23s-.79-1.23 0-1.23m2.44 9.08c-.69.4-1.3-.67-.61-1.06.69-.4 1.3.67.61 1.06m1.78-1.78c-.4.69-1.46.07-1.06-.61.4-.69 1.46-.07 1.06.61m.65-2.43c0 .79-1.23.79-1.23 0s1.23-.79 1.23 0m3.63 15.43c.13 1.54.44 2.79 1.85 3.54 2.27 1.19 4.22-3.68-1.85-3.54" style="fill-rule:evenodd;fill:#bf497e"/></svg>