<svg xmlns="http://www.w3.org/2000/svg" id="Layer_1" viewBox="0 0 30 40"><defs><linearGradient id="linear-gradient" x1="15.11" x2="15.11" y1="11.67" y2="33.69" gradientUnits="userSpaceOnUse"><stop offset="0" stop-color="#ef7d2e"/><stop offset=".99" stop-color="#cd1920"/></linearGradient><linearGradient id="linear-gradient-2" x1="18.47" x2="19.16" y1="6.91" y2="21.83" gradientUnits="userSpaceOnUse"><stop offset="0" stop-color="#ef7d2e"/><stop offset=".15" stop-color="#e6632a"/><stop offset=".38" stop-color="#db4325"/><stop offset=".61" stop-color="#d32b22"/><stop offset=".81" stop-color="#ce1d20"/><stop offset=".99" stop-color="#cd1920"/></linearGradient><clipPath id="clippath"><path d="M22.13 21.38c-1.54-1-3.72-2.73-4.93-4.81-1.86-3.22-1.49-4.67.75-7.58 1.16-1.51 1.31-3.25.33-4.76 2.18 2.05 2.01 3.84 1.38 5.22-.48 1.04-1.24 1.75-1.29 2.67-.03.68.67.96 1.17.84.58-.13.84-1.25.61-2.06 1.47 2.03.35 2.51-.31 4.36-.94 2.63 1.29 4.72 2.28 6.12Z" class="cls-63"/></clipPath><clipPath id="clippath-1"><path d="M13.93 11.49c3.54-4.47-2.27-6.86 5.12-10.28-3.84 4.03 1.49 6.94-5.12 10.28" class="cls-63"/></clipPath><style>.cls-31{fill:#cd1920}.cls-63{fill:none;clip-rule:evenodd}</style></defs><path d="M15.47 39.37h-.38c-3.84-.12-7.34-2-9.34-5.02-2.31-3.49-1.83-7.5 1.22-10.23.85-.76 1.72-1.66 1.75-2.62.02-.52-.21-1.01-.7-1.51a.2.2 0 0 1-.02-.26c.06-.08.17-.11.26-.06.89.45 1.49 1.16 1.7 2.01.21.86 0 1.8-.57 2.6l-.21.28c-.43.58-.83 1.12-.81 1.65.02.55.43.8.67.9.57.24 1.28.12 1.71-.27.48-.45.57-1.22.26-2.16-2.03-6-.76-10.02 4.24-13.44.07-.05.16-.05.23 0s.1.14.08.22c-.94 3.45.95 5.79 3.32 8.28.21.22.42.43.63.65 1.07 1.1 2.08 2.13 2.8 3.43.86 1.54.53 2.47.21 3.38-.14.4-.29.81-.33 1.28-.07.79.4 1.13.82 1.18.43.05.92-.18 1.01-.73.18-1.08.01-1.8-.68-2.97a.2.2 0 0 1 .05-.26c.08-.06.19-.06.27 0 2.81 2.51 3.04 6.22.6 9.46-2.05 2.71-5.23 4.24-8.77 4.24ZM9.22 24.15" style="fill:url(#linear-gradient)"/><path d="M9.22 24.15c1.05-1.46.77-3.39-1.05-4.31 1.67 1.71.23 3.26-1.06 4.42-3.24 2.9-3.23 6.89-1.19 9.97 4 6.03 13.59 6.83 18.16.78 2.14-2.83 2.38-6.54-.57-9.18.74 1.24.88 2.01.71 3.1-.22 1.34-2.38 1.21-2.23-.51.14-1.56 1.34-2.4.15-4.54-.85-1.52-2.15-2.72-3.39-4.03-2.26-2.36-4.36-4.84-3.37-8.47-5.44 3.72-5.93 7.98-4.16 13.21 1.14 3.38-2.98 3.49-3.03 1.6-.02-.69.55-1.35 1.06-2.06Z" style="fill-rule:evenodd;fill:none"/><path d="M15.47 39.37h-.38c-3.84-.12-7.34-2-9.34-5.02-2.31-3.49-1.83-7.5 1.22-10.23.85-.76 1.72-1.66 1.75-2.62.02-.52-.21-1.01-.7-1.51a.2.2 0 0 1-.02-.26c.06-.08.17-.11.26-.06.89.45 1.49 1.16 1.7 2.01.21.86 0 1.8-.57 2.6l-.21.28c-.43.58-.83 1.12-.81 1.65.02.55.43.8.67.9.57.24 1.28.12 1.71-.27.48-.45.57-1.22.26-2.16-2.03-6-.76-10.02 4.24-13.44.07-.05.16-.05.23 0s.1.14.08.22c-.94 3.45.95 5.79 3.32 8.28.21.22.42.43.63.65 1.07 1.1 2.08 2.13 2.8 3.43.86 1.54.53 2.47.21 3.38-.14.4-.29.81-.33 1.28-.07.79.4 1.13.82 1.18.43.05.92-.18 1.01-.73.18-1.08.01-1.8-.68-2.97a.2.2 0 0 1 .05-.26c.08-.06.19-.06.27 0 2.81 2.51 3.04 6.22.6 9.46-2.05 2.71-5.23 4.24-8.77 4.24ZM8.98 20.7c.1.26.15.53.14.81-.04 1.11-.97 2.09-1.89 2.91-2.89 2.59-3.34 6.4-1.15 9.71 1.93 2.92 5.31 4.73 9.02 4.84 3.56.12 6.78-1.37 8.81-4.07 2-2.65 2.1-5.64.36-7.93.23.66.26 1.26.13 2-.13.8-.85 1.14-1.46 1.07-.65-.08-1.27-.61-1.18-1.62.05-.52.2-.96.35-1.38.32-.89.59-1.66-.18-3.04-.69-1.24-1.68-2.26-2.73-3.34-.21-.22-.42-.43-.63-.65-2.25-2.36-4.21-4.76-3.55-8.13-4.46 3.23-5.55 7.05-3.65 12.67.5 1.49-.01 2.27-.36 2.59-.54.51-1.43.65-2.14.35-.57-.24-.9-.7-.92-1.27-.02-.67.42-1.27.89-1.9l.2-.28c.5-.7.69-1.52.5-2.26-.1-.4-.29-.76-.57-1.07Zm.24 3.45"/><g style="clip-path:url(#clippath)"><path d="M15.35 4.23h6.79v17.16h-6.79z" style="fill:url(#linear-gradient-2)"/></g><path d="M22.13 21.59s-.08-.01-.11-.03c-1.3-.85-3.68-2.6-4.99-4.88-1.92-3.33-1.49-4.87.77-7.81 1.12-1.45 1.24-3.1.32-4.52-.06-.09-.04-.2.04-.27s.2-.06.27 0c1.84 1.73 2.31 3.52 1.43 5.45-.18.4-.4.74-.61 1.07-.34.54-.64 1-.66 1.53 0 .19.06.35.2.47.18.16.48.22.73.16.14-.03.25-.16.31-.27.23-.38.29-1.04.15-1.53-.03-.1.02-.2.11-.24s.2-.02.25.06c1.17 1.61.79 2.35.25 3.38-.17.33-.37.71-.54 1.17-.75 2.1.66 3.89 1.69 5.2.21.26.4.51.56.73.06.08.05.19-.02.26q-.06.06-.15.06ZM19.01 5.32c.34 1.26.04 2.59-.89 3.79-2.17 2.82-2.56 4.21-.74 7.36.96 1.67 2.53 3.05 3.78 3.99-1.05-1.35-2.27-3.13-1.5-5.27.17-.48.38-.88.56-1.22.42-.81.69-1.32.23-2.23-.03.36-.12.7-.28.96-.15.25-.35.41-.57.46-.38.09-.8-.01-1.08-.25a.93.93 0 0 1-.34-.8c.03-.64.37-1.17.73-1.73.2-.32.41-.65.58-1.02.64-1.41.49-2.74-.48-4.04"/><g style="clip-path:url(#clippath-1)"><path d="M11.66 1.2h8.88v10.28h-8.88z" class="cls-31"/><circle cx="16.74" cy="11.59" r=".84" class="cls-31"/><circle cx="16.74" cy="11.59" r=".84" style="fill:#cd1a20"/><circle cx="16.74" cy="11.59" r=".83" style="fill:#ce1b20"/><circle cx="16.74" cy="11.59" r=".82" style="fill:#ce1c20"/><circle cx="16.74" cy="11.59" r=".82" style="fill:#ce1d21"/><circle cx="16.74" cy="11.59" r=".81" style="fill:#cf1e21"/><circle cx="16.74" cy="11.59" r=".8" style="fill:#cf1f21"/><circle cx="16.74" cy="11.59" r=".8" style="fill:#cf2021"/><circle cx="16.74" cy="11.59" r=".79" style="fill:#d02121"/><circle cx="16.74" cy="11.59" r=".78" style="fill:#d02221"/><circle cx="16.74" cy="11.59" r=".78" style="fill:#d02321"/><circle cx="16.74" cy="11.59" r=".77" style="fill:#d12422"/><circle cx="16.74" cy="11.59" r=".76" style="fill:#d12522"/><circle cx="16.74" cy="11.59" r=".76" style="fill:#d12622"/><circle cx="16.74" cy="11.59" r=".75" style="fill:#d22722"/><circle cx="16.74" cy="11.59" r=".74" style="fill:#d22822"/><circle cx="16.74" cy="11.59" r=".73" style="fill:#d32922"/><circle cx="16.74" cy="11.59" r=".73" style="fill:#d32a22"/><circle cx="16.74" cy="11.59" r=".72" style="fill:#d32b23"/><circle cx="16.74" cy="11.59" r=".71" style="fill:#d42c23"/><circle cx="16.74" cy="11.59" r=".71" style="fill:#d42d23"/><circle cx="16.74" cy="11.59" r=".7" style="fill:#d42e23"/><circle cx="16.74" cy="11.59" r=".69" style="fill:#d52f23"/><circle cx="16.74" cy="11.59" r=".69" style="fill:#d53023"/><circle cx="16.74" cy="11.59" r=".68" style="fill:#d53123"/><circle cx="16.74" cy="11.59" r=".67" style="fill:#d63223"/><circle cx="16.74" cy="11.59" r=".67" style="fill:#d63324"/><circle cx="16.74" cy="11.59" r=".66" style="fill:#d63424"/><circle cx="16.74" cy="11.59" r=".65" style="fill:#d73524"/><circle cx="16.74" cy="11.59" r=".65" style="fill:#d73624"/><circle cx="16.74" cy="11.59" r=".64" style="fill:#d73724"/><circle cx="16.74" cy="11.59" r=".63" style="fill:#d83824"/><circle cx="16.74" cy="11.59" r=".62" style="fill:#d83924"/><circle cx="16.74" cy="11.59" r=".62" style="fill:#d83a25"/><circle cx="16.74" cy="11.59" r=".61" style="fill:#d93b25"/><circle cx="16.74" cy="11.59" r=".6" style="fill:#d93c25"/><circle cx="16.74" cy="11.59" r=".6" style="fill:#d93d25"/><circle cx="16.74" cy="11.59" r=".59" style="fill:#da3e25"/><circle cx="16.74" cy="11.59" r=".58" style="fill:#da3f25"/><circle cx="16.74" cy="11.59" r=".58" style="fill:#da4025"/><circle cx="16.74" cy="11.59" r=".57" style="fill:#db4126"/><circle cx="16.74" cy="11.59" r=".56" style="fill:#db4226"/><circle cx="16.74" cy="11.59" r=".56" style="fill:#db4326"/><circle cx="16.74" cy="11.59" r=".55" style="fill:#dc4426"/><circle cx="16.74" cy="11.59" r=".54" style="fill:#dc4526"/><circle cx="16.74" cy="11.59" r=".54" style="fill:#dc4626"/><circle cx="16.74" cy="11.59" r=".53" style="fill:#dd4726"/><circle cx="16.74" cy="11.59" r=".52" style="fill:#dd4827"/><circle cx="16.74" cy="11.59" r=".51" style="fill:#de4927"/><circle cx="16.74" cy="11.59" r=".51" style="fill:#de4a27"/><circle cx="16.74" cy="11.59" r=".5" style="fill:#de4b27"/><circle cx="16.74" cy="11.59" r=".49" style="fill:#df4c27"/><circle cx="16.74" cy="11.59" r=".49" style="fill:#df4d27"/><circle cx="16.74" cy="11.59" r=".48" style="fill:#df4e27"/><circle cx="16.74" cy="11.59" r=".47" style="fill:#e04f28"/><circle cx="16.74" cy="11.59" r=".47" style="fill:#e05028"/><circle cx="16.74" cy="11.59" r=".46" style="fill:#e05128"/><circle cx="16.74" cy="11.59" r=".45" style="fill:#e15228"/><circle cx="16.74" cy="11.59" r=".45" style="fill:#e15328"/><circle cx="16.74" cy="11.59" r=".44" style="fill:#e15428"/><circle cx="16.74" cy="11.59" r=".43" style="fill:#e25528"/><circle cx="16.74" cy="11.59" r=".43" style="fill:#e25729"/><circle cx="16.74" cy="11.59" r=".42" style="fill:#e25829"/><circle cx="16.74" cy="11.59" r=".41" style="fill:#e35929"/><circle cx="16.74" cy="11.59" r=".41" style="fill:#e35a29"/><circle cx="16.74" cy="11.59" r=".4" style="fill:#e35b29"/><circle cx="16.74" cy="11.59" r=".39" style="fill:#e45c29"/><circle cx="16.74" cy="11.59" r=".38" style="fill:#e45d29"/><circle cx="16.74" cy="11.59" r=".38" style="fill:#e45e29"/><circle cx="16.74" cy="11.59" r=".37" style="fill:#e55f2a"/><circle cx="16.74" cy="11.59" r=".36" style="fill:#e5602a"/><circle cx="16.74" cy="11.59" r=".36" style="fill:#e5612a"/><circle cx="16.74" cy="11.59" r=".35" style="fill:#e6622a"/><circle cx="16.74" cy="11.59" r=".34" style="fill:#e6632a"/><circle cx="16.74" cy="11.59" r=".34" style="fill:#e6642a"/><circle cx="16.74" cy="11.59" r=".33" style="fill:#e7652a"/><circle cx="16.74" cy="11.59" r=".32" style="fill:#e7662b"/><circle cx="16.74" cy="11.59" r=".32" style="fill:#e8672b"/><circle cx="16.74" cy="11.59" r=".31" style="fill:#e8682b"/><circle cx="16.74" cy="11.59" r=".3" style="fill:#e8692b"/><circle cx="16.74" cy="11.59" r=".3" style="fill:#e96a2b"/><circle cx="16.74" cy="11.59" r=".29" style="fill:#e96b2b"/><circle cx="16.74" cy="11.59" r=".28" style="fill:#e96c2b"/><circle cx="16.74" cy="11.59" r=".27" style="fill:#ea6d2c"/><circle cx="16.74" cy="11.59" r=".27" style="fill:#ea6e2c"/><circle cx="16.74" cy="11.59" r=".26" style="fill:#ea6f2c"/><circle cx="16.74" cy="11.59" r=".25" style="fill:#eb702c"/><circle cx="16.74" cy="11.59" r=".25" style="fill:#eb712c"/><circle cx="16.74" cy="11.59" r=".24" style="fill:#eb722c"/><circle cx="16.74" cy="11.59" r=".23" style="fill:#ec732c"/><circle cx="16.74" cy="11.59" r=".23" style="fill:#ec742d"/><circle cx="16.74" cy="11.59" r=".22" style="fill:#ec752d"/><circle cx="16.74" cy="11.59" r=".21" style="fill:#ed762d"/><circle cx="16.74" cy="11.59" r=".21" style="fill:#ed772d"/><circle cx="16.74" cy="11.59" r=".2" style="fill:#ed782d"/><circle cx="16.74" cy="11.59" r=".19" style="fill:#ee792d"/><circle cx="16.74" cy="11.59" r=".19" style="fill:#ee7a2d"/><circle cx="16.74" cy="11.59" r=".18" style="fill:#ee7b2e"/><circle cx="16.74" cy="11.59" r=".17" style="fill:#ef7c2e"/><circle cx="16.74" cy="11.59" r=".16" style="fill:#ef7d2e"/><circle cx="16.74" cy="11.59" r=".16" style="fill:#ef7e2e"/><circle cx="16.74" cy="11.59" r=".15" style="fill:#f07f2e"/><circle cx="16.74" cy="11.59" r=".14" style="fill:#f0802e"/><circle cx="16.74" cy="11.59" r=".14" style="fill:#f0812e"/><circle cx="16.74" cy="11.59" r=".13" style="fill:#f1822e"/><circle cx="16.74" cy="11.59" r=".12" style="fill:#f1832f"/><circle cx="16.74" cy="11.59" r=".12" style="fill:#f1842f"/><circle cx="16.74" cy="11.59" r=".11" style="fill:#f2852f"/><circle cx="16.74" cy="11.59" r=".1" style="fill:#f2862f"/><circle cx="16.74" cy="11.59" r=".1" style="fill:#f3872f"/><circle cx="16.74" cy="11.59" r=".09" style="fill:#f3882f"/><circle cx="16.74" cy="11.59" r=".08" style="fill:#f3892f"/><circle cx="16.74" cy="11.59" r=".08" style="fill:#f48a30"/><circle cx="16.74" cy="11.59" r=".07" style="fill:#f48b30"/><circle cx="16.74" cy="11.59" r=".06" style="fill:#f48c30"/><circle cx="16.74" cy="11.59" r=".05" style="fill:#f58d30"/><circle cx="16.74" cy="11.59" r=".05" style="fill:#f58e30"/><circle cx="16.74" cy="11.59" r=".04" style="fill:#f58f30"/><circle cx="16.74" cy="11.59" r=".03" style="fill:#f69030"/><circle cx="16.74" cy="11.59" r=".03" style="fill:#f69131"/><path d="M16.76 11.59s0 .02-.02.02-.02 0-.02-.02 0-.02.02-.02.02 0 .02.02" style="fill-rule:evenodd;fill:#f69231"/><path d="M16.75 11.59s0 .01-.01.01-.01 0-.01-.01 0-.01.01-.01.01 0 .01.01" style="fill-rule:evenodd;fill:#f79331"/><path d="m16.75 11.59-.01.01-.01-.01.01-.01z" style="fill-rule:evenodd;fill:#f79431"/></g><path d="M13.93 11.69a.21.21 0 0 1-.16-.34c1.43-1.8 1.28-3.22 1.14-4.6-.19-1.9-.38-3.69 4.05-5.75.09-.04.19-.01.25.07s.05.19-.02.26c-1.61 1.69-1.55 3.17-1.49 4.61.08 1.94.16 3.77-3.69 5.72-.03.01-.06.02-.09.02Zm4.34-9.88c-3.29 1.73-3.14 3.15-2.96 4.91.12 1.21.26 2.56-.72 4.17 2.85-1.66 2.78-3.18 2.7-4.92-.05-1.25-.11-2.63.98-4.16"/><path d="M18.6 29.62c1.67.86 2.78 2.38 2.78 4.11 0 2.68-2.66 4.85-5.94 4.85S9.5 36.41 9.5 33.73c0-.86.27-1.67.76-2.37-.23 1.33-.06 2.34.44 2.88.83.91 2.51.53 2.02-1.07-.11-.35-.25-.74-.31-1.18-.22-1.84 1.19-2.46 2.31-3.78 1.21-1.43 2.28-2.85.83-4.56 2.38 1.45 2.47 4.2 1.36 5.77-.53.75-.96 1.82-.48 2.45.61.79 1.9.65 2.35-.06.31-.5.23-1.52-.19-2.19Z" style="fill:#f93;fill-rule:evenodd"/></svg>