<svg xmlns="http://www.w3.org/2000/svg" viewBox="0 0 30 40"><path d="m15.42 35.12-.03.11-.07-.08-.07.13c-1.32 2.32-4.35 2.82-6.7 1.89-2.53-1.01-4.49-3.78-3.4-6.52.22-.56.52-1.15.8-1.37-.5.15-1.01.23-1.52.23-3 0-5.33-2.49-4.13-5.03.26-.55.66-1.01 1.15-1.38-.16-.14-.27-.31-.27-.54 0-1.09 2.52-1.15 3.23-1.15s3.23.06 3.23 1.15c0 .22-.1.39-.25.53.4.29.74.65.99 1.07.78 1.26.66 2.77-.43 3.92.78-.26.97-.3 1.84-.29l.02-.03s.05-.08.07-.12c.58-.88 1.56-1.17 2.53-1.07v-.15c0-.63.04-1.24.18-1.86.28-1.27 1.09-2.19 1.55-3.36l.08-.21c-.75-.11-1.49-.52-2.03-1.01q-.135-.12-.27-.27c-.71.66-1.93 1.11-2.8.53l-.39-.26.26-.39c.84-1.25-2.45-3.4-.37-6.19-1.15-.75-.74-3.25 1.29-3.83-.14-.11-.27-.23-.4-.36-.91-.88-.97-.72-2.2-.95.43-.28 1.11-.82 1.61-.88-.19-.55-.24-1.13.06-1.66.19-.33.48-.58.7-.88.37-.51.5-1.78.65-2.46.62 1.1.97 1.93 1.83 2.93.43.49.95 1.06 1.03 1.74.01.11.01.23 0 .33.56.03.93.16 1.44.62-1.01.21-1.55.38-2.24 1.33-.14.14-.29.28-.45.4.59.26 1.05.71 1.14 1.29.89-.11 1.74.03 2.51.61.3.23.55.49.81.75.16.16.36.37.57.47.43.21 1.02-.6 1.93-.12.14.08.27.18.37.3.51.63.28 1.42.48 2.1l.09.32-.24.18c-.05.3-.03.49-.32.73.82-.04 1.67.18 2.42.57.34.17.65.39.95.62.68.52 1.61 1.46 2.44 1.67.2.05.4.06.6.04l.61-.08-.02.17h.03c.49.08.93.27 1.32.58 2.02 1.61 1.68 5.6-.12 7.31-.11.59-.3 1.1-.55 1.54l-.4 1.24c-.06.2-.11.4-.13.61-.07.61-.03 1.28-.07 1.9-.06 1.08-.28 2.09-.61 3.1 0 .07.08.27.11.33.15.35.37.74.18 1.12-.08.15-.2.26-.35.33-1.28.55-2.34.71-3.73.57-.29-.03-.66-.28-.88-.46-.35-.27-.9-.78-.59-1.27.3-.47 1.06-.62 1.57-.74.18-.04.87-.2.97-.3.34-1.28-.35-2.58-.69-3.79l-.14-.49.13-.03s-.03-.1-.05-.16c-.09.18-.18.37-.27.55-.47.92-1.19 1.86-1.39 2.88.02.03.06.07.08.1.24.29.44.6.25.99-.3.6-1.68.84-2.28.94-.54.09-1.58.24-2.11.16-.44-.07-.95-.65-1.11-1.21Zm.27-.98c.83-.6 1.48-.28 2.32-.55.2-.22.04-2.1.03-2.45v-.04l-.12-.03v-.38c0-.52.13-.78.24-1.26.12-.52.18-1.04.3-1.56-.44.41-.9.78-1.37 1.09l-.03.02c.51.4.61 1 .52 1.63-.05.37-.42.75-.72.96-.4.28-.87.39-1.26.23.24.74.29 1.53.1 2.33Zm-.24-8.11c.66-.75 1.34-1.64 1.7-2.43-.08-.03-.15-.06-.23-.09l-.08-.03c-.35.71-1.08 1.36-1.27 2.03-.05.18-.09.35-.13.53Z" style="fill-rule:evenodd;fill:#fff"/><path d="M10.79 9.91c0-.14-.02-.28-.03-.39-.89-.36-1.3-1.36-2.2-1.53.59-.39 1.14.05 1.2.09-1.51-2.78.67-2.05.76-4.42.8 2.14 3.21 2.9 1.73 4.55.4-.16.57-.49 1.11-.35-.71.12-1.25 1.38-2.17 1.72v.37c.8.15 1.71.72 1.35 1.61 2.77-.66 3.19 1.19 4.23 1.68.73.35 1.2-.51 1.91-.13.65.34.41 1.41.61 2.11-.29.21-.04.53-.33.74-.43.18-.78.16-1.1.16l-.46-.17s-.05-.02-.07-.02c-.07 0-.17-.02-.25-.02-.32-.03-.48-.04-.8-.26-.15-.1-.3-.3-.44-.5-.22-.3-.43-.6-.76-.73-.39-.15-.77-.03-1.15.08-.29.09-.58.18-.81.1-.3-.1-.55-.23-.77-.38a6 6 0 0 1-.69-.59c-.06-.06-.15-.09-.24-.06-.13.04-.21.17-.17.3.27.95.02 1.53-.21 2.08-.15.36-.31.71-.34 1.16-.05.55.24.96.53 1.38v.02c.19.26.38.52.46.81-.58.57-1.6.97-2.26.52 1.18-1.76-2.81-3.82.09-6.72-1.68.11-1.32-3.15 1.25-3.21h.06Zm6.33 6.58-.47-.18c-.1-.01-.16-.02-.21-.02-.4-.04-.02.05-.44-.23-.23-.15-.4-.39-.57-.62-.17-.24-.35-.49-.54-.56-.23-.09-.53 0-.83.09-.36.11-.73.22-1.1.1-.36-.11-.64-.26-.91-.45l-.22-.16c.05.71-.16 1.2-.37 1.69-.14.32-.27.64-.3 1.01-.05.55.51 1.7 1.36 2.47s2 1.15 2.85.77c1.22-.55 1.48-1.66 1.21-3.28.42-.1.55-.37.54-.62Zm8.63 3.19c-1.63.22-2.7-1.56-4.27-2.37-1.26-.65-2.63-.72-3.69-.04-.47 3.97-2.24 3.25-2.67 3.64.54 2.03 1.88 1.97 2.63 2.47-.45 1.32-1.9 2.98-2.93 4.01.48-.42 1.1-.75 1.54-.4.35.28.09.92.26 1.34a.6.6 0 0 0 .2.24c1.27-.84 2.45-2.13 3.26-3.26.79-1.1 1.32-2.37 1.59-3.7.26-1.24.58-.74.34.32-.13.57-.27 1.21-.44 1.83l1.4-.31c.55-.4 1.16-.96 1.67-1.59.1-.12.19-.24.28-.37.22-.27.43-.64.65-1.1v-.04c.1-.23.16-.46.19-.68Zm-12.86 6.73c0-.58.03-1.16.16-1.76.27-1.2 1.08-2.14 1.53-3.29.07.53 1 1.48 1.88 1.78-.32.76-1.12 1.42-1.35 2.22-.23.79-.26 1.36-.35 2.06-.04.03-.07.07-.11.11-.52-.47-1.12-.83-1.77-1.13Zm9.63-2.11c-.39.98-.63 2.02-.7 3.06-.05.82 0 1.64.17 2.43-.59.32-1.17.61-1.75.77-.55.16-1.32.26-1.85.14 0-.49.1-.62.23-1.16.1-.44.23-1.33.37-1.86.69-.44 1.2-1.16 1.65-1.78.31-.44.55-.98.74-1.55zm3.71-4.53c2.84.45 2.94 5.37.83 7.17-.31 1.92-1.44 3.22-4.28 3.82-.25-.68-.51-2.76-.47-3.37.08-1.17.43-2.5.95-3.56.58-.43 1.21-1.01 1.74-1.65.63-.77 1.12-1.62 1.23-2.41m-.11 10.01c-1.19.98-1.31 1.05-3.34 1.48.38 1.33 1.07 2.61.7 4.04-.17.67-2.23.59-2.6 1.17-.15.23.85.97 1.12.99 1.32.13 2.27 0 3.49-.53.46-.2-.36-1-.2-1.48 1-3.09.37-4.2.82-5.63l.02-.05Zm-4.22.61c-.51.26-1.01.49-1.52.64-.62.18-1.24.24-1.86.1.04 1.36.26 2.71-.33 2.9-.87.28-1.56-.01-2.27.53-.3.23.31 1.24.69 1.3.59.09 3.62-.29 3.9-.84.14-.29-.44-.57-.38-.89.2-1.13.93-2.06 1.45-3.08.11-.22.22-.44.33-.65Z" style="fill:#28829e;fill-rule:evenodd"/><path d="M11.92 28.67c2.48.98 3.87 3.41 3.26 5.55-.06-.07-.12-.14-.18-.22 0-.32-.08-.69-.16-1.05-.09-.37-.17-.75-.15-1.03s0-.04 0-.06a.247.247 0 0 0-.28-.2c-.26.04-.53.06-.81.09-.18.01-.37.03-.55.05 0-.19.02-.37.03-.56.01-.27.03-.54.04-.84v-.07a.25.25 0 0 0-.29-.19c-.35.07-.75.12-1.14.18-.31.04-.62.08-.91.13v-.54c.01-.25.02-.51 0-.78 0-.03 0-.06-.01-.09l1.17-.35Zm-1.17.35 1.17-.35c-1.11-.44-2.26-.52-3.28-.3v.05l-.22.94 2.04-.55c.13-.04.26.04.3.17v.04Zm3.68 4.36c-.02-.11-.05-.22-.07-.32-.07-.3-.14-.6-.16-.88-.19.02-.38.04-.57.05-.14.01-.29.02-.43.04.42.35.81.7 1.17 1.06l.06.06ZM6.37 23.03c1.07.49 1.84 1.37 1.99 2.4-1.25.18-2.5.26-3.74.25-1.37 0-2.74-.12-4.11-.33.18-.99.93-1.84 1.96-2.31-.5-.12-.82-.29-.82-.48 0-.37 1.23-.68 2.75-.68s2.75.3 2.75.68c0 .18-.3.35-.79.47Zm2.02 2.89c-.06 1.72-1.81 3.11-3.96 3.11S.48 27.6.47 25.84c1.38.21 2.76.32 4.15.33 1.26 0 2.52-.07 3.77-.25m6.19 2.28c-.2-.24-.44-.46-.72-.64-1.29-.85-2.89-.71-3.57.32l-.06.09c.6.04 1.22.17 1.83.41 1.33.53 2.35 1.48 2.91 2.57.12-.19.2-.39.25-.6.24.34.21.62.27.73.47.82 1.55-.16 1.61-.54.26-1.77-1.5-1.13-1.26-2.17.27-1.12-.7-.62-.8-.46l-.46.24zm-2.02 3.56c0-.19.02-.37.03-.55 0-.18.02-.36.03-.55a18 18 0 0 1-.87.13c-.18.02-.35.05-.52.07.46.28.91.58 1.34.9Zm-2.28-1.42q-.69-.345-1.38-.6l1.4-.38v.52c0 .15-.01.31-.01.47Zm-2.38-.92.22-.9q-.72.24-1.29.69h.06c.33.06.67.13 1.02.22Zm6.94 5.62c-.27-.36-.61-.76-1.02-1.17-.88-.88-2.02-1.78-3.26-2.49s-2.57-1.22-3.8-1.4c-.23-.03-.45-.05-.67-.06-.21.27-.38.57-.51.89-.88 2.22.52 4.87 3.14 5.9 2.42.96 5.04.21 6.11-1.68Z" style="fill-rule:evenodd;fill:#b53f6a"/></svg>