<svg xmlns="http://www.w3.org/2000/svg" id="Layer_1" viewBox="0 0 30 40"><defs><style>.cls-2{fill-rule:evenodd;fill:#6e4642}</style></defs><path d="m15.15 36.99-.05 2.41-11.11.25-3.38-1.04v-.37c-.05-3.49.06-6.97.05-10.46 0-2.95-.01-5.9.09-8.85.06-1.8.3-3.48 1.42-4.94 1.02-1.34 2.59-2.28 4.06-3.04 1.98-1.02 1.9-.64 3.73.27 1.32.66 2.75 1.49 3.64 2.7 1.05 1.43 1.16 3.15 1.21 4.87.18 6.01.18 12.03.36 18.04 0 .06 0 .12-.02.17Zm14.82-.5-.05 3.17-11.16.34-3.41-1.98v-.29c-.05-4.63.15-9.26.14-13.89 0-4.06-.01-8.12.09-12.18.06-2.27.26-4.61 1.38-6.64C17.91 3.29 19.4 2 21 .87c2.04-1.45 2.03-.88 3.85.37 1.44.99 2.78 2.12 3.61 3.68 1.05 1.96 1.13 4.37 1.17 6.54.18 8.28.18 16.57.36 24.85 0 .06 0 .12-.01.19Z" style="fill:#fff;fill-rule:evenodd"/><path d="M18.19 34.94c-.35-.07-.58-.37-.23-.3 1.65.33 2-.44 2.48-1.29.52-.93 1.19-1.95 3.83-1.77.51.03 1.03.07 1.48 0 .18-.03.34-.14.44-.3.06-.11.1-.23.11-.35 0-.12-.03-.25-.11-.38-.52-.86-1.73-.53-2.53-.43-1.16.15-2.32.31-3.39-.3-.05-.03-.1-.06-.14-.1-.56-.5-.83-1.07-.89-1.62-.03-.32 0-.63.11-.91q.15-.42.45-.75c.39-.43.95-.73 1.56-.79.64-.07 1.22.02 1.78.1.98.14 2.46.06 2.68-1.16.03-.14.02-.29-.02-.45s-.12-.32-.23-.46c-.19-.26-.48-.45-.84-.52-.52-.09-1.08-.01-1.64.07-.83.12-1.66.24-2.71-.03-.62-.16-1.16-.59-1.52-1.13-.26-.38-.43-.83-.49-1.28-.06-.5.02-1.01.28-1.47.26-.44.68-.81 1.29-1.03.88-.32 1.83-.37 2.76-.42.56-.03 3.99-.13 2.59-1.26-.58-.46-1.41-.43-2.48-.89-1.74-.75-2.16-2.28-2.88-3.83-.42-.9-1.01-1.91-1.2-2.91-.17-.9-.01-2.36 1.18-2.46.04-.44.15-.89.48-1.17.4-.34.68-.21 1.2-.24.09-.56.64-1.13 1.27-1.15.59-.02.99.34 1.15 1.07 1.46-.68 2.1.46 1.79 1.51 1.89-.31 1.41 2.72.69 3.85-.46.95-1.78 1.89-1.39 2.85.61 1.52 3.03 2.11 2.37 4.3-.28 1.91-3.14 2.22-4.68 2.3-.77.04-1.56.08-2.17.3-.14.05-.22.11-.26.18-.03.06-.04.14-.03.23.02.14.08.29.16.42.11.16.24.29.37.32.66.17 1.31.08 1.95-.02.71-.1 1.41-.2 2.26-.05.88.16 1.59.64 2.07 1.27.26.35.45.74.56 1.16s.13.86.05 1.29c-.41 2.28-2.96 2.39-4.81 2.12-.49-.07-.99-.14-1.47-.1-.28.03-.53.16-.71.36-.08.09-.15.2-.19.31s-.05.22-.04.34c.02.22.15.47.41.72.69.36 1.61.24 2.53.12 1.38-.18 2.79-.23 3.64 1.17.19.31.27.65.26.97 0 .32-.1.63-.26.89-.26.43-.7.74-1.22.82-.56.08-1.14.05-1.71 0-1.85-.13-2.38.56-3.01 1.21-.79.82-1.22 1.41-3 1.05Z" class="cls-2"/><path d="M24.55 1.64c1.71 1.18 2.78 2.24 3.45 3.5.86 1.62 1.05 3.5 1.11 6.31.18 8.28.18 16.57.36 24.85 0 .04 0 .08-.01.12l-.04 2.74-10.53.32-3.03-1.76c-.05-4.8.15-9.08.14-13.89 0-4.08-.01-8.17.09-12.17.07-2.76.38-4.71 1.31-6.41.79-1.43 2.01-2.65 3.89-3.99 1.74-1.24 1.49-.85 3.26.37ZM28.59 36c-.17-8.17-.17-16.35-.35-24.52-.06-2.68-.23-4.46-1.01-5.91-.74-1.39-2.07-2.55-4.43-4-2.25 1.49-3.63 2.74-4.44 4.23-.84 1.52-1.11 3.33-1.18 5.91-.1 4-.09 8.07-.09 12.14 0 4.03.01 8.06-.08 12.01l2.28.34 9.29-.18Zm-16.69-.64c.15-.07.23-.22.09-.31-.24-.15-.56-.08-.8-.22-.49-.29-.7-.93-1.07-1.42-.31-.41-.54-.72-.78-.96.44-.2.81-.47 1.04-.95.85-1.79-.41-2.72-1.72-3.62 1.2-.89 2.28-2.01 1.6-4.06-.25-.73-.74-1.33-1.29-1.84.37-.41.68-.89.87-1.27 1.1-1.02 1.86-2.2 1.27-3.88-.24-.68-.94-1.32-1.65-1.42-.64-.09-1.13.63-1.69.95.11.66.8.98 1.06 1.6.19.44.35.71.3 1.18-.09.73-.79 1.76-1.06 2.06-.4-.33-1.58-1.46-1.65-2.06-.06-.47-.03-.88.16-1.32.26-.61 1.1-.8 1.2-1.46-.56-.32-1.05-1.04-1.69-.95-.72.1-1.41.73-1.65 1.42-.75 2.13.68 3.47 2.21 4.68q.24.225.51.45c-.71.58-1.41 1.26-1.72 2.14-.66 1.87.24 2.97 1.37 3.82-1.06.81-1.9 1.72-1.19 3.3.27.6.77.88 1.32 1.09-.49.3-.8.68-1.35 1.37-.4.49-.62 1.13-1.14 1.42-.26.14-.59.07-.85.22-.14.08-.15.19 0 .26.36.15.75.15 1.09-.04.61-.34 1.04-.87 1.46-1.4.72-.89.8-.84 1.77-1.21.12-.05.25-.09.38-.13.58.23.72.31 1.29 1.06.4.53.81 1.06 1.38 1.4.31.19.61.23.94.09Zm-3.6-3.61c-.18-.08-.39-.15-.64-.24-.53-.17-1.05-.35-1.22-.72-.43-.96.31-1.58 1.26-2.24 1.2.78 2.28 1.43 1.76 2.52-.16.35-.65.52-1.17.68Zm-.23-9c.49.44.93.93 1.12 1.47.14.42.15.94-.06 1.47-.25.6-.8 1.08-1.4 1.53-.48-.37-.9-.77-1.11-1.25a2 2 0 0 1-.07-1.47c.23-.65.88-1.23 1.52-1.75" class="cls-2"/><path d="M9.73 11.67c1.72.86 2.78 1.63 3.46 2.54.87 1.17 1.05 2.54 1.11 4.58.18 6.01.18 12.03.36 18.04 0 .03 0 .06-.01.09l-.04 1.99-10.54.23-2.95-.9c-.05-3.49.06-6.97.06-10.46 0-2.96-.01-5.93.09-8.83.07-2.01.38-3.42 1.31-4.65.79-1.04 2.01-1.92 3.89-2.89 1.74-.9 1.49-.61 3.27.27Zm4.04 24.94c-.17-5.93-.17-11.87-.35-17.8-.06-1.95-.23-3.23-1.01-4.29-.75-1.01-2.08-1.85-4.43-2.9-2.26 1.08-3.63 1.99-4.45 3.07-.84 1.1-1.12 2.41-1.18 4.29-.1 2.9-.09 5.86-.09 8.82 0 2.92.01 5.85-.08 8.71l2.29.24 9.31-.13Z" class="cls-2"/></svg>