<svg width="280" height="280" enable-background="new 0 0 100 100" version="1.1" viewBox="0 0 93.333 93.333" xml:space="preserve" xmlns="http://www.w3.org/2000/svg"><rect x="-6.562e-8" y=".24948" width="93.333" height="93.333" display="none" fill-opacity=".20784" opacity=".97" stroke-miterlimit="0" stroke-width="0" style="paint-order:markers fill stroke"/><circle cx="46.858" cy="46.858" r="45.41" fill="#666" stroke-miterlimit="0" stroke-width="0" style="paint-order:markers fill stroke"/><circle cx="37.884" cy="37.951" r="12.012" fill="#d9d900" stroke-width="1.0926"/><g fill="#ffffb1" fill-opacity=".27451" stroke="#d9d900" stroke-linecap="round" stroke-miterlimit="10" stroke-width="5.463"><line x1="37.884" x2="37.884" y1="12.615" y2="17.682" opacity=".93"/><line x1="19.969" x2="23.549" y1="20.036" y2="23.62" opacity=".93"/><line x1="12.548" x2="17.616" y1="37.951" y2="37.951" opacity=".93"/><line x1="19.969" x2="23.553" y1="55.866" y2="52.284" opacity=".93"/><line x1="37.884" x2="37.884" y1="63.288" y2="58.219" opacity=".93"/><line x1="55.8" x2="52.215" y1="55.866" y2="52.284" opacity=".93"/><line x1="63.221" x2="58.153" y1="37.952" y2="37.952" opacity=".93"/></g><line x1="55.8" x2="52.215" y1="20.036" y2="23.62" fill="#ff0" fill-opacity=".27451" opacity=".93" stroke="#d9d900" stroke-linecap="round" stroke-miterlimit="10" stroke-width="5.463"/><path d="m60.07 81.053c-6.0476-0.23048-11.198-3.7322-13.822-8.7331 2.3344 1.461 5.0692 2.3537 8.0193 2.4688 8.9992 0.34334 16.574-6.6749 16.917-15.673 0.11264-2.9508-0.56968-5.7442-1.8484-8.1842 4.7862 2.9984 7.885 8.3991 7.6538 14.449-0.34525 8.9996-7.9188 16.016-16.92 15.673z" fill="#fff" stroke-width=".86661"/><path transform="scale(.33333)" d="m0.084004 150.8v-149.77h299.54v299.54h-299.54zm241.05 118.46c31.234-6.4515 53.233-33.525 53.175-65.44-0.0501-27.416-17.133-52.54-42.2-62.065-2.9776-1.1314-5.4138-1.7704-5.4138-1.4199s1.3652 2.3728 3.0338 4.494c15.556 19.776 18.359 47.496 7.0691 69.914-10.24 20.333-30.127 34.027-53.013 36.503-5.9302 0.64167-19.06-0.55078-23.089-2.097-3.6058-1.3836-1.5261 1.6763 4.3452 6.3935 16.02 12.871 36.245 17.817 56.093 13.717zm-141-68.388c4.338-1.9765 5.7918-6.0124 5.7918-16.078 0-13.207-2.2348-17.482-9.1747-17.552-7.9906-0.0802-9.8771 3.295-9.8771 17.672 0 11.11 1.1333 14.343 5.67 16.174 3.1551 1.2732 4.4012 1.2379 7.59-0.21498zm-52.698-28.584c11.249-10.155 13.666-14.655 10.775-20.057-1.7472-3.2648-7.6297-5.363-11.242-4.0101-4.1687 1.5611-15.959 13.488-17.275 17.474-1.3374 4.0524-0.05822 8.0029 3.3686 10.403 4.3529 3.0489 7.7832 2.1397 14.374-3.8098zm113.05 2.9063c1.8513-1.8513 2.598-3.7597 2.598-6.64 0-3.64-0.82879-4.866-8.3327-12.326-7.5009-7.4569-8.7388-8.2839-12.4-8.2839-5.2636 0-8.9032 3.8835-8.9032 9.4996 0 3.4448 0.93569 4.7972 8.3802 12.113 7.3486 7.2214 8.853 8.2352 12.22 8.2352 2.6656 0 4.6343-0.79445 6.4378-2.598zm-57.69-25.988c13.181-2.4997 23.195-10.185 28.949-22.219 2.9279-6.1223 3.2901-7.9286 3.2901-16.406 0-8.2584-0.40477-10.402-3.0421-16.112-3.549-7.6835-12.017-16.284-19.131-19.431-20.012-8.8524-42.445-0.80052-52.002 18.666-2.7886 5.6795-3.0898 7.3248-3.0898 16.877s0.30121 11.198 3.0898 16.877c5.4958 11.193 14.951 18.646 27.076 21.342 7.4719 1.6613 8.1412 1.6796 14.861 0.40522zm-65.878-31.774c4.2991-4.0052 4.2701-9.7229-0.06988-13.766-1.9491-1.8158-3.7657-2.0811-14.254-2.0811-11.351 0-12.165 0.14464-14.619 2.598-3.5346 3.5346-3.5346 9.2628 0 12.797 2.4533 2.4533 3.2672 2.598 14.619 2.598 10.612 0 12.29-0.25144 14.324-2.1462zm147.91-0.45181c3.5346-3.5346 3.5346-9.2628 0-12.797-2.4595-2.4595-3.2519-2.598-14.866-2.598-11.614 0-12.407 0.13848-14.866 2.598-1.7937 1.7937-2.598 3.7746-2.598 6.3987 0 2.6241 0.80428 4.605 2.598 6.3987 2.4595 2.4595 3.2519 2.598 14.866 2.598 11.614 0 12.407-0.13849 14.866-2.598zm-128.93-45.684c2.6754-1.6868 3.9806-5.5834 3.0765-9.1854-0.33533-1.3361-4.3808-6.099-8.9899-10.584-8.9976-8.756-12.006-9.9044-16.922-6.4607-6.4591 4.5241-5.083 10.951 4.3368 20.255 9.0134 8.9025 12.215 9.9368 18.499 5.9755zm98.98-6.575c7.3908-7.2709 8.2029-8.4699 8.2029-12.112 0-4.8532-3.77-9.238-7.9427-9.238-4.3342 0-8.1239 2.5065-15.157 10.025-5.301 5.6667-6.5364 7.6534-6.5364 10.511 0 6.2342 5.2845 10.687 11.114 9.3645 1.1643-0.26416 5.8082-4.1117 10.32-8.5501zm-53.228-11.802c2.9314-1.5688 4.2755-6.7997 4.2755-16.639 0-10.192-1.526-14.197-6.138-16.107-3.9976-1.6558-8.1762-0.53336-10.899 2.9276-1.9717 2.5066-2.1509 3.9512-1.8355 14.795 0.32399 11.139 0.53205 12.165 2.8483 14.038 2.688 2.1743 8.6001 2.67 11.748 0.98506z" display="none" fill="#666" opacity=".97" stroke-miterlimit="0" stroke-width="0" style="paint-order:markers fill stroke"/><path transform="scale(.33333)" d="m0.33791 140.78v-139.71h279.43v279.43h-279.43zm218.03 125.27c35.748-11.922 54.566-50.061 42.296-85.724-2.483-7.2171-5.7781-13.01-11.563-20.328-4.1395-5.2369-14.085-13.923-15.941-13.923-0.49713 0 4e-3 2.0541 1.1153 4.5646 5.3318 12.053 6.7756 28.611 3.6509 41.866-5.1043 21.653-22.55 40.34-44.195 47.337-12.225 3.9524-27.229 3.9638-39.389 0.03-4.6571-1.5066-10.069-3.725-12.027-4.9298-1.9576-1.2048-3.7538-1.9961-3.9915-1.7584-0.97453 0.97454 8.5697 13.677 14.018 18.656 17.922 16.38 43.202 21.82 66.026 14.209zm-118.95-64.977c5.0194-1.9084 5.6419-3.753 5.6783-16.825 0.0306-10.996-0.17696-12.328-2.2677-14.553-3.2317-3.44-9.5777-3.3681-13.094 0.14829-2.4383 2.4383-2.598 3.3021-2.598 14.053 0 12.232 1.0275 15.354 5.67 17.227 3.0299 1.2227 3.2673 1.2209 6.6114-0.0505zm-49.261-31.312c5.0141-4.8794 8.5479-9.2408 8.9423-11.036 0.90598-4.1249-1.8484-8.9847-5.891-10.394-4.715-1.6437-8.6572 0.37901-16.646 8.5409-8.4615 8.6449-9.5681 12.841-4.6765 17.733 5.4515 5.4515 8.5313 4.6351 18.271-4.8432zm108.23 6.8363c3.4714-1.8488 4.887-4.1977 4.9243-8.1707 0.0288-3.062-1.1626-4.8012-8.2241-12.006-7.2266-7.3735-8.7432-8.4393-12.146-8.5358-5.5337-0.15686-9.2326 3.5098-9.2326 9.1523 0 3.8826 0.70046 4.9421 8.275 12.517 8.663 8.663 11.265 9.7803 16.403 7.0437zm-46.905-29.771c4.1362-1.5299 7.6866-4.0184 12.265-8.5964 8.4066-8.4066 11.381-15.624 11.381-27.612 0-11.003-2.882-18.595-10.025-26.411-18.354-20.082-50.389-16.003-63.445 8.0774-3.5056 6.4656-3.6274 7.0812-3.6274 18.333 0 10.692 0.24076 12.1 2.9478 17.238 9.915 18.818 30.257 26.46 50.503 18.971zm-74.573-29.63c3.7022-3.1845 3.8919-9.3002 0.40374-13.013-2.2796-2.4265-3.061-2.5624-14.739-2.5624-11.678 0-12.46 0.13585-14.739 2.5624-3.4882 3.713-3.2984 9.8287 0.40374 13.013 2.5554 2.1981 3.8587 2.4179 14.336 2.4179 10.477 0 11.78-0.2198 14.336-2.4179zm147.39 0.27171c4.2991-4.0052 4.2701-9.7229-0.0699-13.766-1.9491-1.8158-3.7657-2.0811-14.254-2.0811-11.351 0-12.165 0.14464-14.618 2.598-1.7937 1.7937-2.598 3.7746-2.598 6.3987s0.80428 4.605 2.598 6.3987c2.4533 2.4533 3.2672 2.598 14.618 2.598 10.612 0 12.29-0.25144 14.324-2.1462zm-131.16-44.54c4.1111-1.4331 6.8718-6.2597 5.9586-10.417-0.39436-1.7955-3.9282-6.1569-8.9423-11.036-9.7399-9.4783-12.82-10.295-18.271-4.8432-2.7757 2.7757-3.1373 3.7612-2.5984 7.0819 0.92142 5.678 12.58 17.317 20.381 20.347 0.05867 0.02279 1.6211-0.4865 3.4721-1.1318zm102.19-8.3397c6.8201-7.0083 8.0162-8.7786 8.0162-11.864 0-6.0386-5.9111-10.455-11.961-8.936-1.3395 0.3362-5.8643 4.1474-10.055 8.4694-6.8298 7.0436-7.6196 8.2896-7.6196 12.02 0 6.1898 4.9372 10.105 11.3 8.9618 1.2669-0.22768 5.9108-4.1208 10.32-8.6514zm-52.647-12.899c2.2789-2.141 2.4497-3.1309 2.4497-14.202 0-6.5455-0.29586-12.672-0.65747-13.614-1.0385-2.7063-6.4923-5.0355-9.9912-4.267-5.9312 1.3027-7.3447 4.6978-7.3447 17.641 0 10.85 0.15712 11.705 2.598 14.146 3.4045 3.4045 9.4891 3.5439 12.946 0.29661z" display="none" fill="#666" opacity=".97" stroke-miterlimit="0" stroke-width="0" style="paint-order:markers fill stroke"/></svg>
