<svg xmlns="http://www.w3.org/2000/svg" width="65" height="19"><path opacity=".4" fill-rule="evenodd" fill="#522213" d="M3.67 1.617h56.89c1.3 0 2.345 1.055 2.345 2.345V16.06c0 1.3-1.055 2.345-2.345 2.345H3.67a2.35 2.35 0 0 1-2.345-2.345V3.96a2.35 2.35 0 0 1 2.345-2.344z"/><linearGradient id="A" gradientUnits="userSpaceOnUse" x1="32.52" y1="22.207" x2="32.52" y2="-3.405"><stop offset="0" stop-color="#d95b26"/><stop offset="1" stop-color="#eb8e23"/></linearGradient><g fill-rule="evenodd"><path fill="url(#A)" d="M4.076 1.006h56.89c1.3 0 2.345 1.055 2.345 2.345v12.097c0 1.3-1.055 2.346-2.345 2.346H4.076c-1.3 0-2.345-1.056-2.345-2.346V3.352c0-1.3 1.055-2.346 2.345-2.346z"/><path opacity=".5" fill="#783a27" d="M51.06 13.132c-.5-.065-.703-.5-.51-.83-.86-.055-1.042-.426-.905-.67-.622-.087-.828-.542-.322-.71-.906-.038-.46-.662.093-.84-.34.013-.644-.007-.804-.152-.305-.262.256-.454.555-.394a1.71 1.71 0 0 1 .164.042c.163.048.294.028.398-.093.212-.245.587-.28 1.033-.144.194.06.384.1.555.004a1.05 1.05 0 0 1 1.075.021c.418.235.7.182 1.145.154.72-.045 1.597.202 2.32.6 1.822.977 3 2.845.2 3.846-1.495.535-3.88 1.047-5.206 1.02-1.51-.033-.97-1.37.207-1.843z"/><path fill="#852a03" d="M61.657 11.09c-1.306-.418-2.836-1.345-3.555-1.73l1.528 1.8c.218.304.384.603.52.892s.236.568.327.833l.1.3c.165.505.28.852.673 1.256.205.2.37.308.464.618.04.133.047.268.016.39a.55.55 0 0 1-.236.331c-.103.067-.237.11-.407.116-.194.01-.348.027-.487.052s-.267.057-.407.093l-.702.15c-.22.033-.447.05-.73.05l-.64.017a2.68 2.68 0 0 0-.48.094c-.687.18-1.38.288-2.1.298-.445.006-.886-.025-1.32-.097-.29-.047-.554-.118-.836-.183-.146-.033-.268-.054-.395-.065-.17-.016-.352-.016-.61-.012-.453.001-.96.014-1.407-.124-.137-.042-.268-.097-.385-.165-.19-.11-.344-.254-.433-.43-.092-.184-.114-.402-.037-.656.07-.23.102-.226.184-.396.125-.26.178-.585.237-.948.062-.38.13-.798.294-1.245.143-.388.372-.783.677-1.168s.672-.75 1.105-1.096c.285-.227.603-.417.912-.603l.145-.087c-.057.01-.114.015-.177.01a.91.91 0 0 1-.371-.111c-.107-.06-.214-.144-.307-.26a.68.68 0 0 1-.157-.366.8.8 0 0 1 .057-.366c-.16-.032-.294-.095-.397-.18-.127-.105-.21-.24-.243-.395s-.04-.327.024-.494a.72.72 0 0 1 .198-.287c-.163-.1-.276-.246-.338-.408a.87.87 0 0 1-.047-.419.77.77 0 0 1 .174-.397c.083-.097.192-.172.327-.215-.133-.132-.228-.274-.282-.418a.79.79 0 0 1 0-.576c.084-.21.285-.412.518-.55.142-.084.297-.146.444-.172l-.09-.058c-.237-.15-.467-.256-.67-.304-.13-.03-.14-.016-.108-.16a.73.73 0 0 1 .379-.487.98.98 0 0 1 .567-.095 1.34 1.34 0 0 1 .267.06c.125-.036.247-.16.363-.276l.1-.09c.275-.264.486-.346.657-.34s.29.09.396.17c.347.2.554.1.91-.024.178-.062.395-.145.577-.098.057.015.105.04.152.078.117.09.157.206.297.28s.325.1.48.14a.89.89 0 0 1 .291.12c.12.088.17.218.058.424-.09.162-.238.31-.367.44s-.263.27-.362.42c.316.3.59.685.926.964.103.086.22.172.37.272.102.068.18.136.237.21.205.13.49.24.792.328.373.107 1.933.348 2.41.297v5.018c.002.067.002.05-.07.027z"/><path fill="#ebaa32" d="M53.913 4.25c.036-.02.074-.037.113-.052l.237-.094.134-.052c-.12-.237-.29-.496-.472-.714s-.37-.39-.534-.46c-.09-.03-.176-.05-.26-.06a.86.86 0 0 0-.496.079.53.53 0 0 0-.26.295l-.02.068c.224.044.48.158.743.325l.27.188a4.64 4.64 0 0 1 .542.478zm.622-.255c-.122-.254-.307-.538-.504-.774a2.25 2.25 0 0 0-.442-.417c.104-.066.2-.162.292-.254l.086-.085c.237-.228.413-.298.552-.294s.246.08.343.15c.114.23.123.465.132.726l.014.284c.003.037.034.055.07.04s.062-.058.06-.096l-.014-.278c-.007-.2-.014-.388-.065-.572.248.083.508-.008.813-.115l.115-.04c.18-.06.302-.078.397-.053.078.02.142.07.208.145.06.208.05.402-.004.587-.05.172-.135.338-.237.5l-.058-.034c-.15-.085-.296-.13-.434-.133-.146-.004-.28.037-.397.12l-.244.178-.395.276a2.12 2.12 0 0 1-.286.141zm1.908-.488a3.88 3.88 0 0 1 .368.294l.1.093c.11-.16.246-.3.378-.435l.277-.31c.123-.168.096-.267.01-.33-.096-.07-.26-.107-.404-.14l-.145-.035a1.02 1.02 0 0 1-.213-.08c-.02-.01-.04-.022-.06-.035.01.144-.01.283-.048.418-.055.198-.15.382-.264.56z"/><path fill="#f7bd51" d="M55.762 2.43c.115-.063.25-.117.422-.157.253.107.308.683-.01 1.082-.04-.017-.08-.03-.118-.042.117-.63-.024-.892-.293-.883z"/><path fill="#cc9021" d="M53.913 4.25l.225-.097C53.67 3.41 53.146 3.1 52.67 2.88c-.14.063-.244.17-.293.31l-.02.068c.546.107 1.156.583 1.555.992zm.367-2.02c-.15.468.32.988.596 1.59l-.34.176c-.188-.392-.578-.95-.946-1.19.234-.148.404-.43.69-.574zm2.885.45c-.06.328-.192.63-.38.907.092.072.19.1.292.098a2.11 2.11 0 0 0-.166.211l-.47-.388c.19-.297.334-.62.313-.976.115.08.268.116.41.148z"/><path fill="#f2975e" d="M53.513 5.8c.003-.43-.128-.94.093-1.28-.342-.338-.548-.204-.487-.35.076-.187.484.125.586.226.023-.023.05-.046.075-.067a4.78 4.78 0 0 0-.487-.429c-.195-.08-1.315.3-1.028 1.072a1.19 1.19 0 0 0 .365.481c.17.115.656.295.883.347z"/><path fill="#e38144" d="M53.513 5.8l-.02-.4c-.593-.22-1.2-.533-.926-1.258-.001 0-.5.307-.305.83a1.19 1.19 0 0 0 .365.481c.173.115.658.295.885.347z"/><path fill="#f2975e" d="M58.235 9.178c.775.408 1.793 1.002 3.296 1.498.01-.16-.105-.54.214-.853l-.017-3.6c-.916.017-2.394-.225-3.073-.55.05.18.05.396.037.698-.005.094-.133.13-.13.038.046-1.08-.185-.826-.85-1.44-.428-.395-1.54-1.934-2.213-1.45-.77.552-.537.445-1.47.817-.708.283-.285.95-.43 1.898-.038.252-.046.514.19.627.27.13.62.087.836-.156.226-.255.415-.848.4-1.177-.007-.43-.323-.456-.23-.59.107-.152.315.204.352.483.284-.07.38-.22.42-.51.04-.303-.068-.38.036-.443.154-.095.124.476.001.736.155.11.503-.024.345.147.1.48.258 1.038.452 1.49l.102.224c.16.06.376.037.582-.028.31-.1.443-.218.52-.296.06-.06.09-.098.125-.066.135.117-.572.622-1.14.566.35.662.856 1.324 1.336 1.896.254-.292.316-.785.302-1.19-.003-.09.125-.14.128-.05l.003.125c.026.403.104.88-.137 1.155z"/><g fill="#e38144"><path d="M58.052 9.197c.775.408 2.174 1.244 3.677 1.74l.017-1.114c-.56-.106-1.715-.505-2.484-.946-.488-.28-.7-.556-.887-.854 0 .247-.03.48-.1.687s-.113.35-.233.488zm-.655-2.147a1.82 1.82 0 0 1-.303.13c-.166.052-.338.08-.5.064a7.19 7.19 0 0 0 .428.707l.092.134a1.24 1.24 0 0 1 .272-1.035z"/><path d="M54.344 6.893c.36-.123.543-.567.625-.924.075-.326.135-.706-.162-.932-.06-.045.033-.173.092-.13.164.125.236.32.262.514.284-.07.38-.22.42-.51.04-.303-.068-.38.036-.443.154-.095.124.476.001.736.255.183.33-.05.37.06.01.027-.001.063-.024.09.1.48.258 1.038.452 1.49l.102.224c.16.06.376.037.582-.028.212-.068.41-.18.52-.296-.955-.04-1.32-.755-1.21-1.63-.44-.175-.577-.553-.745-.91-.265.28-.456.64-1.1.472.22.673.242 1.375.07 1.83-.066.174-.178.285-.292.385z"/></g><path fill="#ebaa32" d="M56.423 7.212l-.016-.03V7.18l-.11-.243-.187-.493a8.72 8.72 0 0 0 .25 1.042c.015-.01.028-.022.04-.035.044-.04.07-.084.063-.125-.003-.023-.013-.047-.032-.073-.007-.012-.01-.026-.008-.042z"/><path fill="#ed3b0e" d="M56.665 7.656l-.118-.206c-.1.235-.65.403-.93.417.044.073.072.058.165.06 0-.01.815-.044.884-.27z"/><path fill="#ebaa32" d="M56.23 7.565c-.18-.592-.31-1.284-.386-2.106-.013-.066-.043-.023-.126-.037-.063-.01-.127-.04-.183-.08-.04.05-.09.1-.147.125-.07.042-.15.074-.228.094l-.008.074a.63.63 0 0 1 .385.144c.097.08.173.185.218.303a.69.69 0 0 1 .036.385.66.66 0 0 1-.176.334c.084.05.142.125.178.208a.61.61 0 0 1 .044.239v.005a.78.78 0 0 1-.049.256c-.027.078-.067.15-.117.2.146-.01.325-.053.48-.12l.078-.036z"/><path fill="#ed3b0e" d="M56.272 8.014c-.184.044-.384.062-.533.058l-.047-.002.007.05c.337.118 1.173-.034 1.136-.2l-.103-.163c-.044.06-.294.208-.46.248z"/><path fill="#ebaa32" d="M57.8 9.93a3.9 3.9 0 0 1-1.317-1.673c-.243.054-.58.068-.79.02-.047.242-.216.382-.4.46-.156.117-.335.23-.472.258-.256.714-1.006 1.2-1.62 1.698-.078.063-.26-.233-.183-.295.56-.446 1.13-.662 1.383-1.292-.047.02.06-.062.008-.03-.263.218-.522.435-.84.625-.81.484-1.172.925-1.754 1.663-1.095 1.388-.762 2.205-1.158 3.066.367-.097.573.303.788.63.042.064-.07.173-.11.108l-.033-.047c-.15-.208-.37-.374-.6-.438-.143-.038-.165.14-.257.196-.083.1-.13.19.007.466.283.565.942.652 1.535.694.336.024.443.001.778.01-.3-.163-.303-.232-.536-.46-.053-.053.148-.244.2-.19.9.893 1.893 1.052 3.128 1.035.623-.01 1.43-.148 2.038-.325.87-.253 1.465-1.013 1.552-.875.018.027.013.15-.018.18-.27.257-.4.444-.736.643.396-.032.622-.087 1.12-.16.615-.094.867-.24 1.545-.27.69-.03.52-.496.203-.814-.227-.227-.658-.256-.947-.095-.082.046-.133-.203-.05-.25.2-.11.283-.186.518-.138-.655-.762-.373-1.7-1.3-2.993L58.4 9.908l-1.492-1.87-.282.18c.316.71.7 1.26 1.174 1.713z"/><path fill="#cc9021" d="M55.35 5.488a.89.89 0 0 1-.154.063l-.028.085a.61.61 0 0 1 .193.04l-.01-.188zm-.057 3.25c-.23.092-.362.092-.555.133-.256.714-.93 1.24-1.544 1.728-.078.063-.128-.048-.05-.11.56-.446 1.2-.94 1.452-1.572-.047.02-.09.046-.145.078-.263.217-.572.403-.9.593-.81.484-1.38.912-1.963 1.65-1.095 1.39-.774 2.435-1.17 3.296.367-.098.804.205 1.016.528.042.064-.07.173-.11.108-.146-.222-.38-.415-.634-.484-.143-.038-.273-.033-.364.024-.084.1-.194.5-.057.765.344.688 1.523.688 2.143.673l.68.02c-.3-.163-.565-.37-.798-.598-.053-.053.046-.175.1-.123.9.893 1.95 1.076 3.187 1.06.623-.01 1.45-.115 2.058-.293.87-.253 1.382-1.065 1.47-.927.018.027.006.073-.024.103-.27.258-.58.525-.914.724.396-.032.838.013 1.335-.063.615-.094.93-.267 1.608-.296.69-.03.56-.667.24-.985-.227-.227-.722-.282-1.01-.12-.082.046-.107-.08-.024-.128.2-.11.467-.135.7-.087-.654-.76-.57-1.855-1.506-3.158l-.563-.717c.973 1.695 1.32 2.297.955 4.346.246-.135.788-.155 1.112-.006.396.182.368.583-.13.578-.22-.002-.442-.085-.75.006l-1.167.3c.257-.266.392-.564.34-.9-.613.785-1.88 1.342-4.036 1.308-.872-.014-1.906-.4-2.724-.79-.3-.147-.59-.145-.815-.344-.897-.792-.463-1.992.184-2.847.48-.636 1.382-1.464 2.08-2.02.708-.563 1.082-1.023 1.284-1.438z"/><path fill="#913818" d="M60.094 14.635c-.008.04-.04.075-.076.08s-.057-.024-.05-.064c.06-.326.1-.673.084-1.03s-.088-.728-.252-1.104c-.015-.03.001-.076.034-.103s.07-.022.084.008a3.16 3.16 0 0 1 .262 1.147c.016.37-.026.73-.087 1.068z"/><path d="M55.03 8.05c-.008.015-.008.046-.004.084.008.1.018.164.05.2s.086.038.2 0c.063-.023.1-.06.1-.095.006-.02.006-.04.001-.062a.14.14 0 0 0-.043-.07c-.05-.05-.137-.08-.26-.068-.03.003-.042.006-.044.012zm.253-.994c-.043-.01-.1-.014-.13-.01s-.04.007-.045.013c-.01.016-.012.05-.012.095a1.13 1.13 0 0 0 .018.224c.013.056.032.1.065.104a.49.49 0 0 0 .148-.006c.046-.01.088-.024.116-.042l.003-.001c.027-.018.05-.04.063-.062s.023-.052.023-.082a.19.19 0 0 0-.031-.102c-.02-.03-.05-.06-.1-.084-.024-.017-.073-.035-.13-.047z" fill="#f2a372"/><path fill="#f2975e" d="M52.84 8.297c-.04.105-.055.203-.046.294.012.1.058.213.134.308s.18.183.284.24c.116.064.232.095.335.1.2.012.358-.077.6-.205l.24-.14c.187-.112.282-.164.506-.19.123-.014.244-.04.352-.083.1-.04.19-.098.254-.175a.36.36 0 0 0 .082-.271c-.01-.11-.06-.218-.137-.296l-.132.024c.055.017.1.043.132.076s.057.073.067.116.01.098-.005.147c-.03.094-.106.18-.23.224-.15.056-.24.042-.294-.02s-.065-.15-.075-.26c-.006-.066-.002-.128.025-.183a.22.22 0 0 1 .051-.065l-.176.01c-.252.013-.5.026-.812.1l-.173.05c-.324.094-.682.197-.973.186z"/><path fill="#e38144" d="M52.93 8.9h.001c.086.106.184.185.283.24.116.064.232.095.335.1.2.012.358-.077.6-.205l.027-.015.213-.125.038-.023.002-.001c.155-.093.247-.14.466-.165.123-.014.244-.04.352-.083.1-.04.19-.098.254-.175a.36.36 0 0 0 .082-.271c-.01-.11-.06-.218-.137-.296l-.132.024c.055.017.1.043.132.076s.057.073.067.116.01.098-.005.147c-.03.094-.106.18-.23.224-.102.038-.176.043-.23.025-.215.04-.465.033-.655.103-.168.062-.25.195-.666.353-.233.1-.538.12-.79-.05z"/><path fill="#852a03" d="M54.57 6.215a2.16 2.16 0 0 1-.13.406c-.05.112-.153.18-.274.205a.61.61 0 0 1-.237.001.5.5 0 0 1-.213-.092c-.077-.06-.127-.146-.126-.26.002-.098.017-.18.032-.267l.028-.2c.027-.313.266-.295.537-.276l.132.008c.064.002.116.02.157.047.046.03.077.076.096.128.027.073.02.18-.002.3z"/><path fill="#f2a372" d="M54.354 6.527c.202-.52.144-.614-.213-.64-.414-.03-.342.018-.394.306-.04.215-.086.426.237.49.182.034.31.003.37-.155z"/><path fill="#f2975e" d="M53.54 6.854c-.16-.237-.052-.59-.034-.888-.16-.033-.318-.083-.473-.143a4.79 4.79 0 0 1-.478-.22.56.56 0 0 0-.381.185c-.3.362-.02.956.295 1.047.19.057.837.04 1.07.02zm2.125-.375a.61.61 0 0 0-.536-.698l-.022.115c.617.058.44.742.083.793-.104.015-.3.018-.335-.113a1.37 1.37 0 0 1-.144.203l.78-.02a.47.47 0 0 0 .175-.279z"/><path fill="#e38144" d="M53.54 6.854l-.08-.224c-.477-.018-1.233-.1-1.412-.545-.04.325.18.682.42.75.2.056.836.038 1.07.018zm1.97-.556c.056-.17-.084-.378-.213-.48.25.102.422.395.37.66a.48.48 0 0 1-.175.279l-.78.02c.053-.062.1-.13.144-.203.053.195.63.198.654-.278z"/><path fill="#f2975e" d="M54.55 6.928c-.253.177-.615.2-.87.05-.058.027-.542.042-.634.042-.2.001-.404-.01-.61-.038a.53.53 0 0 0-.207.252c-.142.375.063.82.612.914.264.045.863-.146 1.158-.228.534-.148 1.21-.098 1.474-.187.17-.057.305-.392.203-.63-.037-.087-.104-.16-.206-.2l-.12.01c.55.124.314.784-.22.712-.184-.025-.24-.604-.028-.703l-.55.005z"/><path fill="#e38144" d="M52.195 7.55c.044.344.292.548.644.598.274.04.817-.134 1.157-.228.534-.148 1.21-.098 1.474-.187.17-.057.305-.392.203-.63-.037-.087-.104-.16-.206-.2l-.12.01c.55.124.314.784-.22.712-.026-.003-.05-.014-.066-.03-.6.05-1.123-.042-1.73.167-.434.148-.97.08-1.137-.212z"/><path fill="#f2a372" d="M55.072 6.043l-.108.316c.03.06-.076.233.25.186.205-.03.3-.455-.143-.502z"/><path fill="#f7bd51" d="M56.423 8.894c.35.522.924 1.305 1.333 2.105.735 1.44.81 2.45.243 3.165-.748.94-2.5 1.328-4.24 1.136 1.67.462 3.64.165 4.54-.854.696-.788.705-2.028-.27-3.558-.41-.64-.968-1.215-1.607-1.994z"/><g fill="#421f14"><path d="M10.942 10.538a.68.68 0 0 1-.215.503.84.84 0 0 1-.298.175c-.114.04-.26.06-.433.06h-.323v.845h-.326V9.853h.662a1.6 1.6 0 0 1 .372.035c.102.025.192.06.27.107.093.058.165.13.216.216s.075.195.075.327zm-.34.007c0-.077-.015-.145-.044-.202s-.074-.104-.134-.14a.58.58 0 0 0-.178-.067c-.066-.013-.152-.02-.253-.02h-.32v.897h.272a1.31 1.31 0 0 0 .318-.032c.082-.02.148-.056.2-.103a.44.44 0 0 0 .108-.153.49.49 0 0 0 .031-.178zm.743-.795h.3v2.37h-.3zm2.457 1.55h-1.35a.67.67 0 0 0 .051.272.51.51 0 0 0 .139.19.58.58 0 0 0 .202.109.88.88 0 0 0 .259.036 1.07 1.07 0 0 0 .376-.07c.126-.047.216-.092.27-.137h.016v.313a2.94 2.94 0 0 1-.318.102c-.108.028-.222.04-.34.04-.304 0-.54-.076-.7-.23s-.256-.37-.256-.65.082-.498.246-.66.378-.245.645-.245c.247 0 .438.067.57.2s.2.324.2.57v.156zm-.3-.218c-.001-.15-.042-.266-.123-.348s-.202-.123-.366-.123-.298.045-.396.135-.153.202-.167.336h1.052z"/><path d="M15.695 12.12h-.3v-.182l-.1.072a.91.91 0 0 1-.135.074 1.11 1.11 0 0 1-.177.059 1.01 1.01 0 0 1-.233.023.61.61 0 0 1-.419-.152c-.115-.102-.172-.23-.172-.4 0-.13.03-.233.1-.313s.145-.143.255-.188.245-.076.4-.094l.502-.036v-.045a.32.32 0 0 0-.038-.162c-.024-.043-.06-.076-.105-.1a.46.46 0 0 0-.157-.048 1.49 1.49 0 0 0-.192-.012 1.39 1.39 0 0 0-.27.03 1.96 1.96 0 0 0-.308.09H14.3v-.3a3.19 3.19 0 0 1 .261-.05 2.15 2.15 0 0 1 .336-.027 1.66 1.66 0 0 1 .337.03.68.68 0 0 1 .249.101.44.44 0 0 1 .157.182c.035.075.054.166.054.275v1.156zm-.308-.42v-.476l-.33.022a1.69 1.69 0 0 0-.3.045.51.51 0 0 0-.214.108c-.054.05-.082.118-.082.205 0 .098.032.172.095.22s.16.074.3.074a.71.71 0 0 0 .295-.06c.09-.04.172-.085.25-.14zm2.208-.073a.45.45 0 0 1-.207.381c-.138.1-.327.15-.567.15a1.46 1.46 0 0 1-.373-.045 1.64 1.64 0 0 1-.285-.099v-.32h.016c.097.068.205.123.324.163s.232.06.34.06c.135 0 .24-.02.317-.06s.114-.105.114-.193c0-.066-.02-.117-.062-.15s-.12-.064-.24-.1l-.17-.032-.192-.04c-.16-.04-.274-.098-.34-.175a.41.41 0 0 1-.101-.281c0-.07.016-.136.047-.198s.078-.116.142-.165a.73.73 0 0 1 .234-.114c.095-.027.2-.042.317-.042.1 0 .22.013.333.038a1.3 1.3 0 0 1 .28.09v.306h-.016c-.08-.055-.174-.1-.287-.138a1.03 1.03 0 0 0-.33-.056.63.63 0 0 0-.285.06c-.077.04-.116.1-.116.18 0 .07.023.123.07.158s.12.064.223.087l.2.036.176.033c.143.03.252.083.33.156a.39.39 0 0 1 .118.299z"/><path d="M19.57 11.3h-1.35a.67.67 0 0 0 .051.272.51.51 0 0 0 .139.19c.057.048.125.085.203.1s.164.036.258.036a1.07 1.07 0 0 0 .376-.07c.126-.047.216-.092.27-.137h.017v.313a2.94 2.94 0 0 1-.318.102c-.108.028-.222.04-.34.04-.304 0-.54-.076-.7-.23s-.256-.37-.256-.65.082-.498.245-.66.378-.245.645-.245c.247 0 .438.067.572.2s.2.324.2.57v.156zm-.3-.218c-.001-.15-.042-.266-.123-.348s-.202-.123-.366-.123-.297.045-.396.135a.51.51 0 0 0-.167.336h1.052zm3.857.873l-.163.068a1.87 1.87 0 0 1-.19.067 2.19 2.19 0 0 1-.217.049 1.47 1.47 0 0 1-.258.02c-.177 0-.338-.022-.483-.068a1.01 1.01 0 0 1-.378-.218.97.97 0 0 1-.246-.367 1.39 1.39 0 0 1-.09-.52 1.37 1.37 0 0 1 .085-.5 1 1 0 0 1 .246-.373c.104-.1.23-.173.376-.226a1.49 1.49 0 0 1 .49-.078 1.82 1.82 0 0 1 .393.044c.13.03.275.082.435.155v.358h-.024a1.48 1.48 0 0 0-.4-.226c-.132-.047-.273-.07-.424-.07a.94.94 0 0 0-.333.055.73.73 0 0 0-.265.173c-.078.078-.134.17-.176.288s-.063.25-.063.4a1.09 1.09 0 0 0 .069.409.79.79 0 0 0 .18.279.71.71 0 0 0 .267.166.97.97 0 0 0 .324.054c.156 0 .303-.024.44-.074a1.26 1.26 0 0 0 .383-.222h.023v.355z"/><path d="M25.124 11.27c0 .277-.077.496-.23.656s-.357.24-.614.24-.464-.08-.617-.24-.23-.38-.23-.656.076-.495.23-.655.358-.24.617-.24.46.08.614.24.23.378.23.655zm-.32 0c0-.22-.046-.38-.14-.487s-.22-.16-.386-.16-.297.054-.388.16-.138.27-.138.487.046.373.14.482.222.164.388.164a.48.48 0 0 0 .385-.162c.093-.108.14-.27.14-.484zm2.332.85h-.3v-.968a1.54 1.54 0 0 0-.015-.22.37.37 0 0 0-.055-.16.24.24 0 0 0-.12-.095c-.053-.02-.118-.03-.2-.03a.7.7 0 0 0-.264.058 1.41 1.41 0 0 0-.265.147v1.27h-.3v-1.7h.3v.188a1.28 1.28 0 0 1 .299-.173.83.83 0 0 1 .317-.063c.198 0 .35.055.453.166s.157.27.157.478v1.103z"/><path d="M28.677 12.105c-.058.015-.12.026-.19.035s-.13.014-.182.014c-.187 0-.33-.047-.426-.14s-.146-.242-.146-.448v-.904h-.208v-.24h.208v-.5h.31v.5h.635v.24h-.635v.775l.006.2c.004.05.02.098.046.14s.056.07.098.1.106.028.193.028c.05 0 .102-.008.157-.02l.118-.035h.016v.256z"/><path d="M30.195 10.732h-.016c-.046-.01-.1-.017-.134-.02l-.154-.007a.69.69 0 0 0-.275.059c-.1.04-.174.1-.256.15v1.206h-.3v-1.7h.3v.25a1.48 1.48 0 0 1 .324-.194.76.76 0 0 1 .287-.057l.117.003a1.46 1.46 0 0 1 .108.015v.293zm.618-.598h-.35v-.297h.35v.297zm-.02 1.986h-.3v-1.7h.3v1.7zm2.227-.862a1.07 1.07 0 0 1-.065.383.85.85 0 0 1-.175.286.79.79 0 0 1-.257.18.77.77 0 0 1-.307.061 1.01 1.01 0 0 1-.273-.034c-.077-.023-.154-.054-.23-.092l-.02.08h-.3V9.75h.3v.848c.086-.065.178-.12.276-.162a.82.82 0 0 1 .329-.063c.217 0 .4.077.514.23s.188.373.188.654zm-.32.006c0-.203-.036-.356-.108-.46s-.2-.157-.35-.157a.74.74 0 0 0-.272.054 1.13 1.13 0 0 0-.256.139v.973c.088.037.163.063.226.076a.99.99 0 0 0 .214.021c.17 0 .304-.052.4-.156s.145-.268.145-.5zm2.32.856h-.3v-.2c-.104.076-.203.135-.3.176s-.2.06-.315.06c-.193 0-.344-.055-.45-.164s-.16-.27-.16-.48V10.42h.3v.968c0 .087.005.16.013.222a.39.39 0 0 0 .056.157c.03.045.068.077.116.098s.115.03.205.03c.08 0 .167-.02.262-.058s.184-.088.266-.147v-1.27h.3v1.698zm1.553-.015a1.54 1.54 0 0 1-.19.035c-.07.01-.13.014-.182.014-.188 0-.33-.047-.427-.14s-.146-.242-.146-.448v-.904h-.208v-.24h.208v-.5h.3v.5h.635v.24h-.635v.775l.007.2c.004.05.02.098.046.14a.21.21 0 0 0 .099.09c.042.02.106.028.192.028a.68.68 0 0 0 .157-.021l.118-.035h.016v.256z"/><path d="M38.48 11.3h-1.35c0 .104.018.195.05.272a.51.51 0 0 0 .14.19.57.57 0 0 0 .202.109.88.88 0 0 0 .259.036 1.07 1.07 0 0 0 .376-.07c.126-.047.217-.092.27-.137h.017v.313a2.4 2.4 0 0 1-.317.102 1.41 1.41 0 0 1-.342.04c-.303 0-.54-.076-.7-.23s-.256-.37-.256-.65.082-.498.245-.66a.88.88 0 0 1 .646-.245c.247 0 .438.067.57.2s.2.324.2.57v.156zm-.298-.218c-.001-.15-.042-.266-.123-.348s-.202-.123-.366-.123-.298.045-.396.135-.153.202-.167.336h1.052zm2.93-1.054h-.017L40.96 10a.82.82 0 0 0-.145-.015c-.132 0-.23.028-.288.083s-.1.153-.1.296v.058h.558v.24h-.547v1.46h-.3v-1.46h-.208v-.24h.208v-.057c0-.203.055-.358.163-.466s.266-.163.47-.163l.187.01.152.02v.263z"/><path d="M42.87 11.27c0 .277-.077.496-.23.656a.81.81 0 0 1-.614.24c-.26 0-.465-.08-.617-.24s-.23-.38-.23-.656.076-.495.23-.655.358-.24.617-.24.46.08.614.24.23.378.23.655zm-.32 0c0-.22-.046-.38-.14-.487s-.222-.16-.386-.16-.297.054-.4.16-.14.27-.14.487.047.373.14.482.222.164.388.164.292-.054.385-.162.14-.27.14-.484zm1.942-.538h-.016a1.14 1.14 0 0 0-.135-.021 1.36 1.36 0 0 0-.153-.007.69.69 0 0 0-.276.059c-.1.04-.174.1-.256.15v1.206h-.3v-1.7h.3v.25a1.48 1.48 0 0 1 .324-.194.76.76 0 0 1 .287-.057l.116.003a1.39 1.39 0 0 1 .108.015v.293z"/></g><g fill="#ffe8cc"><path d="M9.64 7.418c-.1 0-.18-.046-.244-.136-.053-.077-.103-.207-.146-.388l-.098-.418c-.075-.258-.194-.83-.356-1.713L8.25 6.226l-.162.46c-.066.184-.135.333-.206.45a.35.35 0 0 1-.31.183c-.107 0-.192-.05-.254-.154a1.27 1.27 0 0 1-.109-.26l-.08-.27a19.25 19.25 0 0 1-.487-1.834l-.098.435-.352 1.28c-.015.15-.06.372-.137.667-.055.126-.145.188-.27.188-.1 0-.16-.028-.213-.085-.046-.048-.068-.108-.068-.18 0-.27.063-.6.188-.994l.3-.977.16-.764c.08-.357.165-.6.254-.7.073-.093.163-.14.27-.14.12 0 .207.06.266.18.07.144.147.438.23.88a13.01 13.01 0 0 0 .451 1.727 16.59 16.59 0 0 0 .702-1.945l.082-.354c.032-.143.074-.257.127-.344.07-.118.17-.178.293-.178.157 0 .276.134.358.4.03.092.065.283.107.573.107.73.24 1.354.4 1.872l.134.417c.07.223.104.36.104.412 0 .07-.03.128-.1.175a.31.31 0 0 1-.201.071zm3-.045c-.035 0-.097-.035-.188-.106a1.16 1.16 0 0 1-.183-.177 4.2 4.2 0 0 1-.463.19c-.133.044-.244.063-.333.063-.427 0-.738-.106-.933-.32-.184-.2-.276-.507-.276-.92a1.31 1.31 0 0 1 .455-1.002c.304-.278.667-.417 1.087-.417a1.56 1.56 0 0 1 .534.11c.248.1.372.2.372.327 0 .044-.018.083-.054.117-.02.06-.032.162-.043.303l-.018.54c-.002.2.014.36.046.476a3.36 3.36 0 0 0 .171.426l.063.13.017.04a.2.2 0 0 1-.076.161.27.27 0 0 1-.178.062zm-.567-1.685a1.89 1.89 0 0 1 .015-.228c.01-.082.025-.168.046-.26-.068-.032-.126-.054-.174-.07a.46.46 0 0 0-.118-.021c-.282 0-.527.103-.732.307a.97.97 0 0 0-.308.708c0 .268.053.465.158.597s.265.2.477.2c.175 0 .324-.028.447-.085.065-.03.158-.092.276-.185l-.087-.963zm3.572 1.627c-.1 0-.178-.047-.233-.14a3.98 3.98 0 0 0-.432-.579l-.486-.584-.488.313-.028.73c0 .072-.025.132-.075.176s-.115.068-.193.068c-.184 0-.275-.1-.275-.33l.056-1.205.028-1.68a2.55 2.55 0 0 0-.014-.257L13.5 3.57c0-.073.025-.132.076-.177a.28.28 0 0 1 .193-.068c.078 0 .143.022.193.068s.076.104.076.177l.022.526-.017.78-.005.844c.248-.168.488-.353.717-.553l.603-.55c.06-.056.126-.083.195-.083s.136.025.194.075.087.108.087.175c0 .055-.027.1-.08.162a9.5 9.5 0 0 1-.836.747l.602.722c.28.337.42.558.42.66a.21.21 0 0 1-.087.167c-.06.048-.125.07-.2.07zm2.017.01c-.412 0-.745-.1-1-.274-.28-.2-.418-.484-.418-.847 0-.42.115-.77.345-1.055.25-.3.583-.465 1-.465.302 0 .55.045.74.136.235.112.352.283.352.514 0 .16-.103.3-.3.44-.1.058-.285.148-.58.27l-1.046.438a.96.96 0 0 0 .381.302c.152.068.33.102.532.102a1.82 1.82 0 0 0 .442-.063c.215-.054.354-.124.415-.2s.13-.13.2-.13a.25.25 0 0 1 .17.063c.05.043.076.093.076.15 0 .18-.163.333-.5.46a2.18 2.18 0 0 1-.812.166zM17.6 5.12a.74.74 0 0 0-.555.228c-.148.153-.258.382-.33.7l.84-.353c.33-.143.565-.266.706-.37-.157-.128-.377-.193-.66-.193zm5.67 2.253c-.035 0-.097-.035-.188-.106a1.16 1.16 0 0 1-.183-.177 4.2 4.2 0 0 1-.463.19c-.133.044-.244.063-.333.063-.427 0-.738-.106-.933-.32-.184-.2-.276-.507-.276-.92a1.31 1.31 0 0 1 .455-1.002c.304-.278.667-.417 1.087-.417a1.56 1.56 0 0 1 .534.11c.248.1.372.2.372.327 0 .044-.018.083-.054.117-.02.06-.032.162-.043.303l-.018.54c-.002.2.014.36.046.476a3.36 3.36 0 0 0 .171.426l.063.13.017.04a.2.2 0 0 1-.076.161.27.27 0 0 1-.178.062zm-.567-1.685a1.89 1.89 0 0 1 .015-.228c.01-.082.025-.168.045-.26-.068-.032-.126-.054-.174-.07s-.087-.02-.117-.02c-.282 0-.527.103-.732.307a.97.97 0 0 0-.308.708c0 .268.053.465.16.597s.265.2.476.2c.175 0 .324-.028.447-.085.065-.03.158-.092.276-.185l-.087-.963zm5.523 1.507c-.282.17-.687.257-1.214.257a2.13 2.13 0 0 1-.456-.056c-.206-.043-.36-.1-.463-.17h-.027c-.078 0-.145-.025-.197-.073a.23.23 0 0 1-.079-.177l.05-1.525-.022-1.693c0-.066.038-.136.115-.2s.152-.1.23-.1c.044 0 .2.054.437.162l.486.2c.516.158.957.398 1.32.723.428.383.642.804.642 1.262a1.57 1.57 0 0 1-.22.795 1.7 1.7 0 0 1-.601.611zM27.65 4.63c-.186-.108-.614-.293-1.286-.558l.014.698.008.696L26.34 6.8a.3.3 0 0 1 .058.032 1.17 1.17 0 0 0 .605.143c.415 0 .717-.056.906-.17a1.2 1.2 0 0 0 .423-.43 1.11 1.11 0 0 0 .156-.563c.001-.455-.278-.846-.84-1.17zm3.08 2.728a1.14 1.14 0 0 1-.791-.3c-.246-.223-.375-.523-.388-.9a1.44 1.44 0 0 1 .312-.963c.255-.33.6-.492 1.066-.492.365 0 .64.148.828.443a1.54 1.54 0 0 1 .216.863 1.45 1.45 0 0 1-.317.918c-.232.286-.542.43-.926.43zm.164-2.164a.7.7 0 0 0-.627.34c-.118.182-.178.4-.178.625s.072.416.217.546a.61.61 0 0 0 .424.162.71.71 0 0 0 .489-.183c.155-.136.237-.32.246-.55.025-.624-.165-.937-.57-.94zm3.843 2.194c-.158 0-.247-.076-.268-.228l-.075-.53c-.024-.188-.037-.366-.037-.53l.02-.46c0-.35-.073-.523-.22-.523-.204 0-.4.107-.586.322a2.09 2.09 0 0 0-.394.74c-.003.063-.012.14-.024.236-.01.08-.017.16-.017.235 0 .05.006.12.017.218l.017.218c0 .072-.025.132-.074.176a.28.28 0 0 1-.193.068c-.08 0-.144-.022-.193-.068a.23.23 0 0 1-.073-.177 1.63 1.63 0 0 0-.02-.217L32.6 6.65c0-.166.014-.397.04-.7l.04-.7-.02-.46a.21.21 0 0 1 .077-.171c.052-.044.116-.066.192-.066.17 0 .262.104.277.313l.01.282c.307-.36.62-.54.944-.54.292 0 .496.114.6.342.078.152.12.377.128.674v.245l-.002.224c0 .134.02.308.058.52a3.07 3.07 0 0 1 .057.518.21.21 0 0 1-.078.172c-.052.045-.12.067-.197.067zm2.978-.015c-.035 0-.098-.035-.188-.106-.083-.067-.144-.125-.183-.177a4.2 4.2 0 0 1-.463.19 1.15 1.15 0 0 1-.333.063c-.427 0-.737-.106-.933-.32-.184-.2-.275-.507-.275-.92a1.29 1.29 0 0 1 .455-1.002 1.56 1.56 0 0 1 1.087-.417c.158 0 .337.037.533.1.248.1.372.2.372.327 0 .044-.018.083-.054.117-.02.06-.032.162-.043.303l-.018.54c-.002.2.014.36.046.476a3.36 3.36 0 0 0 .171.426l.063.13.017.04a.2.2 0 0 1-.076.161c-.05.042-.1.062-.178.062zm-.57-1.685a1.89 1.89 0 0 1 .015-.228l.046-.26a1.5 1.5 0 0 0-.174-.07c-.048-.016-.087-.02-.117-.02a1 1 0 0 0-.731.307c-.205.205-.308.44-.308.708s.053.465.158.597.265.2.477.2c.175 0 .323-.028.446-.085.065-.03.158-.092.276-.185l-.088-.963zm3.127-.54a1.76 1.76 0 0 1-.136-.005L40 5.138c-.042 0-.166.012-.372.037l.048 1.433.002.106.003.123c.008.354-.088.53-.286.53-.072 0-.136-.02-.188-.063s-.08-.094-.08-.158l.016-.552-.05-1.416-.606-.04c-.163-.02-.244-.1-.244-.24 0-.07.024-.13.074-.177a.26.26 0 0 1 .188-.07l.577.04-.013-.33-.012-.298a.21.21 0 0 1 .078-.169c.052-.043.116-.066.192-.066.163 0 .258.12.285.356a2.25 2.25 0 0 1 .008.216l-.005.14-.003.15.4-.04a1.72 1.72 0 0 1 .373.024c.1.032.166.108.166.227a.22.22 0 0 1-.075.174c-.05.044-.113.07-.192.07zm1.328-1c-.088 0-.165-.027-.228-.082s-.097-.122-.097-.2.032-.143.097-.198a.34.34 0 0 1 .228-.082c.088 0 .162.027.226.082s.094.12.094.198-.03.143-.094.2-.14.082-.226.082zm.124 1.966l.008.435.01.434c0 .07-.024.13-.074.175s-.114.067-.194.067-.143-.022-.193-.067-.075-.104-.075-.175l-.008-.434-.01-.435.024-.568.025-.567a.23.23 0 0 1 .075-.177.27.27 0 0 1 .193-.068c.078 0 .143.022.193.068s.075.104.075.177l-.025.567-.024.568zm1.946 1.245c-.307 0-.57-.1-.8-.3-.246-.223-.375-.523-.4-.9a1.44 1.44 0 0 1 .313-.963c.255-.33.6-.492 1.066-.492a.92.92 0 0 1 .828.443 1.54 1.54 0 0 1 .216.863 1.45 1.45 0 0 1-.316.918 1.14 1.14 0 0 1-.928.43zm.164-2.164a.7.7 0 0 0-.627.34c-.118.182-.18.4-.18.625s.072.416.217.546a.61.61 0 0 0 .425.162.71.71 0 0 0 .489-.183c.154-.136.236-.32.246-.55.026-.624-.165-.937-.57-.94zm3.842 2.194c-.16 0-.248-.076-.27-.228l-.074-.53c-.025-.188-.037-.366-.037-.53l.02-.46c0-.35-.073-.523-.22-.523-.204 0-.4.107-.586.322a2.06 2.06 0 0 0-.394.74l-.024.236c-.01.08-.017.16-.017.235 0 .05.006.12.017.218l.017.218c0 .072-.025.132-.075.176s-.114.068-.192.068-.145-.022-.193-.068-.074-.104-.074-.177a1.71 1.71 0 0 0-.018-.217l-.018-.218a7.97 7.97 0 0 1 .04-.69l.04-.7-.02-.46c0-.07.025-.127.077-.17s.117-.066.193-.066c.17 0 .26.104.277.313l.008.282c.307-.36.622-.54.944-.54.292 0 .497.114.6.342.078.152.12.377.13.674v.245l-.002.224c0 .134.02.308.058.52a3.08 3.08 0 0 1 .057.518.21.21 0 0 1-.078.172c-.053.045-.12.067-.197.067zM16.18 14.622a1.03 1.03 0 0 1-.159.561 1.09 1.09 0 0 1-.424.39 1.53 1.53 0 0 1-.409.139 3.38 3.38 0 0 1-.595.043h-.677v-2.268h.67c.262 0 .47.017.624.048a1.5 1.5 0 0 1 .392.132c.183.097.325.225.427.386s.15.35.15.57zm-.372-.004c0-.178-.036-.326-.1-.448s-.183-.217-.328-.286a1.25 1.25 0 0 0-.336-.105c-.118-.02-.26-.03-.427-.03h-.334v1.743h.334c.172 0 .322-.01.45-.03s.245-.06.35-.12a.72.72 0 0 0 .3-.283c.067-.117.1-.265.1-.44zm2.18-.252h-.018a1.13 1.13 0 0 0-.147-.021c-.047-.005-.104-.007-.168-.007a.81.81 0 0 0-.304.059 1.45 1.45 0 0 0-.282.151v1.206h-.34v-1.7h.34v.25a1.76 1.76 0 0 1 .357-.193.91.91 0 0 1 .315-.058l.127.004.12.015v.293zm.68-.598h-.384v-.297h.384v.297zm-.023 1.986h-.34v-1.7h.34v1.7zm2.503 0h-.45l-.8-.743-.218.175v.568h-.34v-2.37h.34v1.52l.978-.85h.428l-.936.785zm3.432-1.582c0 .1-.02.193-.062.28a.67.67 0 0 1-.173.223.92.92 0 0 1-.327.176 1.6 1.6 0 0 1-.476.06h-.356v.846h-.358V13.49h.727a2.13 2.13 0 0 1 .408.034c.112.023.2.06.297.107a.68.68 0 0 1 .237.216c.055.087.083.196.083.328zm-.373.007c0-.077-.016-.145-.048-.202a.37.37 0 0 0-.147-.141c-.057-.03-.124-.054-.196-.067a1.54 1.54 0 0 0-.279-.021h-.352v.898h.3a1.57 1.57 0 0 0 .349-.032.52.52 0 0 0 .219-.104c.057-.048.096-.1.12-.152a.43.43 0 0 0 .034-.18z"/><path d="M26.5 15.754h-.34v-.183l-.12.072a.89.89 0 0 1-.148.074c-.057.023-.12.043-.194.06a1.22 1.22 0 0 1-.257.023.72.72 0 0 1-.46-.152.48.48 0 0 1-.188-.39.48.48 0 0 1 .098-.313c.065-.08.158-.144.28-.2a1.76 1.76 0 0 1 .44-.093l.55-.036v-.045c0-.064-.014-.12-.04-.162s-.065-.077-.116-.102-.105-.04-.173-.047l-.2-.013c-.088 0-.187.01-.296.03a2.77 2.77 0 0 0-.338.088h-.018v-.3a3.72 3.72 0 0 1 .286-.05 2.45 2.45 0 0 1 .369-.027c.142 0 .265.01.37.03a.79.79 0 0 1 .273.102.46.46 0 0 1 .172.182c.04.074.06.166.06.275v1.157zm-.34-.42v-.477l-.363.023a2.07 2.07 0 0 0-.331.044.56.56 0 0 0-.235.11.26.26 0 0 0-.1.204c0 .1.034.172.104.222s.175.074.318.074c.12 0 .226-.02.324-.06a1.43 1.43 0 0 0 .273-.14zm2.673.42h-.34v-.97c0-.078-.005-.15-.016-.22s-.03-.122-.06-.16-.074-.075-.13-.096-.13-.03-.22-.03a.79.79 0 0 0-.29.058 1.62 1.62 0 0 0-.291.147v1.27h-.34v-1.7h.34v.2a1.46 1.46 0 0 1 .328-.174c.113-.04.23-.063.35-.063.218 0 .383.056.498.166s.17.27.17.478v1.104zm2.14-.108a2.32 2.32 0 0 1-.322.106c-.1.025-.2.038-.323.038-.145 0-.278-.02-.4-.055s-.225-.1-.312-.163a.72.72 0 0 1-.203-.277.97.97 0 0 1-.072-.39c0-.278.1-.496.27-.654s.418-.237.715-.237a1.43 1.43 0 0 1 .339.041 1.88 1.88 0 0 1 .305.101v.316h-.018c-.103-.066-.2-.118-.32-.154s-.217-.055-.322-.055c-.192 0-.344.055-.454.164s-.167.268-.167.48c0 .204.054.362.163.472s.26.164.458.164c.07 0 .138-.007.2-.02a.99.99 0 0 0 .19-.06l.14-.066c.043-.023.078-.044.103-.062h.018v.314zm2.128.108h-.34v-.97a1.4 1.4 0 0 0-.017-.22c-.01-.07-.03-.122-.06-.16s-.074-.075-.13-.096-.13-.03-.22-.03a.79.79 0 0 0-.29.058 1.62 1.62 0 0 0-.291.147v1.27h-.34v-2.37h.34v.86a1.46 1.46 0 0 1 .328-.174c.113-.04.23-.063.35-.063.218 0 .384.056.498.166s.172.27.172.478v1.104zm2.206 0h-.34v-.183l-.12.072a.97.97 0 0 1-.148.074c-.057.023-.12.043-.194.06s-.158.023-.257.023a.72.72 0 0 1-.46-.152.48.48 0 0 1-.188-.39c0-.13.032-.233.098-.313a.64.64 0 0 1 .28-.189c.12-.045.27-.076.44-.093l.552-.036v-.045c0-.064-.014-.12-.04-.162s-.065-.077-.116-.102a.54.54 0 0 0-.172-.047 1.82 1.82 0 0 0-.212-.011 1.65 1.65 0 0 0-.296.03 2.77 2.77 0 0 0-.338.088h-.02v-.3c.066-.015.162-.032.287-.05a2.45 2.45 0 0 1 .369-.027c.142 0 .265.01.37.03s.195.054.272.102.134.107.173.182a.59.59 0 0 1 .06.275v1.155zm-.34-.42v-.477l-.363.023a2.04 2.04 0 0 0-.33.044.58.58 0 0 0-.234.109.26.26 0 0 0-.1.204c0 .1.034.172.104.222s.176.074.317.074a.87.87 0 0 0 .325-.059c.097-.038.188-.085.272-.14zm2.674.42h-.34v-.97a1.4 1.4 0 0 0-.017-.22c-.01-.07-.03-.122-.06-.16s-.073-.075-.13-.096a.65.65 0 0 0-.221-.031.92.92 0 0 0-.3.058 1.62 1.62 0 0 0-.291.147v1.27h-.34v-1.7h.34v.2a1.46 1.46 0 0 1 .328-.174c.113-.04.23-.063.35-.063.218 0 .383.056.498.166s.17.27.17.478v1.104zm2.283-.194c0 .288-.078.5-.233.634s-.394.202-.717.202a2.47 2.47 0 0 1-.313-.019l-.3-.054v-.292h.018a3.03 3.03 0 0 0 .265.066 1.7 1.7 0 0 0 .361.039 1.01 1.01 0 0 0 .287-.034c.075-.023.135-.056.177-.097a.51.51 0 0 0 .1-.143c.028-.056.027-.118.027-.187v-.153a1.41 1.41 0 0 1-.293.154c-.093.034-.212.05-.356.05-.24 0-.432-.073-.573-.22s-.212-.354-.212-.62c0-.146.024-.272.073-.378a.83.83 0 0 1 .2-.275c.078-.07.173-.128.285-.168a.99.99 0 0 1 .334-.061 1.27 1.27 0 0 1 .293.03 1.41 1.41 0 0 1 .25.09l.02-.073h.318v1.508zm-.34-.273v-.926a1.46 1.46 0 0 0-.251-.073c-.078-.015-.155-.022-.232-.022a.6.6 0 0 0-.44.158c-.106.105-.16.26-.16.46s.04.335.12.433.2.148.396.148a.99.99 0 0 0 .296-.048c.098-.032.2-.075.272-.13z"/></g></g></svg>