<svg xmlns="http://www.w3.org/2000/svg" height="250" width="250" fill="#000000" version="1.1" x="0px" y="0px" viewBox="0 0 83.33335 83.333333" xml:space="preserve">
	<g transform="matrix(0.89558232,0,0,0.89558232,-4.1406908,-3.0554899)" style="fill:#581E00">
		<path d="m 22.781237,79.127022 c -0.630822,0.10437 -1.272795,0.157272 -1.90812,0.157272 -5.704196,0 -10.521253,-4.089844 -11.4537216,-9.724876 l -1.048811,-6.338189 v 14.195878 c 0,5.029068 4.0768536,9.105926 9.1059226,9.105926 h 61.668297 c 5.029068,0 9.105919,-4.076858 9.105919,-9.105926 v -9.200371 c -0.410103,0.115425 -0.8284,0.213653 -1.258263,0.284767 z" style="fill:#581E00" />
		<path d="M 96.357262,53.829315 91.298416,23.256857 c -0.83168,-5.025284 -5.125969,-8.672892 -10.212646,-8.672892 -0.5681,0 -1.139466,0.04748 -1.702652,0.140796 L 15.170967,25.349976 C 9.5333824,26.282343 5.7056866,31.628511 6.6388712,37.266094 l 5.0588468,30.57082 c 0.830862,5.026108 5.12597,8.673714 10.21183,8.673714 0.567278,0 1.140285,-0.04748 1.70429,-0.140793 l 64.21051,-10.625221 c 2.73243,-0.451859 5.122696,-1.940041 6.735306,-4.191143 1.61097,-2.251107 2.249466,-4.994999 1.797608,-7.724156 z M 21.108768,51.044697 c -0.189092,-1.141922 0.583649,-2.220814 1.725573,-2.409909 l 21.851271,-3.6165 c 1.132919,-0.189095 2.220817,0.584468 2.409908,1.725574 0.189095,1.141922 -0.583649,2.220818 -1.725574,2.409908 l -21.851267,3.616501 c -0.115422,0.01965 -0.230841,0.02783 -0.344626,0.02783 -1.006857,0 -1.895019,-0.726902 -2.065285,-1.753406 z m 35.148339,8.53619 -30.768099,5.093231 c -0.11542,0.01965 -0.230841,0.02782 -0.344624,0.02782 -1.006857,0 -1.895021,-0.726898 -2.065286,-1.753402 -0.189093,-1.141106 0.58365,-2.219998 1.725574,-2.409909 L 55.572773,55.4454 c 1.134556,-0.189911 2.219997,0.582832 2.409908,1.725575 0.188275,1.141105 -0.584469,2.219997 -1.725574,2.409908 z m 4.048714,-25.128876 -38.757473,6.416058 c -0.115422,0.01882 -0.230841,0.02783 -0.344624,0.02783 -1.006859,0 -1.895021,-0.727723 -2.065287,-1.753407 -0.189092,-1.141926 0.583651,-2.220817 1.725575,-2.409908 l 38.757477,-6.41606 c 1.139469,-0.182544 2.219997,0.583651 2.409908,1.725573 0.188272,1.141926 -0.584471,2.220818 -1.725576,2.409912 z" style="fill:#581E00" />
	</g>
</svg>
