<svg xmlns="http://www.w3.org/2000/svg" width="70" height="70" viewBox="0 0 18.521 18.521"><path d="M305.934 35.999h-6v-6h6z" style="fill:#913718;fill-rule:evenodd" transform="matrix(3.08675 0 0 3.08675 -925.823 -92.599)"/><path d="M302.934 29.999c0 .443.197.886.592 1.196.649.511 1.6.524 1.799 1.119.203-.369.587-1.23-.574-1.684.382-.012.946-.238 1.183-.631z" style="fill:#ebb223;fill-rule:evenodd" transform="matrix(3.08675 0 0 3.08675 -925.823 -92.599)"/><path d="M303.155 29.999c0 .384.17.768.509 1.035.443.349 1.201.47 1.618.845.267-.838-.652-1.075-1.26-1.382.572-.06 1.247-.043 1.647-.498z" style="fill:#f09a1f;fill-rule:evenodd" transform="matrix(3.08675 0 0 3.08675 -925.823 -92.599)"/><path d="M305.934 35.999c-.237-.394-.8-.62-1.183-.631 1.161-.455.777-1.316.574-1.684-.198.594-1.15.608-1.8 1.118-.394.31-.59.753-.59 1.197z" style="fill:#ebb223;fill-rule:evenodd" transform="matrix(3.08675 0 0 3.08675 -925.823 -92.599)"/><path d="M305.282 34.119c-.417.375-1.175.496-1.618.844a1.31 1.31 0 0 0-.51 1.036h2.515c-.4-.456-1.075-.438-1.646-.499.607-.306 1.526-.544 1.259-1.382" style="fill:#eb9b23;fill-rule:evenodd" transform="matrix(3.08675 0 0 3.08675 -925.823 -92.599)"/><path d="M299.934 32.999c.237-.394.8-.62 1.183-.631-1.16-.455-.776-1.316-.573-1.684.198.594 1.15.608 1.798 1.118.79.62.79 1.773 0 2.394-.649.51-1.6.523-1.798 1.118-.203-.369-.588-1.229.573-1.684-.382-.012-.946-.238-1.183-.631" style="fill:#ebb223;fill-rule:evenodd" transform="matrix(3.08675 0 0 3.08675 -925.823 -92.599)"/><path d="M300.586 31.119c.417.375 1.175.496 1.619.844a1.308 1.308 0 0 1 0 2.071c-.444.349-1.202.47-1.619.845-.267-.837.652-1.075 1.26-1.381-.571-.061-1.246-.043-1.646-.5.4-.455 1.075-.437 1.646-.498-.608-.306-1.527-.544-1.26-1.381" style="fill:#f09a1f;fill-rule:evenodd" transform="matrix(3.08675 0 0 3.08675 -925.823 -92.599)"/><path d="M302.858 31.705c-.653-.493-1.322-1.016-1.417-1.706h.397c.108.522.691.98 1.262 1.411 1.744 1.314 1.744 1.846 0 3.16-.577.435-1.167.9-1.266 1.429h-.396c.087-.7.761-1.227 1.42-1.724 1.532-1.155 1.532-1.415 0-2.57" style="fill:#f09a1f;fill-rule:evenodd" transform="matrix(3.08675 0 0 3.08675 -925.823 -92.599)"/><path d="M305.12 33.292a.3.3 0 0 0 .307-.293.3.3 0 0 0-.307-.294.3.3 0 0 0-.306.294.3.3 0 0 0 .306.293M300.767 30.275a.3.3 0 0 1-.306-.276h.611a.3.3 0 0 1-.305.276" style="fill:#f09a1f;fill-rule:evenodd" transform="matrix(3.08675 0 0 3.08675 -925.823 -92.599)"/><path d="M300.46 35.999a.3.3 0 0 1 .307-.294.3.3 0 0 1 .306.294z" style="fill:#eb9b23;fill-rule:evenodd" transform="matrix(3.08675 0 0 3.08675 -925.823 -92.599)"/></svg>