<?xml version="1.0" encoding="iso-8859-1"?>
<svg version="1.1" id="Capa_1" xmlns="http://www.w3.org/2000/svg" x="0px" y="0px"
	 viewBox="0 0 512 512" style="enable-background:new 0 0 512 512;" xml:space="preserve">
<path style="fill:#CACACA;" d="M480,240c0.003,68.734-31.626,133.645-85.76,176H320c-4.244-0.056-8.313,1.688-11.2,4.8l-42.88,42.56
	c-3.277,0.542-6.6,0.756-9.92,0.64c-3.32,0.116-6.643-0.098-9.92-0.64L203.2,420.8c-2.887-3.112-6.956-4.856-11.2-4.8h-74.24
	C20.469,339.729,3.43,199.029,79.701,101.739C122.162,47.576,187.178,15.957,256,16c7.04,0,13.44,0.32,20.48,0.96
	c4.44,0.548,8.474,2.853,11.2,6.4c2.693,3.56,3.74,8.1,2.88,12.48C288.9,45.136,288.044,54.557,288,64
	c0.123,79.478,64.522,143.877,144,144c9.443-0.044,18.864-0.9,28.16-2.56c4.38-0.86,8.92,0.187,12.48,2.88
	c3.547,2.726,5.852,6.76,6.4,11.2C479.68,226.56,480,232.96,480,240z"/>
<path fill="#781E00" d="M431.328,368c-8.837-0.02-15.984-7.199-15.964-16.035c0.007-3.025,0.871-5.987,2.492-8.541
	C437.516,312.509,447.971,276.637,448,240v-0.672c-5.28,0.448-10.592,0.672-16,0.672c-97.158-0.106-175.894-78.842-176-176
	c0-5.408,0.224-10.72,0.672-16H256C149.961,47.949,63.959,133.869,63.908,239.908c-0.018,36.686,10.475,72.608,30.236,103.516
	c4.593,7.549,2.197,17.392-5.352,21.985c-7.345,4.469-16.909,2.335-21.656-4.833C0.544,256.316,31.079,117.814,135.339,51.221
	C171.373,28.205,213.242,15.984,256,16c6.944,0,13.536,0.352,20.48,1.024c8.792,0.89,15.197,8.739,14.307,17.53
	c-0.046,0.453-0.111,0.903-0.195,1.35C288.847,45.167,287.979,54.574,288,64c0.088,79.492,64.508,143.912,144,144
	c9.426,0.021,18.833-0.847,28.096-2.592c8.684-1.636,17.049,4.078,18.685,12.762c0.084,0.447,0.149,0.897,0.195,1.35
	C479.648,226.464,480,233.056,480,240c-0.035,42.721-12.245,84.547-35.2,120.576C441.871,365.189,436.792,367.988,431.328,368z"/>
<path fill="#781E00" d="M256,496c-4.246,0.008-8.322-1.673-11.328-4.672L185.376,432H16c-8.837,0-16-7.163-16-16s7.163-16,16-16h176
	c4.246-0.008,8.322,1.673,11.328,4.672L256,457.376l52.672-52.704c3.006-2.999,7.082-4.68,11.328-4.672h176c8.837,0,16,7.163,16,16
	s-7.163,16-16,16H326.624l-59.296,59.328C264.322,494.327,260.246,496.008,256,496z"/>
</svg>
