<svg version="1.1" viewBox="0 0 156 156" xmlns="http://www.w3.org/2000/svg">
 <circle cx="78" cy="78" r="66.725" fill="#235c96" stroke-width=".85545"/>
 <path d="m18.118 78c0 13.345 4.2773 25.492 11.634 35.416l-2.7374-18.991zm12.832-37.127 7.8702-1.882c6.6725-9.7521 16.082-14.885 24.637-16.425l-13.516 9.41 13.345-3.2507 9.5811-5.3038-2.7374-4.7905c-15.74 2.0531-29.77 10.265-39.18 22.242zm8.7256 36.955 5.646 11.292 16.767 1.5398 9.0678 34.218h11.121l12.661-15.398-0.68436-9.5811c5.4749-4.2773 9.7521-9.581 11.463-16.425l-8.5545 2.0531-11.121-17.451 2.5664-1.7109 10.95 15.398 10.779-9.41c-5.646-0.68436-9.41-3.4218-10.95-8.2123l19.504 3.0796 7.0147 14.372 3.0796-19.162 8.7256 10.265c-2.2242-25.321-20.36-46.194-44.312-52.525 0 5.8171-3.2507 10.608-7.8702 13.345l-6.1592-3.5929-11.805 6.8436 4.1062 3.9351 6.3303-7.528-1.1976 9.2389c-7.6991 0-11.463 1.1976-16.254 3.764l-1.0265 4.7905-5.3038-1.1976-2.2242 5.9882 4.6194 1.3687c2.5664-3.2507 4.6194-5.3038 9.5811-6.5014l5.1327 5.646-3.0796 1.0265 1.882 1.5398 2.7374-3.2507-3.9351-5.4749c3.9351 0 6.1592 2.3953 7.528 8.3834l7.0147-10.265 8.5545 3.5929-0.85545 2.2242-10.094 0.85545v3.764l7.6991 0.51327-2.3953 6.1592c-14.029 0-18.136-0.34218-21.044-6.6725l-11.634-0.68436c-8.5545 5.1327-12.832 11.805-14.029 19.846zm16.596-35.416 6.8436 1.7109v-6.8436zm37.982 6.6725 3.4218-1.882 4.6194 9.5811-3.0796 0.68436zm1.882 68.265 3.0796 1.1976 5.1327-11.805-6.5014 4.1062z" fill="#94ba32" stroke-width=".85545"/>
</svg>
