<?xml version="1.0" encoding="UTF-8"?>
<!DOCTYPE svg PUBLIC "-//W3C//DTD SVG 1.1//EN" "http://www.w3.org/Graphics/SVG/1.1/DTD/svg11.dtd">
<!-- Creator: CorelDRAW X6 -->
<svg xmlns="http://www.w3.org/2000/svg" xml:space="preserve" width="200px" height="200px" version="1.1" style="shape-rendering:geometricPrecision; text-rendering:geometricPrecision; image-rendering:optimizeQuality; fill-rule:evenodd; clip-rule:evenodd"
viewBox="0 0 200 200"
 xmlns:xlink="http://www.w3.org/1999/xlink">
 <defs>
  <style type="text/css">
   <![CDATA[
    .fil0 {fill:none}
    .fil1 {fill:#A1A9A1}
   ]]>
  </style>
 </defs>
 <g id="Layer_x0020_2">
  <metadata id="CorelCorpID_0Corel-Layer"/>
  <rect class="fil0" width="200" height="200"/>
  <path class="fil1" d="M100 5c-34,0 -62,28 -62,63 0,8 1,16 4,24 6,16 15,31 24,45l34 58 34 -58c9,-14 18,-29 24,-45 3,-8 4,-16 4,-24 0,-35 -28,-63 -62,-63zm0 26c20,0 37,16 37,37 0,20 -17,37 -37,37 -20,0 -37,-17 -37,-37 0,-21 17,-37 37,-37z"/>
 </g>
</svg>
