<?xml version="1.0" encoding="UTF-8"?>
<svg xmlns="http://www.w3.org/2000/svg" xml:space="preserve" width="0.333331in" height="0.333331in" version="1.1"
 style="shape-rendering:geometricPrecision; text-rendering:geometricPrecision; image-rendering:optimizeQuality; fill-rule:evenodd; clip-rule:evenodd"
 viewBox="0 0 333 333">
 <defs>
  <style type="text/css">
   <![CDATA[
    .fil0 {fill:none;fill-rule:nonzero}
    .fil1 {fill:#691C00;fill-rule:nonzero}
    .fil2 {fill:#FFE3B2;fill-rule:nonzero}
   ]]>
  </style>
 </defs>
 <g id="Layer_x0020_1">
  <metadata id="CorelCorpID_0Corel-Layer"/>
  <g id="_558517496">
   <polygon class="fil0" points="0,333 333,333 333,0 0,0 "/>
   <path class="fil1" d="M214 213l62 70c5,6 4,14 -1,19 -6,5 -14,4 -19,-1l-62 -70c-16,10 -35,16 -55,16 -28,0 -52,-11 -70,-29l0 0c-18,-18 -29,-42 -29,-70 0,-27 11,-52 29,-70 18,-18 43,-29 70,-29 27,0 52,11 70,29 18,18 29,43 29,70 0,25 -9,48 -24,65zm-24 -116c-13,-13 -31,-21 -51,-21 -20,0 -38,8 -51,21l0 0c-14,13 -22,31 -22,51 0,20 8,38 22,52 13,13 31,21 51,21 20,0 38,-8 51,-21l0 0c13,-14 21,-32 21,-52 0,-20 -8,-38 -21,-51z"/>
   <path class="fil2" d="M221 203l62 70c5,5 4,14 -1,18 -6,5 -14,5 -19,-1l-62 -70c-15,11 -34,17 -55,17 -27,0 -52,-11 -70,-29l0 0c-18,-18 -29,-43 -29,-70 0,-28 11,-52 29,-70 18,-18 43,-29 70,-29 28,0 52,11 70,29 18,18 29,42 29,70 0,25 -9,47 -24,65zm-23 -117c-14,-13 -32,-21 -52,-21 -20,0 -38,8 -51,21l0 0c-13,14 -21,32 -21,52 0,20 8,38 21,51 13,13 31,21 51,21 20,0 38,-8 52,-21l0 0c13,-13 21,-31 21,-51 0,-20 -8,-38 -21,-52z"/>
  </g>
 </g>
</svg>
