<svg xmlns="http://www.w3.org/2000/svg" id="Layer_1" version="1.1" viewBox="0 0 100 100"><defs id="defs1"><style id="style1">.cls-1{fill:#9f3736}</style></defs><path id="path1" d="M94.66 52.18c-1.47 17.6-17.62 30.22-35.18 26.91-1.29-.24-2.54-.71-3.82-.97l4.65-4.15C77.27 77.1 92.14 62.69 89 45.56c-2.1-11.44-12.3-19.7-23.88-19.83l-4.82.48-4.65-4.15c7.53-2.36 15.58-1.92 22.67 1.62 0 0 13.83 7.07 16.17 24.05.15 1.11.19 2.19.19 2.19.03.88 0 1.64-.03 2.26Z" class="cls-1" style="fill:#edad1f;fill-opacity:1;stroke:#eb750f;stroke-opacity:1"/><path id="path2" d="M64.36 47.48c-6.75.01-13.51-.02-20.27.02-3.08.61-3.08 4.58 0 5.19 6.76.04 13.51 0 20.27.02C62.4 75.86 35.51 87.67 17.02 73.5.79 61.06 1.98 35.96 19.28 25.12c18.73-11.73 43.22.38 45.08 22.36Z" class="cls-1" style="fill:#cc1914;fill-opacity:1;stroke-width:1;stroke-dasharray:none;stroke:#6b0820;stroke-opacity:1"/><path id="path3" d="M66.596 47.541h8.203c-.247-.428-.763-.666-1.066-1.044-2.166-2.745 1.223-5.61 4.286-3.63 1.133.735 5.173 4.346 6.06 5.36 1.189 1.363 1.189 2.457 0 3.82-.887 1.014-4.927 4.635-6.06 5.36-3.086 2-6.407-.914-4.286-3.63.303-.387.819-.626 1.066-1.044h-8.203c.19-1.96.19-3.222 0-5.192z" class="cls-1" style="fill:#cc1914;fill-opacity:1;stroke:#6b0820;stroke-width:1;stroke-dasharray:none;stroke-opacity:1"/></svg>