<?xml version="1.0" encoding="UTF-8"?>
<svg width="96" height="96" version="1.1" xmlns="http://www.w3.org/2000/svg" xmlns:cc="http://creativecommons.org/ns#" xmlns:dc="http://purl.org/dc/elements/1.1/" xmlns:rdf="http://www.w3.org/1999/02/22-rdf-syntax-ns#">
 <metadata>
  <rdf:RDF>
   <cc:Work rdf:about="">
    <dc:format>image/svg+xml</dc:format>
    <dc:type rdf:resource="http://purl.org/dc/dcmitype/StillImage"/>
    <dc:title/>
   </cc:Work>
  </rdf:RDF>
 </metadata>
 <path d="m-742.65-116.52c10.572 4.085 21.372 21.045 33.84 48 25.406-50.64 54.268-94.58 80.16-132.24 3.3599-4.7999 13.299-3.5912 18 1.2002 4.5827 4.9672 4.8228 10.647 0.72 17.04-38.838 51.914-68.943 99.582-90.24 143.04-3.2684 6.67-15.993 8.5672-18.872-3.5912-5.7617-24.328-14.61-44.462-21.207-57.129-6.5974-12.667-7.0662-18.844-2.4001-16.32z" display="none" fill="#093" fill-rule="evenodd" stroke="#000" stroke-width=".5"/>
 <path d="m-975.12-187.92c-0.4703-2.8051 0.3296-3.2051 2.4001-1.1999 19.148 20.567 31.788 34.807 37.92 42.72 24.571-21.239 44.44-38.65 60.96-50.4 5.04-3.3599 12-3.3599 16.162 0.6361 4.1615 3.996 5.1982 13.044 0.6381 16.884-28.32 25.44-61.92 51.84-61.92 51.84 20.698 23.856 36.838 41.403 44.88 54.96 2.942 4.9592 0.8421 8.3279-4.32 12.24-4.0799 3.3599-9.4102 2.3386-13.68-2.16-28.56-33.84-42.24-53.04-42.24-53.04-24.963 21.603-43.469 35.608-60.746 44.886-2.88 1.9199-9.5743 4.3135-11.494 1.9142-2.5901-3.2371 0.8098-10.527 4.8327-13.754 22.798-23.779 40.685-40.904 54.207-52.486-15.6-21.6-24.463-40.413-27.6-53.04z" display="none" fill="#f00" fill-rule="evenodd" stroke="#000" stroke-width=".5"/>
 <g transform="translate(629.17 -31.486)" display="none">
  <path d="m-629.17 31.486v96h96v-96z" fill="none"/>
  <path d="m-613.25 81.605c2.0814 2.3657 7.5408 9.6035 16.596 21.528 17.056-28.414 32.573-49.954 47.228-63.919 3.9453-3.7595 8.2715-4.656 12.328-3.414 2.5254 1.2948 3.0722 4.0357 0.1898 7.0178-22.111 22.875-40.953 45.044-53.677 68.66-3.7467 6.9543-6.3698 12.025-9.0251 12.214-1.0583 0.0755-2.5256-1.082-3.8724-3.0153-7.0696-10.147-14.429-18.617-18.398-23.235-3.7279-4.3372-4.8325-5.852-5.3108-8.0609-0.4783-2.2088-2e-3 -4.6567 1.802-6.4488 1.7548-1.7436 3.762-3.1791 6.1641-3.8883 1.9365-0.572 4.0346 0.3557 5.9746 2.5605z" display="inline" fill="#337433" fill-rule="evenodd"/>
 </g>
 <g transform="translate(.0013 .0013)">
  <path d="m-0.0013-0.0013v96.003h96.003v-96.003z" fill="none"/>
  <path d="m47.261 35.746c8.0447-9.7933 15.414-19.446 23.51-27.646 2.1767-2.3947 8.8749-4.9182 13.061-1.9592 1.1673 0.8251 0.9197 3.8402 0 5.442-2.5186 4.3858-6.9137 9.9476-13.932 17.197-3.9991 4.1313-7.8442 7.8326-11.102 11.537-0.7006 0.7639-1.2811 1.562-1.7414 2.3948-0.1131 0.9304 0.1409 1.7288 0.7618 2.3944 2.8794 2.866 7.3956 6.9729 13.823 11.973 4.9344 3.8386 8.307 6.945 9.5784 9.7959 1.2279 2.7541 0.8706 5.2244-1.7417 7.6189-2.8686 3.3062-8.7073 2.6122-11.102 0.6531-14.077-12.626-21.116-18.939-21.116-18.939-4.8108 5.5801-11.777 15.521-20.898 29.823-2.8681 4.0803-6.5306 6.3131-10.014 4.5714-2.9198-1.4601-3.6407-3.7494-1.7414-7.8367 11.621-18.48 19.24-29.872 22.857-34.177-1.2346-1.4699-8.7076-7.8367-21.551-16.326-3.6278-1.9679-5.4423-5.66-4.0788-8.8047 2.9902-6.2157 8.2147-7.5218 12.351-5.1273 4.2063 2.4351 12.429 9.303 23.075 17.415z" fill="#c30003" fill-rule="evenodd"/>
 </g>
</svg>
