<?xml version="1.0" encoding="utf-8"?>
<!-- Generator: Adobe Illustrator 14.0.0, SVG Export Plug-In . SVG Version: 6.00 Build 43363)  -->
<!DOCTYPE svg PUBLIC "-//W3C//DTD SVG 1.1//EN" "http://www.w3.org/Graphics/SVG/1.1/DTD/svg11.dtd" [
	<!ENTITY ns_flows "http://ns.adobe.com/Flows/1.0/">
	<!ENTITY ns_extend "http://ns.adobe.com/Extensibility/1.0/">
	<!ENTITY ns_ai "http://ns.adobe.com/AdobeIllustrator/10.0/">
	<!ENTITY ns_graphs "http://ns.adobe.com/Graphs/1.0/">
]>
<svg version="1.1" id="Layer_1" xmlns:x="&ns_extend;" xmlns:i="&ns_ai;" xmlns:graph="&ns_graphs;"
	 xmlns="http://www.w3.org/2000/svg" xmlns:xlink="http://www.w3.org/1999/xlink" xmlns:a="http://ns.adobe.com/AdobeSVGViewerExtensions/3.0/"
	 x="0px" y="0px" width="35px" height="35.667px" viewBox="0 0 35 35.667" enable-background="new 0 0 35 35.667"
	 xml:space="preserve">
<g>
	<path fill-rule="evenodd" clip-rule="evenodd" fill="#FFE5BA" d="M20.904,23.31c1.863-2.229,2.487-4.708,2.466-7.578
		c-0.087-12.056-11.653-12.056-11.741,0c-0.021,2.87,0.603,5.349,2.467,7.578c1.02,1.094,1.611,2.496,1.611,3.998
		c0,3.639-3.291,6.176-6.778,6.176c-3.485,0-6.777-2.537-6.777-6.176c0-2.131,1.173-3.967,2.904-5.068
		c-3.207-4.242-2.636-9.783,0.7-13.969c5.76-7.228,17.728-7.228,23.487,0c3.337,4.187,3.907,9.727,0.7,13.969
		c1.731,1.102,2.905,2.938,2.905,5.068c0,3.639-3.292,6.176-6.778,6.176s-6.777-2.537-6.777-6.176
		C19.292,25.806,19.883,24.403,20.904,23.31L20.904,23.31z M8.928,25.062c-0.996,0-1.423,1.467-1.423,2.246s0.427,2.248,1.423,2.248
		c0.995,0,1.424-1.469,1.424-2.248S9.924,25.062,8.928,25.062L8.928,25.062z M26.07,25.062c-0.995,0-1.422,1.467-1.422,2.246
		s0.427,2.248,1.422,2.248c0.996,0,1.424-1.469,1.424-2.248S27.066,25.062,26.07,25.062z"/>
	<path fill-rule="evenodd" clip-rule="evenodd" fill="#00234A" d="M26.071,24.058c-1.341,0-2.429,1.455-2.429,3.25
		c0,1.797,1.088,3.252,2.429,3.252c1.34,0,2.428-1.455,2.428-3.252C28.499,25.513,27.411,24.058,26.071,24.058L26.071,24.058z
		 M8.928,24.058c1.341,0,2.428,1.455,2.428,3.25c0,1.797-1.087,3.252-2.428,3.252c-1.34,0-2.427-1.455-2.427-3.252
		C6.501,25.513,7.588,24.058,8.928,24.058L8.928,24.058z M21.656,23.976c2.017-2.4,2.74-5.098,2.719-8.251
		c-0.098-13.386-13.652-13.386-13.75,0c-0.022,3.153,0.702,5.851,2.72,8.251c0.846,0.9,1.357,2.063,1.357,3.332
		c0,2.855-2.585,5.172-5.773,5.172s-5.773-2.316-5.773-5.172c0-2.129,1.437-3.957,3.488-4.75v-0.002
		c-3.879-4.062-3.307-9.638-0.102-13.66c5.358-6.723,16.559-6.723,21.917,0c3.204,4.022,3.775,9.598-0.104,13.66v0.002
		c2.052,0.793,3.488,2.621,3.488,4.75c0,2.855-2.585,5.172-5.773,5.172c-3.188,0-5.773-2.316-5.773-5.172
		C20.296,26.038,20.807,24.876,21.656,23.976z"/>
</g>
</svg>
