<?xml version="1.0" encoding="UTF-8"?>
<!DOCTYPE svg PUBLIC "-//W3C//DTD SVG 1.1//EN" "http://www.w3.org/Graphics/SVG/1.1/DTD/svg11.dtd">
<!-- Creator: CorelDRAW X7 -->
<svg xmlns="http://www.w3.org/2000/svg" xml:space="preserve" width="4.2332mm" height="4.2332mm" version="1.1" style="shape-rendering:geometricPrecision; text-rendering:geometricPrecision; image-rendering:optimizeQuality; fill-rule:evenodd; clip-rule:evenodd"
viewBox="0 0 423 423"
 xmlns:xlink="http://www.w3.org/1999/xlink">
 <defs>
  <style type="text/css">
   <![CDATA[
    .fil0 {fill:none}
    .fil1 {fill:#EC6A1F;fill-rule:nonzero}
    .fil2 {fill:#E31E24;fill-rule:nonzero}
    .fil3 {fill:#731D00;fill-rule:nonzero}
   ]]>
  </style>
 </defs>
 <g id="Layer_x0020_1">
  <metadata id="CorelCorpID_0Corel-Layer"/>
  <g id="_340213720">
   <rect class="fil0" x="-10134" y="1834" width="423" height="423"/>
   <path class="fil1" d="M-10024 2072c0,5 -3,9 -8,9 -5,0 -9,-4 -9,-9 0,-33 14,-63 36,-84 21,-22 51,-35 84,-35 33,0 63,13 85,35 22,21 35,51 35,84 0,5 -4,9 -8,9 -5,0 -9,-4 -9,-9 0,-28 -11,-54 -30,-72 -19,-19 -44,-30 -73,-30 -28,0 -54,11 -72,30 -19,18 -31,44 -31,72z"/>
   <path class="fil1" d="M-9912 1933c0,4 -4,8 -9,8 -4,0 -8,-4 -8,-8l0 -58c0,-4 4,-8 8,-8 5,0 9,4 9,8l0 58zm-55 7c1,5 -1,10 -5,11 -4,2 -9,0 -11,-4l-14 -34c-2,-4 0,-9 5,-11 4,-2 9,0 11,5l14 33zm-48 28c3,4 3,9 0,12 -4,4 -9,4 -12,0l-41 -40c-3,-4 -3,-9 0,-12 3,-4 9,-4 12,0l41 40zm-34 45c4,2 6,7 5,11 -2,4 -7,6 -11,4l-34 -14c-4,-1 -7,-6 -5,-11 2,-4 7,-6 11,-4l34 14zm-14 54c5,0 8,3 8,8 0,5 -3,9 -8,9l-58 0c-4,0 -8,-4 -8,-9 0,-5 4,-8 8,-8l58 0zm205 -120c-2,4 -7,6 -11,4 -5,-1 -7,-6 -5,-11l14 -33c2,-5 7,-7 11,-5 4,2 6,7 5,11l-14 34zm44 33c-3,4 -9,4 -12,0 -3,-3 -3,-8 0,-12l41 -40c3,-4 8,-4 12,0 3,3 3,8 0,12l-41 40zm28 48c-4,2 -9,0 -11,-4 -2,-4 0,-9 5,-11l33 -14c5,-2 10,0 11,4 2,5 0,10 -4,11l-34 14zm8 56c-5,0 -9,-4 -9,-9 0,-5 4,-8 9,-8l57 0c5,0 9,3 9,8 0,5 -4,9 -9,9l-57 0z"/>
   <path class="fil1" d="M-10121 2146c-4,0 -8,-4 -8,-9 0,-4 4,-8 8,-8l121 0 73 -74c4,-3 9,-3 12,0l74 74 120 0c5,0 9,4 9,8 0,5 -4,9 -9,9l-124 0c-2,0 -4,-1 -6,-3l-70 -70 -70 70c-1,2 -3,3 -6,3l-124 0z"/>
  </g>
  <g id="_340223560">
   <rect class="fil0" x="-9710" y="1834" width="423" height="423"/>
   <path class="fil2" d="M-9600 2072c0,5 -4,9 -9,9 -4,0 -8,-4 -8,-9 0,-33 13,-63 35,-84 22,-22 52,-35 85,-35 33,0 63,13 84,35 22,21 35,51 35,84 0,5 -3,9 -8,9 -5,0 -9,-4 -9,-9 0,-28 -11,-54 -30,-72 -18,-19 -44,-30 -72,-30 -29,0 -55,11 -73,30 -19,18 -30,44 -30,72z"/>
   <path class="fil2" d="M-9489 1933c0,4 -4,8 -8,8 -5,0 -9,-4 -9,-8l0 -58c0,-4 4,-8 9,-8 4,0 8,4 8,8l0 58zm-55 7c2,5 0,10 -5,11 -4,2 -9,0 -11,-4l-14 -34c-1,-4 1,-9 5,-11 4,-2 9,0 11,5l14 33zm-48 28c3,4 3,9 0,12 -3,4 -9,4 -12,0l-41 -40c-3,-4 -3,-9 0,-12 4,-4 9,-4 12,0l41 40zm-34 45c5,2 7,7 5,11 -2,4 -7,6 -11,4l-34 -14c-4,-1 -6,-6 -4,-11 1,-4 6,-6 11,-4l33 14zm-14 54c5,0 9,3 9,8 0,5 -4,9 -9,9l-57 0c-5,0 -9,-4 -9,-9 0,-5 4,-8 9,-8l57 0zm205 -120c-2,4 -7,6 -11,4 -4,-1 -6,-6 -5,-11l14 -33c2,-5 7,-7 11,-5 5,2 7,7 5,11l-14 34zm44 33c-3,4 -8,4 -12,0 -3,-3 -3,-8 0,-12l41 -40c3,-4 9,-4 12,0 3,3 3,8 0,12l-41 40zm28 48c-4,2 -9,0 -11,-4 -1,-4 1,-9 5,-11l34 -14c4,-2 9,0 11,4 1,5 -1,10 -5,11l-34 14zm8 56c-5,0 -9,-4 -9,-9 0,-5 4,-8 9,-8l57 0c5,0 9,3 9,8 0,5 -4,9 -9,9l-57 0z"/>
   <path class="fil2" d="M-9697 2146c-5,0 -9,-4 -9,-9 0,-4 4,-8 9,-8l124 0c2,0 4,1 6,2l70 70 69 -70c2,-1 4,-2 6,-2l124 0c5,0 9,4 9,8 0,5 -4,9 -9,9l-120 0 -73 73c-4,3 -9,3 -12,0l-74 -73 -120 0z"/>
  </g>
  <g id="_340211560">
   <rect class="fil0" x="-9710" y="2258" width="423" height="423"/>
   <path class="fil3" d="M-9343 2524c-12,31 -33,56 -60,74 -25,18 -57,28 -90,28 -45,0 -86,-18 -115,-47 -29,-30 -47,-70 -47,-115 0,-34 10,-65 28,-91 18,-27 44,-48 74,-60 5,-2 9,1 11,5 1,3 1,7 -2,9 -10,12 -18,25 -23,40 -6,15 -9,30 -9,47 0,36 15,70 39,94 24,24 58,39 94,39 17,0 32,-3 47,-8 14,-6 28,-14 40,-24 3,-3 9,-3 12,1 2,2 2,5 1,8zm-69 60c15,-10 28,-22 38,-37 -5,3 -11,5 -17,7 -16,6 -33,10 -52,10 -41,0 -79,-17 -106,-44 -27,-27 -44,-65 -44,-106 0,-19 4,-36 10,-53 2,-6 4,-11 7,-17 -15,11 -27,24 -37,38 -16,24 -25,52 -25,82 0,40 16,76 42,103 26,26 63,42 103,42 30,0 58,-9 81,-25z"/>
  </g>
  <g id="_340204168">
   <rect class="fil0" x="-10134" y="2258" width="423" height="423"/>
   <path class="fil3" d="M-9961 2441l-99 0 80 58c3,2 5,6 4,10l-31 94 80 -58c3,-3 7,-2 10,0l80 58 -31 -94c-1,-4 1,-8 4,-10l80 -58 -99 0c-4,0 -7,-2 -8,-6l-31 -94 -31 94c-1,4 -4,6 -8,6zm-125 -17l119 0 37 -113c1,-3 3,-5 5,-6 5,-1 10,1 11,5l37 114 119 0c3,0 5,1 7,3 3,4 2,10 -2,12l-97 70 38 114c0,2 0,5 -2,8 -2,3 -8,4 -11,1l-97 -70 -96 70c-2,2 -5,3 -8,2 -5,-2 -7,-7 -6,-11l38 -114 -97 -70c-2,-1 -4,-4 -4,-7 0,-4 4,-8 9,-8z"/>
  </g>
  <g id="_340211512">
   <rect class="fil0" width="423" height="423"/>
   <path class="fil3" d="M368 267c-12,30 -34,56 -60,74 -26,17 -57,27 -91,27 -45,0 -85,-18 -114,-47 -30,-29 -48,-70 -48,-115 0,-33 10,-65 28,-91 18,-26 44,-47 75,-60 4,-1 9,1 11,5 1,3 0,7 -2,9 -10,12 -19,26 -24,40 -5,15 -8,31 -8,47 0,37 15,70 39,94 24,24 57,39 94,39 16,0 32,-3 46,-8 15,-6 29,-14 40,-24 4,-3 9,-3 12,1 2,2 3,6 2,9zm-70 60c15,-10 28,-23 38,-38 -5,3 -11,6 -16,8 -16,6 -34,9 -52,9 -42,0 -79,-17 -106,-44 -27,-27 -44,-65 -44,-106 0,-18 3,-36 9,-52 2,-6 5,-12 8,-17 -15,10 -28,23 -38,38 -16,23 -25,51 -25,81 0,40 16,77 42,103 27,26 63,43 103,43 30,0 58,-10 81,-25z"/>
  </g>
 </g>
</svg>
