<?xml version="1.0" encoding="UTF-8"?><svg id="b" xmlns="http://www.w3.org/2000/svg" viewBox="0 0 500 500"><path d="M497.75,250.01c0,136.83-110.92,247.75-247.75,247.75S2.25,386.84,2.25,250.01c0-73.26,31.8-139.09,82.35-184.45C128.45,26.19,186.43,2.26,250,2.26c136.83,0,247.75,110.92,247.75,247.75Z" fill="#fff" stroke="#c1272d" stroke-miterlimit="10" stroke-width="4"/><path d="M214.11,180.22h-67.75L58.67,92.53c4.59-5.62,9.89-11.6,16-17.71,6.17-6.18,12.21-11.54,17.88-16.17,40.52,40.52,81.05,81.05,121.57,121.57Z" fill="#c1272d"/><path d="M441.36,407.47c-3.92,4.7-8.25,9.55-13.01,14.48-7.14,7.38-14.18,13.82-20.88,19.41l-124.66-124.67h67.76c30.26,30.27,60.53,60.53,90.79,90.79Z" fill="#c1272d"/><g id="c"><path d="M143.15,296.35h-48.31l-7.34,22.22h-39.81l49.66-136.23h43.67l49.47,136.23h-40l-7.34-22.22ZM133.68,267.37l-14.69-44.06-14.49,44.06h29.18Z" fill="#4d4d4d" stroke="#fff" stroke-miterlimit="10" stroke-width="2"/><path d="M294.35,190.95c10.76,5.73,19.03,13.75,24.83,24.06,5.8,10.31,8.7,22.09,8.7,35.36s-2.93,24.86-8.79,35.17c-5.86,10.31-14.17,18.39-24.93,24.25-10.76,5.86-23.22,8.79-37.39,8.79h-53.91v-136.23h53.91c14.3,0,26.83,2.87,37.58,8.6ZM279.95,276.07c6.31-6.05,9.47-14.62,9.47-25.7s-3.16-19.87-9.47-25.99c-6.31-6.12-15.01-9.18-26.08-9.18h-13.14v69.95h13.14c11.08,0,19.77-3.02,26.08-9.08Z" fill="#4d4d4d" stroke="#fff" stroke-miterlimit="10" stroke-width="2"/><path d="M357.24,308.62c-10.18-7.54-15.65-18.32-16.43-32.37h40.39c.39,4.77,1.8,8.25,4.25,10.43,2.45,2.19,5.6,3.28,9.47,3.28,3.48,0,6.34-.87,8.6-2.61,2.25-1.74,3.38-4.15,3.38-7.25,0-3.99-1.87-7.08-5.6-9.27-3.74-2.19-9.79-4.64-18.16-7.34-8.89-2.96-16.07-5.83-21.54-8.6-5.48-2.77-10.24-6.83-14.3-12.17-4.06-5.34-6.09-12.33-6.09-20.97s2.19-16.26,6.57-22.51c4.38-6.25,10.43-10.98,18.16-14.2,7.73-3.22,16.49-4.83,26.28-4.83,15.85,0,28.5,3.7,37.97,11.11,9.47,7.41,14.52,17.81,15.17,31.21h-41.16c-.13-4.12-1.39-7.21-3.77-9.27-2.38-2.06-5.44-3.09-9.18-3.09-2.83,0-5.15.84-6.96,2.51-1.81,1.68-2.71,4.06-2.71,7.15,0,2.58,1,4.8,2.99,6.67,2,1.87,4.47,3.48,7.44,4.83,2.96,1.35,7.34,3.06,13.14,5.12,8.63,2.96,15.75,5.89,21.35,8.79,5.6,2.9,10.43,6.96,14.49,12.17,4.06,5.22,6.09,11.82,6.09,19.81s-2.03,15.39-6.09,21.83c-4.06,6.44-9.92,11.53-17.58,15.27-7.67,3.74-16.72,5.6-27.15,5.6-15.84,0-28.86-3.77-39.03-11.3Z" fill="#4d4d4d" stroke="#fff" stroke-miterlimit="10" stroke-width="2"/></g></svg>