<?xml version="1.0" encoding="UTF-8"?><svg id="c" xmlns="http://www.w3.org/2000/svg" viewBox="0 0 500 500"><g id="d"><path d="M477.93,250.01c0,125.88-102.05,227.93-227.93,227.93S22.07,375.89,22.07,250.01c0-67.4,29.25-127.97,75.76-169.69,40.35-36.22,93.69-58.24,152.17-58.24,125.88,0,227.93,102.05,227.93,227.93Z" fill="#fff"/><path d="M250,500.02c-66.78,0-129.56-26-176.78-73.22C26,379.57,0,316.79,0,250.01,0,213.88,7.54,179.01,22.42,146.37c14.37-31.52,34.78-59.27,60.66-82.49C128.98,22.69,188.26,0,250,0c66.78,0,129.56,26,176.78,73.23,47.22,47.22,73.22,110,73.22,176.78s-26,129.56-73.22,176.78c-47.22,47.22-110,73.22-176.78,73.22ZM250,44.16c-50.84,0-99.64,18.68-137.42,52.59-43.49,39.02-68.43,94.88-68.43,153.26,0,113.51,92.34,205.85,205.85,205.85s205.85-92.34,205.85-205.85S363.5,44.16,250,44.16Z" fill="#c1272d"/></g><path d="M216.98,185.81h-62.33l-80.68-80.68c4.22-5.17,9.1-10.67,14.72-16.29,5.67-5.68,11.23-10.62,16.45-14.87,37.28,37.28,74.56,74.56,111.84,111.84Z" fill="#c1272d"/><path d="M426.05,394.87c-3.61,4.32-7.59,8.79-11.97,13.32-6.57,6.79-13.05,12.72-19.2,17.85l-114.69-114.7h62.34c27.84,27.85,55.69,55.69,83.53,83.53Z" fill="#c1272d"/><g id="e"><path d="M151.7,292.65h-44.44l-6.76,20.44h-36.62l45.69-125.33h40.18l45.51,125.33h-36.8l-6.76-20.44ZM142.99,265.98l-13.51-40.53-13.33,40.53h26.84Z" fill="#4d4d4d"/><path d="M196.68,314.09h-38.95l-6.76-20.44h-43l-6.75,20.44h-38.77l46.42-127.33h41.58l46.24,127.33ZM159.17,312.09h34.65l-44.78-123.33h-38.78l-44.96,123.33h34.47l6.75-20.44h45.89l6.76,20.44ZM144.37,266.98h-29.61l14.71-44.71,14.9,44.71ZM117.52,264.98h24.07l-12.12-36.35-11.96,36.35Z" fill="#fff"/><path d="M290.8,195.67c9.89,5.27,17.51,12.65,22.84,22.13,5.33,9.48,8,20.33,8,32.53s-2.7,22.87-8.09,32.35c-5.39,9.48-13.04,16.92-22.93,22.31-9.9,5.39-21.36,8.09-34.4,8.09h-49.6v-125.33h49.6c13.16,0,24.68,2.64,34.58,7.91ZM277.55,273.98c5.81-5.57,8.71-13.45,8.71-23.64s-2.91-18.28-8.71-23.91c-5.81-5.63-13.81-8.44-24-8.44h-12.09v64.35h12.09c10.19,0,18.19-2.78,24-8.35Z" fill="#4d4d4d"/><path d="M256.22,314.09h-50.6v-127.33h50.6c13.25,0,25.04,2.7,35.04,8.03h0c10.02,5.34,17.84,12.92,23.25,22.52,5.39,9.59,8.13,20.7,8.13,33.02s-2.76,23.26-8.22,32.85c-5.46,9.6-13.31,17.24-23.32,22.69-10,5.45-21.73,8.21-34.88,8.21ZM207.63,312.09h48.6c12.81,0,24.22-2.68,33.92-7.97,9.68-5.28,17.27-12.66,22.54-21.93,5.28-9.29,7.96-20,7.96-31.86s-2.65-22.75-7.87-32.04c-5.21-9.26-12.76-16.58-22.44-21.74-9.71-5.17-21.18-7.79-34.11-7.79h-48.6v123.33ZM253.56,283.33h-13.09v-66.35h13.09c10.41,0,18.72,2.94,24.69,8.73,5.98,5.8,9.02,14.09,9.02,24.63s-3.03,18.62-9.02,24.37c-5.97,5.73-14.28,8.63-24.69,8.63ZM242.47,281.33h11.09c9.88,0,17.72-2.72,23.3-8.08h0c5.58-5.35,8.4-13.06,8.4-22.92s-2.83-17.78-8.41-23.19c-5.59-5.42-13.43-8.16-23.3-8.16h-11.09v62.35Z" fill="#fff"/><path d="M348.66,303.93c-9.36-6.93-14.4-16.86-15.11-29.78h37.15c.36,4.39,1.66,7.59,3.91,9.6,2.25,2.02,5.16,3.02,8.71,3.02,3.2,0,5.84-.8,7.91-2.4,2.07-1.6,3.11-3.82,3.11-6.67,0-3.67-1.72-6.52-5.16-8.53-3.44-2.01-9.01-4.27-16.71-6.76-8.18-2.72-14.79-5.36-19.82-7.91-5.04-2.55-9.42-6.28-13.16-11.2-3.73-4.92-5.6-11.35-5.6-19.29s2.01-14.96,6.04-20.71c4.03-5.75,9.6-10.1,16.71-13.07,7.11-2.96,15.17-4.44,24.18-4.44,14.58,0,26.22,3.41,34.93,10.22,8.71,6.82,13.36,16.39,13.95,28.71h-37.86c-.12-3.79-1.28-6.64-3.47-8.53-2.19-1.89-5.01-2.84-8.44-2.84-2.61,0-4.74.77-6.4,2.31-1.66,1.54-2.49,3.73-2.49,6.58,0,2.37.92,4.42,2.76,6.13,1.84,1.72,4.12,3.2,6.84,4.44,2.72,1.24,6.76,2.82,12.09,4.71,7.94,2.73,14.49,5.42,19.64,8.09,5.16,2.67,9.6,6.4,13.33,11.2,3.73,4.8,5.6,10.87,5.6,18.22s-1.87,14.16-5.6,20.09c-3.73,5.93-9.13,10.61-16.18,14.04-7.05,3.44-15.38,5.16-24.98,5.16-14.58,0-26.55-3.47-35.91-10.4Z" fill="#4d4d4d"/><path d="M384.57,315.33c-14.73,0-27.01-3.57-36.5-10.6-9.57-7.08-14.79-17.36-15.51-30.53l-.06-1.05h39.13l.08.92c.33,4.1,1.54,7.11,3.58,8.94,2.05,1.84,4.76,2.77,8.04,2.77,2.96,0,5.41-.74,7.3-2.19,1.83-1.41,2.72-3.34,2.72-5.87,0-3.32-1.52-5.83-4.66-7.67-3.36-1.97-8.92-4.21-16.51-6.67-8.2-2.73-14.91-5.41-19.97-7.97-5.15-2.6-9.69-6.47-13.5-11.49-3.85-5.07-5.8-11.76-5.8-19.89s2.09-15.39,6.23-21.28c4.12-5.88,9.89-10.39,17.14-13.41,7.2-3,15.47-4.52,24.56-4.52,14.74,0,26.7,3.51,35.55,10.43,8.91,6.97,13.73,16.88,14.34,29.45l.05,1.05h-39.88l-.03-.97c-.11-3.48-1.16-6.11-3.12-7.81-2-1.73-4.62-2.6-7.79-2.6-2.37,0-4.24.67-5.72,2.04-1.46,1.35-2.17,3.27-2.17,5.84,0,2.1.8,3.87,2.44,5.4,1.75,1.64,3.96,3.07,6.58,4.27,2.7,1.23,6.74,2.81,12.01,4.68,7.96,2.73,14.61,5.48,19.77,8.14,5.26,2.72,9.86,6.58,13.66,11.47,3.86,4.96,5.81,11.3,5.81,18.84s-1.94,14.56-5.75,20.62c-3.81,6.06-9.39,10.9-16.58,14.41-7.15,3.49-15.7,5.26-25.42,5.26ZM334.62,275.16c.9,12.04,5.83,21.45,14.64,27.97h0c9.14,6.77,21.02,10.2,35.31,10.2,9.41,0,17.66-1.7,24.54-5.05,6.85-3.34,12.16-7.94,15.77-13.68,3.61-5.74,5.45-12.31,5.45-19.55s-1.81-13.01-5.39-17.61c-3.63-4.66-8-8.34-13-10.92-5.07-2.62-11.63-5.32-19.51-8.03-5.33-1.9-9.43-3.49-12.18-4.75-2.82-1.28-5.21-2.84-7.11-4.62-2.04-1.9-3.07-4.21-3.07-6.86,0-3.12.95-5.58,2.81-7.31,1.84-1.71,4.22-2.58,7.08-2.58,3.67,0,6.73,1.04,9.1,3.09,2.21,1.91,3.47,4.7,3.76,8.29h35.86c-.79-11.47-5.33-20.52-13.51-26.92-8.49-6.64-20.04-10.01-34.32-10.01-8.83,0-16.83,1.47-23.79,4.37-6.9,2.88-12.38,7.15-16.28,12.72-3.89,5.55-5.86,12.33-5.86,20.14s1.82,13.97,5.4,18.68c3.62,4.78,7.93,8.45,12.81,10.91,4.97,2.52,11.59,5.16,19.69,7.85,7.72,2.5,13.41,4.8,16.9,6.84,3.75,2.2,5.65,5.36,5.65,9.4,0,3.16-1.18,5.66-3.5,7.46-2.24,1.73-5.11,2.61-8.52,2.61-3.8,0-6.95-1.1-9.38-3.28-2.27-2.03-3.67-5.17-4.15-9.34h-35.18Z" fill="#fff"/></g></svg>