<svg width="50" height="50" version="1.1" viewBox="0 0 13.229 13.229" xmlns="http://www.w3.org/2000/svg">
 <g>
  <path d="m0.064294 0.064294v13.101h13.101v-13.101z" fill="none" stroke-width=".54585"/>
  <path d="m5.5144 3.4637c1.0237 0 1.9635 0.3631 2.6974 0.96725l2.337-2.337h-1.0853v-0.82756h2.4977v2.4977h-0.82752v-1.0853l-2.337 2.337c0.60415 0.73396 0.96732 1.6736 0.96732 2.6974 0 1.1721-0.47593 2.234-1.2448 3.0031v0.0016c-0.76912 0.76888-1.831 1.2448-3.0031 1.2448-1.1721 0-2.234-0.47593-3.0031-1.2448v-0.0016c-0.76889-0.76911-1.2448-1.831-1.2448-3.0031 0-1.1721 0.47593-2.234 1.2448-3.0031v-0.00163c0.76905-0.76895 1.831-1.2448 3.0031-1.2448zm2.4206 1.8288c-0.619-0.61845-1.4751-1.0013-2.4206-1.0013-0.94559 0-1.8015 0.3827-2.4207 1.0013-0.61861 0.61917-1.0013 1.4751-1.0013 2.4206 0 0.94559 0.38293 1.8016 1.0013 2.4206 0.61917 0.61857 1.4751 1.0013 2.4207 1.0013 0.94557 0 1.8016-0.38286 2.4206-1.0013 0.61839-0.619 1.0013-1.4751 1.0013-2.4206 0-0.94559-0.3827-1.8015-1.0013-2.4206z" fill="#fff" fill-rule="evenodd" stroke-width=".54585"/>
 </g>
</svg>