<svg width="50" height="50" version="1.1" viewBox="0 0 13.229 13.229" xmlns="http://www.w3.org/2000/svg">
 <g>
  <path d="m0.15126 0.058002v13.1h13.1v-13.1z" fill="none" stroke-width=".54585"/>
  <path d="m6.7015 0.29467c2.3444 0 4.2494 1.905 4.2494 4.2494 0 2.2048-1.685 4.0208-3.8357 4.2293v2.0802h1.0505v0.82751h-1.0505v1.2405h-0.82751v-1.2405h-1.0505v-0.82751h1.0505v-2.0802c-2.1507-0.20851-3.8357-2.0244-3.8357-4.2293 0-2.3444 1.9051-4.2494 4.2494-4.2494zm0 0.82751c-1.8919 0-3.4219 1.53-3.4219 3.4219 0 1.8919 1.53 3.4219 3.4219 3.4219 1.892 0 3.4219-1.53 3.4219-3.4219 0-1.892-1.53-3.4219-3.4219-3.4219z" fill="#D6D0C5" fill-rule="evenodd" stroke-width=".54585"/>
 </g>
</svg>