<svg xmlns="http://www.w3.org/2000/svg" xml:space="preserve" width="100px" height="100px" version="1.1" shape-rendering="geometricPrecision" text-rendering="geometricPrecision" image-rendering="optimizeQuality" fill-rule="evenodd" clip-rule="evenodd" viewBox="0 0 10000 10000">
 <g>
  <rect fill="none" width="10000" height="10000"/>
  <g>
   <path fill="#A25E1D" stroke="#774515" stroke-width="130" d="M3434 5238c-4,0 -8,2 -15,4 -15,5 -23,18 -29,50 -7,33 0,61 17,65 6,2 17,9 23,16 6,7 15,12 20,13 5,0 12,6 17,13 4,7 11,13 13,13 3,0 12,7 21,16 9,8 19,16 22,16 3,0 10,6 14,13 4,7 11,13 15,13 4,0 9,6 12,13 3,7 8,13 13,13 4,0 10,5 15,10 7,9 15,10 46,11 2,0 4,0 5,0 23,0 35,-2 44,-7 10,-6 39,-11 62,-11 13,0 23,1 28,4 12,7 100,23 125,23 11,0 21,4 26,11 5,6 18,12 28,14 12,2 20,7 21,13 1,5 9,11 18,13 9,2 16,6 16,10 0,9 39,34 52,34 0,0 0,0 0,0 6,0 15,-3 20,-6 10,-8 14,-40 5,-43 -4,-1 -10,-10 -13,-20 -4,-10 -9,-17 -12,-18 -3,0 -9,-8 -12,-17 -3,-10 -17,-28 -30,-42 -13,-13 -26,-29 -29,-34 -2,-6 -8,-10 -12,-10 -4,0 -8,-5 -10,-11 -1,-6 -7,-12 -13,-13 -6,-2 -11,-6 -11,-10 0,-4 -5,-11 -12,-15 -7,-5 -13,-13 -15,-19 -1,-6 -7,-12 -13,-13 -6,-2 -11,-7 -11,-12 0,-10 -22,-36 -31,-36 -4,0 -78,-2 -166,-4 -155,-3 -159,-4 -174,-15 -8,-7 -24,-14 -34,-16 -11,-3 -27,-10 -37,-16 -12,-8 -17,-11 -22,-11zm1603 184c-3,0 -6,0 -10,0 -47,1 -59,21 -61,97 0,28 -3,42 -12,57 -8,15 -13,35 -16,73 -2,29 -7,56 -10,62 -3,6 -8,33 -10,60 -2,28 -7,58 -11,67 -8,21 -1,50 17,62 7,5 17,12 23,17 6,5 16,10 23,13 7,2 17,8 22,13 7,6 23,10 58,12 36,3 54,7 70,15 15,9 48,13 74,13 17,0 32,-2 38,-7 11,-9 9,-72 -4,-92 -4,-8 -10,-28 -14,-46 -3,-17 -9,-36 -14,-41 -6,-6 -10,-21 -12,-41 -2,-19 -7,-35 -12,-41 -5,-5 -10,-21 -12,-37 -2,-16 -7,-34 -12,-40 -6,-7 -10,-26 -13,-45 -1,-18 -7,-40 -11,-48 -5,-9 -11,-32 -13,-53 -5,-40 -17,-59 -46,-69 -6,-2 -19,-3 -33,-3zm1566 359c-39,0 -63,6 -68,17 -2,4 -4,23 -6,42 -2,19 -8,53 -14,77 -5,24 -12,59 -14,79 -2,19 -8,46 -14,58 -5,13 -12,38 -14,56 -3,22 -8,37 -14,44 -6,7 -12,21 -13,35 -2,14 -8,29 -13,35 -5,6 -12,20 -13,30 -2,11 -9,29 -15,40 -7,11 -14,27 -15,35 -2,8 -8,20 -13,27 -6,6 -12,20 -14,30 -2,10 -8,24 -13,30 -5,7 -11,19 -13,28 -2,9 -6,19 -9,22 -12,15 20,53 46,53 0,0 0,0 0,0 16,0 48,-29 59,-52 5,-11 13,-21 37,-45 6,-6 12,-16 15,-22 2,-6 8,-13 12,-14 5,-1 15,-11 23,-22 18,-23 52,-57 83,-84 13,-11 34,-30 47,-42 13,-11 27,-21 31,-21 0,0 0,0 0,0 0,0 0,0 0,0 4,0 15,-8 26,-18l19 -18 -3 -55c-2,-30 -3,-66 -4,-80 -1,-16 -4,-28 -9,-31 -5,-4 -8,-11 -8,-16 0,-6 -5,-20 -12,-33 -8,-17 -12,-35 -14,-71 -4,-58 -9,-88 -20,-105 -7,-11 -12,-12 -48,-13 -2,0 -4,0 -6,0zm-4898 -5333c20,0 80,15 85,22 3,4 17,13 30,20 21,12 33,14 103,19 68,5 81,7 93,17 8,6 24,13 35,14 12,2 22,7 24,11 1,4 12,12 23,20 26,16 90,81 107,108 6,11 14,20 17,20 3,0 6,6 8,14 1,8 7,17 12,21 5,4 10,14 12,25 2,10 7,20 12,23 5,3 11,13 13,24 1,10 7,25 13,32 7,11 10,30 15,103 3,49 5,105 3,125 -8,113 -17,196 -24,216 -10,27 -19,149 -14,180 4,29 25,78 38,93 10,11 14,24 8,24 0,0 0,0 0,0 -7,0 -33,-16 -33,-21 0,-3 -5,-6 -11,-8 -7,-2 -17,-10 -25,-17 -21,-21 -41,-37 -54,-40 -6,-2 -11,-6 -11,-10 0,-4 -5,-8 -13,-10 -7,-2 -16,-7 -19,-13 -3,-5 -12,-12 -19,-16 -7,-4 -16,-11 -19,-16 -3,-5 -13,-10 -21,-13 -9,-2 -15,-7 -15,-11 0,-4 -7,-10 -15,-13 -9,-3 -15,-9 -15,-13 0,-4 -5,-10 -11,-13 -6,-3 -25,-19 -43,-34 -18,-16 -34,-28 -37,-28 -3,0 -5,-3 -5,-7 0,-4 -4,-11 -10,-15 -6,-4 -17,-16 -25,-27 -8,-11 -21,-28 -30,-38 -9,-10 -15,-21 -15,-25 0,-4 -5,-10 -13,-13 -7,-3 -13,-10 -13,-14 0,-5 -4,-13 -10,-19 -6,-5 -14,-17 -17,-26 -4,-9 -10,-17 -15,-17 -5,0 -8,-4 -8,-8 0,-5 -5,-13 -11,-20 -7,-7 -14,-19 -18,-28 -3,-9 -10,-20 -16,-25 -5,-5 -10,-12 -9,-15 0,-9 -12,-13 -36,-13 -1,0 -2,0 -2,0 -14,0 -19,2 -24,12 -3,7 -10,13 -15,13 0,0 0,0 0,0 0,0 0,0 0,0 -5,0 -18,7 -29,17l-19 17 -1 74c-1,54 -3,75 -8,81 -4,5 -10,31 -13,60 -4,29 -11,65 -16,81 -5,16 -11,41 -14,56 -2,15 -10,39 -17,53 -6,14 -12,30 -12,36 0,6 -5,15 -10,20 -5,5 -13,17 -16,27 -4,10 -11,21 -16,25 -5,4 -9,10 -9,14 0,4 -4,7 -8,7 0,0 0,0 0,0 0,0 0,0 0,0 -21,0 -24,61 -5,100 22,45 24,221 5,456 -6,73 -10,97 -17,97 0,0 0,0 0,0l0 0c-2,0 -7,11 -11,25 -4,14 -9,25 -12,25 0,0 0,0 0,0 0,0 0,0 0,0 -3,0 -8,7 -12,15 -5,8 -11,15 -14,15 0,0 0,0 0,0 0,0 0,0 0,0 -4,0 -12,5 -17,12 -6,7 -13,13 -16,14 -3,1 -7,8 -9,15 -4,16 13,41 29,41 7,0 23,13 42,34 28,31 32,37 31,55 0,12 4,29 12,41 9,16 12,32 14,64 1,27 6,52 12,66 8,19 10,40 12,130 3,130 3,124 -3,169 -2,20 -7,37 -10,37 0,0 0,0 0,0 0,0 0,0 0,0 -6,0 -45,37 -45,44 0,3 -5,8 -10,13 -7,6 -10,15 -11,28 0,28 12,37 54,41 39,4 50,12 67,53 5,12 13,23 17,25 5,2 9,13 11,26 1,12 7,28 12,34 5,6 10,21 12,33 2,12 9,36 15,53 6,16 12,39 11,49 0,11 5,32 12,47 7,15 12,36 12,47 0,10 5,37 12,58 7,22 12,50 12,63 0,18 -4,29 -13,42 -7,10 -13,20 -13,23 0,4 -5,10 -10,15 -24,22 -2,58 36,59 7,0 21,6 32,13 11,7 24,13 29,13 5,0 11,5 14,10 3,6 11,11 17,14 7,2 13,8 15,13 1,6 7,11 13,13 6,2 11,5 11,7 0,6 39,46 45,47 3,0 5,3 5,6 0,7 37,46 44,46 3,0 8,6 10,13 3,7 8,13 11,13 7,0 65,61 65,67 0,3 5,8 13,11 7,3 13,9 13,12 0,4 5,11 13,15 7,5 13,12 13,15 0,4 5,10 13,12 8,3 13,9 13,15 0,6 4,13 9,17 5,4 13,14 17,23 4,9 11,18 16,19 4,2 8,8 9,15 1,7 6,14 12,17 7,3 12,8 12,12 0,4 6,14 13,24 8,9 19,26 26,36 7,11 17,25 24,31 7,7 12,21 14,35 3,21 2,25 -10,35 -24,22 -5,65 31,65 8,0 18,5 23,11 5,6 14,11 19,14 20,7 144,134 144,147 0,3 5,7 13,10 8,3 13,9 13,15 0,6 4,13 10,16 6,3 10,9 10,13 0,4 6,15 15,25 8,10 15,21 15,25 0,4 5,15 12,25 7,10 12,23 12,29 0,6 5,18 12,27 7,9 12,21 12,28 0,7 5,18 12,25 7,6 14,18 15,26 1,8 7,18 13,24 13,12 13,44 -1,56 -13,11 -14,44 -3,56 4,5 13,8 20,8 7,0 22,4 34,10 12,6 35,12 51,14 17,2 36,8 43,14 8,6 25,13 38,15 13,3 28,9 33,13 5,5 18,10 29,12 11,2 23,8 26,13 3,5 10,9 14,9 4,0 15,7 24,16 10,9 21,16 24,16 4,0 11,5 17,10 6,6 23,21 38,33 25,21 41,38 69,74 8,11 14,12 71,16l62 4 16 -15c8,-9 17,-23 19,-33 2,-11 6,-19 9,-19 0,0 0,0 0,0l0 0c3,0 9,-10 15,-23 6,-13 13,-23 15,-23l0 0c3,0 9,-9 15,-19 6,-11 14,-22 18,-26 5,-4 8,-11 8,-16 0,-5 5,-10 10,-12 6,-2 12,-11 16,-23 3,-11 10,-24 14,-29 4,-5 17,-18 28,-30l20 -22 130 2c117,2 132,3 152,12 12,6 38,13 58,17 19,3 45,10 56,16 11,5 32,11 47,13 18,3 27,6 27,11 0,4 6,10 14,14 8,3 18,11 22,16 6,7 17,10 38,13 18,2 35,7 42,12 7,5 25,11 42,13 17,2 36,8 42,13 6,5 18,11 25,13 13,3 53,38 83,71 7,8 16,15 19,15 4,0 7,4 7,8 0,4 6,11 15,16 8,5 15,11 15,15 0,4 5,9 13,12 7,3 13,9 13,13 0,4 5,10 13,13 7,3 13,9 13,13 0,4 5,11 13,15 7,5 13,11 13,14 0,3 12,20 26,37 15,18 28,36 30,40 1,5 6,9 11,9 4,0 9,5 11,11 3,12 12,26 38,58 8,10 14,20 14,24 0,4 4,11 10,17 14,15 33,44 40,61 3,8 9,15 15,17 7,2 10,8 9,18 0,10 4,18 12,25 7,6 13,13 12,17 0,4 7,17 15,30 8,13 15,26 15,29 0,4 4,9 10,11 5,3 11,12 13,20 5,22 16,32 42,35 13,2 34,8 46,12 13,5 39,9 60,9 4,0 8,0 12,0 36,0 39,-8 44,-62 2,-24 8,-61 13,-80 7,-26 10,-65 12,-153 4,-132 7,-174 19,-200 6,-13 10,-44 13,-100l4 -81 18 -22c10,-12 27,-26 37,-32 11,-5 20,-12 20,-14 0,-3 14,-5 32,-5 1,0 3,0 5,0 28,0 41,3 53,11 9,6 28,13 43,14 15,2 27,7 29,11 1,4 10,10 19,14 9,4 37,31 63,60 56,63 80,87 135,141 22,22 41,43 41,46 0,4 5,15 12,26 7,10 12,24 12,29 0,6 5,16 12,25 7,8 13,24 15,36 1,12 7,27 12,33 5,7 10,25 12,42 1,18 7,36 12,44 6,9 10,26 12,53 2,21 6,49 11,61 4,12 11,49 14,81 4,32 10,68 14,79 4,11 8,43 10,71 2,28 7,64 11,81 5,16 11,40 12,52 2,19 6,26 27,44 14,12 35,24 47,29 9,3 15,4 20,4 7,0 13,-2 24,-8 12,-5 23,-12 24,-15 1,-3 7,-10 14,-17 11,-12 11,-17 17,-130 5,-112 6,-119 19,-142 12,-23 13,-29 16,-123 2,-77 5,-103 11,-117 5,-10 11,-43 15,-73 4,-31 10,-60 14,-66 5,-7 8,-33 10,-77 2,-43 6,-71 10,-79 19,-33 29,-44 41,-49 7,-2 18,-9 25,-15 8,-7 17,-10 26,-10 9,0 18,3 28,8 8,5 21,12 28,16 7,4 19,14 28,23 8,9 20,22 26,28 7,7 11,18 11,24 0,7 3,18 7,26 10,21 13,39 16,99 3,48 5,57 14,64 9,8 11,16 13,62 2,29 6,66 10,81 11,40 8,194 -5,234 -5,15 -11,51 -13,79 -3,33 -7,57 -13,69 -5,10 -12,38 -15,63 -3,25 -8,48 -11,52 -3,4 -10,27 -14,53 -4,26 -12,53 -17,60 -6,9 -10,27 -11,64 -3,45 -2,52 8,65 5,8 10,16 10,19 0,10 16,18 33,18 0,0 0,0 1,0 25,-1 36,-8 41,-27 2,-9 10,-22 16,-28 7,-6 12,-16 13,-21 0,-6 5,-16 11,-22 5,-7 13,-22 15,-34 3,-12 9,-24 13,-27 5,-3 10,-15 12,-26 2,-11 8,-25 13,-31 6,-6 13,-24 16,-41 4,-16 10,-33 13,-38 4,-5 10,-21 13,-38 3,-16 10,-34 14,-39 5,-6 10,-24 12,-47 3,-26 8,-42 15,-51 7,-9 11,-24 15,-54 2,-23 7,-47 12,-53 4,-6 10,-29 14,-51 4,-24 11,-46 17,-54 6,-9 11,-25 13,-43 2,-21 6,-32 12,-36 5,-3 11,-14 13,-23 2,-10 9,-22 16,-29 7,-6 12,-13 12,-15 0,-6 33,-52 39,-54 9,-3 44,-40 45,-45 0,-3 5,-11 11,-17 7,-7 17,-18 22,-25 6,-7 17,-16 23,-19 7,-3 16,-10 20,-16 4,-5 11,-9 15,-9 0,0 0,0 0,0 0,0 0,0 0,0 5,0 15,-5 24,-12 8,-7 18,-12 22,-12 0,0 0,0 0,0 0,0 0,0 0,0 4,0 16,-4 27,-10 12,-6 24,-9 35,-9 12,0 23,3 36,10 11,6 26,11 35,11 8,0 19,5 24,11 5,6 17,11 26,14 10,2 19,8 23,15 3,6 9,15 14,21 12,14 35,93 33,115 -2,31 5,78 17,110 7,20 12,47 13,79 2,30 6,60 12,78 12,35 12,51 1,85 -8,23 -9,27 -1,47 4,12 9,37 10,55 2,25 6,36 16,50 14,18 19,20 54,26 11,2 24,9 30,15 6,6 15,13 20,15 5,2 9,6 9,9 0,3 11,12 24,20l23 15 20 -10c11,-6 23,-15 25,-22 2,-7 8,-12 12,-12 0,0 0,0 0,0 0,0 0,0 0,0 4,0 12,-4 16,-10 5,-6 19,-11 31,-13 12,-1 28,-8 36,-13 25,-20 137,-34 235,-34 27,0 54,1 77,4 33,4 72,9 87,13 15,3 50,8 76,11 27,3 59,10 71,16 13,5 35,12 50,14 15,2 35,8 43,13 9,5 25,11 37,13 12,2 22,7 24,11 1,4 12,10 24,14 12,4 29,12 39,18 10,7 21,12 26,12 5,0 15,5 22,12 36,33 45,40 64,40 3,0 7,0 11,-1 15,-1 28,-5 29,-8 1,-3 7,-13 14,-22 7,-9 16,-24 20,-33 4,-9 10,-17 13,-17 0,0 0,0 0,0 0,0 0,0 0,0 3,0 8,-6 10,-12 3,-8 10,-13 22,-15 10,-2 19,-6 21,-10 2,-4 11,-8 21,-10 10,-2 23,-9 29,-15 6,-6 15,-12 18,-12 0,0 0,0 0,0 0,0 0,0 0,0 4,0 17,-4 29,-10 12,-5 40,-12 62,-14 26,-3 45,-8 54,-14 10,-7 27,-10 64,-12 31,-2 59,-6 73,-12 14,-6 27,-8 79,-8 21,0 49,0 87,1 134,2 146,3 168,13 13,6 40,12 60,14 23,2 46,8 61,16 14,7 30,13 37,13 7,0 23,6 37,13 14,7 30,13 36,13 6,0 17,6 26,13 8,7 20,13 26,13 7,0 22,7 34,16 12,8 25,16 28,16 4,0 7,3 7,7 0,4 4,9 11,11 6,2 18,10 26,18 9,8 21,16 27,18 7,2 12,7 12,11 0,4 5,9 13,11 7,2 14,7 15,12 1,5 8,11 15,12 7,2 13,7 13,11 0,4 5,11 12,16 7,5 13,12 13,15 0,4 5,10 13,12 7,3 13,9 13,13 0,5 5,15 12,24 7,8 12,18 12,22 0,4 5,13 12,21 7,8 12,19 12,24 0,6 5,16 12,23 7,7 12,17 12,23 0,13 9,37 15,42 3,2 8,20 12,40 4,20 10,42 14,48 3,6 7,36 9,69 2,42 5,65 12,79 5,11 11,29 13,40 2,12 7,23 14,27 7,4 13,12 14,18 1,6 6,10 10,10 4,0 10,7 13,15 2,8 7,15 10,15 3,0 10,10 14,23 5,12 13,24 17,25 5,2 8,8 8,14 0,6 5,15 12,22 8,7 12,16 12,25 0,8 5,21 12,29 7,9 12,20 12,26 0,5 5,18 11,28 6,10 13,24 15,32 2,8 9,22 16,30 7,8 12,20 12,26 0,7 4,16 9,21 6,5 11,19 13,30 2,11 9,31 15,44 6,13 12,28 12,33 0,6 5,17 11,26 15,22 23,64 15,87 -6,20 -35,54 -46,54 0,0 0,0 0,0 -4,0 -12,-5 -19,-10 -7,-6 -14,-10 -16,-10 -2,0 -6,-8 -9,-17 -3,-10 -11,-23 -18,-28 -7,-6 -13,-16 -12,-22 0,-6 -4,-15 -10,-21 -6,-6 -11,-16 -13,-24 -2,-8 -7,-19 -12,-25 -5,-6 -12,-18 -15,-27 -3,-9 -8,-16 -12,-16 -4,0 -8,-5 -10,-10 -4,-13 -10,-19 -22,-19 -5,0 -12,1 -21,3l-26 6 -18 -20c-10,-11 -20,-24 -22,-29 -2,-5 -8,-9 -12,-9 -4,0 -9,-6 -10,-14 -1,-8 -7,-17 -12,-20 -5,-4 -11,-15 -14,-27 -3,-11 -9,-22 -13,-23 -4,-2 -8,-11 -10,-21 -2,-10 -7,-20 -13,-24 -6,-3 -11,-13 -13,-23 -1,-10 -7,-22 -13,-26 -6,-4 -13,-12 -16,-19 -3,-6 -13,-14 -21,-17 -9,-3 -20,-9 -25,-14 -6,-5 -16,-11 -23,-13 -7,-2 -17,-8 -23,-13 -6,-5 -20,-11 -32,-13 -13,-2 -23,-8 -26,-13 -3,-6 -14,-11 -25,-13 -12,-2 -26,-10 -33,-16 -7,-7 -15,-12 -18,-13 -3,0 -5,-3 -5,-7 0,-4 -4,-11 -10,-15 -5,-4 -11,-17 -14,-29 -2,-12 -11,-29 -18,-37 -12,-13 -18,-15 -40,-15 -1,0 -1,0 -2,0 -16,0 -30,3 -41,9 -9,5 -29,12 -46,15 -16,3 -35,9 -41,13 -13,8 -86,12 -168,12 -110,0 -236,-7 -254,-18 -7,-4 -30,-10 -52,-14 -22,-3 -52,-11 -66,-16 -14,-6 -39,-12 -54,-14 -18,-2 -31,-7 -33,-11 -2,-4 -19,-10 -37,-14 -18,-3 -37,-10 -41,-14 -5,-4 -20,-9 -33,-12 -13,-3 -28,-10 -34,-15 -6,-6 -14,-10 -19,-10 -4,0 -16,-7 -27,-16 -11,-9 -22,-16 -26,-16 -4,0 -15,-5 -23,-12l-16 -11 -272 -5c-278,-5 -310,-7 -330,-21 -9,-6 -35,-9 -101,-13 -49,-3 -92,-8 -96,-11 -4,-3 -30,-10 -60,-15 -29,-6 -56,-12 -59,-15 -9,-7 -24,-11 -36,-11 -5,0 -10,1 -14,2 -7,3 -12,7 -12,9 0,2 -6,5 -13,6 -7,2 -13,6 -13,10 0,4 -9,12 -21,18 -11,6 -21,13 -21,15 0,3 -7,7 -15,10 -9,2 -18,9 -21,14 -3,5 -8,10 -12,10 0,0 0,0 0,0 0,0 0,0 0,0 -4,0 -15,6 -26,15 -11,8 -24,15 -29,15 0,0 0,0 0,0 0,0 0,0 0,0 -6,0 -11,4 -13,9 -2,7 -9,11 -25,13 -12,1 -28,7 -34,12 -7,5 -22,11 -34,13 -12,2 -26,7 -31,12 -7,7 -21,10 -42,12 -18,2 -47,7 -65,12 -23,6 -62,10 -127,12 -65,3 -96,6 -102,11 -5,4 -14,9 -23,12 -8,3 -14,8 -14,11 0,3 -6,10 -13,16 -7,5 -13,12 -13,14 0,3 -11,16 -25,30 -14,14 -27,28 -30,32 -5,8 -24,16 -35,16 -2,0 -4,0 -5,-1 -1,-1 -3,-1 -5,-1 -12,0 -33,11 -39,22 -5,8 -5,17 -1,34 6,26 6,58 1,104 -3,25 -6,31 -15,35 -4,2 -7,2 -10,2 -3,0 -6,-1 -8,-2 -4,-3 -19,-5 -35,-5 -21,0 -30,-3 -42,-13 -8,-7 -19,-13 -24,-13 -5,0 -15,-5 -21,-10 -7,-5 -20,-14 -30,-18 -32,-16 -52,-28 -61,-39 -8,-9 -16,-11 -42,-11 -2,0 -4,0 -6,0 -22,0 -30,3 -45,14 -10,7 -20,18 -22,23 -6,17 2,44 15,53 7,5 13,12 13,16 0,4 5,14 12,23 7,8 12,20 12,25 0,6 6,19 13,30 8,13 12,26 11,35l-2 14 -69 3c-14,0 -29,1 -45,1 -99,0 -226,-9 -243,-18 -9,-5 -30,-11 -48,-14 -18,-3 -37,-9 -41,-14 -5,-5 -18,-11 -28,-14 -11,-3 -23,-10 -26,-15 -3,-6 -10,-10 -14,-10 -4,0 -12,-6 -18,-13 -7,-8 -18,-14 -34,-16 -13,-2 -29,-8 -35,-13 -8,-7 -20,-10 -38,-10 -1,0 -2,0 -4,0 -19,0 -26,3 -39,15 -9,8 -17,19 -17,25 0,5 -6,16 -13,24 -7,8 -14,19 -16,25 -2,7 -7,12 -11,12 0,0 0,0 0,0 0,0 0,0 0,0 -4,0 -10,5 -12,13 -3,7 -8,13 -13,13 0,0 0,0 0,0 0,0 0,0 0,0 -4,0 -11,5 -14,13 -3,7 -8,13 -11,13l0 0c-7,0 -45,38 -45,44 0,3 -8,6 -18,8 -10,2 -20,7 -24,12 -4,5 -12,11 -20,12 -13,3 -51,34 -98,79 -21,20 -26,23 -53,25 -25,3 -33,6 -48,20 -11,11 -18,21 -17,27 2,17 23,23 88,24 49,1 66,3 84,11 16,7 41,11 83,15 47,4 65,7 77,15 10,6 30,11 53,14 25,2 42,7 50,14 8,5 24,12 38,15 13,3 29,10 36,15 7,6 19,10 27,11 8,0 21,6 29,13 9,7 21,13 29,13 7,0 21,6 29,13 9,7 23,14 31,16 8,2 21,8 27,14 7,5 16,10 21,10 5,0 17,7 28,16 11,8 24,16 29,16 6,0 17,6 25,13 8,7 19,13 24,13 5,0 12,4 15,8 4,4 16,10 27,14 11,3 27,12 35,18 8,7 19,12 24,12 6,0 18,6 27,13 9,7 21,13 26,13 5,0 15,6 24,13 8,7 20,13 25,13 6,0 18,6 26,13 9,7 24,14 33,16 10,2 23,8 30,13 7,5 21,11 32,13 11,2 25,9 33,14 7,5 22,11 33,13 11,2 26,8 33,14 8,6 23,12 33,14 11,2 26,8 33,13 7,6 23,12 35,13 12,2 30,9 40,16 10,6 25,12 34,12 10,0 25,6 35,13 10,7 25,13 32,13 7,0 21,5 31,12 10,6 27,13 39,15 12,3 28,9 35,15 8,5 23,12 34,14 11,2 26,8 33,13 7,5 22,11 34,13 12,2 24,7 27,11 3,4 16,10 28,13 12,3 29,12 38,18 9,7 23,13 30,13 8,0 18,5 23,11 5,6 17,12 27,14 10,2 24,8 30,13 6,5 20,11 29,13 10,2 23,9 29,16 7,7 16,12 20,13 4,0 13,6 19,13 6,7 15,13 19,13 5,0 14,6 20,13 7,7 16,13 20,13 5,0 13,6 19,13 6,7 14,13 18,13 4,0 15,7 26,16 11,8 22,16 25,16 3,0 9,5 12,10 3,6 14,12 24,16 10,3 18,8 18,11 0,3 6,11 15,18 9,8 17,20 18,28 2,8 7,18 12,21 5,4 11,14 12,24 2,9 8,19 13,22 5,3 10,8 10,11 0,2 -2,3 -5,3 -8,0 -24,-6 -31,-15 -5,-5 -17,-11 -27,-13 -10,-2 -22,-8 -27,-13 -8,-8 -22,-10 -86,-14 -49,-3 -84,-7 -96,-13 -12,-5 -51,-10 -121,-14 -57,-4 -128,-11 -159,-16 -42,-7 -88,-11 -122,-11 -27,0 -47,2 -50,7 -4,6 -18,9 -45,11 -24,2 -45,7 -56,13 -12,7 -42,11 -70,11 -28,0 -54,-3 -61,-10 -6,-6 -27,-12 -63,-17 -29,-5 -56,-10 -59,-12 -1,-1 -6,-1 -13,-1 -10,0 -26,1 -42,2 -27,3 -101,6 -163,8 -87,2 -116,4 -126,10 -7,4 -32,8 -64,10 -35,2 -58,6 -71,12 -11,5 -35,10 -60,12 -39,2 -69,9 -75,17 -2,2 -24,6 -51,8 -27,3 -53,8 -60,12 -7,4 -29,10 -50,11 -22,2 -45,8 -55,14 -9,5 -27,11 -39,12 -12,1 -32,7 -44,12 -11,5 -30,12 -41,14 -20,4 -20,4 -22,29 -2,28 6,38 28,39 7,0 19,6 27,13 8,7 21,13 27,13 19,0 42,28 42,49 0,10 3,20 8,24 4,4 10,14 14,23 8,21 55,65 68,65 6,0 12,4 13,8 2,4 13,12 24,17 11,5 24,14 28,18 3,5 12,9 19,9 7,0 23,6 36,13 13,7 28,13 34,13 6,0 21,6 34,13 13,7 30,13 36,13 7,0 20,5 29,12 14,10 24,12 123,17 88,4 112,7 130,16 13,5 39,12 58,14 19,2 40,7 46,11 16,10 42,13 181,21 82,4 142,10 163,15 21,5 43,8 62,8 18,0 34,-2 47,-6 12,-4 58,-9 117,-11 54,-2 110,-7 128,-11 25,-6 43,-10 59,-10 15,0 28,3 44,9 30,11 79,16 121,16 41,0 76,-5 85,-15 3,-4 13,-6 21,-6 0,0 0,0 1,0 12,1 13,2 4,3 -7,1 -14,7 -17,15 -3,7 -9,12 -15,12 0,0 0,0 0,0 0,0 0,0 0,0 -5,0 -13,5 -18,12 -5,7 -11,13 -15,13 0,0 0,0 0,0 0,0 0,0 0,0 -4,0 -13,5 -20,12 -7,7 -22,13 -32,15 -10,2 -23,7 -28,13 -5,5 -19,10 -30,12 -11,1 -25,7 -29,13 -5,5 -18,11 -28,12 -10,2 -25,7 -32,13 -8,5 -27,11 -42,14 -16,2 -38,9 -51,14 -12,5 -32,9 -47,9 0,0 -1,0 -1,0 -1,0 -2,0 -2,0 -27,0 -50,7 -56,15 -2,3 -23,7 -48,9 -24,2 -53,7 -63,12 -13,5 -45,9 -91,11 -48,2 -78,6 -92,12 -15,6 -51,9 -148,14 -69,3 -103,4 -134,4 -37,0 -71,-2 -157,-7 -105,-7 -132,-10 -157,-19 -20,-7 -51,-13 -97,-16 -45,-3 -73,-8 -83,-14 -9,-5 -33,-11 -55,-14 -22,-3 -49,-10 -60,-16 -13,-7 -29,-11 -47,-11 -17,0 -34,-4 -46,-10 -11,-6 -35,-13 -54,-17 -19,-3 -39,-10 -43,-13 -5,-4 -21,-10 -37,-13 -16,-3 -33,-10 -38,-15 -5,-5 -20,-12 -34,-14 -13,-2 -30,-8 -36,-13 -7,-5 -22,-12 -33,-13 -12,-2 -27,-9 -33,-14 -7,-6 -16,-10 -21,-10 -5,0 -15,-6 -23,-13 -8,-7 -25,-15 -37,-19 -13,-4 -27,-11 -32,-16 -5,-5 -15,-10 -21,-10 -7,0 -17,-5 -23,-11 -6,-6 -19,-13 -30,-15 -11,-2 -24,-10 -30,-15 -6,-6 -19,-13 -28,-14 -10,-2 -19,-7 -20,-11 -1,-4 -13,-10 -26,-13 -13,-3 -25,-10 -28,-15 -2,-5 -13,-10 -24,-12 -12,-2 -22,-8 -26,-14 -3,-6 -11,-10 -17,-10 -6,0 -12,-4 -13,-10 -1,-5 -7,-11 -12,-13 -6,-2 -11,-10 -12,-17 -1,-8 -11,-20 -21,-28 -16,-13 -22,-14 -60,-15 -33,0 -47,-3 -62,-11 -12,-7 -37,-12 -65,-16 -25,-2 -52,-8 -60,-13 -9,-5 -27,-10 -41,-12 -15,-3 -31,-10 -40,-16 -8,-7 -20,-14 -27,-16 -7,-2 -12,-6 -12,-10 0,-4 -6,-9 -15,-12 -8,-3 -17,-10 -21,-16 -3,-6 -9,-11 -13,-11 -5,0 -15,-7 -24,-16 -9,-9 -20,-16 -25,-16 -6,0 -10,-4 -10,-8 0,-5 -4,-10 -9,-11 -5,-2 -17,-13 -27,-24 -10,-12 -23,-26 -29,-32 -6,-6 -11,-12 -10,-14 0,-6 -41,-65 -45,-65 -2,0 -5,-11 -7,-25 -2,-14 -7,-30 -13,-36 -6,-6 -11,-21 -14,-34 -2,-13 -7,-27 -11,-31 -4,-5 -9,-19 -12,-32 -4,-22 -6,-24 -26,-30 -12,-4 -26,-9 -32,-13 -6,-3 -26,-9 -44,-11 -18,-3 -39,-10 -47,-15 -8,-6 -27,-11 -46,-13 -18,-2 -37,-7 -41,-11 -5,-4 -18,-10 -29,-13 -12,-3 -25,-10 -30,-14 -5,-5 -16,-13 -25,-17 -9,-4 -17,-10 -17,-14 0,-4 -4,-9 -9,-10 -5,-2 -14,-12 -20,-24 -6,-11 -13,-21 -16,-21 -3,0 -6,-13 -7,-28 -2,-15 -8,-34 -13,-40 -5,-6 -10,-24 -12,-39 -2,-15 -8,-34 -13,-41 -5,-8 -11,-25 -13,-38 -1,-14 -7,-31 -13,-39 -12,-19 -17,-85 -15,-208 2,-103 6,-131 21,-146 6,-6 13,-19 15,-30 2,-11 8,-24 13,-29 5,-6 12,-15 15,-21 3,-7 9,-12 13,-12 0,0 0,0 0,0 0,0 0,0 0,0 4,0 9,-4 10,-10 2,-6 6,-10 10,-10 0,0 0,0 0,0l0 0c4,0 15,-7 25,-16 29,-26 42,-36 57,-42 8,-3 14,-9 14,-14 0,-4 2,-8 5,-8l0 0c0,0 0,0 0,0 10,0 21,-17 21,-32 0,-28 -8,-35 -53,-40 -22,-2 -48,-8 -58,-14 -10,-5 -33,-11 -53,-13 -31,-3 -38,-5 -49,-17 -7,-8 -15,-22 -19,-30 -8,-21 -25,-29 -67,-34 -18,-2 -44,-8 -56,-14 -12,-6 -42,-12 -68,-14 -32,-3 -49,-7 -57,-14 -7,-5 -23,-11 -37,-13 -14,-2 -27,-7 -29,-11 -2,-4 -18,-10 -34,-13 -17,-3 -35,-10 -41,-16 -6,-5 -21,-12 -34,-13 -13,-2 -31,-9 -40,-16 -9,-7 -18,-13 -21,-13 -3,0 -11,-6 -20,-13 -8,-7 -18,-13 -22,-13 -4,0 -12,-6 -18,-13 -6,-7 -14,-13 -17,-13 -4,0 -11,-5 -16,-10 -5,-6 -17,-13 -25,-15 -5,-2 -18,-2 -35,-2 -41,0 -104,5 -118,10 -8,3 -36,8 -61,11 -33,4 -52,9 -61,16 -10,7 -20,10 -42,10 -2,0 -3,0 -5,0 -29,0 -35,-2 -45,-14 -7,-8 -12,-11 -19,-11 -3,0 -6,0 -9,1 -9,2 -20,6 -24,10 -11,11 -10,56 3,86 13,31 13,66 0,95 -6,12 -12,35 -14,52 -2,16 -9,35 -14,42 -5,7 -12,20 -13,30 -2,10 -9,23 -15,29 -7,6 -12,15 -13,20 0,5 -6,15 -13,23 -7,8 -14,20 -16,27 -2,7 -8,17 -13,23 -5,6 -11,18 -13,28 -2,10 -9,22 -14,26 -5,5 -11,17 -13,27 -4,21 -29,48 -45,48 0,0 0,0 0,0l0 0c-38,0 -48,15 -58,83 -5,34 -10,56 -15,62 -5,5 -11,19 -14,30 -3,12 -10,24 -14,27 -4,4 -10,15 -14,26 -4,11 -11,23 -16,28 -5,5 -9,13 -9,17 0,5 -6,15 -13,22 -7,8 -15,19 -16,26 -2,7 -9,18 -16,25 -7,7 -12,15 -13,19 0,4 -5,11 -10,16 -6,5 -11,14 -13,21 -2,7 -9,18 -16,25 -7,7 -13,18 -13,25 0,8 -4,14 -10,16 -6,1 -12,9 -16,18 -3,9 -7,15 -10,15l0 0c-3,0 -10,10 -16,22 -6,12 -15,23 -19,25 -5,2 -8,6 -8,11 0,4 -4,11 -8,15 -11,11 -42,50 -49,63 -4,6 -8,11 -11,11l0 0c-3,0 -12,6 -20,13 -30,30 -41,37 -61,37 -2,0 -4,0 -7,0 -4,0 -7,0 -10,0 -14,0 -20,3 -30,14 -9,8 -16,20 -16,25 0,7 -5,13 -13,17 -7,3 -13,8 -13,13 0,4 -5,9 -12,11 -6,2 -15,9 -20,15 -5,6 -12,10 -16,10 0,0 0,0 0,0l0 0c-4,0 -14,7 -23,15 -9,8 -21,15 -24,15l0 0c0,0 0,0 0,0 -4,0 -10,4 -12,9 -3,5 -13,11 -24,12 -10,2 -22,7 -27,12 -5,6 -20,11 -37,13 -15,2 -36,7 -45,13 -11,6 -29,9 -44,9 -12,0 -23,-2 -27,-6 -2,-2 -5,-4 -8,-4 -3,0 -7,1 -12,3 -8,3 -23,7 -32,8 -10,2 -28,9 -39,15 -14,8 -21,11 -25,11 -2,0 -3,-1 -3,-4 0,-9 29,-37 55,-54 15,-9 28,-19 28,-21 0,-3 13,-5 29,-6 22,-2 31,-5 39,-14 35,-42 49,-55 73,-72 15,-10 29,-18 32,-18l0 0c3,0 13,-5 23,-12 10,-7 22,-12 29,-12 0,0 0,0 0,0 0,0 0,0 0,0 7,0 18,-5 25,-12 8,-7 18,-12 24,-12 0,0 0,0 0,0 0,0 0,0 0,0 10,0 29,-8 35,-14 2,-2 9,-7 16,-12 14,-8 14,-10 15,-50 0,-32 3,-47 14,-71 7,-17 13,-36 13,-43 0,-8 6,-23 13,-34 7,-12 14,-30 16,-42 2,-11 8,-23 13,-26 5,-4 10,-15 13,-26 2,-11 8,-23 13,-28 5,-5 11,-17 14,-27 2,-10 8,-24 13,-30 5,-7 11,-19 13,-27 2,-8 10,-21 16,-27 7,-7 13,-18 13,-25 0,-7 6,-18 13,-25 7,-7 13,-18 13,-24 0,-7 5,-16 10,-20 6,-5 12,-15 14,-23 2,-8 9,-21 16,-28 6,-8 14,-21 16,-28 2,-8 8,-17 13,-20 5,-3 9,-10 9,-13 0,-10 56,-69 90,-95 14,-11 15,-13 17,-62 2,-47 3,-52 15,-64 7,-8 14,-19 14,-25 0,-7 5,-16 11,-21 6,-5 11,-17 14,-26 2,-9 9,-23 16,-30 7,-8 13,-19 13,-27 0,-8 5,-19 13,-25 7,-7 14,-19 16,-28 2,-10 8,-21 14,-26 5,-5 11,-16 14,-25 2,-9 8,-19 13,-22 5,-3 11,-14 13,-23 2,-9 8,-20 14,-25 5,-5 11,-18 13,-28 2,-11 8,-22 13,-26 5,-3 11,-16 13,-29 2,-13 7,-24 11,-26 4,-1 12,-12 18,-24 6,-11 14,-23 18,-25 4,-2 7,-9 7,-14 0,-6 4,-10 8,-10 0,0 0,0 0,0 0,0 0,0 0,0 5,0 10,-5 13,-12 4,-7 11,-14 18,-15 14,-3 44,-35 44,-46 0,-4 4,-13 8,-19 15,-23 21,-115 8,-129 -1,-2 -104,-4 -228,-6 -56,-1 -99,-1 -132,-1 -75,0 -100,2 -108,5 -6,3 -16,5 -26,5 -4,0 -8,0 -13,-1 -5,-1 -9,-1 -13,-1 -10,0 -16,2 -21,5 -11,9 -18,38 -20,78 0,15 -4,35 -8,45 -4,10 -11,33 -14,52 -3,19 -10,39 -16,44 -5,6 -11,18 -13,27 -2,9 -9,22 -16,29 -7,6 -12,15 -13,19 0,4 -6,14 -13,21 -7,8 -13,18 -13,23 0,5 -3,11 -7,12 -8,3 -16,19 -22,45 -4,18 -29,41 -42,41 -1,0 -2,0 -3,0 -1,0 -3,-1 -5,-1 -5,0 -11,1 -16,4 -27,14 -30,19 -30,47 -1,38 -11,79 -22,91 -5,6 -11,18 -13,28 -2,10 -10,23 -16,29 -6,6 -12,14 -12,18 0,4 -6,13 -13,21 -7,8 -13,18 -13,23 0,6 -5,12 -10,15 -6,2 -12,13 -16,22 -3,10 -9,19 -14,20 -4,1 -10,10 -13,18 -3,8 -8,15 -10,15l0 0c-3,0 -9,9 -14,19 -5,10 -14,24 -21,30 -6,6 -11,15 -11,19 0,4 -4,8 -8,8 0,0 0,0 0,0 0,0 0,0 0,0 -5,0 -10,5 -13,13 -5,14 -10,19 -66,74l-40 39 -33 -1c-3,0 -6,0 -8,0 -28,0 -35,3 -40,16 -2,5 -8,8 -13,8 0,0 0,0 0,0 0,0 0,0 0,0 -6,0 -16,5 -25,12 -8,7 -23,13 -34,15 -10,2 -23,7 -28,12 -5,5 -24,11 -41,14 -18,3 -36,9 -41,13 -6,5 -30,7 -56,7 -29,0 -59,-3 -63,-9 -6,-8 -47,-18 -81,-20l-21 -1 17 -4c9,-2 24,-8 32,-14 8,-6 21,-10 29,-10 0,0 0,0 0,0 0,0 1,0 1,0 20,0 41,-8 49,-20 4,-6 11,-10 15,-10 0,0 0,0 0,0 0,0 0,0 0,0 4,0 14,-4 21,-9 8,-5 28,-12 45,-15 17,-3 36,-9 42,-13 7,-4 26,-8 43,-10 64,-5 76,-13 76,-53 0,-17 3,-25 8,-27 9,-3 19,-29 19,-50 0,-9 5,-22 10,-29 6,-7 12,-21 14,-32 2,-11 9,-27 15,-35 7,-9 14,-25 16,-36 2,-12 7,-22 11,-24 4,-1 10,-13 14,-25 3,-13 9,-24 13,-25 4,-1 9,-11 13,-22 4,-11 11,-24 16,-29 5,-6 11,-16 13,-23 2,-7 8,-17 13,-23 5,-6 11,-17 13,-25 2,-8 10,-22 17,-30 7,-8 13,-19 13,-24 0,-5 3,-10 7,-10 0,0 0,0 0,0l0 0c4,0 17,-16 30,-35 16,-24 27,-36 36,-38 25,-5 28,-10 31,-56 3,-35 6,-46 15,-55 6,-7 13,-17 15,-24 2,-7 8,-17 14,-21 5,-5 11,-17 13,-27 2,-10 6,-19 11,-21 4,-1 9,-11 13,-21 3,-11 11,-23 15,-29 5,-6 11,-16 13,-24 2,-8 8,-16 13,-19 5,-2 11,-12 13,-21 2,-9 10,-23 16,-31 7,-8 13,-20 13,-26 0,-7 5,-16 11,-21 6,-5 12,-18 14,-28 2,-11 8,-23 13,-28 6,-5 13,-17 15,-28 3,-11 9,-19 13,-19 0,0 0,0 0,0 0,0 0,0 0,0 4,0 8,-2 8,-5 0,-6 37,-45 43,-45l0 0c0,0 0,0 0,0 10,0 40,-35 43,-51 2,-10 6,-20 10,-22 12,-10 18,-28 19,-54 0,-15 -2,-30 -6,-34 -4,-4 -19,-6 -37,-6 -19,0 -43,2 -62,7 -15,4 -24,5 -33,5 -10,0 -19,-2 -36,-6 -20,-5 -59,-10 -87,-12 -35,-2 -56,-6 -69,-13 -15,-8 -31,-10 -112,-11l-94 -1 -14 41c-8,22 -16,54 -18,70 -2,16 -8,34 -13,40 -5,7 -12,19 -14,28 -2,9 -7,18 -10,20 -4,1 -10,11 -14,21 -4,11 -11,22 -15,25 -5,3 -11,12 -13,19 -2,7 -9,18 -16,25 -7,7 -13,16 -13,19 0,4 -5,10 -10,13 -6,3 -11,14 -14,23 -2,9 -8,20 -14,23 -5,3 -12,14 -15,24 -5,15 -7,17 -25,17 -2,0 -5,0 -8,0 -1,0 -2,0 -3,0 -33,0 -41,9 -42,48 0,17 -4,36 -8,43 -4,7 -12,21 -16,30 -5,10 -14,24 -21,32 -7,8 -13,19 -13,24 0,5 -4,10 -8,12 -4,1 -11,9 -15,17 -3,8 -12,19 -18,26 -6,7 -11,16 -12,21 0,6 -4,10 -8,10 0,0 0,0 0,0 0,0 0,0 0,0 -4,0 -10,5 -13,11 -4,7 -18,26 -32,43 -14,17 -25,34 -25,36 0,3 -6,8 -13,13 -7,4 -13,11 -13,13 0,9 -106,115 -115,115l0 0c-3,0 -9,4 -15,10 -5,5 -9,7 -12,7 -2,0 -3,-1 -5,-2 -4,-4 -12,-6 -19,-6 -6,0 -11,1 -13,4 -2,3 -10,6 -18,8 -9,2 -18,7 -21,12 -3,6 -15,12 -27,15 -12,3 -29,9 -37,14 -9,4 -27,10 -40,12 -14,1 -33,7 -43,13 -12,7 -27,10 -43,10 -20,0 -41,-5 -58,-14 -13,-7 -33,-13 -45,-14l-21 -1 23 -7c12,-3 26,-10 31,-14 5,-4 14,-9 23,-10 8,-2 17,-8 21,-13 4,-5 18,-11 32,-14 14,-3 29,-9 34,-13 6,-5 26,-9 54,-11 35,-3 49,-7 64,-17 26,-17 26,-18 31,-55 2,-19 8,-37 14,-46 6,-8 12,-23 14,-34 2,-11 7,-21 11,-22 4,-1 10,-12 14,-23 3,-12 12,-27 18,-35 7,-8 13,-18 13,-23 0,-5 5,-13 10,-18 6,-5 12,-16 14,-24 2,-8 8,-17 13,-20 6,-3 11,-13 14,-23 2,-10 7,-20 13,-23 5,-3 11,-10 14,-16 2,-7 9,-18 16,-26 7,-8 13,-19 13,-24 0,-6 5,-12 10,-15 6,-3 14,-13 18,-23 4,-10 11,-19 16,-20 4,-1 8,-6 8,-10 0,-4 6,-12 13,-18 7,-6 13,-14 13,-18 0,-4 5,-9 11,-11 7,-2 16,-8 21,-14 5,-5 12,-12 17,-16 6,-4 8,-15 9,-37 0,-22 3,-31 8,-33 4,-1 10,-12 14,-24 4,-11 12,-26 18,-32 7,-7 12,-14 12,-18 0,-3 6,-12 13,-21 7,-8 13,-19 13,-25 0,-6 4,-11 8,-13 4,-2 12,-13 18,-25 6,-12 13,-22 16,-22l0 0c3,0 8,-8 11,-17 3,-10 9,-19 13,-20 4,-1 10,-12 14,-23 4,-12 9,-21 13,-21 0,0 0,0 0,0 0,0 0,0 0,0 4,0 9,-8 12,-18 3,-10 8,-18 11,-18l0 0c3,0 9,-9 14,-19 5,-10 13,-22 18,-25 5,-3 9,-10 9,-13 0,-4 6,-12 14,-20 8,-7 21,-20 28,-28 24,-24 43,-40 54,-46 7,-3 12,-13 15,-26 3,-21 33,-71 41,-71 0,0 0,0 0,0 0,0 0,0 0,0 3,0 13,-5 22,-12 10,-8 27,-13 44,-16 15,-1 34,-7 43,-12 10,-6 36,-10 75,-13 33,-3 64,-7 69,-9 5,-2 20,-6 35,-8 38,-5 59,-12 59,-22 1,-16 -1,-24 -11,-34 -9,-9 -17,-10 -54,-11 -58,-1 -139,-14 -149,-23 -5,-4 -22,-10 -40,-13 -19,-3 -35,-9 -41,-15 -5,-5 -18,-11 -27,-13 -10,-2 -19,-7 -20,-11 -1,-4 -7,-7 -13,-7 0,0 0,0 0,0 -16,0 -39,36 -46,71 -3,17 -9,35 -13,40 -4,5 -10,17 -14,28 -4,11 -12,27 -19,34 -7,8 -12,16 -13,19 0,3 -6,13 -13,23 -7,10 -13,23 -13,28 0,6 -4,10 -8,10 0,0 0,0 0,0 0,0 0,0 0,0 -5,0 -9,4 -11,10 -2,6 -9,12 -18,15 -8,2 -15,7 -15,10 0,3 -6,8 -12,11 -14,6 -29,34 -29,54 0,19 -15,57 -27,69 -5,6 -11,16 -13,24 -2,8 -6,14 -8,14l0 0c-5,0 -25,28 -41,55 -4,7 -13,18 -18,24 -6,6 -15,17 -21,24 -43,56 -94,102 -117,106 -10,2 -22,6 -28,9 -6,3 -20,9 -31,12 -12,3 -24,9 -28,13 -4,5 -15,7 -43,7 -5,0 -10,0 -16,0 -33,-1 -53,-3 -53,-6 0,-3 -8,-9 -18,-14l-18 -9 16 -6c9,-4 19,-10 21,-13 2,-4 13,-9 26,-13 12,-3 24,-8 27,-11 3,-2 11,-4 19,-4 0,0 1,0 1,0 0,0 0,0 0,0 17,0 47,-16 51,-27 2,-5 4,-23 7,-42 2,-21 7,-39 13,-48 6,-8 12,-21 14,-30 2,-9 9,-23 16,-31 6,-8 12,-19 12,-24 0,-6 6,-18 13,-27 7,-9 13,-20 13,-24 0,-4 6,-15 13,-24 7,-10 13,-21 13,-26 0,-5 6,-13 13,-17 7,-4 14,-15 16,-23 2,-8 9,-18 16,-23 7,-4 13,-12 15,-17 2,-6 6,-10 10,-10 0,0 0,0 0,0 0,0 0,0 0,0 13,0 30,-39 37,-86 5,-33 10,-47 18,-55 6,-6 11,-17 12,-23 0,-7 4,-16 9,-19 6,-3 12,-15 16,-25 3,-10 11,-23 16,-27 6,-5 10,-13 10,-18 0,-5 6,-16 13,-25 7,-10 13,-20 13,-23 0,-3 6,-10 13,-14 7,-4 13,-10 13,-14 0,-6 10,-18 56,-63 19,-18 28,-32 28,-40 0,-7 6,-19 13,-28 7,-8 13,-18 13,-22 0,-4 5,-10 11,-13 7,-3 14,-9 17,-12 3,-3 31,-12 62,-18 35,-8 66,-12 97,-12 31,0 61,4 94,11 31,7 49,10 61,10 12,0 19,-3 28,-10 13,-12 14,-14 14,-57 -1,-57 -8,-68 -44,-77 -14,-3 -30,-10 -35,-16 -6,-6 -28,-25 -49,-44 -22,-18 -40,-37 -42,-42 -1,-5 -8,-13 -14,-19 -7,-5 -15,-16 -17,-23 -2,-7 -7,-13 -10,-13 -3,0 -8,-8 -12,-16 -3,-9 -11,-23 -17,-29 -6,-7 -10,-15 -10,-19 0,-3 -5,-11 -12,-17 -7,-6 -13,-14 -12,-19 0,-4 -5,-14 -12,-23 -7,-9 -12,-19 -12,-23 0,-4 -4,-13 -9,-20 -5,-7 -11,-23 -13,-35 -2,-13 -8,-31 -15,-41 -6,-10 -12,-29 -14,-43 -1,-14 -7,-32 -13,-41 -8,-13 -10,-26 -9,-60 1,-38 2,-45 14,-60 7,-10 13,-21 13,-25 0,-4 4,-13 8,-19 8,-11 7,-13 -5,-32 -7,-11 -16,-20 -20,-20 -12,-1 -32,-24 -36,-42 -1,-10 -8,-24 -15,-31 -10,-11 -12,-20 -14,-58 -1,-26 -6,-55 -10,-66 -6,-16 -8,-40 -7,-122 1,-89 2,-105 11,-122 5,-11 12,-42 15,-71 4,-34 9,-58 16,-71 6,-11 12,-32 13,-48 4,-31 4,-31 63,-90 21,-21 38,-41 38,-46 0,-15 -17,-38 -30,-42 -7,-2 -18,-9 -25,-16 -7,-7 -18,-15 -26,-18 -12,-4 -15,-8 -17,-29 -2,-14 -7,-31 -13,-38 -6,-8 -11,-25 -13,-43 -1,-17 -7,-39 -11,-51 -5,-11 -11,-38 -13,-60 -3,-23 -8,-44 -13,-50 -6,-6 -9,-25 -11,-57 -2,-27 -7,-55 -11,-64 -9,-19 -16,-111 -10,-141 3,-16 6,-19 23,-22 39,-6 55,-11 70,-24 13,-12 15,-16 12,-37 -1,-14 -6,-26 -11,-29 -5,-3 -13,-10 -19,-17 -6,-6 -18,-14 -27,-18 -9,-3 -17,-8 -17,-10 0,-2 -7,-8 -15,-12 -12,-6 -15,-11 -15,-23 0,-8 -4,-20 -10,-28 -9,-12 -11,-25 -14,-94 -2,-44 -8,-104 -13,-133 -8,-42 -9,-75 -8,-167 2,-114 2,-114 15,-131 7,-9 13,-20 13,-24 0,-13 16,-31 34,-38 16,-6 17,-9 18,-29 0,-20 -2,-24 -16,-35 -21,-15 -32,-30 -36,-44 -1,-7 -7,-17 -12,-22 -14,-15 -15,-39 -10,-196 4,-111 7,-154 15,-193 6,-28 13,-80 17,-116 4,-44 10,-72 16,-84 5,-10 11,-27 12,-39 3,-23 23,-47 39,-47 0,0 0,0 0,0 0,0 1,0 1,0 18,0 35,-9 39,-20 6,-19 -1,-44 -15,-50 -7,-3 -13,-9 -13,-13 0,-4 -3,-15 -8,-24 -5,-10 -9,-35 -10,-62 -1,-39 0,-47 7,-55 5,-6 12,-26 16,-49 4,-22 11,-48 16,-58 5,-10 11,-32 12,-48 2,-18 8,-34 14,-40 6,-7 11,-22 13,-41 2,-21 6,-33 13,-38 6,-4 11,-17 14,-28 2,-11 9,-27 16,-37 6,-10 12,-21 12,-24 0,-10 42,-62 52,-65 5,-2 13,-6 18,-11 10,-10 5,-42 -8,-52 -8,-6 -10,-12 -7,-40 2,-24 5,-35 11,-38 5,-2 10,-13 12,-22 2,-9 10,-24 18,-33 8,-9 15,-20 15,-25 0,-5 5,-10 10,-12 5,-1 11,-8 13,-15 2,-7 7,-13 11,-13 0,0 0,0 0,0 0,0 0,0 0,0 5,0 10,-5 12,-12 3,-6 17,-24 31,-39 15,-15 28,-32 30,-36 2,-5 7,-10 12,-12 5,-1 11,-7 13,-12 2,-5 8,-12 14,-14 11,-5 27,-17 53,-40 7,-6 16,-11 19,-11 0,0 0,0 0,0 0,0 0,0 0,0 4,0 15,-5 25,-12 10,-6 26,-13 36,-15 10,-1 22,-7 27,-12 6,-6 22,-11 43,-15 19,-3 38,-6 42,-6 1,0 2,0 4,0z"/>
  </g>
 </g>
</svg>