<svg xmlns="http://www.w3.org/2000/svg" xml:space="preserve" width="100px" height="100px" version="1.1" shape-rendering="geometricPrecision" text-rendering="geometricPrecision" image-rendering="optimizeQuality" fill-rule="evenodd" clip-rule="evenodd" viewBox="0 0 10000 10000" enable-background="new 0 0 35 35.667">
 <g>
  <rect fill="none" width="10000" height="10000"/>
  <g>
   <path fill="#FFE5BA" d="M5797 6308c436,-522 582,-1102 577,-1774 -20,-2823 -2728,-2823 -2749,0 -5,672 141,1252 578,1774 239,256 377,584 377,936 0,852 -770,1446 -1587,1446 -816,0 -1587,-594 -1587,-1446 0,-499 275,-929 680,-1187 -751,-993 -617,-2290 164,-3270 1349,-1692 4151,-1692 5499,0 781,980 915,2277 164,3270 405,258 680,688 680,1187 0,852 -771,1446 -1587,1446 -816,0 -1587,-594 -1587,-1446 0,-352 138,-680 377,-936l0 0zm-2804 410c-233,0 -333,343 -333,526 0,182 100,526 333,526 233,0 333,-344 333,-526 0,-182 -100,-526 -333,-526l0 0zm4013 0c-233,0 -333,343 -333,526 0,182 100,526 333,526 233,0 333,-344 333,-526 0,-182 -100,-526 -333,-526z"/>
   <path fill="#00234A" d="M7007 6483c-314,0 -569,341 -569,761 0,421 255,761 569,761 314,0 568,-341 568,-761 0,-420 -255,-761 -568,-761l0 0zm-4014 0c314,0 568,341 568,761 0,421 -255,761 -568,761 -314,0 -568,-341 -568,-761 0,-420 255,-761 568,-761l0 0zm2980 -19c472,-562 642,-1194 637,-1932 -23,-3134 -3196,-3134 -3219,0 -5,738 164,1370 637,1932 198,211 318,483 318,780 0,669 -605,1211 -1352,1211 -746,0 -1352,-542 -1352,-1211 0,-498 336,-926 817,-1112l0 0c-908,-951 -774,-2257 -24,-3198 1254,-1574 3877,-1574 5131,0 750,942 884,2247 -24,3198l0 0c480,186 817,614 817,1112 0,669 -605,1211 -1352,1211 -746,0 -1352,-542 -1352,-1211 0,-297 119,-569 318,-780z"/>
  </g>
 </g>
</svg>