<svg xmlns="http://www.w3.org/2000/svg" xml:space="preserve" width="100px" height="100px" version="1.1" shape-rendering="geometricPrecision" text-rendering="geometricPrecision" image-rendering="optimizeQuality" fill-rule="evenodd" clip-rule="evenodd" viewBox="0 0 10000 10000">
 <defs>
    <linearGradient id="id0" gradientUnits="userSpaceOnUse" x1="1905.24" y1="3809.99" x2="7317.24" y2="4316.33">
     <stop offset="0" stop-color="#980402"/>
     <stop offset="1" stop-color="#DE3E51"/>
    </linearGradient>
    <linearGradient id="id1" gradientUnits="userSpaceOnUse" x1="5896.14" y1="2888.1" x2="3466.8" y2="5393.46">
     <stop offset="0" stop-color="#FCC927"/>
     <stop offset="0.509804" stop-color="#FCC927"/>
     <stop offset="1" stop-color="#E88300"/>
    </linearGradient>
    <linearGradient id="id2" gradientUnits="userSpaceOnUse" x1="4548.24" y1="6130.54" x2="9466.38" y2="7609.16">
     <stop offset="0" stop-color="#980402"/>
     <stop offset="1" stop-color="#DE3E51"/>
    </linearGradient>
    <linearGradient id="id3" gradientUnits="userSpaceOnUse" x1="8442.55" y1="6010.69" x2="5672.3" y2="7899.82">
     <stop offset="0" stop-color="#FCC927"/>
     <stop offset="0.509804" stop-color="#FCC927"/>
     <stop offset="1" stop-color="#E88300"/>
    </linearGradient>
    <linearGradient id="id4" gradientUnits="userSpaceOnUse" x1="222.579" y1="7195.62" x2="5142.11" y2="6250.6">
     <stop offset="0" stop-color="#980402"/>
     <stop offset="1" stop-color="#DE3E51"/>
    </linearGradient>
    <linearGradient id="id5" gradientUnits="userSpaceOnUse" x1="3516.04" y1="5328.44" x2="2017.05" y2="8220.33">
     <stop offset="0" stop-color="#FCC927"/>
     <stop offset="0.509804" stop-color="#FCC927"/>
     <stop offset="1" stop-color="#E88300"/>
    </linearGradient>
    <linearGradient id="id6" gradientUnits="userSpaceOnUse" x1="5005.65" y1="3165.09" x2="9518.92" y2="2480.09">
     <stop offset="0" stop-color="#980402"/>
     <stop offset="1" stop-color="#DE3E51"/>
    </linearGradient>
    <linearGradient id="id7" gradientUnits="userSpaceOnUse" x1="8081.97" y1="1566.44" x2="6591.28" y2="4177.53">
     <stop offset="0" stop-color="#FCC927"/>
     <stop offset="0.509804" stop-color="#FCC927"/>
     <stop offset="1" stop-color="#E88300"/>
    </linearGradient>
    <linearGradient id="id8" gradientUnits="userSpaceOnUse" x1="1937.58" y1="1134.36" x2="3615.74" y2="4176.48">
     <stop offset="0" stop-color="#980402"/>
     <stop offset="1" stop-color="#DE3E51"/>
    </linearGradient>
    <linearGradient id="id9" gradientUnits="userSpaceOnUse" x1="3905.91" y1="2911.11" x2="1612.39" y2="2529.71">
     <stop offset="0" stop-color="#FCC927"/>
     <stop offset="0.509804" stop-color="#FCC927"/>
     <stop offset="1" stop-color="#E88300"/>
    </linearGradient>
 </defs>
 <g>
  <rect fill="none" width="10000" height="10000"/>
  <g>
   <path fill="url(#id0)" d="M5216 3926c-119,-250 -236,-500 -357,-749 -249,-515 -231,-454 -369,-37 -89,269 -175,487 -255,759 -279,9 -559,17 -838,26 -681,21 -601,28 -48,396 251,167 503,335 754,502 -90,322 -181,645 -271,967 -99,352 8,336 247,147 260,-205 525,-404 787,-607 295,194 483,337 778,532 347,228 403,240 255,-141 -132,-340 -248,-618 -380,-958 200,-167 399,-336 600,-501 148,-122 490,-326 -164,-331 -246,-2 -493,-3 -739,-5z"/>
   <path fill="url(#id1)" d="M5104 4069c-79,-183 -157,-366 -236,-549 -197,-460 -167,-615 -281,-80 -43,204 -86,408 -130,612 -250,11 -500,22 -750,33 -591,26 -512,-7 -22,271 221,125 442,251 663,376 -82,242 -165,484 -247,726 -159,467 -167,405 204,100 187,-154 375,-308 562,-462 127,91 253,182 380,273 563,404 537,470 268,-176 -72,-171 -143,-343 -215,-514 219,-167 438,-334 657,-502 195,-149 212,-129 -37,-124 -272,5 -545,11 -817,16z"/>
  </g>
  <g>
   <path fill="url(#id2)" d="M7597 6856c-62,-255 -122,-510 -185,-764 -131,-526 -126,-465 -336,-104 -136,234 -259,420 -386,658 -262,-44 -524,-89 -785,-133 -638,-108 -565,-87 -123,359 201,203 402,406 603,609 -147,283 -295,566 -442,850 -161,309 -58,314 201,183 282,-143 568,-278 852,-417 237,236 384,404 620,641 278,278 328,299 265,-83 -57,-341 -109,-622 -166,-963 219,-118 437,-238 657,-354 162,-86 520,-212 -88,-338 -229,-48 -458,-95 -687,-143z"/>
   <path fill="url(#id3)" d="M7465 6967c-37,-185 -74,-370 -112,-555 -93,-465 -35,-603 -246,-127 -80,182 -160,363 -241,545 -235,-37 -470,-73 -705,-110 -556,-86 -475,-102 -73,248 181,158 363,316 544,474 -124,210 -248,420 -372,630 -239,405 -235,346 170,131 205,-108 409,-217 614,-325 100,108 200,217 300,325 445,482 408,538 284,-113 -33,-173 -66,-346 -99,-519 237,-115 473,-229 710,-344 210,-102 223,-80 -10,-122 -255,-46 -509,-92 -764,-138z"/>
  </g>
  <g>
   <path fill="url(#id4)" d="M3187 6442c-175,-193 -349,-387 -525,-579 -364,-396 -331,-346 -341,63 -6,265 -24,482 -21,747 -248,81 -497,161 -745,242 -605,197 -531,182 65,368 271,84 542,169 814,254 7,313 14,626 21,938 8,341 99,299 262,68 177,-252 360,-500 540,-750 318,97 525,176 843,273 374,114 428,110 190,-193 -212,-271 -391,-490 -603,-760 134,-202 266,-405 401,-606 100,-148 350,-420 -237,-254 -221,63 -443,126 -664,188z"/>
   <path fill="url(#id5)" d="M3126 6600c-120,-144 -241,-287 -361,-431 -302,-361 -318,-507 -273,2 17,194 34,388 51,582 -221,75 -443,150 -664,226 -523,178 -461,128 55,249 233,55 465,109 698,164 -8,239 -15,477 -23,716 -15,460 -39,407 210,36 126,-187 252,-374 378,-561 138,48 277,97 415,145 616,216 610,281 192,-228 -111,-135 -222,-270 -333,-405 151,-207 301,-414 452,-621 134,-184 155,-171 -67,-101 -243,76 -485,152 -728,227z"/>
  </g>
  <g>
   <path fill="url(#id6)" d="M7730 2586c-151,-181 -301,-363 -454,-543 -315,-372 -287,-325 -311,45 -15,239 -40,436 -47,675 -228,64 -456,128 -683,193 -555,157 -488,146 45,335 242,86 485,172 727,258 -5,283 -10,567 -16,850 -6,309 79,274 234,70 169,-222 344,-440 517,-659 284,99 469,178 754,277 334,117 383,115 179,-168 -182,-252 -336,-457 -518,-710 129,-178 256,-357 386,-534 96,-130 333,-368 -205,-238 -203,49 -405,98 -608,147z"/>
   <path fill="url(#id7)" d="M7668 2726c-104,-134 -208,-269 -311,-403 -260,-337 -269,-471 -248,-8 8,176 16,353 25,529 -203,60 -406,121 -609,181 -480,142 -422,99 40,227 209,58 417,115 626,173 -16,216 -32,432 -47,647 -30,416 -51,367 189,40 121,-165 242,-330 363,-495 123,49 247,97 370,146 549,217 542,276 183,-199 -96,-126 -191,-252 -287,-379 144,-182 288,-364 432,-547 128,-162 147,-149 -57,-94 -223,60 -445,120 -668,180z"/>
  </g>
  <g>
   <path fill="url(#id8)" d="M3070 2925c95,-153 191,-305 285,-458 194,-317 167,-285 -113,-208 -181,50 -332,83 -511,139 -106,-144 -211,-288 -317,-432 -257,-351 -232,-307 -236,117 -2,193 -3,386 -5,578 -211,69 -421,137 -632,206 -230,75 -182,126 8,183 207,63 412,130 619,196 -1,226 -12,376 -12,602 -1,265 13,299 170,83 140,-193 252,-354 392,-546 164,45 329,89 493,136 121,34 357,141 123,-206 -88,-130 -176,-261 -264,-391z"/>
   <path fill="url(#id9)" d="M2951 2917c73,-107 145,-215 218,-322 182,-270 279,-310 -57,-177 -128,51 -256,102 -384,152 -96,-128 -193,-256 -289,-383 -228,-302 -181,-272 -157,86 11,162 21,323 32,485 -163,44 -327,88 -490,132 -315,85 -284,58 18,143 153,43 305,86 458,129 -4,99 -9,199 -13,298 -20,443 -65,452 194,78 69,-100 138,-199 206,-299 171,55 342,110 514,165 152,49 148,65 55,-64 -101,-142 -202,-283 -304,-425z"/>
  </g>
 </g>
</svg>