<svg xmlns="http://www.w3.org/2000/svg" viewBox="0 0 22 22" id="svg2" version="1.1" width="30px" height="30px">
<defs id="defs3051">
<style type="text/css" id="current-color-scheme">.ColorScheme-Text { color:#4d4d4d; }</style>
</defs>
<path id="path4148" d="M 11,8 C 9.892,8 9,8.892 9,10 l 0,3 c 0,1.108 0.892,2 2,2 1.108,0 2,-0.892 2,-2 l 0,-3 C 13,8.892 12.108,8 11,8 Z" style="opacity:1;fill:#4285F4;fill-opacity:1;stroke:none" />
<path id="rect3348" d="m 7,12 0,1 c 0,1.8474 1.2856599,3.4048 3,3.8555 L 10,18 l -1,0 0,1 4,0 0,-1 -1,0 0,-1.1445 C 13.71434,16.4048 15,14.8474 15,13 l 0,-1 -1,0 0,1 c 0,1.6447 -1.355297,3 -3,3 -1.6447028,0 -3,-1.3553 -3,-3 l 0,-1 -1,0 z" style="opacity:1;fill:#4d4d4d;fill-opacity:1;stroke:none" />
</svg>
