<svg xmlns="http://www.w3.org/2000/svg" xml:space="preserve" width="100px" height="100px" version="1.1" shape-rendering="geometricPrecision" text-rendering="geometricPrecision" image-rendering="optimizeQuality" fill-rule="evenodd" clip-rule="evenodd" viewBox="0 0 10000 10000" enable-background="new -51 -54 2022 1006">
 <g>
  <rect id="p" fill="none" width="10000" height="10000"/>
 </g>
 <g>
  <path fill="#970401" d="M9628 3536l-35 0c-138,10 -270,60 -396,115 -63,-29 -130,-53 -200,-59 -41,-4 -81,13 -117,30 -86,42 -168,94 -247,147 -62,-10 -127,-9 -185,14 -34,17 -62,43 -91,67 -225,195 -435,408 -654,610 -39,37 -82,68 -119,106 -121,123 -232,257 -343,389 -29,15 -63,21 -95,28 -113,20 -228,19 -342,14 -116,9 -232,14 -348,16 -41,-3 -82,3 -123,0 -261,-1 -522,-19 -778,-66 -122,-23 -243,-53 -361,-94 -75,-25 -146,-59 -218,-91 -241,-106 -481,-214 -728,-307 -216,-81 -441,-139 -670,-171 -270,-40 -545,-53 -818,-34 -347,25 -694,106 -1002,272 -90,48 -175,105 -260,160 -169,110 -336,224 -490,354 -59,49 -113,104 -165,160 -13,-17 13,18 0,0 -46,33 -131,40 -176,47 -41,-28 -81,-60 -130,-73 -55,-16 -115,-5 -166,18 -71,34 -146,59 -219,87 -25,10 -55,24 -63,53l0 28c10,48 35,90 55,133 184,378 375,751 572,1123 189,355 381,708 592,1050 76,122 154,244 245,355 27,32 55,64 89,89 17,12 38,24 60,21 17,-2 27,-17 38,-28 139,-150 281,-296 407,-457 45,-59 91,-120 117,-190 26,36 -26,-35 0,0 45,-34 90,-67 136,-101 -65,-88 -51,-72 -116,-160 214,-70 430,-136 652,-178 76,-13 154,-26 231,-21 50,7 100,21 149,33 212,55 423,114 634,173 466,131 930,265 1396,396 112,31 224,65 339,85 121,23 245,37 367,21 69,-10 138,-28 198,-67 126,-78 247,-164 369,-249 307,-216 611,-436 913,-660 168,-125 336,-251 502,-378 149,-115 298,-230 440,-353 82,-70 150,-153 220,-234 187,-221 366,-447 543,-675 129,-167 256,-335 380,-505 63,-87 125,-175 184,-266 34,-53 69,-107 97,-164 8,-16 15,-34 19,-52l0 -13c-30,-57 -78,-102 -130,-138 10,-66 21,-133 31,-199 9,-55 -5,-117 -46,-157 -36,-37 -88,-56 -139,-59m119 79c35,35 46,88 38,136 -10,64 -20,128 -30,192 -84,-6 -168,-9 -252,-6 -37,3 -73,15 -108,28 -78,30 -152,69 -224,111 -52,31 -104,61 -149,101 -75,65 -149,132 -222,199 -254,231 -506,464 -757,699 -85,-30 -173,-54 -261,-73 64,-57 127,-116 189,-175 266,-251 530,-504 797,-755 126,-118 251,-236 382,-349 22,-17 42,-38 68,-49 81,-36 165,-67 251,-88 49,-12 100,-21 151,-20 46,1 93,18 126,50m-579 56c-38,30 -75,63 -112,95 -124,111 -246,225 -367,339 -259,243 -515,489 -773,732 -57,52 -111,106 -170,155 -84,-15 -169,-29 -254,-30 120,-120 241,-238 361,-358 153,-153 304,-307 456,-460 111,-114 223,-227 332,-343 11,-10 24,-17 36,-26 74,-49 150,-97 231,-133 28,-12 57,-24 88,-20 60,5 118,25 173,49m-562 124c-31,34 -63,67 -95,100 -200,206 -402,410 -604,615 -150,151 -303,299 -453,449 -59,3 -118,-2 -177,-2 68,-83 138,-164 209,-245 62,-68 123,-137 195,-195 102,-91 199,-186 298,-280 134,-127 267,-256 408,-376 29,-22 56,-50 93,-60 41,-12 85,-13 127,-9m1156 178c50,31 91,74 123,123 -10,39 -32,74 -52,109 -69,115 -147,224 -224,333 -122,169 -247,336 -375,501 -186,241 -376,480 -572,712 -67,78 -133,158 -211,224 -137,119 -280,229 -423,340 -172,132 -345,262 -519,391 -314,233 -631,463 -951,687 -107,74 -214,149 -324,218 -68,45 -151,63 -231,70 -140,9 -280,-15 -416,-46 -108,-27 -214,-58 -321,-88 -441,-124 -881,-251 -1322,-375 -221,-62 -442,-124 -665,-180 -44,-10 -87,-23 -133,-25 -86,-2 -171,13 -256,29 -213,44 -423,107 -629,175 -469,-649 -937,-1298 -1404,-1947 59,-64 121,-124 188,-179 156,-129 323,-241 493,-351 92,-59 184,-120 283,-168 303,-153 641,-225 978,-245 270,-16 541,0 808,42 225,35 445,94 657,176 261,100 516,216 773,328 82,38 168,68 254,93 215,62 437,94 659,112 284,21 570,20 854,-1 55,4 109,3 164,3 95,-4 192,-10 281,-46 72,0 143,3 215,5 126,1 251,23 374,53 123,31 245,70 358,128 50,27 102,58 135,105 33,46 43,104 39,160 -7,79 -34,155 -64,228 -21,50 -59,90 -97,127 -74,67 -160,121 -250,166 -75,36 -152,69 -234,86 -63,11 -126,12 -189,17 -463,23 -927,35 -1390,48 -358,9 -716,18 -1074,26 0,10 0,19 0,29 103,-5 206,-4 310,-8 198,-4 395,-9 593,-14 463,-12 925,-25 1387,-44 114,-6 229,-9 343,-21 60,-9 117,-28 173,-50 96,-39 188,-89 272,-149 56,-40 108,-86 149,-142 29,-39 43,-85 60,-129 27,-78 48,-161 35,-244 -10,-67 -51,-127 -105,-165 -66,-47 -142,-81 -218,-109 195,-184 393,-365 590,-546 125,-114 249,-229 377,-340 34,-30 72,-54 111,-78 77,-46 156,-90 239,-124 44,-17 91,-34 139,-33 78,-1 156,1 233,8m-9202 1240c50,24 90,66 143,86 496,687 991,1375 1487,2062 -2,12 5,23 18,25 10,13 19,27 29,40 -6,31 -22,60 -38,88 -36,60 -79,115 -123,169 -116,141 -243,272 -367,406 -6,6 -12,17 -22,15 -17,-3 -30,-14 -43,-24 -39,-33 -71,-73 -103,-113 -69,-89 -130,-184 -190,-279 -104,-165 -201,-334 -297,-503 -110,-196 -217,-394 -323,-593 -191,-361 -377,-724 -556,-1091 -19,-41 -40,-80 -56,-123 -4,-15 -12,-33 -2,-48 13,-15 32,-21 49,-28 51,-19 102,-36 152,-58 43,-17 84,-41 130,-47 38,-6 77,0 111,17z"/>
 </g>
 <g>
  <g>
   <path fill="#CF7723" stroke="#970401" stroke-width="133.327" d="M9747 3615c-33,-33 -80,-49 -126,-50 -51,-1 -101,8 -151,20 -86,22 -170,53 -251,88 -26,11 -46,32 -68,49 -131,112 -256,231 -382,349 -267,250 -531,504 -797,755 -63,59 -125,118 -189,175 88,19 176,43 261,73 251,-235 503,-467 757,-699 74,-67 147,-134 222,-199 45,-40 98,-70 149,-101 72,-42 146,-81 224,-111 35,-13 70,-24 108,-28 84,-2 168,1 252,6 10,-64 20,-128 30,-192 8,-48 -3,-101 -38,-136z"/>
   <path fill="#CF7723" stroke="#970401" stroke-width="133.327" d="M9169 3670c-55,-24 -113,-44 -173,-49 -31,-4 -60,9 -88,20 -81,36 -156,84 -231,133 -12,8 -25,16 -36,26 -109,116 -221,229 -332,343 -152,154 -303,308 -456,460 -120,119 -241,238 -361,358 86,1 170,15 254,30 59,-49 114,-103 170,-155 258,-243 515,-489 773,-732 121,-114 243,-228 367,-339 37,-32 73,-65 112,-95z"/>
   <path fill="#CF7723" stroke="#970401" stroke-width="133.327" d="M8607 3794c-42,-4 -86,-3 -127,9 -37,9 -64,37 -93,60 -141,119 -274,249 -408,376 -99,94 -196,189 -298,280 -72,57 -133,127 -195,195 -71,80 -141,162 -209,245 59,-1 119,4 177,2 150,-150 303,-299 453,-449 202,-204 404,-408 604,-615 32,-33 64,-66 95,-100z"/>
   <path fill="#CF7723" stroke="#970401" stroke-width="133.327" d="M9763 3972c-78,-7 -156,-9 -233,-8 -48,-1 -95,16 -139,33 -83,34 -162,77 -239,124 -38,24 -77,47 -111,78 -128,111 -252,226 -377,340 -197,182 -395,363 -590,546 76,28 151,62 218,109 55,39 95,99 105,165 14,83 -8,166 -35,244 -17,45 -31,91 -60,129 -41,56 -94,101 -149,142 -84,61 -176,110 -272,149 -56,22 -114,42 -173,50 -114,12 -229,15 -343,21 -462,19 -925,31 -1387,44 -198,5 -395,10 -593,14 -103,4 -207,3 -310,8 0,-10 0,-19 0,-29 358,-8 716,-17 1074,-26 463,-13 927,-25 1390,-48 63,-5 127,-6 189,-17 82,-17 159,-49 234,-86 89,-45 175,-99 250,-166 39,-37 77,-77 97,-127 29,-73 57,-149 64,-228 4,-55 -7,-114 -39,-160 -33,-48 -84,-79 -135,-105 -113,-58 -235,-97 -358,-128 -122,-30 -247,-52 -374,-53 -72,-1 -143,-4 -215,-5 -89,36 -186,41 -281,46 -55,0 -110,1 -164,-3 -284,21 -570,23 -854,1 -222,-18 -445,-50 -659,-112 -87,-25 -172,-56 -254,-93 -256,-113 -511,-229 -773,-329 -212,-81 -433,-141 -657,-176 -267,-42 -538,-58 -808,-42 -337,21 -675,93 -978,245 -99,49 -190,109 -283,168 -169,110 -337,223 -493,351 -67,55 -129,116 -188,179 468,649 936,1299 1404,1947 207,-69 416,-131 629,-175 84,-16 169,-31 256,-29 45,2 89,15 133,25 223,56 444,119 665,180 441,124 881,251 1322,375 107,30 214,60 321,88 136,31 276,55 416,46 80,-7 163,-25 231,-70 110,-69 217,-144 324,-218 321,-224 637,-454 951,-687 174,-129 347,-259 519,-391 143,-111 286,-221 423,-340 78,-67 144,-147 211,-224 197,-233 386,-471 572,-712 127,-165 253,-331 375,-501 78,-109 155,-218 224,-333 20,-35 41,-70 52,-109 -32,-49 -73,-92 -123,-123z"/>
   <path fill="#CF7723" stroke="#970401" stroke-width="133.327" d="M561 5212c-34,-17 -73,-23 -111,-17 -46,6 -88,30 -130,47 -50,21 -101,38 -152,58 -17,7 -36,14 -49,28 -10,15 -2,32 2,48 15,42 37,82 56,123 179,367 365,730 556,1091 105,199 212,397 323,593 96,170 193,338 297,503 60,95 122,190 190,279 32,40 64,80 103,113 13,10 27,21 43,24 11,1 16,-9 22,-15 124,-134 251,-265 367,-406 44,-54 87,-109 123,-169 16,-28 31,-56 38,-88 -10,-13 -19,-27 -29,-40l-18 -25c-497,-687 -992,-1375 -1487,-2062 -53,-19 -93,-62 -143,-86z"/>
  </g>
 </g>
</svg>