<svg enable-background="new 0 0 478.2 478.2" version="1.1" viewBox="0 0 478.2 478.2" xmlns="http://www.w3.org/2000/svg">
 <path d="m288.57 27.691c-44.796 0.71316-90.282 3.3551-121.74 7.0708-7.8238 0.92421-14.667 1.6804-15.206 1.6803-0.74137-4e-5 -0.92323 21.61-0.74366 88.364 0.15778 58.656-0.0548 89.553-0.63238 91.9-0.7503 3.049-0.56555 4.3844 1.3421 9.7011 4.7228 13.162 9.9047 20.875 22.278 33.16 17.359 17.234 32.837 40.833 51.457 78.452 11.362 22.956 20.893 44.526 29.042 65.726l4.8359 12.581-0.55797 11.882c-0.5369 11.434 0.25217 20.09 1.9898 21.827 0.40392 0.40392 2.8569 0.33058 5.5414-0.16569 20.314-3.7552 30.388-19.553 28.843-45.232-0.69971-11.632-3.0083-22.238-9.3595-42.999-9.5371-31.176-12.384-44.856-12.466-59.9-0.0806-14.811 3.6734-24.088 11.634-28.754 7.2841-4.2688 8.7707-4.2333 33.685 0.80374 23.22 4.6945 31.324 5.668 51.458 6.181 20.88 0.53201 32.434-0.63616 43.546-4.403 21.058-7.1383 27.42-23.688 16.84-43.806-2.1718-4.1296-2.2976-10.157-0.27676-13.256 0.80951-1.2416 3.3295-4.658 5.6-7.5922 6.4071-8.2797 7.6547-11.618 7.6693-20.519 0.0109-6.6379-0.287-8.202-2.3702-12.444-1.3105-2.6687-4.6212-7.5919-7.3573-10.94-6.642-8.1289-7.0856-10.834-3.3313-20.313 3.7808-9.5462 4.7894-15.967 3.5526-22.617-1.6468-8.855-4.6368-13.816-13.75-22.812-9.8137-9.6884-10.98-12.213-9.196-19.906 1.6865-7.2712 1.3326-15.758-0.90577-21.721-1.4716-3.9205-3.249-6.4003-7.885-11.001-9.5278-9.4552-23.152-15.458-43.224-19.044-10.508-1.8775-33.282-2.4944-70.317-1.9048z" fill="#000000"/>
 <path d="m46.665 31.691c-4.7985 0.93291-10.38 5.4771-11.772 9.5841-0.71767 2.1178-1.0642 30.641-1.038 85.428 0.04176 87.086-0.0122 86.057 4.7408 90.437 1.0446 0.96274 3.7522 2.4477 6.0168 3.2999 3.7638 1.4164 7.4782 1.5507 43.234 1.5633 23.343 8e-3 40.633-0.33119 42.876-0.84176 4.1021-0.93371 10.753-6.3102 11.686-9.4475 0.31415-1.0556 0.4417-40.137 0.28348-86.848-0.28549-84.277-0.30397-84.946-2.41-87.258-1.1673-1.2811-3.4008-3.112-4.9633-4.0686-2.7289-1.6706-4.4592-1.7559-43.86-2.161-22.56-0.23198-42.718-0.0916-44.794 0.31193z" fill="#000000"/>
</svg>
