<svg xmlns="http://www.w3.org/2000/svg" xml:space="preserve" width="32" height="32" fill-rule="evenodd" clip-rule="evenodd" image-rendering="optimizeQuality" shape-rendering="geometricPrecision" text-rendering="geometricPrecision" viewBox="0 0 847 847"><path d="M0 848V1h847v847z" style="fill:none" transform="matrix(1 0 0 1 0 -1)"/><g fill="#367214"><path d="M315.311 337.794c-.155 3.566-3.403 8.193-7.254 10.313-3.85 2.119-6.849.94-6.694-2.632 2.156-48.024-15.25-101.68-41.68-152.98-34.219-66.448-83.476-128.654-125.126-169.763-1.93-1.885-.78-6.424 2.56-10.133 3.338-3.709 7.619-5.182 9.544-3.297 42.036 41.48 91.709 104.216 126.192 171.158 26.956 52.332 44.698 107.423 42.46 157.336zM531.429 584.457c-5.772-2.37-8.528-8.97-6.157-14.745 2.37-5.768 8.973-8.522 14.743-6.15 43.746 18.083 76.074 57.98 112.457 102.864 45.959 56.71 98.729 121.793 188.786 156.4v22.824h-4.405c-97.283-35.867-153.281-104.94-201.974-165.021-34.461-42.518-65.088-80.312-103.448-96.172z"/><path d="M729.625 758.055c2.173 1.603 1.35 6.022-1.837 9.86-3.19 3.843-7.542 5.653-9.71 4.05-29.913-22.024-60.51-35.462-89.912-41.06-30.411-5.786-59.344-3.151-84.673 7.06-12.028 4.852-25.675 12.053-40.629 19.945l-.02.015-.003.014c-32.213 16.998-70.359 37.14-114.32 45.985-3.556.718-5.21-2.026-3.692-6.126 1.512-4.108 5.62-8.02 9.179-8.737 41.705-8.404 78.602-27.872 109.76-44.315l-.002.014c15.478-8.165 29.598-15.618 42.503-20.827 27.666-11.155 58.794-14.117 91.059-7.981 30.233 5.757 61.653 19.539 92.293 42.101zM488.654 333.338c2.877.64 3.118 4.491.547 8.607-2.568 4.116-6.992 6.933-9.869 6.297-37.118-8.228-68.898-21.04-96.574-38.619-27.658-17.565-51.252-39.922-72.002-67.238-23.203-30.553-37.631-68.111-51.444-104.07-13.07-34.051-25.592-66.66-44.287-89.889-1.712-2.112-.302-6.738 3.153-10.321 3.447-3.578 7.643-4.771 9.36-2.657 19.363 24.064 32.029 57.041 45.25 91.482 13.665 35.584 27.946 72.757 50.593 102.586 20.353 26.792 43.506 48.727 70.67 65.98 27.14 17.238 58.27 29.79 94.602 37.845zM113.462 112.94c-2.476-1.22-2.079-5.446.878-9.428 2.964-3.98 7.381-6.218 9.86-5 41.424 20.4 68.8 48.974 88.048 83.672 19.183 34.585 30.269 75.19 39.184 119.791 2.263 11.338 4.386 22.711 6.413 33.605 13.594 72.85 23.108 123.853 84.637 186.829 1.89 1.923.694 6.49-2.67 10.178-3.362 3.686-7.629 5.107-9.515 3.179-62.792-64.266-72.465-116.103-86.273-190.139-1.953-10.464-3.993-21.394-6.405-33.49-8.78-43.947-19.674-83.892-38.468-117.768-18.733-33.762-45.373-61.575-85.695-81.43z"/><path d="M139.42 182.555c-1.99-1.808-.933-6.316 2.364-10.06 3.3-3.746 7.596-5.306 9.59-3.494 25.864 23.777 41.123 46.822 51.152 70.765 10.011 23.903 14.788 48.644 19.709 75.929 5.993 33.215 13.167 57.64 22.99 81.275 9.825 23.652 22.35 46.56 38.996 76.71 16.445 29.789 38.635 59.18 65.041 80.838 22.121 18.147 47.194 30.898 74.277 33.894 3.04.346 3.6 3.987 1.242 8.133-2.358 4.143-6.749 7.23-9.797 6.883-28.433-3.147-54.556-16.376-77.476-35.18-27.036-22.178-49.671-52.115-66.38-82.38-16.747-30.32-29.342-53.373-39.303-77.345-9.965-23.981-17.27-48.874-23.401-82.847-4.821-26.758-9.51-51.018-19.27-74.328-9.74-23.258-24.575-45.651-49.737-68.783z"/><path d="M114.01 252.624c-2.24-1.532-1.502-5.92 1.65-9.793 3.148-3.88 7.511-5.774 9.756-4.24 19.252 13.161 35.8 27.366 48.915 43.962 13.194 16.698 22.898 35.808 28.36 58.702 9.034 37.902 25.251 74.825 42.654 114.451l4.067 9.256c18.495 42.229 42.06 79.223 73.144 106.13 30.969 26.809 69.471 43.7 117.958 45.87 3.156.15 3.918 3.654 1.694 7.82-2.222 4.157-6.583 7.409-9.742 7.255-50.087-2.24-89.83-19.659-121.771-47.312-31.824-27.555-55.862-65.209-74.642-108.08l-4.063-9.266c-17.487-39.804-33.781-76.9-43.032-115.708-5.216-21.862-14.509-40.144-27.168-56.162-12.728-16.118-28.906-29.977-47.778-42.882z"/><path d="M81.405 338.503c-2.908-.586-3.213-4.405-.672-8.524 2.533-4.125 6.952-6.989 9.86-6.403 40.702 8.143 68.274 51.228 103.193 105.801 8.486 13.27 17.441 27.251 27.653 42.336 26.328 38.89 68.505 89.904 115.656 125.03 34.048 25.37 70.579 42.443 105.327 40.54 3.32-.176 4.417 3.05 2.454 7.205s-6.244 7.666-9.56 7.84c-36.73 2.013-74.715-15.563-109.797-41.7-47.738-35.574-90.342-87.07-116.899-126.294-9.56-14.128-18.878-28.68-27.72-42.495-34.204-53.458-61.213-95.675-99.497-103.332zM174.15 128.435c-2.37-1.36-1.82-5.661 1.229-9.598 3.05-3.935 7.444-6.017 9.81-4.654 31.693 18.035 54.974 46.266 70.924 77.28 19.829 38.582 28.375 81.648 27.687 114.816-.973 46.908.721 87.997 13.88 123.474 13.14 35.441 37.802 65.505 82.81 90.554 2.392 1.335 1.883 5.62-1.151 9.57-3.032 3.95-7.433 6.069-9.829 4.737-46.266-25.758-71.69-56.842-85.309-93.571-13.606-36.69-15.362-78.814-14.37-126.82.66-31.803-7.642-73.29-26.883-110.725-15.513-30.165-38.097-57.595-68.794-75.066z"/><path d="M100.904 476.091c-3.618.94-5.494-1.573-4.188-5.62 1.31-4.05 5.312-8.107 8.936-9.046 13.56-3.545 28.634.297 44.413 9.408 17.215 9.93 35.632 26.206 53.993 45.906 24.016 25.765 49.558 49.362 73.773 69.061 26.097 21.23 50.704 38.007 70.26 48.173 23.241 12.088 50.638 21.39 79.507 25.431 25.35 3.547 51.82 3.028 77.543-3.232 30.92-7.533 61.007-11.885 86.763-9.094 26.047 2.827 47.624 12.935 61.102 34.37 1.478 2.352-.207 7.046-3.77 10.48-3.565 3.435-7.664 4.31-9.147 1.96-12.444-19.797-32.477-29.148-56.711-31.775-24.526-2.655-53.417 1.55-83.212 8.803-27.15 6.606-54.902 7.184-81.356 3.48-29.64-4.149-57.723-13.681-81.546-26.067-19.84-10.317-44.776-27.311-71.18-48.793-24.482-19.922-50.22-43.68-74.298-69.51-18.037-19.355-36.06-35.307-52.785-44.963-14.22-8.203-27.23-11.817-38.097-8.972z"/><path d="M124.713 621.11c-3.848 2.221-6.94 1.176-6.894-2.341.054-3.514 3.213-8.167 7.063-10.39 24.73-14.274 53.182-15.522 82.613-9.12 28.61 6.22 58.42 19.63 86.617 35.155 31.403 17.301 59.55 31.042 88.516 39.69 28.816 8.616 58.57 12.243 93.36 9.39 5.169-.424 14.44-2.476 26.056-5.056 43.344-9.624 118.396-26.284 157.7 3.077 2.164 1.622 1.321 6.045-1.872 9.879-3.197 3.83-7.546 5.622-9.704 3.998-36.895-27.56-109.454-11.454-151.36-2.151-12.005 2.667-21.59 4.794-27.624 5.287-35.975 2.95-66.68-.781-96.37-9.652-29.553-8.835-58.016-22.712-89.677-40.158-27.79-15.3-57.072-28.489-84.958-34.557-27.068-5.886-52.541-5.132-73.466 6.948"/><path d="M693.703 726.129c1.972 1.843.88 6.362-2.437 10.087-3.318 3.73-7.603 5.26-9.57 3.417-16.905-16.03-39.855-23.91-64.406-26.62-32.159-3.546-67.062 1.755-94.864 9.204-21.428 5.737-39.935 12.893-58.124 19.935-37.29 14.413-73.328 28.354-130.458 29.568-3.262.066-4.247-3.258-2.201-7.414 2.052-4.158 6.36-7.575 9.621-7.642 55.04-1.171 89.926-14.666 126.03-28.626 18.637-7.21 37.598-14.546 59.773-20.485 28.901-7.743 65.242-13.25 98.766-9.551 25.82 2.848 49.987 11.167 67.863 28.127z"/><path d="M662.997 699.273c2.21 1.563 1.437 5.966-1.727 9.823-3.165 3.86-7.528 5.725-9.738 4.164-15.107-10.525-31.693-16.483-51.058-17.903-19.394-1.413-41.642 1.727-68.052 9.397-35.752 10.39-62.183 17.968-91.095 19.998-28.769 2.015-59.62-1.55-104.047-13.437-14.401-3.854-27.1-7.817-39.134-11.57-43.15-13.453-77.835-24.259-122.729-10.707-3.674 1.102-5.711-1.258-4.54-5.27 1.167-4.017 5.1-8.17 8.78-9.277 48.173-14.545 83.906-3.405 128.368 10.461 12.343 3.844 25.369 7.912 38.867 11.523 43.53 11.651 73.583 15.157 101.403 13.204 27.672-1.942 53.527-9.358 88.508-19.518 27.825-8.083 51.338-11.39 71.925-9.886 20.607 1.511 38.233 7.836 54.264 18.998zM691.131 149.015c-.977-2.6 2.166-4.744 7.022-4.782 4.865-.035 9.602 2.049 10.581 4.652 9.429 24.832.69 38.952-9.924 56.078-7.523 12.15-16.043 25.9-19.16 46.284-3.717 24.39 5.741 55.426 16.275 89.97 14.693 48.184 31.443 103.105 18.098 157.81l-.015.071.008.002c-8.09 28.707-17.719 52.027-26.162 72.464-19.951 48.322-33.148 80.275-2.945 131.677 1.516 2.583-1.085 4.946-5.805 5.273s-9.777-1.506-11.295-4.088c-31.651-53.87-18.087-86.726 2.43-136.412 8.343-20.212 17.87-43.28 25.937-71.906h.008c12.997-53.394-3.53-107.598-18.027-155.136-10.7-35.094-20.311-66.622-16.418-92.14 3.276-21.465 12.069-35.666 19.837-48.199 9.912-16 18.069-29.183 9.555-51.613z"/><path d="M696.457 721.745c1.791 2.565-.499 5.029-5.117 5.505-4.624.485-9.83-1.203-11.624-3.76-35.292-50.295-13.559-98.24 11.295-153.055 10.425-23 21.41-47.234 28.895-73.488 8.74-30.666 2.835-67.373-2.61-101.243-4.12-25.613-7.982-49.639-5.139-68.778 2.016-13.584 5.367-25.353 10.64-35.494 5.376-10.356 12.748-19.046 22.722-26.275 2.638-1.923 8.199-2.038 12.402-.274 4.208 1.777 5.484 4.765 2.84 6.683-8.97 6.503-15.644 14.386-20.544 23.834-5.013 9.638-8.213 20.902-10.15 33.948-2.708 18.248 1.109 41.996 5.184 67.33 5.53 34.365 11.517 71.603 2.485 103.302-7.503 26.317-18.638 50.876-29.199 74.182-24.215 53.41-45.395 100.132-12.08 147.59z"/><path d="M714.94 744.904c1.972 2.541-.12 5.076-4.68 5.658-4.55.578-9.85-1.017-11.822-3.558-50.318-64.978-23.517-109.739 8.186-162.698 10.754-17.963 22.1-36.91 31.134-58.089 8.52-19.945 12.181-41.888 15.577-62.193 7.762-46.478 14.196-84.944 73.692-76.462 4.943.7 8.603 3.299 8.174 5.813-.428 2.51-4.777 3.978-9.717 3.28-41.583-5.927-47.32 28.39-54.25 69.863-3.455 20.657-7.187 42.992-15.868 63.32-9.06 21.239-20.587 40.486-31.509 58.732-30.71 51.299-56.67 94.66-8.92 156.328z"/><path d="M671.428 697.052c2.12 2.525.198 5.11-4.292 5.764-4.488.659-9.845-.85-11.96-3.374-37.808-44.854-17.935-95.207.37-141.591 6.038-15.304 11.91-30.173 15.403-44.238 18.451-74.19-12.262-141.234-44.452-211.479-4.902-10.698-9.837-21.473-14.123-31.16-1.467-3.306-4.493-9.989-7.53-16.71-24.36-53.813-51.634-114.072-23.51-156.197 1.519-2.295 6.598-3.156 11.329-1.907 4.725 1.247 7.327 4.12 5.804 6.413-26.551 39.764.096 98.62 23.884 151.17 2.084 4.61 4.133 9.128 7.522 16.787 4.97 11.232 9.536 21.193 14.067 31.08 32.598 71.158 63.706 139.064 44.862 214.846-3.53 14.221-9.497 29.326-15.631 44.872-17.76 44.999-37.04 93.857-1.743 135.718z"/><path d="M493.205 65.438c.585-3.8 4.159-8.265 7.971-9.976 3.82-1.713 6.439-.02 5.854 3.775-6.585 42.928-3.221 83.037 7.823 117.834 11.698 36.866 31.985 67.709 58.18 89.612 12.765 10.668 25.192 21.885 36.866 33.435 10.98 10.866 21.336 22.078 30.7 33.45l.013.015.002-.001c12.606 15.297 24.15 59.648 26.844 109.724 2.172 40.26-1.33 84.483-14.48 120.836-2.81 7.779-5.818 15.116-8.598 21.894-12.15 29.664-19.44 47.46 7.552 84.045 1.638 2.201.125 6.869-3.376 10.406-3.506 3.543-7.68 4.622-9.316 2.423-29.801-40.404-21.411-60.887-7.422-95.033 2.568-6.26 5.348-13.044 8.22-20.993 12.31-34.027 15.55-76.14 13.464-114.765-2.608-48.513-13.519-91.146-25.37-105.538l.001-.005c-9.201-11.168-19.434-22.243-30.334-33.029-11.629-11.508-23.965-22.639-36.575-33.188-27.031-22.587-47.947-54.365-59.988-92.307-11.438-36.06-14.897-77.792-8.03-122.612z"/><path d="M402.417 68.835c.489-3.746 3.991-8.257 7.818-10.06 3.829-1.806 6.538-.224 6.051 3.524-5.113 38.705-3.091 76.513 9.549 107.803 11.02 27.27 30.12 49.638 59.595 63.406 36.357 16.972 71.945 37.247 99.27 61.899 27.636 24.93 46.868 54.4 50.08 89.575.31 3.3-2.568 8.041-6.418 10.576-3.848 2.539-7.22 1.92-7.521-1.38-3.028-33.142-21.499-61.224-48.068-85.198-26.878-24.25-62.015-44.25-97.948-61.028-30.844-14.4-50.833-37.823-62.373-66.385-13.246-32.78-15.375-72.302-10.036-112.734z"/><path d="M282.195 71.282c0-3.498 3.141-8.175 7.007-10.44 3.86-2.258 6.995-1.263 6.994 2.233-.129 30.538 2.878 59.528 12.164 87.179 9.315 27.736 24.932 54.175 49.994 79.574 33.435 33.865 75.007 51.956 111.989 68.048 35.608 15.494 67.051 29.185 83.767 53.518 1.568 2.265-.025 6.94-3.55 10.435-3.53 3.492-7.668 4.476-9.234 2.206-15.825-23.04-46.607-36.436-81.473-51.605-37.406-16.283-79.45-34.582-113.647-69.224-25.773-26.108-41.84-53.305-51.42-81.839-9.604-28.606-12.72-58.552-12.59-90.079z"/><path d="M349.239 80.64c-.062-3.456 3.016-8.134 6.87-10.462 3.86-2.32 7.039-1.408 7.103 2.048.656 37.182 2.957 72.567 13.08 102.105 10.042 29.295 27.843 52.954 59.51 67.072 13.433 5.99 27.354 11.06 41.092 16.07l.004-.006c39.061 14.238 76.746 27.972 97.436 59.957 1.502 2.324-.152 7.01-3.698 10.458-3.55 3.446-7.654 4.36-9.158 2.036-19.686-30.428-56.523-43.86-94.71-57.776l.004-.007-.023-.006c-13.902-5.074-28-10.21-41.485-16.22-33.275-14.835-51.975-39.684-62.523-70.443-10.456-30.517-12.83-66.78-13.5-104.822z"/></g><path fill="#367214" d="M628.616 647.556c-58.152 90.518-185.499 77.886-250.907 19.81-57.939-51.452-89.144-137.12-93.907-213.122-8.497-135.47 58.581-219.595 199.519-187.128 106.677 24.57 209.666 100.3 236.777 210.492 16.23 65.935-21.413 152.696-91.474 169.945z"/><path fill="#d3de44" d="M609.958 622.497c-49.543 77.12-158.037 66.362-213.765 16.885-49.366-43.835-75.95-116.819-80.012-181.562-4.352-69.437 10.947-120.39 42.871-145.843 45.355-36.16 121.224-26.077 195.676 11.03 63.231 31.509 116.014 85.024 133.16 154.72 13.822 56.176-18.244 130.085-77.936 144.777z"/><path fill="#ee6433" d="M604.72 607.689c-23.895 46.56-82.687 67.737-126.002 50.318C416.479 632.96 380.28 553.5 373.91 482.094c-5.483-61.558 5.354-96.56 32.44-115.175 46.464-31.951 131.18-12.11 193.885 30.306 51.467 34.804 89.086 86.682 73.605 149.956-7.277 29.72-29.131 53.685-69.118 60.506z"/><path fill="#1f85c7" d="M597.465 595.744c-25.01 58.395-97.926 55.939-134.673 12.377-55.499-65.799-13.08-184.498 85.615-176.842 22.09 1.71 45.247 9.744 66.845 25.673 56.5 41.653 59.948 118.93-17.787 138.787z"/><path fill="#0d5d90" d="M581.334 584.07c-23.482 41.304-59.889 41.136-86.99 20.857-24.026-17.971-40.732-51.75-34.635-86.426 16.24-92.25 135.214-83.79 171.845-16.837 18.162 33.2-1.85 82.744-50.222 82.401z"/><path fill="#402745" d="M565.722 564c-.55 30.186-36.403 40.907-58.797 25.81-52.6-35.486-23.827-133.475 55.692-122.436 73.912 10.257 80.48 99.321 3.105 96.625z"/><path fill="#1f85c7" d="M560.644 552.735c-.375 20.662-24.923 28.007-40.257 17.665-36.006-24.292-16.308-91.373 38.13-83.819 50.6 7.029 55.096 67.995 2.127 66.151z"/><path fill="#402745" d="M558.51 548.016c-.308 16.674-20.11 22.6-32.482 14.252-29.057-19.601-13.154-73.73 30.77-67.632 40.826 5.668 44.452 54.866 1.713 53.38"/></svg>