<svg xmlns="http://www.w3.org/2000/svg" xml:space="preserve" width="32" height="32" style="shape-rendering:geometricPrecision;text-rendering:geometricPrecision;image-rendering:optimizeQuality;fill-rule:evenodd;clip-rule:evenodd" viewBox="0 0 847 847"><defs><style>.fil0{fill:none}.fil10{fill:#a95428}.fil3,.fil7{fill:#2b2a29;fill-rule:nonzero}.fil3{fill:#ffed00}.fil4,.fil5,.fil9{fill:#f9c390;fill-rule:nonzero}.fil4,.fil9{fill:#f6ac66}.fil9{fill:#e31e24}.fil2,.fil6,.fil8{fill:#ec9c0f;fill-rule:nonzero}.fil6,.fil8{fill:#eeaf0b}.fil8{fill:#a95428}</style></defs><g id="Layer_x0020_1"><g id="_451163392"><path d="M0 0h847v847H0z" class="fil0"/><path d="M658 749c-13 10-25 21-39 30v2c-3 10-19 24-39 35-19 11-42 20-59 20-3 0-6-1-8-2l-35-8c-49-12-133-33-156-41-2 1-4 0-6-2-2-3-2-8 1-10 2-2 4-5 6-8 1-2 2-3 2-5-7 4-14 8-22 12-4 2-8 4-12 7-12 7-23 13-40 12-15-1-20-10-27-19l-2-5c-4-5-7-10-10-15-3-6-6-11-8-16v-1c-1-1-1-2-1-3l-2 1c-4 4-9 8-13 11v1c-5 4-8 7-12 9h-1c-4 2-9 3-15 2-8 0-13-1-17-3s-7-5-10-9c-3-3-7-7-10-12l-9-11c-28-32-24-74-20-111 0-8 1-16 1-23 1-3 1-7 2-13 3-27 10-87 2-90-7-3-13-5-19-8-17-6-30-11-43-23l-5-4c-8-6-17-14-14-26 5-17 10-28 16-36 0-22 11-32 21-40 5-4 9-8 11-13-1-1-3-2-4-3-1-2-2-3-3-5 0-3 0-5 1-7v-1c1-2 3-3 5-4 5-2 15-5 28-7 9-2 19-3 29-3 25 0 48 7 56 9l1 1c2 0 4 2 5 4h1c1 2 1 4 1 6s0 4-2 6l-3 3c1 5 6 9 11 14 10 9 21 19 21 43 0 14-4 26-12 35-5 7-12 12-19 17 9 15 2 25-5 35l-2 4c0 2 1 7 3 16 2 1 2 3 2 5 2 7 4 14 6 23l9 41 1-3c4-8 7-16 11-23l8-16c20-39 35-69 61-86 4-4 9-8 13-13l-1-6c-4-26-10-64 32-81 10-3 16-7 19-11q3-4.5 3-9c-3-36 10-48 22-60h1l3-3v-1c-15-36-14-68-3-94 11-25 31-44 55-56-2-7 0-15 3-23 4-7 10-14 18-19 0-3 0-7 2-10 2-5 5-9 10-14 2-2 6-7 8-11s3-7 4-9c0-3 2-6 5-7 4-1 8 2 9 6s2 8 4 13c2 3 3 6 5 8 5 6 8 11 9 16 1 3 2 5 2 8 7 4 12 10 15 17 2 6 3 14 2 21 18 8 33 20 44 39 11 18 17 41 17 71 0 8-1 14-2 17s-2 5-4 6c-1 0-1 1-2 1 3 29 6 60 0 89 2 5 5 10 7 16h1c3 8 7 16 9 23v1c1 5 1 9 0 14 0 5-1 10 2 12 4 3 9 4 14 5l5 2c9 2 15 9 19 17 3 7 4 17 3 24 29 24 33 47 41 92l2 10c1 3 1 7 2 11 10-18 21-35 32-60 3-7 1-16-2-28v-2c-2-8-4-17-4-26 0-10 1-21 5-30l3-6c-5-11-10-28-12-48-2-16-2-26 0-41-16 0-31-4-43-12-13-8-22-20-27-35-2-7-4-14-4-22v-8l8 1c6 0 12 1 18 2l6 2c-1-4 0-7 0-11 1-8 3-16 7-26l3-8 7 4c6 3 11 7 16 10l8 5c2-4 5-7 9-11 5-6 11-12 19-19l6-4 4 5c8 8 13 16 17 24 3 5 4 10 5 15l10-5c7-3 15-5 23-8l8-2 1 8c1 10 2 19 1 27 0 4-1 7-1 10h6c6 1 11 1 17 2h9l-2 9c-2 7-5 14-8 20-8 14-20 24-34 29-13 5-29 6-44 3-2 4-3 12-3 25-1 8 0 16 1 22 3 1 5 3 7 5l2 2c2-2 4-3 7-3 5-1 8 1 13 4l6 4c18 11 31 20 37 33 5 13 3 30-11 55v1c10 13 24 38 28 68 3 23 1 48-10 74-2 4-6 6-10 4-4-1-5-6-4-9v-1c5-11 3-26-2-42-6-20-16-39-25-52-1 8-4 18-6 30-12 56-31 147-65 173-10 8-32 28-48 42" style="fill:#682b1c;fill-opacity:.501961"/><path d="M164 442c24-9 42-26 42-52 0-37-33-37-34-61 9-3 8-7 5-8-8-3-31-10-55-10-23 0-47 6-54 10-4 1-2 6 5 8h1c-1 24-33 24-33 61" class="fil0"/><path d="M166 506c-4-1-11-1-18 0-12 2-24 5-31 9l-1 1c0 10-1 21-2 31 11-4 25-8 38-10 7-1 15-2 21-2l-2-7z" class="fil2"/><path d="m398 682 18-18 6-5c-5-1-10-3-14-5-10-4-20-12-25-21-6 3-12 6-18 8 1 4 3 9 6 14 4 8 10 15 16 21 4 3 8 6 11 6" class="fil3"/><path d="M319 599c-13-6-27-9-40-9-14-1-28 2-42 8-3 16-7 33-10 50-4 14-7 27-10 39-1 7-3 14-3 22 0 7 0 14 3 21 2 4 5 10 8 15 2 5 5 10 8 14l4 5c4 6 8 12 15 12 12 1 22-4 31-10 5-3 9-5 14-8 32-14 63-40 89-65-3-1-6-4-9-6-7-7-14-16-19-26-3-5-5-10-7-15l-3 1c-9 3-18 6-28 10-1 1-3 1-5 1-4-1-6-5-5-9l7-38z" class="fil4"/><path d="M240 581c13-4 26-6 40-6 14 1 28 4 42 10l5-25c-14-6-28-10-42-10-14-1-27 2-41 7v1c-1 8-2 15-4 23" class="fil3"/><path d="m372 397-1 1c-27 16-54 21-70 37-34 31-48 60-50 77-1 10-3 19-4 29q19.5-6 39-6c14 1 29 4 43 10l3-15c1-4 5-7 9-6 4 0 6 4 6 8l-12 62c1 1 1 3 0 5 0 0-1 0-1 1l-7 39c6-2 11-4 16-6 17-5 31-10 47-24-7-21-9-54-3-84 4-22 11-42 24-55-11-9-20-19-26-31-7-12-11-25-13-42" class="fil4"/><path d="M479 535c-1 1-1 2-1 3-2 5-2 11-2 16v1c0 4-3 7-7 7s-8-3-8-7v-1c0-3-1-5-2-8-2-7-4-15-3-29 1-20-2-32-6-39-2-3-4-4-6-5-1-1-3-2-5-2-4 0-8 1-12 4-13 9-22 30-26 53-5 29-3 62 4 81 1 2 0 6-2 8-3 2-5 5-8 7l1 1c3 7 10 12 18 16 7 4 15 5 21 4 0 0 1-1 2-1 9-9 17-15 23-18 7-5 12-9 15-13 3-5 4-10 6-17 1-7-1-43-2-61" class="fil5"/><path d="M563 414c-1 1-1 3-1 4-3 17-11 29-21 36s-23 10-36 10c-5 0-10-1-14-2h-2c-23-5-48-18-66-34-15-14-26-30-27-46-3 3-6 5-10 7 1 17 5 31 12 43 6 12 14 21 25 29 5-3 11-5 17-5 4 1 8 2 12 4 3 2 7 5 10 9 6 10 10 26 8 49v4c4-3 9-5 16-5 4 0 7 4 7 8v1h1c23-2 43-11 58-27 14-16 22-39 21-69v-12l-8-3z" class="fil6"/><path d="M662 596c-7-3-14-4-21-5-7 0-15 1-22 3-2 10-3 21-4 31q15-3 30-3c7 0 13 0 19 2-1-8-1-15-2-21v-7" class="fil3"/><path d="M571 757c6-4 12-9 22-15 1-18 3-51 5-80l3-35c0-13 1-28 5-41 2-8 4-15 8-21 7-10 6-18 6-28v-7c0-4 1-7 2-10s2-4 4-6c2-3 7-4 10-1 3 2 4 7 1 10-1 1-1 2-2 3v11c0 13 0 22-8 36-1 1-2 3-3 5 6-1 12-1 18-1s13 1 20 3c-1-14-2-28-4-39l-2-10c-10-53-13-72-65-103l-3-2v3c1 35-9 62-26 80-16 18-40 29-66 31l-2 1c1 19 3 50 1 58-2 9-4 15-8 22-4 6-10 12-20 18h-1c-8 4-22 18-39 35-6 6-13 13-20 19l1 2c-1 0-2 1-4 1-18 18-38 36-60 51 33 6 67 12 100 17 35 5 67 7 91 6 20 0 23-3 36-13" class="fil4"/><path d="M597 757c-7 5-13 9-17 12-16 12-20 15-45 16-24 1-57-2-93-7-33-4-69-10-102-16-1 3-2 7-4 10l-2 3c23 6 101 25 147 37l35 8c2 1 4 1 6 1 14 0 34-8 51-18 17-9 30-20 32-25v-2c1-4-4-13-8-19" class="fil6"/><path d="M403 355c-4-7-9-19-12-25-4-7-7-18-7-28v-1c0-6 1-12 3-17 3-6 8-11 14-13 5-1 11-1 17 0h2c12-11 22-18 33-26l7-5c9-7 15-14 20-21-8 4-16 9-25 14-3 2-6 4-9 7-19 13-48 34-68 25l-3 3-1 1c-10 9-20 19-17 48 0 6-2 13-7 19s-13 11-25 16c-30 12-26 42-22 63 16-9 37-15 59-28 14-9 30-16 41-32" class="fil7"/><path d="M531 390c-3 1-6 2-10 2-15 2-43-2-68-9-17-5-32-11-41-18l-1 2-1 1c1 1 1 3 1 5-3 14 7 30 22 44 16 15 38 27 59 31h1c4 1 8 1 12 1 10 1 20-1 27-7 8-5 13-14 15-26 1-3 1-6 2-9-8-4-15-7-18-17" class="fil4"/><path d="M614 426c0-3-1-5-2-8-2-4-5-7-9-8l-4-1c-7-2-13-3-20-8-9-7-8-16-7-26v-9c-1-6-5-13-8-20l-1-1c-1 2-2 5-3 7l-3 9c-4 9-6 17-13 22 1 1 1 1 1 2 1 5 6 7 11 9l15 8c10 4 19 8 27 13 6 4 11 7 16 11" class="fil7"/><path d="M554 322h1c5-28 2-58 0-86l-1-12c-10-9-25-20-34-27-3 2-6 4-9 5-6 5-10 12-15 19-6 10-14 21-27 30l-8 6c-10 7-19 14-31 24-2 3-5 5-8 5h-1c-2 0-4 0-7-1s-6-1-8 0c-3 1-4 2-5 5-2 3-3 7-3 11v1c1 8 3 16 5 20 5 8 10 19 14 28 6 7 22 14 40 19 23 7 49 10 62 9 17-2 20-11 24-22 1-3 2-6 4-10 3-8 6-16 7-24" class="fil5"/><path d="M506 112c-13-2-25-3-38-2-12 1-25 2-37 5l-3 1c-21 10-40 27-50 50-9 22-10 50 3 83l1 2c13 7 39-11 55-23l10-7c13-9 26-15 38-21 6-3 12-6 17-10 5-3 10-6 16-9h6v1h1v1h1l1 1c9 7 25 19 36 29v-3c0-27-6-48-15-64-10-17-25-28-42-34M434 100c11-3 22-4 34-5 11 0 22 0 34 1 0-4 0-8-2-12s-5-8-11-10v-1c-4-1-6-4-5-8 0-2 0-4-1-7s-3-6-6-10l-1-1c-2-2-3-5-5-9-3 4-5 8-8 11s-5 6-7 9c-1 2-1 4 0 7 1 4-1 8-5 9l-2 1c-6 2-10 7-13 13-2 4-3 8-2 12" class="fil3"/><path d="M751 559c1-8 3-17 5-24-6-11-12-18-19-24-6-5-12-9-19-12q-6 13.5-12 24c9 5 19 11 28 19 6 5 12 11 17 17" class="fil2"/><path d="M789 450c10-19 12-30 8-39s-15-16-30-25l-7-4c-2-2-2-3-3-3 0 1-1 2-5 7-1 5-3 9-4 12-3 6-4 11-2 20s8 17 17 23c7 5 16 9 26 9" class="fil5"/><path d="M722 485q13.5 6 24 15c5 4 10 9 14 15 1-6 2-11 4-15 0-1 0-2 1-3 11-15 12-19 15-25 0-2 1-5 3-8-11-1-20-5-28-11-12-8-20-19-23-31-4-14-1-20 2-29 1-3 3-7 4-11 0-2-1-4-2-6-1 1-1 1-2 1-2 7-5 13-8 19-2 4-5 8-7 14-4 7-5 15-5 23 0 9 2 17 4 23v3c3 9 5 18 4 26M693 698h1c23-12 40-68 52-119-6-10-13-19-21-26-9-7-18-13-26-17-5 9-10 16-15 24l-8 15v13c2 2 2 4 1 7v7c1 20 4 49 9 73 2 9 4 17 7 23" class="fil4"/><path d="M786 492c9 12 21 33 28 54 0-5 0-9-1-14-3-23-12-42-20-55-1 5-3 8-7 15" class="fil8"/><path d="M47 393c0 1-1 2-2 2-4 7-9 17-13 31-1 4 5 8 9 12l5 4c12 10 24 15 40 21 5 2 12 4 18 7 7 3 11 15 12 30 8-4 19-7 30-8 6-1 12-1 17-1-2-9-3-14-2-15l1-2 3-6c4-5 8-10 6-16h-8c-9 1-19 1-29 1q-15-1.5-27-3c-6-1-12-2-17-5-6-2-11-6-14-12-4-10-5-18-6-24 0-4-1-8-2-10v-1c-3-4-6-7-8-9-2-1-4-1-6-1-2 1-4 2-7 5" class="fil5"/><path d="M158 438c1-1 2-2 4-3 11-4 21-10 27-19 6-7 10-16 10-26 0-18-9-25-17-32-9-8-16-15-17-29 0-1 0-3 1-4-10-3-27-6-44-6-9 0-18 1-27 2q-9 1.5-15 3c1 2 2 4 2 6-1 13-9 20-17 28-5 4-10 9-14 16 6-1 11 0 16 3s9 7 13 13v1c4 5 4 10 5 17 0 5 1 11 4 19 1 2 4 4 7 5 3 2 8 3 13 3 8 2 16 3 25 3z" class="fil2"/><path d="M715 210c-5 5-9 10-11 15l-4 8-7-6c-4-3-9-6-14-9l-7-5q-3 9-3 15c-1 6-1 12 0 17l3 12-12-4-15-3-8-1c1 3 2 5 3 8 3 12 11 22 21 28 10 7 22 10 35 9q10.5 0 21-3l3-1 3 1c7 4 13 6 20 8 13 3 26 3 37-1 11-5 20-13 26-24 2-2 3-5 4-8h-7c-6 0-11 0-16 1h-12l5-11c2-4 3-10 4-16 0-4 0-9-1-15-4 1-8 3-12 5-7 2-12 5-18 8l-10 6-1-12c0-7-2-13-5-20-2-5-6-10-10-15-5 4-9 9-12 13" class="fil9"/><path d="M727 309c-3-1-5-2-8-4-3 1-5 2-8 2-3 16-2 25 0 41q1.5 19.5 6 33c2-5 4-10 5-17 0-2 1-3 2-4-1-7-1-14-1-22 1-13 2-22 4-29" class="fil8"/><path d="m236 516-8 15-8 15c-4 7-7 15-11 23l-9 24c-2 4-6 6-10 4-2-1-4-3-4-5-1-5-5-22-10-42-4-1-12 0-22 1-15 3-32 8-41 12l-2 13-1 12c0 7-1 15-2 23-3 35-7 73 17 100 3 5 6 8 9 12 4 4 7 8 10 11 2 3 4 4 6 6 2 1 6 2 11 2 4 0 6 0 8-1h1c2-1 4-3 8-7 5-4 9-8 14-12l7-7v-7c1-9 2-17 4-24 3-13 7-26 9-39 7-30 13-60 18-89 2-14 4-27 6-40" class="fil4"/><path d="M489 274c7 0 11 5 11 12 0 6-4 11-11 11-6 0-10-5-10-11 0-7 4-12 10-12" class="fil10"/><path d="M450 280c2 2 6 2 9 1 12-7 23-12 35-11 5 0 14 1 17 8 1 3 1 4 0 5-2 1-5 2-8-1-3-4-11-3-19-2-4 1-16 5-23 6-8 1-10-1-11-6M553 277c6 0 11 5 11 10 0 6-5 11-11 11s-10-5-10-11c0-5 4-10 10-10" class="fil10"/><path d="M516 327c7 0 9 0 14-1l-1-1c0-12 0-25-1-38 0-16 27-19 36-19 3-1 5 1 6 4 0 3-2 5-5 5-4 1-26 2-27 10 1 12 0 25 1 37l1 5v1c0 2-1 4-1 5-3 4-19 1-26-1-6-1-5-7 3-7M493 354c-4-1-2-10 2-10 24 0 20 1 40 0 10 0 9 13-4 10-20 1-15 4-38 0" class="fil10"/><path d="M514 238c0-2 2-4 5-4s5 2 5 4c0 16 2 20 2 18 1-1 1-6 1-18 0-3 2-5 4-5 3 0 5 2 5 5v19c0 3-1 6-2 8-2 2-5 4-8 4-2 0-5-1-8-3v-1c-2-2-4-4-4-7z" class="fil9"/><path d="M507 369c-4 0-3-11 0-11h28c7 3 6 18-28 11" class="fil10"/><path d="M617 763c11-8 21-17 31-25 11-10 23-19 34-28-4-8-7-19-10-32-3-12-5-26-6-39-5-2-13-3-21-3-10 0-21 2-31 4l-1 23c-2 32-5 69-5 84l1 2c2 3 5 8 8 14" class="fil4"/></g></g></svg>