<svg xmlns="http://www.w3.org/2000/svg" viewBox="0 0 60 60"><defs><style>.cls-1{fill:#c41616}.cls-1,.cls-2,.cls-3{fill-rule:evenodd}.cls-2{fill:#fff}.cls-3{fill:#f93}</style></defs><g id="Layer_1"><path d="M57.62 41.06c-3.77-3.98-7.47-8.14-9.18-11.75.63-.26 1.1-.65 1.39-1.19.63-1.18.56-3.06-.65-4.03l-.61-.49c.32-.21.73-.4 1.22-.61.91-.39 1.93-.84 2.71-1.83 1.3-1.65 1.58-3.63.76-5.32-.76-1.56-2.32-2.56-3.99-2.56-.82 0-1.64.25-2.37.72-1.22.78-2.31 2.22-2.53 3.92-1.32-1.42-3-2.37-4.83-2.73v-.15c.15-2.1-.99-3.74-2.88-4.25-.51-1.22-1.63-1.9-2.98-2.28l-.04-.54c-.1-1.19-.92-2.12-2.25-2.6-.15-.64-.5-1.22-.88-1.82-.15-.24-.31-.5-.47-.78l-.93-1.68-.84 1.72c-.15.31-.38.65-.61.97-.36.52-.75 1.09-.88 1.7-1.28.5-2.08 1.36-2.23 2.42l-.12.82c-.81.27-1.54.65-2.04 1.18-.27.28-.46.6-.57.93-1.31.34-2.3 1.01-2.82 1.91-.45.79-.51 1.69-.19 2.61-1.33.3-2.5.95-3.45 1.92a5.85 5.85 0 0 0-2.26-2.83c-.73-.47-1.55-.72-2.37-.72-1.67 0-3.23 1.01-3.99 2.56-.82 1.68-.53 3.67.76 5.32.78.98 1.8 1.43 2.71 1.83.49.22.9.4 1.22.61l-.61.49c-1.2.97-1.27 2.85-.65 4.03.28.54.76.93 1.39 1.19-1.71 3.61-5.41 7.78-9.18 11.75l-1.02 1.08.45.79c1.04 2.3 4.2 6.22 5.36 7.56l1.42 1.71 1.09-1.71c2.35-3.59 3.65-11.15 4.88-16.86.22-1.03.43-2.01.63-2.89.43.49.93.93 1.49 1.33l-.03.06c-.36.77-.57 2.09-.1 3.47.37 1.09 1.1 1.87 2.06 2.29-.25.75-.21 1.58.13 2.35.45 1.01 1.34 1.77 2.42 2.14v.06c-.26 1.23.12 2.17.49 2.75.51.81 1.32 1.39 2.17 1.62v.1c.04 1.21.72 2.31 1.88 3.09-.42.26-.72.65-.81 1.12-.04.19-.07.64.21 1.12-.09.08-.18.16-.24.23-.23.23-.4.41-1.12.48-1.14.08-2.06.7-2.34 1.6-.27.84.07 1.73.89 2.4 1.77 1.43 5.99 1.54 7.24 1.54s5.47-.11 7.24-1.54c.81-.66 1.15-1.55.89-2.38-.18-.6-.65-1.08-1.29-1.36l-.99-.25c-.74-.07-.92-.25-1.15-.48a4 4 0 0 0-.28-.25c.26-.47.23-.91.19-1.1-.09-.46-.38-.84-.79-1.11-.18.11-.36.21-.54.31.39-.2.77-.44 1.15-.74.83-.66 1.47-1.44 1.93-2.04 1.46-1.91 2.06-3.95 2.63-5.93.72-2.48 1.4-4.82 3.62-7.27.75-.83 1.82-2.12 2.77-3.61.17.77.35 1.59.53 2.46 1.23 5.71 2.53 13.28 4.88 16.86l1.09 1.71 1.42-1.71c1.16-1.35 4.32-5.27 5.36-7.56l.45-.79-1.02-1.08ZM27.79 6.19c-.33-.81.81-1.83 1.37-2.96.66 1.19 1.38 2.01 1.27 2.9 1.17.24 2.12.85 2.2 1.9-1.08-.2-4.02-.6-7.1 0 .13-.93 1.09-1.55 2.26-1.84m-8.02 8.91c-.67-1.73.63-3.07 2.92-3.44-.11-1.64 2.68-2.62 6.6-2.63 4.19-.01 6.2.78 6.59 2.6 1.62.21 2.8 1.38 2.67 3.32-6.22-.33-12.48-.35-18.78.15" style="fill-rule:evenodd;fill:#1e1308;opacity:.5"/><path d="M47.6 15.39c-1.19.76-2.33 2.38-1.94 4.24.79 1.26 1.26 2.54 1.43 3.84 1.14-1.51 3.33-1.13 4.53-2.65 2.78-3.52-.98-7.38-4.02-5.43" class="cls-1"/><path d="M47.33 30.03c-.31-.02-1.23-.02-1.5-.06 1.29 5.47 2.98 15.54 5.77 19.81 1.11-1.29 4.23-5.34 5.21-7.51-3.31-3.49-7.62-8.2-9.48-12.23ZM48.49 25.41c-.4.28-1.05.82-1.57 1.29-.02.1-.03.19-.06.29-.17.63-.41 1.25-.68 1.86.91.05 2.22-.07 2.65-.89.41-.77.33-2-.34-2.54Z" class="cls-3"/><path d="M35.09 47.38c1.35-1.76 1.89-3.63 2.47-5.6.72-2.48 1.47-5.04 3.84-7.67 1.34-1.48 3.71-4.41 4.49-7.38.68-2.59.14-5.03-1.67-7.44-1.43-1.91-3.51-3.09-5.72-3.26h-.3c-2.95-.1-6.29-.21-9.61-.21-3.03 0-6.06.09-8.78.35-2.84.28-5 2.4-5.79 5.67-.78 3.26 0 7.8 3.55 10.08 4.57 1.96 11.6.52 13.46-2.78 1.11-1.96 1.47-3.86 1.08-5.66-.61-2.78-2.79-3.93-4.67-3.84-1.92.1-3.81 1.46-3.73 3.89.04 1.28.85 2.68 2.3 2.87.96.12 2.08-.22 2.25-1.27.08-.5-.07-1.02-.37-1.29-.21-.19-.5-.24-.83-.15a.485.485 0 0 1-.61-.35c-.07-.27.08-.54.35-.61.66-.18 1.29-.05 1.76.37.55.49.82 1.35.69 2.19-.26 1.63-1.89 2.29-3.36 2.11-1.77-.23-3.1-1.83-3.17-3.82-.11-3.07 2.27-4.8 4.68-4.92 2.29-.11 4.97 1.27 5.7 4.63.44 2.03.05 4.17-1.17 6.34-.25.5-.5.97-.74 1.43-1.04 1.98-1.93 3.69-2.21 6.3-.08.78-.03 1.64.04 2.54.05.74.1 1.5.08 2.27-.09 3.09-1.61 4.89-4.26 5.16.03.98.65 1.87 1.74 2.48 1.78 1 4.68 1.12 6.79-.56.75-.59 1.33-1.31 1.76-1.86Z" class="cls-2"/><path d="M19.36 37.57c1.83.3 7.51-.54 9.03-2.57.31-1.14.74-2.14 1.22-3.1-1.94 1.22-4.64 1.92-7.32 1.92-1.65 0-3.28-.28-4.74-.84-.3.65-.41 1.7-.06 2.73.23.67.74 1.54 1.87 1.86M24.36 46.37c2.38-.09 3.63-1.51 3.72-4.24v-.93c-.35.33-.78.64-1.3.9-1.33.67-2.95 1-4.11 1-.19 0-.37-.01-.53-.03-.18.89.08 1.58.36 2.02.44.69 1.17 1.18 1.87 1.28ZM21.86 42.01s.02 0 .02.01h.03c.67.22 2.77.01 4.4-.82.62-.31 1.4-.84 1.67-1.58-.05-.83-.09-1.62-.01-2.38.02-.21.06-.41.09-.61-2.15 1.41-5.84 1.99-7.89 1.99-.22 0-.42 0-.6-.02-.19.51-.17 1.1.09 1.67.39.88 1.22 1.53 2.21 1.74Z" class="cls-2"/><path d="M35.27 54.39s-.01.04-.02.06c0-.02.01-.04.02-.06-1.86-.17-1.65-1.12-2.45-1.14h-.06c-.05.06-.12.12-.22.17-.4.22-1.6.5-3.04.5s-2.64-.28-3.04-.5a1 1 0 0 1-.23-.17c-.8.02-.59.97-2.45 1.14-1.37.09-2.09 1.26-.89 2.22 1.25 1.01 4.53 1.32 6.61 1.32s5.36-.31 6.61-1.32c1.18-.95.49-2.1-.84-2.22" class="cls-3"/><path d="M32.06 51.09c-.2.07-.4.14-.59.19-.14.04-.29.07-.44.11-1.36.3-2.76.18-3.93-.26l-.11-.03c-1.13 0-1.77 1.07-.22 1.71 1.45.6 4.03.6 5.48 0 1.54-.63.92-1.7-.19-1.71ZM35.88 11.63c-.39-1.82-2.41-2.61-6.59-2.6-3.93.01-6.71.99-6.6 2.63-2.28.37-3.58 1.7-2.92 3.44 6.31-.5 12.56-.48 18.78-.15.13-1.95-1.05-3.11-2.67-3.32M30.43 6.13c.11-.89-.61-1.71-1.27-2.9-.56 1.14-1.7 2.15-1.37 2.96-1.17.29-2.12.91-2.26 1.84 3.08-.61 6.02-.21 7.1 0-.08-1.05-1.03-1.66-2.2-1.9" class="cls-3"/><path d="M13.05 21.62a9.7 9.7 0 0 1 1.28-3.03c-.25-1.21-1.08-2.21-1.93-2.75-3.04-1.95-6.79 1.9-4.02 5.43 1.15 1.46 3.2 1.19 4.38 2.5.03-.75.13-1.47.29-2.14Z" class="cls-1"/><path d="M13.08 27.13c-.52-.47-1.17-1.01-1.57-1.29-.68.55-.75 1.77-.34 2.54.44.82 1.74.94 2.65.89-.27-.61-.52-1.23-.68-1.86-.03-.1-.04-.19-.06-.29ZM3.19 42.71c.98 2.17 4.1 6.23 5.21 7.51 2.79-4.26 4.48-14.33 5.77-19.81-.27.04-1.19.04-1.5.06-1.86 4.04-6.17 8.74-9.48 12.23Z" class="cls-3"/></g></svg>