<svg xmlns="http://www.w3.org/2000/svg" xml:space="preserve" width="100" height="100" style="shape-rendering:geometricPrecision;text-rendering:geometricPrecision;image-rendering:optimizeQuality;fill-rule:evenodd;clip-rule:evenodd"><defs><style>.fil3,.fil4{fill:#fefefe;fill-rule:nonzero}.fil3{fill:#42211a}</style></defs><g id="Layer_x0020_1"><g id="_683967200"><path d="M0 0h100v100H0z" style="fill:none"/><path d="M51 0c5 7 10 14 14 21 5 7 8 14 11 21 1 2 2 5 2 8 1 5 1 10-1 14-1 4-5 8-10 10-1 1-3 1-4 2 2 2 1 7-3 7 1 2-1 4-4 5 0 14 3 11-11 11-2 0-1-8-1-11-3-1-5-3-4-5-4 0-5-5-3-7-1-1-3-1-4-2-5-2-9-6-10-10-2-4-2-9-1-14 0-3 1-6 2-8 3-7 6-14 11-21 4-7 9-14 14-21z" style="fill:#682b1c;fill-opacity:.501961"/><path d="M64 22c-4-6-9-13-14-19-5 6-10 13-14 19-4 7-7 14-10 20-1 3-2 5-2 8-1 5-1 9 0 13 2 4 5 7 10 9 1 1 3 1 5 2h22c2-1 4-1 5-2 5-2 8-5 10-9 1-4 1-8 0-13 0-3-1-5-2-8-3-6-6-13-10-20" style="fill:#e31e24;fill-rule:nonzero"/><path d="M64 53c1 1 1 1 1 2s0 2-1 3c0 0-1 1-2 1H38c-1 0-2-1-2-1-1-1-1-2-1-3s0-1 1-2c-1-1-1-2-1-3s0-2 1-2c-1-1-1-2-1-3s0-2 1-2c0-1 1-1 2-1h24c1 0 2 0 2 1 1 0 1 1 1 2s0 2-1 3c1 0 1 1 1 2s0 2-1 3" class="fil3"/><path d="M46 52c-1 0-1-1-1-1v-2l1-1h-8l-1 1c-1 0-1 1-1 1 0 1 0 1 1 1 0 1 1 1 1 1zM54 54h-1c0 1-2 1-3 1s-2 0-2-1H37c-1 0-1 1-1 1 0 1 0 1 1 2h26c1-1 1-1 1-2 0 0 0-1-1-1h-9M54 48l1 1v2s0 1-1 1h9v-1c1 0 1 0 1-1 0 0 0-1-1-1l-1-1zM47 47v-1h6v1h9s1 0 1-1c1 0 1 0 1-1 0 0 0-1-1-1l-1-1H38l-1 1c-1 0-1 1-1 1 0 1 0 1 1 1 0 1 1 1 1 1z" class="fil4"/><path d="M47 51v1l1 1s1 0 1 1h2v-1h1l1-1v-4h-1v-1h-4v1h-1v3" style="fill:#ec6a2f;fill-rule:nonzero"/><path d="M55 88H45v10h10zM44 86h12c1 0 2 0 2-1h1l-1-1H42l-1 1h1c0 1 1 1 2 1M43 75h-1c-2 0-3 1-4 2v3c1 1 2 2 4 2h16c2 0 3-1 4-2v-3c-1-1-2-2-4-2H43" class="fil3"/></g></g></svg>