<svg xmlns="http://www.w3.org/2000/svg" xml:space="preserve" width="32" height="32" style="shape-rendering:geometricPrecision;text-rendering:geometricPrecision;image-rendering:optimizeQuality;fill-rule:evenodd;clip-rule:evenodd" viewBox="0 0 847 847"><path d="M0 0h847v847H0z" style="fill:none"/><path d="M383 712c-9 9-20 18-31 26l-25 19-2-31c-1-13-3-23-4-33-6 5-12 10-19 15-51 32-48 64-73 92-16-23-14-57-5-97 5-24 12-38 20-50-12 4-26 6-40 7l-31 4 13-28c6-11 10-21 14-31-8 3-16 4-24 4-61 3-73 32-109 43-3-27 16-56 44-86 17-18 29-27 42-34-12-3-25-8-38-13l-29-12 26-18c10-7 19-14 27-20-8-2-15-5-23-8-54-28-79-10-116-18 12-25 43-40 81-52 24-8 40-9 54-8-10-9-18-20-27-31l-18-25 31-2c12-1 23-3 33-4-6-6-11-12-15-19-33-51-64-48-92-73 22-16 57-14 97-5 24 5 38 12 50 20-4-12-6-26-8-40l-3-31 28 13c11 6 21 10 30 14-2-8-3-16-4-24-2-61-31-73-43-109 28-3 57 16 87 44 18 17 27 29 33 42 3-12 8-25 14-38l12-29 18 26c7 10 13 19 19 27 2-8 5-15 9-23 28-54 9-79 17-116 26 12 41 43 53 81 8 24 9 40 8 54 9-10 19-18 31-27l25-18 2 31c1 12 3 23 4 33 5-6 12-11 19-15 51-33 47-64 73-92 16 22 13 57 5 97-6 24-12 38-20 50 12-4 26-6 40-8l31-3-14 28c-5 11-9 21-13 30 7-2 15-3 24-4 60-2 73-31 109-43 2 28-17 57-44 87-17 18-30 27-42 33 12 3 25 8 38 14l28 12-25 18c-11 7-19 13-27 19 8 2 15 5 22 9 54 28 80 9 117 17-12 26-43 41-82 53-23 8-39 9-53 8 9 9 18 19 26 31l19 25-31 2c-13 1-23 3-33 4 5 5 10 12 15 19 32 51 64 47 92 73-23 16-57 13-97 5-24-6-38-12-50-20 4 12 6 26 7 40l4 31-28-14c-11-5-21-9-31-13 3 7 4 15 4 24 3 60 32 73 43 109-27 2-56-17-86-44-18-17-27-30-34-42-3 12-8 25-13 38l-12 28-18-25c-7-11-14-19-20-27-2 8-5 15-8 22-28 54-10 80-18 117-25-12-40-43-52-82-8-23-9-39-8-53" style="fill:#682b1c;fill-opacity:.501961"/><circle cx="423" cy="423" r="212" style="fill:#f7a707"/><path d="M453 650c6 30 3 53-7 73-14 26-24 54-14 102-8-20-18-43-25-65-17-51-2-68-2-109h18c10 0 20 0 30-2zm12-2c2 40 27 61 38 77 11-24 25-54 5-87-2 0-4-1-5-1-12 5-25 8-38 10zM285 242c-21-23-30-45-31-67-1-29-7-58-39-96 17 14 37 29 54 44 40 37 35 58 56 94v1c-5 2-11 5-16 8-8 5-16 10-24 16m-10 7c-22-33-55-39-72-47 3 26 6 59 40 78 1-1 3-2 5-2 8-10 17-19 27-28zm287 355c21 24 29 45 30 67 2 30 7 59 40 96-18-13-38-28-55-44-39-36-35-58-56-93l1-1c5-3 10-5 15-8 9-5 17-11 25-16zm9-7c23 34 55 40 72 48-3-27-5-59-39-78-2 0-3 1-5 2q-12 15-27 27zm-329-35c-23 21-45 29-67 30-29 2-58 7-96 40 14-18 29-38 44-55 37-39 58-35 94-56l1 1c2 5 5 10 8 15 5 9 10 17 16 25m7 9c-33 23-39 55-47 72 26-3 59-5 78-39-1-2-2-3-2-5-10-8-19-17-28-27zm145-374c-6-31-3-53 7-73 14-26 23-54 14-103 8 21 18 43 25 66 16 51 1 67 2 109h-1c-6 0-12-1-18-1-10 0-19 1-29 2m-12 2c-2-41-28-62-38-78-11 25-25 54-6 88 2 0 4 0 6 1 12-5 24-8 37-11zm222 86c24-21 45-30 67-31 30-1 59-7 96-39-13 17-28 37-44 54-36 40-58 35-93 56h-1c-3-5-5-11-8-16-5-8-11-16-16-24zm-7-10c34-22 40-55 48-72-27 3-59 6-78 40 0 1 1 3 2 5q15 12 27 27zm37 236c30 10 48 24 60 43 16 25 35 47 82 63-22-3-47-6-69-11-53-11-60-32-96-53v-1c4-5 7-10 10-15 5-8 9-17 13-26m5-11c36 18 67 7 86 5-16-21-35-48-73-48-2 2-3 3-4 5-2 12-5 25-10 37zM336 634c-10 30-24 48-43 60-25 16-47 35-63 82 3-22 6-47 11-69 11-53 32-60 52-96h2c4 4 9 7 14 10 9 5 18 9 27 13m11 5c-18 36-7 67-6 86 22-16 49-35 49-73-2-2-4-3-5-4-12-2-25-5-37-10zM197 453c-31 6-53 3-73-7-26-14-54-24-103-14 21-8 43-18 66-25 51-17 67-2 109-2v1c0 6-1 11-1 17 0 10 1 20 2 30m2 12c-41 2-62 27-78 38 25 11 54 25 88 5 0-2 0-4 1-5-5-12-8-25-11-38m14-129c-30-10-48-24-60-43-16-25-35-47-82-63 22 3 46 6 69 11 52 11 59 32 95 52v2c-3 4-6 9-9 14-5 9-9 18-13 27m-5 11c-36-18-67-7-86-6 16 22 35 49 73 49 1-2 2-4 4-5 2-12 5-25 9-37zm442 47c30-6 53-3 73 7 26 14 54 23 102 14-20 8-43 18-65 25-51 16-68 1-109 2v-19c0-10 0-19-2-29zm-2-12c40-2 61-28 77-38-24-11-54-25-87-6 0 2-1 4-1 6 5 12 8 24 10 37zM511 213c10-30 24-48 43-60 25-16 47-35 63-82-3 22-6 46-11 69-11 52-32 59-53 95h-1l-15-9c-8-5-17-9-26-13m-11-5c18-36 7-67 5-86-21 16-48 35-48 73 2 1 3 2 5 4 12 2 25 5 37 9z" style="fill:#ffed00"/></svg>