<svg xmlns="http://www.w3.org/2000/svg" xml:space="preserve" width="32" height="32" style="shape-rendering:geometricPrecision;text-rendering:geometricPrecision;image-rendering:optimizeQuality;fill-rule:evenodd;clip-rule:evenodd" viewBox="0 0 847 847"><defs><style>.fil3{fill:#f9c390}.fil4{fill:#f6ac66}.fil2{fill:#e31e24}.fil5{fill:#ac6330}</style></defs><g id="Layer_x0020_1"><g id="_257137736"><path d="M0 0h847v847H0z" style="fill:none"/><path d="M789 49c-29 28-45 53-50 80-4 26 3 50 5 85 4 47-4 87-63 101 41 27 64 77 62 126v16h-17c-14-1-24-9-34-12-3 3-6 6-10 8 12-3 24-2 35 6 8 6 23 25 27 34 10 19 10 39 1 58-1 3-3 5-4 8 11-4 18-18 25-32 4-8 9-16 17-18l16-11 7 20c13 34-18 75-46 91l-2 2c29 9 50 32 53 79 3 37-10 69-42 89-83 50-188 55-282 42l-16-2 1-11c-26 19-61 24-94 21l-31-2 17-23c-62 40-163 20-219-29-25-22-43-40-58-71-38-76-44-188 35-227-78-17-76-142-1-175-28-19-36-56-28-105 9-53 7-89-31-128L35 40l143-1c26 0 77-5 97 14 4 4 8 10 10 17 15-68 74-52 146-52 86 0 109 9 114 65v-2c5-28 24-38 47-41 33-5 109-2 143 0 23 2 43 4 54 9M548 258c1 6 3 10 5 13-2-4-4-9-5-13m99 356s-1 0-2-1l-17-13 16-14c1 0 1 0 2-1-4-2-7-5-10-7s-6-5-8-8c-12 27-25 47-45 63 20-7 41-13 64-19M205 462c9 1 19 3 27 5-5-3-9-5-12-8l-5-5c-4 3-7 6-10 8m38-107c0-4-1-9-1-13-1-10-4-20-1-30-13 5-29 7-49 7h-3c4 12 4 26 3 38-1 2-1 4-1 8 6-11 14-22 34-19q12 1.5 18 9m43-98q-3 13.5-9 24c5-2 10-2 15-2-2-7-4-14-6-22m306 107c5 3 10 7 14 10 27 20 39 49 43 81v-13c1-21-3-46-21-60q-16.5-12-36-18m58 108v1l3-3zM404 663l-8-5c-1 1-1 1-2 1-14 8-29 11-45 7 6 3 13 6 21 10 6 3 15 4 22 6 0-1 0-2 1-3 2-7 6-12 11-16m125-291c-2 38-15 69-39 88 5-1 9-2 14-3l20-3c5-26 6-54 5-82M283 506c-2-5-5-10-11-15 4 5 8 9 11 15" style="fill:#682b1c;fill-opacity:.501961"/><path d="M494 679c4 24 8 43 8 67 0 39-12 49-13 58 93 13 193 8 271-40 20-12 38-34 35-72-7-80-70-76-137-63-76 16-116 39-164 50" class="fil2"/><path d="M138 314c-74 20-77 143-3 148 55 3 82-22 97-72 3-12 3-25-10-27-23-4-19 38-42 35-25-2 26-102-42-84M666 443c10-5 14-9 21-17 15 2 27 13 39 14 3-55-32-107-78-121-129-40-122 0-119-182 2-95 1-102-98-102s-131-15-132 69c-1 97-17 204 71 234 93 33 192-28 268 31 18 14 30 39 28 74" class="fil3"/><path d="M418 651c21 12 94 5 128-13 33-19 52-40 69-80 21-52 32-131-19-171-11-8-32-23-51-26 7 93-16 170-74 235-9 10-14 19-24 29-9 9-22 17-29 26" class="fil4"/><path d="M164 481C63 497 60 612 102 696c15 30 31 46 55 67 64 56 211 76 240-32 10-39-5-27-34-40-90-38-60-94-86-160-19-49-64-57-113-50" class="fil2"/><path d="M231 446c2 2 30 16 49 30 21 16 21 24 24 58 6 51 25 142 82 110 18-9 58-40 70-55 24-29 48-62 51-115-86 14-111 38-173-35-41-48-1-161-55-141-42 16-9 25-22 94-6 29-12 36-26 54" class="fil4"/><path d="M655 599c21 15 76 8 96-4 17-10 50-43 39-71-2 2-2-2-9 11-14 28-32 54-68 37 4-12 34-35 16-71-4-7-17-25-22-28-22-17-76 26-72 69 2 36 54 28 20 57" class="fil3"/><path d="M190 302h2c85 1 83-59 83-110 1-143 11-137-97-136L74 57c37 38 47 73 36 142-12 70 10 103 80 103" class="fil4"/><path d="M379 813c131 10 131-109 88-131-11-6-40-13-53-5-21 14 31 39-4 100-10 18-22 24-31 36" class="fil3"/><path d="M512 366c-51 7-83 17-142-6-12-5-28-15-39-17-11 47 16 106 79 117 68 11 100-30 102-94" class="fil4"/><path d="M383 191c-28-1-42-17-51-36 15 0 34-7 47 2 9 6 3 23 4 34M468 191c28-1 42-17 51-36-16 0-34-7-47 2-10 6-3 23-4 34" class="fil5"/><path d="M760 57c-36-2-75-1-111-1-35 0-81-8-87 27-5 34-3 77-2 111 0 39-1 70 23 90 23 18 59 23 93 15 88-21 37-108 46-168 3-16 7-29 14-42 4-6 8-12 12-17 5-6 9-9 12-15" class="fil4"/></g></g></svg>