<svg xmlns="http://www.w3.org/2000/svg" xml:space="preserve" width="32" height="32" style="shape-rendering:geometricPrecision;text-rendering:geometricPrecision;image-rendering:optimizeQuality;fill-rule:evenodd;clip-rule:evenodd" viewBox="0 0 847 847"><defs><style>.fil3{fill:#434242}.fil4{fill:#2b2a29}.fil5{fill:#e85222}</style></defs><g id="Layer_x0020_1"><g id="_250447384"><path d="M0 0h847v847H0z" style="fill:none"/><path d="M682 722c-3 5-6 10-10 14 8 7 10 18 4 28-10 14-31 13-44 6-10-5-16-12-19-20-18 4-46 2-68-7-1 2-2 3-3 4-4 4-8 6-13 6-32 13-65 15-98 9-26-3-60-4-86-2-49 4-129-8-108-78-22-3-44-4-63-17-47-33-36-68-23-109-6 8-10 16-16 23-1 1-1 2-2 4l2 1-2 15c0 4-1 9-1 13l1 11h-3c0 3-1 6-2 9-6 20-38 26-56 26-18 1-28-2-44-6-25-6-22-28-9-44 2-3 3-8 3-13l-6-3 9-8c2-7 6-13 16-17 9-15 20-44 26-56 19-43 45-74 86-67 3-9 8-18 16-24 1-1 1-2 2-3 0-1 1-2 2-4-3 0-7-1-11-2-7-2-15-2-22-3-15-4-26-16-26-30-11-7-16-12-20-29-2-10-5-20-5-30-1-13 0-27 12-35 13-9 29-9 41-18 9-7 19-20 25-30 2-3 0-23 3-32 6-17 19-33 37-38 4-5 6-10 10-14l6-7h4c7-4 13-10 19-15 3-8 9-16 18-23 13-11 26-19 40-29 21-17 56 2 45 32-3 9-7 17-10 26 3 2 7 5 10 8 12-10 22-23 35-32 17-12 43-2 44 20 2 22-4 44-14 64-4 5-7 11-11 15 1 2 3 5 4 6 8-2 17-4 25-5 34-3 72 14 52 50 28 11 49 35 53 65 103-11 235 18 271 131 3 11 8 22 13 33 6 14 4 27 5 42 15 30 16 65-2 95-7 11-17 22-29 29 4 13 2 27-5 40-13 22-33 29-57 30-17 0-34-3-51-5m-151-36c-3 1-6 1-10 1 1 0 2 1 2 2l3 3c2-2 3-4 5-6" style="fill:#682b1c;fill-opacity:.501961"/><path d="M433 745c-22-2-66-4-89-2-38 3-107-2-91-56 2-6 5-12 9-17-34-9-58-5-78-19-47-32-22-71-12-110 7-26 2-45 2-64 0-18 3-35 12-52 3-5 21-27 11-36-13 11-21 8-31 5-6-1-16-1-22-3-10-2-16-11-12-21-1-1-2-2-3-2-11-7-15-8-19-23-1-7-4-17-4-26-1-6-2-17 5-21 9-6 27-7 41-19 11-8 22-22 29-34 8-11 1-22 6-36 4-12 13-24 24-27s9-7 19-19c4 1 30-30 54-30 37 1 72 36 93 66 13 18 15 34 26 38 21-12 90-16 63 22-4 5-7 9-8 13 41 5 66 39 62 74 64-8 126-4 187 24 42 19 70 48 85 93 3 11 9 26 13 35 5 11 4 28 5 37l-1 3h1c15 27 14 57-1 81-8 13-23 27-38 31 1 2 2 3 3 5 6 7 10 18 1 34-8 14-21 20-43 21-19 0-40-4-61-6-17 0-44 4-46 2-8-16-32-37-50-38-3-3-1-10 3-12-50 24-88 9-98 9s-16-4-20-15c3 17-13 21-28 29 14 27 15 49 1 66m361-159q-7.5 15-18 27c-5 6-8 12-10 17 13-8 28-22 28-44" style="fill:#727271"/><path d="M174 470c-49-26-72 5-92 48-10 24-22 57-35 69l27 12 40 5c-1-8 2-29 7-36 12-13 17-28 31-41 7 3 15 3 22 8l25-21z" class="fil3"/><path d="M262 670c-34-9-58-5-78-19-18-13-25-26-27-40v-17c3-17 11-35 15-53 7-26 2-45 2-64 0-18 3-35 12-52 3-5 21-27 11-36 26-23 70 1 115-13 30-9 67-45 80-71 6 12 5 18 1 30-21 58-34 56-77 104-49 57-17 108-26 133-9 23 7 52-10 73-5 7-12 16-18 25" class="fil3"/><path d="M465 668c6-3 21 2 45 32 23 28 24 37 15 36-28 12-59 15-92 9 10-13 8-36-1-66zM574 667c-6 7-42 39-42 48 12 20 66 22 80 17 7-2 11-13 16-25-12-26-30-34-54-40" class="fil4"/><path d="M459 395c-1 25 5 51-1 75-9 31-25 55-35 74-10 20 37 18 59 19 40 1 54-2 93-10 22-4 56-25 78-30 22-6 44 7 65 13 13 4 21 1 21-10-1-13-1-54-7-88-8-37-16-69-54-81-52-17-105-19-158-11 2 25-27 57-61 49M203 459c-17 4-21 18-23 25-1 5-7 4-11 7-11 6 3 18 23 23h-1v9c0 6 5 10 10 10s9-4 9-10v-6c16 2 37 0 23-17-6-8 4-17-6-35-5 0-21-2-24-6" class="fil5"/><path d="M183 432c-7 24 30 14 42 11 36-6 73-22 101-42 40-30 55-54 66-96 8-2 17-3 25-4-18 57-38 90-78 118-27 19-64 36-111 47-74 18-64-26-45-34" class="fil5"/><path d="M47 583c-10 3-7 25-15 35-8 11-8 15 0 17 7 2 21 7 39 7 17-1 38-7 41-15 3-9 3-21 4-30zM272 152c11 5 33 7 44 0 5-3 4-8 5-14 3-14 7-20 12-34s-11-19-19-13c-15 11-26 18-39 29-15 12-19 24-3 32M353 161c18-11 24-23 41-35 5-4 17-3 17 7 1 19-3 38-12 54s-17 23-30 23c-8 0-20-3-29-11-8-7-14-16-8-25 5-6 12-8 21-13" class="fil4"/><path d="M247 300c-3 2-7 1-8-2-2-3-1-7 2-8 5-3 9-7 12-11 4-5 7-10 15-13 5-3 13-5 20-4 6 0 12 2 18 7 3 2 5 5 7 7 3 4 6 7 10 7 3 1 6 3 6 7-1 3-3 5-7 5-8-1-13-5-17-11-2-2-4-4-7-6-3-3-7-4-11-4-5-1-10 1-14 2v1c-5 2-8 6-11 9-4 5-8 10-15 14" style="fill:#2b2a29;fill-rule:nonzero"/><path d="M479 397c5 20 7 39 2 62-6 22-10 45-19 66-5 11-2 14 6 14 48 3 85-2 130-20 26-10 52-29 80-25 9 2 18 6 27 7 7 0 8-5 8-11-7-52-16-97-40-134-7-1-12-5-19-6 20 17 41 75 42 130-8 0-18-1-26-1-29 0-51 18-78 27-33 11-73 25-110 16 5-19 14-42 18-61 6-26 1-50-3-71-7 4-10 5-18 7" style="fill:#ea9721"/><path d="M280 264c10 0 19 8 19 19 0 10-9 18-19 18s-19-8-19-18c0-11 9-19 19-19" class="fil4"/><path d="M432 679c-41 7-72-11-117 6 6-12 15-27 27-32 23-10 42 1 65-8 17-6 32-17 39-39-2 7 1 13 5 19 22-7 70 7 97-1 43-13 56-35 85-74-4 16-3 32 2 46 10 27 34 38 46 59-36-24-70-32-103 1-30 16-59 16-90 10-7-2-13-1-18-3-3-1-6-4-10-7 1 4 1 7-2 10-7 6-21 12-26 13" class="fil3"/><path d="M662 633c-9-8-8-12-20-8-18 5-20 16-18 30 6 31 16 33 6 68-5 15-2 27 9 32 6 3 18 6 22 0 2-3 1-8-5-9-9-1-10-6-5-11 53-52-1-89 11-102" class="fil4"/><path d="M375 279c22-16-4-24 53-31 15-1 26 4 7 16-7 4-16 8-22 10-15 5-24 10-38 5M164 315c-7 0-10 10 1 11 0 2-2 3-4 3-6 0-9 3-10 7-2 10 15 16 21 5 3-3 5-9 4-14-1-7-5-13-12-12" class="fil3"/></g></g></svg>