<svg xmlns="http://www.w3.org/2000/svg" xml:space="preserve" width="32" height="32" style="shape-rendering:geometricPrecision;text-rendering:geometricPrecision;image-rendering:optimizeQuality;fill-rule:evenodd;clip-rule:evenodd" viewBox="0 0 847 847"><defs><style>.fil3{fill:#f9c390}.fil4{fill:#f6ac66}.fil2{fill:#e31e24}.fil5{fill:#ac6330}</style></defs><g id="Layer_x0020_1"><g id="_253993664"><path d="M0 0h847v847H0z" style="fill:none"/><path d="M479 141v-2c8-46 61-38 95-38h42c6-48 44-88 93-96l17-3 3 16c6 35 36 60 72 60 6 0 11 0 17-2l16-4 4 16c3 10 4 19 4 29 0 62-51 113-114 113-27 0-53-10-72-26 0 11 2 23 3 33 7 54 8 102-56 118 38 24 59 70 58 114l-1 16-15-1c-13 0-22-7-31-11-3 3-6 6-10 8 11-3 23-2 33 5 7 5 20 24 24 32 9 17 10 35 1 53-1 2-2 5-4 7 11-4 17-17 24-29 3-7 7-15 15-17l14-10 7 19c12 31-17 68-42 83-1 1-1 1-2 1 26 9 46 30 49 73 3 34-10 63-39 82-76 46-172 50-258 38l-15-2 1-9c-24 17-56 21-87 19l-27-2 15-21c-57 36-150 18-201-27-23-20-39-37-53-65-35-70-41-172 32-208-71-16-70-130-1-160-26-18-33-52-26-97 8-49 7-81-28-118l-25-26 131-1c24 0 71-4 90 14 3 3 6 8 9 14 13-62 67-47 134-47 78 0 99 8 104 59m3 161c1 5 2 9 4 12-2-4-3-8-4-12m91 327c-1-1-2-1-2-1l-16-12 15-13 1-1-9-6c-3-2-5-5-7-8-11 24-23 43-42 58 19-6 38-12 60-17M167 489c9 1 17 3 25 5-4-3-8-5-11-8l-5-4c-3 3-6 5-9 7m35-98c0-4-1-8-1-12-1-9-3-19-1-28-12 5-27 7-45 7h-3c4 11 4 24 3 35 0 2-1 4-1 7 5-10 13-20 31-17 8 1 13 4 17 8m39-90c-2 8-4 16-8 22 4-1 9-2 14-2-2-6-4-13-6-20m281 98c5 3 9 6 13 9 24 19 36 46 39 74v-11c1-20-3-43-19-55-10-8-21-13-33-17m53 99v1l3-3zM350 674l-8-5c-1 0-1 1-1 1-13 7-27 10-42 6 6 3 12 6 19 9 6 3 14 4 21 6v-3c2-6 6-11 11-14m114-268c-2 35-14 64-35 81 4-1 8-2 12-2l18-4c5-24 6-49 5-75M239 529c-2-4-5-9-11-13 4 4 8 8 11 13" style="fill:#682b1c;fill-opacity:.501961"/><path d="M432 688c4 22 8 39 7 62 0 36-11 44-11 53 84 11 177 7 248-37 19-11 34-31 32-66-6-73-64-70-125-57-70 14-107 35-151 45" class="fil2"/><path d="M106 354c-68 18-71 130-3 135 51 3 75-20 88-66 4-11 4-23-8-25-22-3-18 35-39 33-23-3 24-94-38-77M590 472c8-5 12-8 19-16 14 2 24 12 36 13 2-51-30-99-72-111-118-37-111 0-109-167 2-87 1-93-90-93s-120-14-121 63c-1 88-15 187 65 215 86 29 176-26 246 28 17 12 28 36 26 68" class="fil3"/><path d="M363 663c19 10 86 4 116-13 31-17 49-36 64-73 20-48 29-120-18-156-9-8-29-22-46-24 6 85-15 155-68 215-8 9-13 17-22 26-8 9-20 16-26 25" class="fil4"/><path d="M130 507c-93 15-96 120-57 197 13 27 28 42 50 61 59 52 194 69 220-30 9-35-5-24-31-36-83-35-55-86-79-147-17-44-59-52-103-45" class="fil2"/><path d="M191 474c2 2 28 15 45 28 19 14 19 22 22 53 5 47 23 130 75 101 16-9 53-37 64-51 22-26 44-56 47-105-79 13-102 35-159-32-37-44-1-148-50-129-39 15-9 23-20 85-5 27-11 34-24 50" class="fil4"/><path d="M580 615c19 14 69 7 88-4 15-9 45-40 36-65-2 2-2-2-9 10-13 26-29 50-62 34 3-11 31-33 14-65-3-7-15-23-20-26-20-15-69 24-66 64 2 33 50 25 19 52" class="fil3"/><path d="M153 343h2c78 0 76-55 76-102 1-130 11-125-89-124l-95 1c33 34 43 67 33 130-11 64 9 94 73 95" class="fil4"/><path d="M327 810c120 10 120-99 80-119-9-6-37-13-48-5-20 13 28 36-4 92-9 16-21 22-28 32" class="fil3"/><path d="M449 401c-47 7-76 16-131-6-11-4-25-13-35-15-11 43 14 97 72 107 62 10 92-28 94-86" class="fil4"/><path d="M330 241c-26-1-38-16-47-34 15 1 32-6 44 2 8 6 2 21 3 32M408 241c26-1 38-16 47-34-14 1-32-6-43 2-9 6-3 21-4 32" class="fil5"/><path d="M822 93q3 10.5 3 24c0 53-43 96-97 96-27 0-52-11-69-29 2-10 5-19 10-28 2-5 5-9 8-13 5-6 10-10 14-16l15-25-29-1c-15-1-29-1-44-1 7-40 39-72 79-79 8 42 45 74 89 74 7 0 14-1 21-2" style="fill:#fefefe"/><path d="M676 118c-33-2-68-1-102-1-32 0-74-7-80 25-4 30-2 70-2 102 1 35 0 63 22 82 20 17 54 21 85 14 81-19 34-100 42-154 2-15 6-27 13-39 4-6 7-11 11-15 5-6 8-8 11-14" class="fil4"/></g></g></svg>