<svg xmlns="http://www.w3.org/2000/svg" xml:space="preserve" width="32" height="32" style="shape-rendering:geometricPrecision;text-rendering:geometricPrecision;image-rendering:optimizeQuality;fill-rule:evenodd;clip-rule:evenodd" viewBox="0 0 847 847"><defs><style>.fil4{fill:#fefefe}</style></defs><g id="Layer_x0020_1"><g id="_472621296"><path d="M0 0h847v847H0z" style="fill:none"/><path d="M511 590c57 15 70 50 121 64 5 1 9 2 14 4 16 4 28 7 32 19 1 4 1 6 1 10v77c0 83-645 83-645 0l1-87c4-11 31-19 46-23 51-14 64-49 121-64-5-12-3-26 5-36-20-9-30-24-31-56-18-11-52-52-62-54-56-7-75-26-75-86 1-25 1-38 3-47 8-25 36-35 72-41 31-4 72-7 118-9V131c0-148 234-148 234 0v130l116 9 55 3h124c46 0 53 22 51 60l-1 160c0 6-4 9-9 9h-53c-5 0-8-4-8-9v-79h-95c-12 20-28 21-47 28-20 7-40 42-62 55-1 32-10 48-31 57 8 10 10 24 5 36" style="fill:#3e3c4d;fill-rule:nonzero"/><path d="M661 662v1h2c4 2 9 6 14 13l1 1c1 4 1 6 1 10v77c0 83-645 83-645 0l1-87c1-4 6-8 12-11 112 52 436 45 584 19 22-4 40-13 30-23" style="fill:#5f5e6e;fill-rule:nonzero"/><path d="M69 432c-22-13-30-34-30-74 1-25 1-38 3-47 2-4 3-8 6-11 1 0 2-1 3-1 11 69 411 53 560 27 47-9 12-22 46-22h128c4 0 13-5 23-9 4 10 5 23 4 38l-1 160c0 6-4 9-9 9h-53c-5 0-8-4-8-9v-79h-95c-1 42-178 60-310 59-34-1-222-16-267-41" style="fill:#5b596a;fill-rule:nonzero"/><rect width="135.856" height="23.36" x="281" y="141" class="fil4" rx="17" ry="12"/><rect width="135.856" height="23.36" x="281" y="181" class="fil4" rx="17" ry="12"/><rect width="135.856" height="23.36" x="281" y="221" class="fil4" rx="17" ry="12"/><circle cx="349" cy="193" r="23" style="fill:#e31e24"/></g></g></svg>