<svg xmlns="http://www.w3.org/2000/svg" xml:space="preserve" width="32" height="32" style="shape-rendering:geometricPrecision;text-rendering:geometricPrecision;image-rendering:optimizeQuality;fill-rule:evenodd;clip-rule:evenodd" viewBox="0 0 847 847"><defs><style>.fil3,.fil5{fill:#b03602;fill-rule:nonzero}.fil3{fill:#e87e15}</style></defs><g id="Layer_x0020_1"><g id="_258974352"><path d="M0 0h847v847H0z" style="fill:none"/><path d="M109 473c2-2 3-5 5-7 4-5 10-9 16-14 14-9 33-17 55-24 23-8 51-15 81-20l54-9c14-1 28-3 42-4-8-57 12-118 32-181 19-59 38-121 34-182 0-6 4-10 10-11 4 0 9 3 10 8 23 79 47 165 51 248 2 41-1 81-10 118 13 1 26 3 39 5 18 2 35 5 53 8 30 5 57 12 81 20 22 7 41 15 54 24l1 1c6 4 12 9 16 13 2 2 3 5 5 7 11 12 19 26 22 40v1c4 16 3 33-3 45-2 4-5 8-7 11-3 3-6 5-9 8-18 68-56 116-106 149 3 2 6 4 9 7 5 4 8 10 10 16 2 7 2 14-1 21s-8 14-17 19h-1c-41 24-126 36-212 36-85 0-172-12-213-36-8-5-14-12-16-19-3-7-3-14-1-21 2-6 5-12 10-16 2-3 5-5 9-7-50-33-88-81-107-149l-8-8c-2-3-5-6-6-10l-1-1c-6-12-8-29-4-45 4-15 11-29 23-41" style="fill:#682b1c;fill-opacity:.501961"/><path d="M413 220c-30 95-59 185 11 261q12-15 21-30v-1l1-2h1l1-2v-1l1-2v-1h1c25-49 32-105 29-164-3-61-17-124-33-185-6 43-20 86-33 127" style="fill:#e31e24;fill-rule:nonzero"/><path d="M483 415c-5 13-10 25-16 37 60 3 118 10 162 22 38 10 67 24 80 43l3-2c3-3 6-5 8-8 2-2 3-4 4-7 0-1 1-3 1-5 0-1-1-3-1-5-1-2-1-4-3-5v-1c-1-2-2-3-3-5-3-3-7-7-12-10h-1c-12-8-29-16-50-22-22-8-49-14-78-19-17-4-34-6-51-9-15-1-29-3-43-4M379 453c-6-13-11-25-14-38-14 1-28 2-43 4-17 2-35 5-53 9-29 5-55 11-78 19-21 6-38 14-50 22-5 3-9 7-12 10-1 2-2 3-3 5l-1 1c-1 1-2 3-2 5-1 2-1 3-1 5s0 4 1 5c1 3 2 5 4 7 2 3 5 5 8 8l3 2c13-19 42-33 80-43 44-12 101-19 161-21M613 740c-54 28-120 41-190 41-69 0-135-13-189-41-2 2-4 3-7 3-4 0-7 2-10 5-2 2-4 5-5 8-1 2-1 5 0 8 2 3 4 6 9 9 37 22 119 33 202 33s165-11 202-33h1c5-3 7-6 8-9s1-6 1-8c-1-3-3-6-5-8-3-3-6-5-10-5-3 0-5-1-7-3" class="fil3"/><path d="M716 592c-27 11-63 15-102 14-57-2-120-17-164-39-10-5-19-10-27-16-8 6-16 11-26 16-44 22-107 37-165 39-38 1-74-3-101-14 18 53 51 92 93 119 54 35 124 50 199 50s146-15 200-50c42-27 74-66 93-119" style="fill:#f93;fill-rule:nonzero"/><path d="M407 492c-6-7-11-13-16-20-62 2-123 9-168 21-32 9-57 20-67 33 8 3 17 5 28 7 15 2 32 3 52 3 13-1 28-2 42-5 16-3 32-6 47-11 17-4 33-9 47-15 13-4 25-9 35-13M691 526c-11-13-35-24-67-33-46-12-106-19-169-21-4 7-9 14-14 20 11 5 22 9 33 13 16 6 32 11 47 15 16 5 32 8 48 11 14 3 28 4 42 5 20 0 37-1 52-3 10-2 20-4 28-7" class="fil5"/><path d="M137 539c-3-1-5-2-7-4-3-1-5-3-7-4-5-4-8-7-11-11-2-2-4-4-5-7 0 2-1 4-1 5-3 12-2 24 2 32v1c1 2 3 4 4 6 2 2 5 5 8 7l1 1c22 16 64 22 111 21 54-2 114-16 156-37 11-6 21-12 29-19 4-3 9-3 13 0 8 7 18 13 29 19 42 21 102 35 156 37 47 1 89-5 111-21 0-1 1-1 1-1 3-2 5-5 7-7s4-4 5-7c4-8 5-20 2-32-1-2-1-3-1-5-2 3-3 5-5 7-3 4-7 7-11 11-2 1-5 3-7 4-2 2-5 3-7 4-12 6-27 11-44 13-16 3-35 4-56 4-14-1-30-3-44-5-17-3-34-7-50-11-16-5-33-10-49-16-15-5-29-11-44-18-11 6-27 12-44 18-15 5-31 11-48 16-16 4-33 8-50 11-15 2-30 4-45 5-21 0-39-1-55-4-18-2-32-7-44-13" style="fill:#fab673;fill-rule:nonzero"/><path d="M434 414c6-8 12-17 17-26l1-2 1-2h1v-2h1v-1c44-85 17-194-9-288-13 118-95 231-12 321" style="fill:#ffed00;fill-rule:nonzero"/></g></g></svg>